<?xml version="1.0" encoding="UTF-8"?>
<svg width="210px" height="20px" viewBox="0 0 210 20" version="1.1" xmlns="http://www.w3.org/2000/svg" xmlns:xlink="http://www.w3.org/1999/xlink">
    <!-- Generator: Sketch 52.5 (67469) - http://www.bohemiancoding.com/sketch -->
    <title>star_alliance_20height</title>
    <desc>Created with Sketch.</desc>
    <g id="Page-1" stroke="none" stroke-width="1" fill="none" fill-rule="evenodd">
        <g id="star_alliance_20height">
            <path d="M187.921754,5.63614035 C188.662105,4.60947368 189.485614,3.62105263 190.388772,2.68210526 C191.298947,1.74175439 192.261053,0.881052632 193.264561,0.10245614 L192.189825,4.41192982 L187.921754,5.63614035" id="Fill-1" fill="#CBCCCB"></path>
            <path d="M195.383509,7.49578947 C194.12386,7.36842105 192.85614,7.15052632 191.592281,6.83508772 C190.323158,6.51859649 189.097895,6.11719298 187.921754,5.63614035 L192.189825,4.41192982 L195.383509,7.49578947" id="Fill-2" fill="#4D4E4C"></path>
            <path d="M193.264561,0.105263158 C193.782456,1.25929825 194.226667,2.46561404 194.587018,3.71824561 C194.947719,4.97684211 195.213333,6.23754386 195.383509,7.49859649 L192.189825,4.41192982 L193.264561,0.105263158" id="Fill-3" fill="#8A8B8A"></path>
            <path d="M186.414035,14.4915789 C185.665614,13.4691228 184.980351,12.3807018 184.369123,11.2322807 C183.755088,10.0768421 183.234386,8.89649123 182.80386,7.7 L186.569123,10.0533333 L186.414035,14.4915789" id="Fill-4" fill="#8A8B8A"></path>
            <path d="M190.490175,7.97017544 C189.977895,9.12982456 189.38,10.2673684 188.689474,11.3719298 C187.995789,12.4821053 187.235088,13.5210526 186.414035,14.4915789 L186.569123,10.0533333 L190.490175,7.97017544" id="Fill-5" fill="#4D4E4C"></path>
            <path d="M182.80386,7.70140351 C184.063509,7.5645614 185.347719,7.51508772 186.651228,7.55894737 C187.957544,7.60561404 189.240351,7.74245614 190.490175,7.97017544 L186.569123,10.0533333 L182.80386,7.70140351" id="Fill-6" fill="#CBCCCB"></path>
            <path d="M194.370526,18.6621053 C193.167018,19.0582456 191.921404,19.3736842 190.636842,19.5996491 C189.349825,19.8259649 188.067018,19.9575439 186.796491,19.997193 L190.198246,17.1435088 L194.370526,18.6621053" id="Fill-7" fill="#4D4E4C"></path>
            <path d="M189.426667,12.7712281 C190.371228,13.614386 191.268772,14.5354386 192.106316,15.5357895 C192.946316,16.5364912 193.701754,17.5807018 194.370526,18.6621053 L190.198246,17.1435088 L189.426667,12.7712281" id="Fill-8" fill="#8A8B8A"></path>
            <path d="M186.796491,19.997193 C187.055439,18.7568421 187.40386,17.5207018 187.85193,16.2950877 C188.298596,15.0645614 188.826316,13.8898246 189.429474,12.7701754 L190.198246,17.1435088 L186.796491,19.997193" id="Fill-9" fill="#CBCCCB"></path>
            <path d="M200.794737,12.3835088 C200.8,13.6498246 200.715088,14.9329825 200.534035,16.2238596 C200.350526,17.5178947 200.079298,18.78 199.724211,20 L198.061754,15.8814035 L200.794737,12.3835088" id="Fill-10" fill="#8A8B8A"></path>
            <path d="M193.664561,15.2645614 C194.758596,14.6270175 195.912632,14.0582456 197.121404,13.5705263 C198.332982,13.0796491 199.561053,12.6849123 200.79614,12.3835088 L198.061754,15.8814035 L193.664561,15.2645614" id="Fill-11" fill="#CBCCCB"></path>
            <path d="M199.724211,19.9985965 C198.624912,19.3708772 197.555789,18.6554386 196.529123,17.8522807 C195.498596,17.0477193 194.541754,16.18 193.664561,15.2645614 L198.061754,15.8814035 L199.724211,19.9985965" id="Fill-12" fill="#4D4E4C"></path>
            <path d="M196.810175,4.33403509 C198.015088,4.72035088 199.210175,5.19859649 200.380702,5.76877193 C201.556842,6.34175439 202.672281,6.99017544 203.722105,7.70561404 L199.292281,8.01403509 L196.810175,4.33403509" id="Fill-13" fill="#8A8B8A"></path>
            <path d="M197.346316,12.0052632 C197.077544,10.7663158 196.893684,9.49438596 196.803509,8.19473684 C196.712982,6.89017544 196.715789,5.60035088 196.810175,4.33263158 L199.292281,8.01403509 L197.346316,12.0052632" id="Fill-14" fill="#CBCCCB"></path>
            <path d="M203.722105,7.70561404 C202.782105,8.5554386 201.773333,9.35157895 200.693333,10.0807018 C199.607719,10.8126316 198.489123,11.4529825 197.346316,12.0052632 L199.292281,8.01403509 L203.722105,7.70561404" id="Fill-15" fill="#4D4E4C"></path>
            <path d="M2.30526316,11.8305263 C2.48491228,11.4417544 3.67192982,8.83754386 3.91157895,8.30526316 C4.15649123,8.83754386 5.35157895,11.4417544 5.52982456,11.8305263 C5.10631579,11.8305263 2.72631579,11.8305263 2.30526316,11.8305263 Z M4.2845614,7.23614035 L3.55052632,7.23614035 L0,14.9589474 L0.872280702,14.9589474 C0.872280702,14.9589474 1.88807018,12.754386 1.97017544,12.5740351 C2.16912281,12.5740351 5.66070175,12.5740351 5.85929825,12.5740351 C5.94421053,12.7568421 6.94561404,14.9589474 6.94561404,14.9589474 L7.83789474,14.9589474 L4.2845614,7.23614035 Z" id="Fill-16" fill="#1A1919" fill-rule="nonzero"></path>
            <path d="M95.334386,11.1073684 C95.334386,13.5463158 97.0301754,15.122807 99.5221053,15.122807 C101.842807,15.122807 103.246316,13.5561404 103.432632,12.0052632 L103.45614,11.8168421 L102.617895,11.8168421 L102.592632,11.9564912 C102.327368,13.4442105 101.149825,14.3673684 99.5221053,14.3673684 C97.1207018,14.3673684 96.1621053,12.6810526 96.1621053,11.1021053 C96.1621053,9.17298246 97.5547368,7.82491228 99.5519298,7.82491228 C101.072982,7.82491228 102.166667,8.55052632 102.477895,9.76701754 L102.510526,9.89578947 L103.347018,9.89578947 L103.3,9.68877193 C102.920351,8.02491228 101.554035,7.06877193 99.5519298,7.06877193 C96.7140351,7.06877193 95.334386,9.16245614 95.334386,11.1073684 Z M105.416842,7.23333333 L105.416842,14.9589474 L111.649825,14.9589474 L111.649825,14.2035088 C111.649825,14.2035088 106.533333,14.2035088 106.216842,14.2035088 C106.216842,13.917193 106.216842,11.6214035 106.216842,11.3350877 C106.532281,11.3350877 111.372281,11.3350877 111.372281,11.3350877 L111.372281,10.5919298 C111.372281,10.5919298 106.532281,10.5919298 106.216842,10.5919298 C106.216842,10.3098246 106.216842,8.2722807 106.216842,7.98947368 C106.533333,7.98947368 111.587368,7.98947368 111.587368,7.98947368 L111.587368,7.23333333 L105.416842,7.23333333 Z M92.2996491,7.23333333 C92.2996491,7.23333333 92.2996491,12.8733333 92.2996491,13.68 C91.8021053,13.0775439 86.7059649,7.23333333 86.7059649,7.23333333 L85.9035088,7.23333333 L85.9035088,14.9589474 L86.6947368,14.9589474 C86.6947368,14.9589474 86.6947368,9.28315789 86.6947368,8.5122807 C87.1919298,9.11403509 92.2880702,14.9589474 92.2880702,14.9589474 L93.0908772,14.9589474 L93.0908772,7.23333333 L92.2996491,7.23333333 Z M73.4003509,14.9589474 L74.1954386,14.9589474 L74.1954386,7.23333333 L73.4003509,7.23333333 L73.4003509,14.9589474 Z M66.1768421,7.23333333 L66.1768421,14.9589474 L71.7329825,14.9589474 L71.7329825,14.2035088 C71.7329825,14.2035088 67.2950877,14.2035088 66.9810526,14.2035088 C66.9810526,13.8814035 66.9810526,7.23333333 66.9810526,7.23333333 L66.1768421,7.23333333 Z M58.8880702,7.23333333 L58.8880702,14.9589474 L64.4550877,14.9589474 L64.4550877,14.2035088 C64.4550877,14.2035088 60.0077193,14.2035088 59.6922807,14.2035088 C59.6922807,13.8814035 59.6922807,7.23333333 59.6922807,7.23333333 L58.8880702,7.23333333 Z M80.0726316,8.30245614 C80.3147368,8.83508772 81.5031579,11.4424561 81.6785965,11.8291228 C81.2585965,11.8291228 78.8775439,11.8291228 78.4568421,11.8291228 C78.6336842,11.4417544 79.8298246,8.83508772 80.0726316,8.30245614 Z M79.7,7.23333333 L76.1477193,14.9589474 L77.0329825,14.9589474 C77.0329825,14.9589474 78.0368421,12.754386 78.12,12.5719298 C78.3207018,12.5719298 81.8108772,12.5719298 82.0108772,12.5719298 C82.094386,12.754386 83.1091228,14.9589474 83.1091228,14.9589474 L83.9877193,14.9589474 L80.4473684,7.23333333 L79.7,7.23333333 Z M53.0098246,8.30245614 C53.2519298,8.83508772 54.4385965,11.4424561 54.6157895,11.8291228 C54.1950877,11.8291228 51.8150877,11.8291228 51.3933333,11.8291228 C51.5708772,11.4417544 52.765614,8.83508772 53.0098246,8.30245614 Z M52.6368421,7.23333333 L49.0845614,14.9589474 L49.9705263,14.9589474 C49.9705263,14.9589474 50.9729825,12.754386 51.0564912,12.5719298 C51.257193,12.5719298 54.7470175,12.5719298 54.9470175,12.5719298 C55.0308772,12.754386 56.045614,14.9589474 56.045614,14.9589474 L56.9231579,14.9589474 L53.3842105,7.23333333 L52.6368421,7.23333333 Z M40.8361404,7.98947368 C42.0561404,7.98947368 42.6494737,8.42912281 42.6494737,9.33438596 C42.6494737,10.3508772 42.0182456,10.8449123 40.7217544,10.8449123 C40.7217544,10.8449123 37.9607018,10.8449123 37.6575439,10.8449123 C37.6575439,10.5578947 37.6575439,8.27649123 37.6575439,7.98947368 C37.9617544,7.98947368 40.8361404,7.98947368 40.8361404,7.98947368 Z M36.8533333,7.23333333 L36.8533333,14.9589474 L37.6575439,14.9589474 C37.6575439,14.9589474 37.6575439,11.9052632 37.6575439,11.6003509 C37.9610526,11.6003509 40.7866667,11.6003509 40.7866667,11.6003509 C42.1635088,11.6003509 42.4870175,11.8764912 42.5224561,13.077193 C42.5512281,14.3319298 42.6077193,14.7438596 42.7747368,14.9094737 L42.8245614,14.9589474 L43.654386,14.9589474 L43.5242105,14.7101754 C43.3982456,14.4701754 43.3529825,13.9912281 43.3410526,12.7424561 C43.3294737,11.9778947 42.9108772,11.4207018 42.2466667,11.1764912 C43.1129825,10.7880702 43.4680702,10.0042105 43.4680702,9.35929825 C43.4680702,7.92912281 42.5947368,7.23333333 40.7985965,7.23333333 L36.8533333,7.23333333 Z M30.9614035,8.30245614 C31.2052632,8.83508772 32.4007018,11.4417544 32.5785965,11.8291228 C32.1564912,11.8291228 29.7761404,11.8291228 29.3557895,11.8291228 C29.5315789,11.4424561 30.7189474,8.83508772 30.9614035,8.30245614 Z M30.6003509,7.23333333 L27.0477193,14.9589474 L27.9207018,14.9589474 C27.9207018,14.9589474 28.9361404,12.754386 29.0196491,12.5719298 C29.2189474,12.5719298 32.7094737,12.5719298 32.9101754,12.5719298 C32.9933333,12.754386 33.9957895,14.9589474 33.9957895,14.9589474 L34.8873684,14.9589474 L31.3347368,7.23333333 L30.6003509,7.23333333 Z M20.3147368,7.23333333 L20.3147368,7.98947368 C20.3147368,7.98947368 23.0052632,7.98947368 23.3063158,7.98947368 C23.3063158,8.31087719 23.3063158,14.9589474 23.3063158,14.9589474 L24.1010526,14.9589474 C24.1010526,14.9589474 24.1010526,8.31087719 24.1010526,7.98947368 C24.4024561,7.98947368 27.0926316,7.98947368 27.0926316,7.98947368 L27.0926316,7.23333333 L20.3147368,7.23333333 Z M12.4112281,12.4224561 C12.4112281,13.1880702 12.6368421,13.7519298 13.0849123,14.2017544 C13.6785965,14.8007018 14.7389474,15.102807 16.0673684,15.102807 C16.8129825,15.102807 19.3624561,14.9396491 19.3624561,12.822807 C19.3624561,10.96 17.6631579,10.7887719 16.1635088,10.637193 L16.1635088,10.6364912 C14.6168421,10.4810526 13.4733333,10.3105263 13.4733333,9.25929825 C13.4733333,8.73754386 13.7417544,8.35929825 14.2936842,8.10596491 C14.8621053,7.84385965 15.4754386,7.80491228 16.1112281,7.80491228 C16.6014035,7.80491228 17.5,7.88105263 18.0063158,8.38736842 C18.2410526,8.62175439 18.3603509,8.99614035 18.3603509,9.3645614 L19.1396491,9.37368421 C19.1396491,8.8077193 18.9592982,8.23614035 18.6017544,7.87824561 C17.9491228,7.22526316 16.8529825,7.08947368 16.0480702,7.08947368 C14.9417544,7.08947368 13.8515789,7.32666667 13.1814035,7.99614035 C12.8319298,8.34631579 12.6554386,8.77122807 12.6554386,9.25929825 C12.6554386,11.0814035 14.5105263,11.2308772 15.9666667,11.3617544 C16.6564912,11.4235088 17.3073684,11.4824561 17.7898246,11.6940351 C18.3007018,11.9161404 18.5396491,12.2870175 18.5396491,12.857193 C18.5396491,13.2196491 18.4189474,13.5238596 18.1810526,13.7610526 C17.6161404,14.3263158 16.4435088,14.3873684 16.0164912,14.3873684 C14.9649123,14.3873684 14.1185965,14.1596491 13.6705263,13.7115789 C13.3473684,13.3880702 13.1814035,12.9887719 13.1778947,12.4217544 L12.4112281,12.4224561 Z" id="Fill-17" fill="#1A1919" fill-rule="nonzero"></path>
            <polyline id="Fill-18" fill="#1A1919" points="125.495439 7.20350877 126.625614 7.20350877 126.625614 14.9638596 125.837895 14.9638596 125.837895 8.25859649 125.810877 8.25859649 122.392632 14.9638596 121.649123 14.9638596 118.240702 8.2522807 118.221404 8.2522807 118.221404 14.9638596 117.425614 14.9638596 117.425614 7.20350877 118.59193 7.20350877 122.045614 13.9519298 125.495439 7.20350877"></polyline>
            <path d="M129.475088,7.24491228 L129.475088,14.974386 L135.716491,14.974386 L135.716491,14.2147368 C135.716491,14.2147368 130.597544,14.2147368 130.281053,14.2147368 C130.281053,13.9284211 130.281053,11.634386 130.281053,11.345614 C130.59614,11.345614 135.440351,11.345614 135.440351,11.345614 L135.440351,10.6059649 C135.440351,10.6059649 130.59614,10.6059649 130.281053,10.6059649 C130.281053,10.3242105 130.281053,8.28070175 130.281053,7.99964912 C130.59614,7.99964912 135.655439,7.99964912 135.655439,7.99964912 L135.655439,7.24491228 L129.475088,7.24491228" id="Fill-19" fill="#1A1919"></path>
            <polyline id="Fill-20" fill="#1A1919" points="146.225614 7.20631579 147.359649 7.20631579 147.359649 14.9691228 146.56807 14.9691228 146.56807 8.26877193 146.543158 8.26877193 143.121404 14.9691228 142.382807 14.9691228 138.970526 8.25438596 138.949825 8.25438596 138.949825 14.9691228 138.156491 14.9691228 138.156491 7.20631579 139.319298 7.20631579 142.775439 13.954386 146.225614 7.20631579"></polyline>
            <path d="M151.026667,11.3185965 L154.589474,11.3185965 C155.518947,11.3185965 156.215789,11.634386 156.215789,12.7568421 C156.215789,13.8185965 155.430526,14.2319298 154.394737,14.2319298 L151.026667,14.2319298 L151.026667,11.3185965 Z M150.232281,14.9589474 L154.521754,14.9589474 C155.711579,14.9589474 157.070877,14.3757895 157.070877,12.7568421 C157.070877,11.7642105 156.458246,11.0231579 155.442105,10.8663158 L155.442105,10.8466667 C156.361053,10.6263158 156.769123,9.92947368 156.769123,9.17894737 C156.769123,8.0722807 156.137895,7.22736842 154.624561,7.22736842 L150.232281,7.22736842 L150.232281,14.9589474 Z M151.026667,7.95684211 L154.470175,7.95684211 C155.345965,7.95684211 155.973333,8.25859649 155.973333,9.20842105 C155.973333,10.2452632 155.281404,10.5901754 154.201754,10.5901754 L151.026667,10.5901754 L151.026667,7.95684211 Z" id="Fill-21" fill="#1A1919" fill-rule="nonzero"></path>
            <path d="M159.597193,7.23894737 L159.597193,14.9638596 L165.83614,14.9638596 L165.83614,14.205614 C165.83614,14.205614 160.719649,14.205614 160.396842,14.205614 C160.396842,13.9207018 160.396842,11.6242105 160.396842,11.3364912 C160.714035,11.3364912 165.558596,11.3364912 165.558596,11.3364912 L165.558596,10.5950877 C165.558596,10.5950877 160.714035,10.5950877 160.396842,10.5950877 C160.396842,10.3126316 160.396842,8.27684211 160.396842,7.99157895 C160.714035,7.99157895 165.770877,7.99157895 165.770877,7.99157895 L165.770877,7.23894737 L159.597193,7.23894737" id="Fill-22" fill="#1A1919"></path>
            <path d="M172.132982,10.8466667 C172.132982,10.8466667 169.368421,10.8466667 169.065263,10.8466667 C169.065263,10.5603509 169.065263,8.27684211 169.065263,7.99157895 C169.368421,7.99157895 172.244211,7.99157895 172.244211,7.99157895 C173.46386,7.99157895 174.057544,8.4322807 174.057544,9.33684211 C174.057544,10.3529825 173.430175,10.8466667 172.132982,10.8466667 Z M174.932281,14.7161404 C174.80386,14.4729825 174.76,13.9947368 174.749825,12.7438596 C174.738246,11.9831579 174.316842,11.4259649 173.654386,11.1807018 C174.523158,10.7936842 174.874035,10.0080702 174.874035,9.36280702 C174.874035,7.92982456 174.004211,7.23052632 172.206667,7.23052632 L168.260351,7.23052632 L168.260351,14.9638596 L169.065263,14.9638596 C169.065263,14.9638596 169.065263,11.9070175 169.065263,11.6049123 C169.368421,11.6049123 172.191228,11.6049123 172.191228,11.6049123 C173.570526,11.6049123 173.896491,11.8796491 173.932982,13.0796491 C173.960351,14.3350877 174.013333,14.7473684 174.184561,14.9136842 L174.232632,14.9638596 L175.062105,14.9638596 L174.932281,14.7161404 Z" id="Fill-23" fill="#1A1919" fill-rule="nonzero"></path>
            <polyline id="Fill-24" fill="#1A1919" points="206.181754 9.17017544 206.380702 9.17017544 206.380702 7.42105263 207.14 7.42105263 207.14 7.23859649 205.42386 7.23859649 205.42386 7.42105263 206.181754 7.42105263 206.181754 9.17017544"></polyline>
            <polyline id="Fill-25" fill="#1A1919" points="209.650175 7.23859649 209.934035 7.23859649 209.934035 9.17017544 209.732632 9.17017544 209.732632 7.49964912 209.728772 7.49964912 208.876491 9.17017544 208.693333 9.17017544 207.843158 7.49789474 207.836491 7.49789474 207.836491 9.17017544 207.637895 9.17017544 207.637895 7.23859649 207.929474 7.23859649 208.789123 8.91859649 209.650175 7.23859649"></polyline>
        </g>
    </g>
</svg>