<?xml version="1.0" encoding="UTF-8"?>
<svg width="45px" height="40px" viewBox="0 0 45 40" version="1.1" xmlns="http://www.w3.org/2000/svg" xmlns:xlink="http://www.w3.org/1999/xlink">
    <!-- Generator: Sketch 51.1 (57501) - http://www.bohemiancoding.com/sketch -->
    <title>Page 1</title>
    <desc>Created with Sketch.</desc>
    <defs>
        <polygon id="path-1" points="0.0757418301 0.0668507625 6.85633987 0.0668507625 6.85633987 11.3951841 0.0757418301 11.3951841"></polygon>
        <polygon id="path-3" points="0.0757418301 0.0668507625 6.85633987 0.0668507625 6.85633987 11.3951841 0.0757418301 11.3951841"></polygon>
    </defs>
    <g id="Symbols" stroke="none" stroke-width="1" fill="none" fill-rule="evenodd">
        <g id="icon/airline/Scoot">
            <g id="Page-1">
                <path d="M39.2156863,19.6078051 C39.2156863,8.77873772 30.4369486,0 19.6078051,0 C8.77873772,0 0,8.77873772 0,19.6078051 C0,30.4369486 8.77873772,39.2156863 19.6078051,39.2156863 C30.4369486,39.2156863 39.2156863,30.4369486 39.2156863,19.6078051 Z" id="Fill-1" fill="#FFDD30"></path>
                <g id="Group-5" transform="translate(37.581699, 12.745098)">
                    <mask id="mask-2" fill="white">
                        <use xlink:href="#path-1"></use>
                    </mask>
                    <g id="Clip-4"></g>
                    <polyline id="Fill-3" fill="#231F20" mask="url(#mask-2)" points="0.605850763 5.82621895 2.48860675 5.31166558 3.94922767 11.3951841 6.84073094 10.7223301 6.74396623 9.02570697 5.94209259 9.21816885 4.8672342 4.74060893 6.85636275 4.25015142 6.31908606 2.01228649 4.32995752 2.50282026 3.74517538 0.0668507625 1.58074183 1.52983551 1.95140632 3.07387691 0.0757418301 3.56120806 0.583051198 5.80448693"></polyline>
                </g>
                <g id="Group-8" transform="translate(37.581699, 12.745098)">
                    <mask id="mask-4" fill="white">
                        <use xlink:href="#path-3"></use>
                    </mask>
                    <g id="Clip-7"></g>
                    <polyline id="Fill-6" fill="#231F20" mask="url(#mask-4)" points="0.605850763 5.82621895 2.48860675 5.31166558 3.94922767 11.3951841 6.84073094 10.7223301 6.74396623 9.02570697 5.94209259 9.21816885 4.8672342 4.74060893 6.85636275 4.25015142 6.31908606 2.01228649 4.32995752 2.50282026 3.74517538 0.0668507625 1.58074183 1.52983551 1.95140632 3.07387691 0.0757418301 3.56120806 0.583051198 5.80448693"></polyline>
                </g>
                <path d="M10.195646,17.9633561 L12.5846765,17.9633561 C12.3794474,15.7909674 10.5327647,15.3594771 9.46285826,15.3594771 C7.77734032,15.3594771 6.31176488,16.4456715 6.31176488,18.1567722 C6.31176488,19.2727643 7.19107981,19.9720496 8.24634873,20.3143775 C9.79997701,20.9244234 10.4008751,20.9987254 10.4008751,21.5641902 C10.4008751,21.9659596 9.96114177,22.2040339 9.55075941,22.2040339 C9.44822071,22.2040339 8.73007054,22.2040339 8.62745599,21.445153 L6.20915033,21.445153 C6.42901698,23.6176188 8.29033723,24.1830065 9.52148431,24.1830065 C11.3242543,24.1830065 12.8338183,23.1116726 12.8338183,21.2963952 C12.8338183,19.5108385 11.368167,19.0942087 9.99049272,18.7073765 C9.34560615,18.5138835 8.74470809,18.2609489 8.74470809,17.8889772 C8.74470809,17.6657634 8.92058624,17.3384498 9.43358315,17.3384498 C10.1517333,17.3384498 10.1810084,17.7848005 10.195646,17.9633561 Z M18.8727566,18.8264137 L21.334975,18.8264137 C20.9245926,16.8027828 19.1805244,15.3594771 17.0259981,15.3594771 C14.5930549,15.3594771 12.7316588,17.3235894 12.7316588,19.7489127 C12.7316588,22.2040339 14.62233,24.1680691 17.0846241,24.1680691 C19.283139,24.1680691 20.909955,22.6355241 21.3496883,20.7607282 L18.8727566,20.7607282 C18.6089015,21.2665974 18.1252555,21.8617059 17.1139751,21.8617059 C15.9560916,21.8617059 15.1793154,20.9690046 15.1793154,19.7637731 C15.1793154,19.1685876 15.3698311,18.6329206 15.7069499,18.2460885 C16.0587062,17.8592564 16.5423521,17.6360426 17.1139751,17.6657634 C18.1252555,17.6657634 18.6089015,18.2609489 18.8727566,18.8264137 Z M27.6499032,19.7637731 C27.6499032,20.9690046 26.7558749,21.8469225 25.700606,21.8469225 C24.645337,21.8469225 23.7513087,20.9690046 23.7513087,19.7786335 L23.7513087,19.7637731 C23.7513087,18.5585417 24.645337,17.6806237 25.700606,17.6806237 C26.7558749,17.6806237 27.6499032,18.5585417 27.6499032,19.7637731 Z M30.0828464,19.7637731 C30.0828464,17.7401423 28.6611836,15.3743375 25.700606,15.3743375 C22.7400283,15.3743375 21.3183655,17.7401423 21.3183655,19.7489127 L21.3183655,19.7637731 C21.3183655,21.787404 22.7400283,24.1532088 25.700606,24.1532088 C28.6611836,24.1532088 30.0828464,21.787404 30.0828464,19.7637731 Z M36.4558698,19.7637731 C36.4558698,20.9690046 35.5618415,21.8469225 34.5065726,21.8469225 C33.4513037,21.8469225 32.5572753,20.9690046 32.5572753,19.7786335 L32.5572753,19.7637731 C32.5572753,18.5585417 33.4513037,17.6806237 34.5065726,17.6806237 C35.5618415,17.6806237 36.4558698,18.5585417 36.4558698,19.7637731 Z M37.6626716,16.6500211 C36.9392124,15.8919872 35.8913002,15.3743375 34.5065726,15.3743375 C31.5459949,15.3743375 30.1243321,17.7401423 30.1243321,19.7489127 L30.1243321,19.7637731 C30.1243321,21.787404 31.5459949,24.1532088 34.5065726,24.1532088 C37.4671503,24.1532088 38.8888889,21.787404 38.8888889,19.7637731 C38.8888889,18.9123421 38.6361067,18.0007766 38.1239441,17.2298843 L37.6626716,16.6500211 Z" id="Fill-9" fill="#231F20"></path>
                <path d="M10.195646,17.9633561 L12.5846765,17.9633561 C12.3794474,15.7909674 10.5327647,15.3594771 9.46285826,15.3594771 C7.77734032,15.3594771 6.31176488,16.4456715 6.31176488,18.1567722 C6.31176488,19.2727643 7.19107981,19.9720496 8.24634873,20.3143775 C9.79997701,20.9244234 10.4008751,20.9987254 10.4008751,21.5641902 C10.4008751,21.9659596 9.96114177,22.2040339 9.55075941,22.2040339 C9.44822071,22.2040339 8.73007054,22.2040339 8.62745599,21.445153 L6.20915033,21.445153 C6.42901698,23.6176188 8.29033723,24.1830065 9.52148431,24.1830065 C11.3242543,24.1830065 12.8338183,23.1116726 12.8338183,21.2963952 C12.8338183,19.5108385 11.368167,19.0942087 9.99049272,18.7073765 C9.34560615,18.5138835 8.74470809,18.2609489 8.74470809,17.8889772 C8.74470809,17.6657634 8.92058624,17.3384498 9.43358315,17.3384498 C10.1517333,17.3384498 10.1810084,17.7848005 10.195646,17.9633561 Z M18.8727566,18.8264137 L21.334975,18.8264137 C20.9245926,16.8027828 19.1805244,15.3594771 17.0259981,15.3594771 C14.5930549,15.3594771 12.7316588,17.3235894 12.7316588,19.7489127 C12.7316588,22.2040339 14.62233,24.1680691 17.0846241,24.1680691 C19.283139,24.1680691 20.909955,22.6355241 21.3496883,20.7607282 L18.8727566,20.7607282 C18.6089015,21.2665974 18.1252555,21.8617059 17.1139751,21.8617059 C15.9560916,21.8617059 15.1793154,20.9690046 15.1793154,19.7637731 C15.1793154,19.1685876 15.3698311,18.6329206 15.7069499,18.2460885 C16.0587062,17.8592564 16.5423521,17.6360426 17.1139751,17.6657634 C18.1252555,17.6657634 18.6089015,18.2609489 18.8727566,18.8264137 Z M27.6499032,19.7637731 C27.6499032,20.9690046 26.7558749,21.8469225 25.700606,21.8469225 C24.645337,21.8469225 23.7513087,20.9690046 23.7513087,19.7786335 L23.7513087,19.7637731 C23.7513087,18.5585417 24.645337,17.6806237 25.700606,17.6806237 C26.7558749,17.6806237 27.6499032,18.5585417 27.6499032,19.7637731 Z M30.0828464,19.7637731 C30.0828464,17.7401423 28.6611836,15.3743375 25.700606,15.3743375 C22.7400283,15.3743375 21.3183655,17.7401423 21.3183655,19.7489127 L21.3183655,19.7637731 C21.3183655,21.787404 22.7400283,24.1532088 25.700606,24.1532088 C28.6611836,24.1532088 30.0828464,21.787404 30.0828464,19.7637731 Z M36.4558698,19.7637731 C36.4558698,20.9690046 35.5618415,21.8469225 34.5065726,21.8469225 C33.4513037,21.8469225 32.5572753,20.9690046 32.5572753,19.7786335 L32.5572753,19.7637731 C32.5572753,18.5585417 33.4513037,17.6806237 34.5065726,17.6806237 C35.5618415,17.6806237 36.4558698,18.5585417 36.4558698,19.7637731 Z M37.6626716,16.6500211 C36.9392124,15.8919872 35.8913002,15.3743375 34.5065726,15.3743375 C31.5459949,15.3743375 30.1243321,17.7401423 30.1243321,19.7489127 L30.1243321,19.7637731 C30.1243321,21.787404 31.5459949,24.1532088 34.5065726,24.1532088 C37.4671503,24.1532088 38.8888889,21.787404 38.8888889,19.7637731 C38.8888889,18.9123421 38.6361067,18.0007766 38.1239441,17.2298843 L37.6626716,16.6500211 Z" id="Fill-11" fill="#231F20"></path>
            </g>
        </g>
    </g>
</svg>