<?xml version="1.0" encoding="UTF-8"?>
<svg width="63px" height="26px" viewBox="0 0 63 26" version="1.1" xmlns="http://www.w3.org/2000/svg" xmlns:xlink="http://www.w3.org/1999/xlink">
    <!-- Generator: Sketch 51.1 (57501) - http://www.bohemiancoding.com/sketch -->
    <title>icon/airline/silkair</title>
    <desc>Created with Sketch.</desc>
    <defs></defs>
    <g id="Symbols" stroke="none" stroke-width="1" fill="none" fill-rule="evenodd">
        <g id="footer" transform="translate(-476.000000, -474.000000)">
            <g id="Singapore-Airlines-Group" transform="translate(148.000000, 472.000000)">
                <g id="Group-4" transform="translate(185.000000, 0.000000)">
                    <g id="icon/airline/silkair" transform="translate(143.000000, 2.000000)">
                        <g id="Group">
                            <path d="M0.200273684,0.145333333 L35.4968526,0.145333333 C36.4195263,0.773111111 37.2060316,1.57733333 37.9401474,2.41355556 C39.669,4.34355556 41.2110632,6.49333333 43.3342737,8.01866667 C43.7074105,8.26333333 44.0761263,8.57044444 44.5372421,8.61355556 C44.2087579,8.29533333 43.8464526,8.00822222 43.5206211,7.68488889 C42.0428842,6.26177778 40.7561368,4.658 39.3723474,3.14622222 C39.0686211,2.79822222 38.7151579,2.49444444 38.4330947,2.12733333 C38.5208526,2.15511111 38.6055158,2.19355556 38.6833263,2.24444444 C39.5175789,2.80244444 40.2492632,3.50066667 40.9274526,4.23822222 C41.6396842,5.02755556 42.3645158,5.80444444 43.0891263,6.58244444 C43.8499895,7.40333333 44.6376,8.19977778 45.4641158,8.95422222 C44.2861263,9.07177778 43.0981895,9.01088889 41.9213053,8.90733333 C41.1796737,8.87911111 40.4513053,8.72577778 39.7238211,8.59044444 C38.9196316,8.46022222 38.1413053,8.214 37.3620947,7.98355556 C37.4951684,8.52888889 37.9386,8.922 38.3986105,9.202 C39.1537263,9.68377778 40.0313053,9.99 40.6705895,10.6402222 C41.0914737,11.0606667 41.1745895,11.6933333 41.5468421,12.1477778 C42.5263263,11.7088889 43.5624,11.3797778 44.6307474,11.256 C45.6646105,11.1446667 46.7709789,11.364 47.6012526,12.0191111 C48.2529158,12.5288889 48.8378211,13.1226667 49.3542,13.7704444 C49.8765474,14.4135556 50.3213053,15.1133333 50.7698211,15.8086667 C51.5490316,17.0171111 52.3076842,18.2402222 53.1487895,19.4071111 C53.8004526,20.3206667 54.4815158,21.2128889 55.1972842,22.0764444 C55.2386211,22.1237778 55.2777474,22.1755556 55.2819474,22.2424444 C55.1488737,22.2051111 55.0684105,22.078 54.9607579,21.9993333 C53.0773895,20.3142222 51.7077474,18.1626667 50.2910211,16.0902222 C49.7454632,15.296 49.1857579,14.5091111 48.5725579,13.7651111 C48.1370842,13.2477778 47.7066947,12.7168889 47.1790421,12.2911111 C46.9955684,12.1368889 46.7601474,12.066 46.5276,12.0317778 C46.7628,12.5133333 47.1606947,12.8806667 47.4922737,13.2922222 C49.4472632,15.6097778 50.8164632,18.352 52.7117684,20.7142222 C53.4461053,21.6255556 54.2516211,22.4853333 55.1780526,23.2024444 C56.4499895,24.2004444 57.8015053,25.1568889 59.3528526,25.6571111 L0.200273684,25.6571111 L0.200273684,0.145333333 Z M6.73237895,12.876 C5.93371579,12.9222222 5.0904,13.3857778 4.81098947,14.1735556 C4.66155789,14.5573333 4.59104211,15.006 4.76125263,15.3946667 C4.99269474,15.9642222 5.37953684,16.4486667 5.74471579,16.9357778 C6.12581053,17.4475556 6.53343158,17.9442222 6.83538947,18.51 C7.05113684,18.8586667 7.02969474,19.2953333 6.94923158,19.6817778 C6.804,20.108 6.51375789,20.5511111 6.05264211,20.666 C5.67618947,20.7873333 5.24469474,20.7755556 4.89808421,20.5726667 C4.64741053,20.4166667 4.49864211,20.1484444 4.37551579,19.888 C4.23757895,19.5915556 4.24177895,19.2571111 4.20884211,18.938 C4.12992632,18.9268889 4.05056842,18.9268889 3.97143158,18.9262222 C3.89671579,19.5353333 3.79945263,20.1415556 3.67676842,20.7426667 C3.99265263,20.9064444 4.35031579,20.9631111 4.69338947,21.0428889 C5.30902105,21.1913333 5.95228421,21.182 6.57587368,21.0942222 C7.09136842,21.0104444 7.63537895,20.9237778 8.06046316,20.5935556 C8.47913684,20.2842222 8.72981053,19.7711111 8.72207368,19.2486667 C8.71411579,18.8144444 8.71566316,18.3515556 8.4882,17.9662222 C8.02288421,16.9635556 7.21405263,16.1897778 6.58847368,15.2944444 C6.47772632,15.1148889 6.321,14.9504444 6.29292632,14.7326667 C6.23390526,14.3226667 6.35813684,13.8968889 6.62229474,13.5793333 C6.76951579,13.4097778 6.95652632,13.2286667 7.19570526,13.2282222 C7.52728421,13.1877778 7.89909474,13.2177778 8.15286316,13.4617778 C8.59209474,13.7955556 8.75125263,14.3484444 8.96854737,14.8271111 L9.03530526,14.8128889 C9.11090526,14.2464444 9.18053684,13.6748889 9.20971579,13.106 C8.41436842,12.8417778 7.56176842,12.7904444 6.73237895,12.876 Z M32.4286421,12.896 C32.2599789,13.2833333 32.0453368,13.6493333 31.8583263,14.0282222 C30.8509895,15.9824444 29.8527158,17.9411111 28.8058105,19.8744444 C28.5655263,20.2995556 28.1154632,20.5815556 27.6375474,20.6486667 C27.6267158,20.7577778 27.6172105,20.8671111 27.6141158,20.9768889 C28.2960632,20.9668889 28.9791158,20.9808889 29.6610632,20.9631111 C29.6668105,20.8564444 29.6756526,20.75 29.6875895,20.644 C29.4939474,20.676 29.3084842,20.5384444 29.2594105,20.3526667 C29.1864632,20.1211111 29.3398737,19.9084444 29.4380211,19.7115556 C29.6385158,19.3762222 29.7810947,19.002 30.0003789,18.6817778 C30.8616,18.6771111 31.7232632,18.6775556 32.5842632,18.676 C32.6598632,19.2335556 32.7476211,19.7962222 32.7084947,20.3608889 C32.7058421,20.4555556 32.6735684,20.5688889 32.5754211,20.6028889 C32.4078632,20.6606667 32.2301368,20.6093333 32.0583789,20.6255556 C32.0473263,20.7395556 32.0437895,20.8544444 32.0380421,20.9688889 C33.0228316,20.9711111 34.0076211,20.9773333 34.9919684,20.9657778 C35.0123053,20.8602222 35.0333053,20.7551111 35.0536421,20.6502222 C34.8255158,20.5642222 34.4994632,20.5862222 34.3763368,20.3342222 C34.23,20.0884444 34.1957368,19.7997778 34.1590421,19.5215556 C34.0723895,18.8182222 33.9952421,18.1133333 33.873,17.4144444 C33.7487684,16.7562222 33.7089789,16.086 33.5836421,15.4277778 C33.4244842,14.5873333 33.3566211,13.7331111 33.2034316,12.8917778 C32.9450211,12.8833333 32.6866105,12.8786667 32.4286421,12.896 Z M24.6696947,14.4722222 C24.8116105,14.4995556 24.9510947,14.5377778 25.0925684,14.5673333 C25.0549895,14.7022222 24.9583895,14.8166667 24.8617895,14.9162222 C24.3454105,15.4286667 23.8148842,15.9262222 23.2927579,16.4324444 C23.1223263,16.6008889 22.9585263,16.7824444 22.7485263,16.9011111 C22.8791684,16.2244444 22.9375263,15.5346667 23.1019895,14.8644444 C23.1411158,14.7453333 23.1851053,14.5777778 23.3312211,14.558 C23.5020947,14.5257778 23.6738526,14.5002222 23.8456105,14.4764444 C23.8639579,14.3626667 23.8847368,14.2491111 23.9061789,14.1362222 C22.9731158,14.1388889 22.0400526,14.1373333 21.1067684,14.1373333 C21.1056632,14.2586667 21.1056632,14.3804444 21.1067684,14.5017778 C21.3010737,14.5331111 21.4984737,14.5495556 21.6905684,14.5977778 C21.7330105,15.0571111 21.5731895,15.4995556 21.5402526,15.9537778 C21.4513895,16.4948889 21.3309158,17.0308889 21.2447053,17.5724444 C21.1611474,18.3148889 20.9637474,19.0382222 20.8667053,19.7784444 C20.8275789,20.0664444 20.8118842,20.416 20.5481684,20.5966667 C20.3772947,20.646 20.1978,20.6171111 20.0233895,20.636 C20.0019474,20.7468889 19.9811684,20.8586667 19.9628211,20.9704444 C20.9011895,20.9711111 21.8393368,20.9735556 22.7777053,20.9693333 C22.7892,20.8533333 22.806,20.7377778 22.8144,20.622 C22.6247368,20.6228889 22.4326421,20.6444444 22.2462947,20.5977778 C22.1218421,20.4324444 22.1826316,20.222 22.1939053,20.034 C22.2686211,19.4351111 22.4089895,18.8471111 22.5108947,18.2528889 C22.5564316,17.992 22.5699158,17.7268889 22.6216421,17.4671111 C22.6749158,17.5337778 22.7246526,17.604 22.7673158,17.6786667 C23.2878947,18.6102222 23.8033895,19.5462222 24.3005368,20.4911111 C24.4428947,20.7222222 24.6570947,20.9635556 24.9495474,20.9673333 C25.4723368,20.9777778 25.9949053,20.9768889 26.5176947,20.9635556 C26.5258737,20.9295556 26.5347158,20.896 26.5442211,20.8624444 C26.3165368,20.7415556 26.0435368,20.688 25.8664737,20.4864444 C25.3410316,19.9588889 25.0602947,19.2586667 24.6977684,18.6208889 C24.3849789,18.0313333 24.0483158,17.4517778 23.7636,16.8497778 C24.4952842,16.1175556 25.1447368,15.3011111 25.9400842,14.6348889 C26.0961474,14.528 26.2900105,14.5091111 26.4706105,14.4748889 C26.502,14.3542222 26.5134947,14.2297778 26.5300737,14.1068889 C25.9301368,14.1044444 25.3302,14.108 24.7302632,14.1073333 C24.6942316,14.2255556 24.6820737,14.3495556 24.6696947,14.4722222 Z M37.1850316,14.4995556 C37.4058632,14.5288889 37.6269158,14.5622222 37.8481895,14.5931111 C37.8064105,15.3693333 37.6163053,16.128 37.4920737,16.8926667 C37.3961368,17.7031111 37.1850316,18.4948889 37.0888737,19.3048889 C36.9980211,19.7026667 36.9845368,20.1288889 36.7840421,20.4933333 C36.6231158,20.7111111 36.3202737,20.5935556 36.0941368,20.626 C36.0795474,20.7415556 36.0665053,20.8575556 36.0545684,20.9731111 C36.9776842,20.9784444 37.9010211,20.9768889 38.8241368,20.9742222 C38.8466842,20.8571111 38.8754211,20.7415556 38.8946526,20.6244444 C38.7379263,20.6062222 38.5781053,20.6255556 38.4242526,20.5935556 C38.3201368,20.5631111 38.1855158,20.486 38.2146947,20.3573333 C38.2299474,19.8922222 38.3875579,19.4475556 38.4392842,18.9871111 C38.5177579,18.318 38.6804526,17.6628889 38.7872211,16.9982222 C38.8685684,16.3184444 39.0314842,15.6522222 39.1395789,14.9773333 C39.1694211,14.8424444 39.1776,14.6597778 39.3190737,14.5908889 C39.5427789,14.5231111 39.7793053,14.5142222 40.0094211,14.4791111 C40.0330737,14.3573333 40.0529684,14.234 40.0419158,14.11 C39.1353789,14.1068889 38.2288421,14.1022222 37.3225263,14.1095556 C37.2444947,14.2202222 37.2263684,14.3704444 37.1850316,14.4995556 Z M41.2857789,14.1304444 C41.2554947,14.2513333 41.2260947,14.372 41.2000105,14.4937778 C41.4199579,14.4926667 41.6445474,14.4775556 41.8589684,14.5377778 C41.8804105,15.3191111 41.6078526,16.0633333 41.5196526,16.8317778 C41.4323368,17.5657778 41.2349368,18.2806667 41.1558,19.0155556 C41.0382,19.5091111 41.0293579,20.0344444 40.8136105,20.5002222 C40.6387579,20.6895556 40.3566947,20.6073333 40.1312211,20.6213333 C40.1018211,20.7373333 40.0863474,20.856 40.0668947,20.9742222 C40.9986316,20.9773333 41.9301474,20.9768889 42.8616632,20.9742222 C42.8965895,20.8686667 42.8758105,20.7411111 42.8943789,20.6282222 C42.6972,20.584 42.3932526,20.6706667 42.2997474,20.4351111 C42.2223789,20.1473333 42.3116842,19.848 42.3572211,19.5615556 C42.4615579,19.0197778 42.5446737,18.4748889 42.6271263,17.9295556 C42.8214316,17.9253333 43.0172842,17.9106667 43.2113684,17.9253333 C43.4193789,18.3048889 43.5555474,18.7168889 43.7153684,19.118 C43.9238211,19.5935556 44.0217474,20.1153333 44.2814842,20.5693333 C44.4432947,20.7788889 44.6714211,20.9762222 44.9503895,20.9746667 C45.4986,20.9793333 46.0468105,20.9808889 46.5956842,20.9815556 C46.6197789,20.8711111 46.6290632,20.7584444 46.6412211,20.6464444 C46.2813474,20.5882222 45.8567053,20.5195556 45.6389684,20.1893333 C45.3367895,19.6004444 45.0724105,18.9913333 44.8365474,18.3726667 C44.7423789,18.1453333 44.6188105,17.9257778 44.5790211,17.6806667 C45.0083053,17.5788889 45.4269789,17.3746667 45.7178842,17.0328889 C45.9325263,16.7862222 46.0337684,16.4655556 46.1089263,16.152 C46.2174632,15.6644444 46.1836421,15.11 45.8781474,14.698 C45.5445789,14.2837778 44.9926105,14.1346667 44.4819789,14.1268889 C43.4167263,14.128 42.3508105,14.1211111 41.2857789,14.1304444 Z M11.2148842,14.1368889 C11.1819474,14.2586667 11.1494526,14.3804444 11.1198316,14.5033333 C11.3333684,14.5468889 11.5537579,14.5537778 11.7653053,14.6102222 C11.7692842,14.6417778 11.7783474,14.7042222 11.7823263,14.7357778 C11.6910316,15.5111111 11.5155158,16.2737778 11.3919474,17.0444444 C11.2984421,17.8413333 11.0849053,18.6177778 10.9944947,19.4151111 C10.9082842,19.8113333 10.8806526,20.236 10.6602632,20.5877778 C10.4493789,20.6302222 10.2342947,20.622 10.0212,20.6224444 C10.0028526,20.7435556 9.97875789,20.8633333 9.95576842,20.984 C10.8837474,21.0197778 11.8121684,21.0024444 12.7405895,20.9977778 C12.7673368,20.8748889 12.7896632,20.7515556 12.8122105,20.6286667 C12.6351474,20.6213333 12.4538842,20.6406667 12.2801368,20.6013333 C12.1678421,20.528 12.1318105,20.3824444 12.1490526,20.256 C12.1961368,19.848 12.2947263,19.4491111 12.3614842,19.0444444 C12.4415053,18.4266667 12.5692737,17.816 12.6822316,17.204 C12.7604842,16.4408889 12.9645158,15.6984444 13.0637684,14.9388889 C13.0867579,14.8182222 13.1124,14.6791111 13.2204947,14.604 C13.4393368,14.5184444 13.6789579,14.5357778 13.9081895,14.5022222 C13.9347158,14.3811111 13.9577053,14.2586667 13.9875474,14.138 C13.0633263,14.1368889 12.1391053,14.1291111 11.2148842,14.1368889 Z M15.3138632,14.1446667 C15.3076737,14.2597778 15.3059053,14.3751111 15.3269053,14.4891111 C15.5123684,14.5426667 15.7148526,14.518 15.8903684,14.6097778 C15.9666316,14.8822222 15.8589789,15.1568889 15.8236105,15.426 C15.7435895,16.1488889 15.5645368,16.856 15.4564421,17.5746667 C15.3594,18.3684444 15.1463053,19.1437778 15.0627474,19.94 C15.0218526,20.1477778 14.9933368,20.3777778 14.8434632,20.5395556 C14.6805474,20.6902222 14.4424737,20.6066667 14.2455158,20.6224444 C14.2245158,20.7473333 14.2002,20.8722222 14.1811895,20.9977778 C15.057,21.0082222 15.9332526,20.9973333 16.8095053,21.004 C17.5540105,20.9608889 18.3002842,20.9711111 19.0463368,20.9757778 C19.1723368,20.4944444 19.2468316,19.9993333 19.4013474,19.5257778 C19.2678316,19.5126667 19.1321053,19.5168889 19.0019053,19.5511111 C18.8838632,19.6922222 18.8374421,19.8764444 18.7324421,20.0255556 C18.5195684,20.288 18.2459053,20.528 17.9074737,20.5997778 C17.5586526,20.6464444 17.2071789,20.6197778 16.8574737,20.6208889 C16.6558737,20.622 16.3941474,20.5326667 16.3671789,20.2995556 C16.4231053,19.3404444 16.7133474,18.4162222 16.8225474,17.464 C16.9383789,16.8182222 17.0913474,16.1788889 17.1744632,15.528 C17.2354737,15.2328889 17.2505053,14.9153333 17.4067895,14.6513333 C17.5789895,14.4813333 17.8396105,14.5573333 18.0500526,14.4895556 C18.0688421,14.3711111 18.0980211,14.2548889 18.1258737,14.1384444 C17.1886105,14.1337778 16.2506842,14.1295556 15.3138632,14.1446667 Z" id="Fill-1" fill="#009484"></path>
                            <path d="M36.1967053,0.277555556 C36.2037053,0.280055556 36.2167053,0.283555556 36.2237053,0.285555556 C36.2167053,0.283555556 36.2037053,0.280055556 36.1967053,0.277555556" id="Fill-2" fill="#009484"></path>
                            <path d="M36.5601158,0.380888889 C36.5706158,0.384388889 36.5916158,0.390388889 36.6026158,0.392888889 C36.5916158,0.390388889 36.5706158,0.384388889 36.5601158,0.380888889" id="Fill-3" fill="#009484"></path>
                            <path d="M36.9255158,0.486444444 C36.9360158,0.488944444 36.9565158,0.495944444 36.9670158,0.497944444 C36.9565158,0.495944444 36.9360158,0.488944444 36.9255158,0.486444444" id="Fill-4" fill="#009484"></path>
                            <path d="M37.7120211,0.747777778 C37.7190211,0.750277778 37.7330211,0.755277778 37.7400211,0.757277778 C37.7330211,0.755277778 37.7190211,0.750277778 37.7120211,0.747777778" id="Fill-5" fill="#009484"></path>
                            <path d="M37.8596842,0.799333333 C37.8776842,0.804833333 37.9141842,0.817833333 37.9331842,0.825333333 C37.9141842,0.817833333 37.8776842,0.804833333 37.8596842,0.799333333" id="Fill-6" fill="#009484"></path>
                            <path d="M38.0126526,0.852222222 C38.0316526,0.859722222 38.0696526,0.872222222 38.0886526,0.879722222 C38.0696526,0.872222222 38.0316526,0.859722222 38.0126526,0.852222222" id="Fill-7" fill="#009484"></path>
                            <path d="M38.2858737,0.955111111 C38.2938737,0.958611111 38.3093737,0.964611111 38.3173737,0.968111111 C38.3093737,0.964611111 38.2938737,0.958611111 38.2858737,0.955111111" id="Fill-8" fill="#009484"></path>
                            <path d="M41.9938105,2.79311111 C42.0008105,2.79661111 42.0138105,2.80561111 42.0208105,2.80911111 C42.0138105,2.80561111 42.0008105,2.79661111 41.9938105,2.79311111" id="Fill-9" fill="#009484"></path>
                            <path d="M42.4633263,3.10577778 C42.4713263,3.11177778 42.4878263,3.12227778 42.4948263,3.12727778 C42.4878263,3.12227778 42.4713263,3.11177778 42.4633263,3.10577778" id="Fill-10" fill="#009484"></path>
                            <path d="M42.6193895,3.21133333 C42.6273895,3.21733333 42.6428895,3.22783333 42.6508895,3.23383333 C42.6428895,3.22783333 42.6273895,3.21733333 42.6193895,3.21133333" id="Fill-11" fill="#009484"></path>
                            <path d="M45.4917474,5.73266667 C45.4967474,5.73816667 45.5072474,5.75016667 45.5122474,5.75616667 C45.5072474,5.75016667 45.4967474,5.73816667 45.4917474,5.73266667" id="Fill-12" fill="#009484"></path>
                            <path d="M53.0141684,14.2855556 C53.0191684,14.2920556 53.0281684,14.3065556 53.0331684,14.3150556 C53.0281684,14.3065556 53.0191684,14.2920556 53.0141684,14.2855556" id="Fill-13" fill="#009484"></path>
                            <path d="M43.2224211,14.5531111 C43.5372,14.5184444 43.8610421,14.5042222 44.1733895,14.572 C44.4959053,14.6171111 44.7596211,14.8791111 44.8626316,15.182 C44.9262947,15.3615556 44.9002105,15.5557778 44.8776632,15.74 C44.8186421,16.1573333 44.7269053,16.5755556 44.541,16.9557778 C44.3858211,17.2682222 44.0427474,17.4671111 43.6981263,17.4671111 C43.3804737,17.4706667 43.0626,17.4655556 42.7451684,17.4655556 C42.7911474,17.2008889 42.8563579,16.9395556 42.8813368,16.6717778 C42.9618,15.96 43.1660526,15.268 43.2224211,14.5531111" id="Fill-14" fill="#009484"></path>
                            <path d="M32.0809263,14.7677778 C32.109,14.7284444 32.1178421,14.664 32.1691263,14.6471111 C32.2595368,15.5191111 32.3731579,16.3882222 32.4202421,17.2633333 C32.4520737,17.5546667 32.4803684,17.8466667 32.5122,18.1384444 C31.7639368,18.1411111 31.0156737,18.1426667 30.2671895,18.1368889 C30.8134105,16.9857778 31.4672842,15.8853333 32.0809263,14.7677778" id="Fill-15" fill="#009484"></path>
                            <path d="M58.6008316,24.2602222 C58.6058316,24.2662222 58.6138316,24.2802222 58.6183316,24.2872222 C58.6138316,24.2802222 58.6058316,24.2662222 58.6008316,24.2602222" id="Fill-16" fill="#009484"></path>
                            <path d="M59.1214105,25.048 C59.1264105,25.0555 59.1369105,25.0695 59.1414105,25.0765 C59.1369105,25.0695 59.1264105,25.0555 59.1214105,25.048" id="Fill-17" fill="#009484"></path>
                            <path d="M59.2268526,25.2046667 C59.2318526,25.2116667 59.2413526,25.2256667 59.2458526,25.2341667 C59.2413526,25.2256667 59.2318526,25.2116667 59.2268526,25.2046667" id="Fill-18" fill="#009484"></path>
                            <path d="M59.4850421,25.5808889 C59.4895421,25.5868889 59.5000421,25.5998889 59.5050421,25.6058889 C59.5000421,25.5998889 59.4895421,25.5868889 59.4850421,25.5808889" id="Fill-19" fill="#009484"></path>
                            <path d="M35.4968526,0.145333333 L35.7882,0.145333333 C35.9208316,0.199333333 36.0603158,0.232888889 36.1967053,0.277555556 C36.1998,0.278666667 36.2055474,0.280222222 36.2086421,0.281111111 C36.3255789,0.314666667 36.4425158,0.347333333 36.5601158,0.380888889 C36.5647579,0.382444444 36.5740421,0.385111111 36.5789053,0.386222222 C36.6947368,0.417777778 36.8101263,0.451333333 36.9255158,0.486444444 C36.9301579,0.487555556 36.9392211,0.490666667 36.9438632,0.491555556 C37.2044842,0.562444444 37.4582526,0.655555556 37.7120211,0.747777778 C37.7151158,0.748888889 37.7213053,0.751111111 37.7244,0.752 C37.7584421,0.764 37.8256421,0.787777778 37.8596842,0.799333333 C37.8676421,0.801777778 37.8837789,0.807555556 37.8921789,0.810888889 C37.9218,0.821333333 37.9823684,0.841777778 38.0126526,0.852222222 C38.0210526,0.855555556 38.0378526,0.861111111 38.0462526,0.864444444 C38.1271579,0.892666667 38.2054105,0.923777778 38.2858737,0.955111111 C38.2894105,0.956666667 38.2962632,0.959333333 38.2998,0.960888889 C39.5896421,1.44133333 40.8251053,2.06488889 41.9938105,2.79311111 C41.9969053,2.79466667 42.0026526,2.79866667 42.0057474,2.80022222 C42.1587158,2.90066667 42.3132316,2.99977778 42.4633263,3.10577778 C42.4668632,3.10844444 42.4741579,3.11311111 42.4772526,3.11533333 C42.5128421,3.13933333 42.5838,3.18777778 42.6193895,3.21133333 C42.6229263,3.214 42.6297789,3.21866667 42.6333158,3.22133333 C43.3305158,3.732 44.0297053,4.24644444 44.6610316,4.83977778 C44.9545895,5.12111111 45.2176421,5.43177778 45.4917474,5.73266667 C45.4939579,5.73511111 45.4986,5.74044444 45.5008105,5.74311111 C46.0870421,6.44177778 46.6551474,7.162 47.3236105,7.78511111 C47.9825684,8.35622222 48.7339263,8.868 49.5964737,9.05644444 C50.5114105,9.22866667 51.4685684,8.98977778 52.3713474,9.26066667 C53.0950737,9.60288889 53.6846211,10.1671111 54.2178,10.7546667 C53.5822737,10.7411111 52.9436526,10.7542222 52.3160842,10.8522222 C51.6540316,10.912 50.9802632,11.0733333 50.4236526,11.4544444 C50.9077579,11.9251111 51.4188316,12.3697778 51.8733158,12.8722222 C52.2769579,13.3226667 52.6929789,13.7693333 53.0141684,14.2855556 C53.0163789,14.2884444 53.0203579,14.2948889 53.0225684,14.2986667 C54.9890526,17.5577778 56.5457053,21.0528889 58.6008316,24.2602222 C58.6030421,24.2628889 58.6065789,24.2691111 58.6085684,24.2722222 C58.7736947,24.5346667 58.9450105,24.7931111 59.1214105,25.048 C59.1236211,25.0513333 59.1282632,25.0575556 59.1302526,25.0606667 C59.1543474,25.0968889 59.2025368,25.1688889 59.2268526,25.2046667 C59.2290632,25.2077778 59.2332632,25.214 59.2352526,25.2177778 C59.3188105,25.338 59.4023684,25.4591111 59.4850421,25.5808889 C59.4870316,25.5835556 59.4916737,25.5893333 59.4938842,25.592 L59.5575474,25.6571111 L59.3528526,25.6571111 C57.8015053,25.1568889 56.4499895,24.2004444 55.1780526,23.2024444 C54.2516211,22.4853333 53.4461053,21.6255556 52.7117684,20.7142222 C50.8164632,18.352 49.4472632,15.6097778 47.4922737,13.2922222 C47.1606947,12.8806667 46.7628,12.5133333 46.5276,12.0317778 C46.7601474,12.066 46.9955684,12.1368889 47.1790421,12.2911111 C47.7066947,12.7168889 48.1370842,13.2477778 48.5725579,13.7651111 C49.1857579,14.5091111 49.7454632,15.296 50.2910211,16.0902222 C51.7077474,18.1626667 53.0773895,20.3142222 54.9607579,21.9993333 C55.0684105,22.078 55.1488737,22.2051111 55.2819474,22.2424444 C55.2777474,22.1755556 55.2386211,22.1237778 55.1972842,22.0764444 C54.4815158,21.2128889 53.8004526,20.3206667 53.1487895,19.4071111 C52.3076842,18.2402222 51.5490316,17.0171111 50.7698211,15.8086667 C50.3213053,15.1133333 49.8765474,14.4135556 49.3542,13.7704444 C48.8378211,13.1226667 48.2529158,12.5288889 47.6012526,12.0191111 C46.7709789,11.364 45.6646105,11.1446667 44.6307474,11.256 C43.5624,11.3797778 42.5263263,11.7088889 41.5468421,12.1477778 C41.1745895,11.6933333 41.0914737,11.0606667 40.6705895,10.6402222 C40.0313053,9.99 39.1537263,9.68377778 38.3986105,9.202 C37.9386,8.922 37.4951684,8.52888889 37.3620947,7.98355556 C38.1413053,8.214 38.9196316,8.46022222 39.7238211,8.59044444 C40.4513053,8.72577778 41.1796737,8.87911111 41.9213053,8.90733333 C43.0981895,9.01088889 44.2861263,9.07177778 45.4641158,8.95422222 C44.6376,8.19977778 43.8499895,7.40333333 43.0891263,6.58244444 C42.3645158,5.80444444 41.6396842,5.02755556 40.9274526,4.23822222 C40.2492632,3.50066667 39.5175789,2.80244444 38.6833263,2.24444444 C38.6055158,2.19355556 38.5208526,2.15511111 38.4330947,2.12733333 C38.7151579,2.49444444 39.0686211,2.79822222 39.3723474,3.14622222 C40.7561368,4.658 42.0428842,6.26177778 43.5206211,7.68488889 C43.8464526,8.00822222 44.2087579,8.29533333 44.5372421,8.61355556 C44.0761263,8.57044444 43.7074105,8.26333333 43.3342737,8.01866667 C41.2110632,6.49333333 39.669,4.34355556 37.9401474,2.41355556 C37.2060316,1.57733333 36.4195263,0.773111111 35.4968526,0.145333333" id="Fill-20" fill="#FFFFFF"></path>
                            <path d="M6.73237895,12.876 C7.56176842,12.7904444 8.41436842,12.8417778 9.20971579,13.106 C9.18053684,13.6748889 9.11090526,14.2464444 9.03530526,14.8128889 L8.96854737,14.8271111 C8.75125263,14.3484444 8.59209474,13.7955556 8.15286316,13.4617778 C7.89909474,13.2177778 7.52728421,13.1877778 7.19570526,13.2282222 C6.95652632,13.2286667 6.76951579,13.4097778 6.62229474,13.5793333 C6.35813684,13.8968889 6.23390526,14.3226667 6.29292632,14.7326667 C6.321,14.9504444 6.47772632,15.1148889 6.58847368,15.2944444 C7.21405263,16.1897778 8.02288421,16.9635556 8.4882,17.9662222 C8.71566316,18.3515556 8.71411579,18.8144444 8.72207368,19.2486667 C8.72981053,19.7711111 8.47913684,20.2842222 8.06046316,20.5935556 C7.63537895,20.9237778 7.09136842,21.0104444 6.57587368,21.0942222 C5.95228421,21.182 5.30902105,21.1913333 4.69338947,21.0428889 C4.35031579,20.9631111 3.99265263,20.9064444 3.67676842,20.7426667 C3.79945263,20.1415556 3.89671579,19.5353333 3.97143158,18.9262222 C4.05056842,18.9268889 4.12992632,18.9268889 4.20884211,18.938 C4.24177895,19.2571111 4.23757895,19.5915556 4.37551579,19.888 C4.49864211,20.1484444 4.64741053,20.4166667 4.89808421,20.5726667 C5.24469474,20.7755556 5.67618947,20.7873333 6.05264211,20.666 C6.51375789,20.5511111 6.804,20.108 6.94923158,19.6817778 C7.02969474,19.2953333 7.05113684,18.8586667 6.83538947,18.51 C6.53343158,17.9442222 6.12581053,17.4475556 5.74471579,16.9357778 C5.37953684,16.4486667 4.99269474,15.9642222 4.76125263,15.3946667 C4.59104211,15.006 4.66155789,14.5573333 4.81098947,14.1735556 C5.0904,13.3857778 5.93371579,12.9222222 6.73237895,12.876" id="Fill-21" fill="#FFFFFF"></path>
                            <path d="M32.4286421,12.896 C32.6866105,12.8786667 32.9450211,12.8833333 33.2034316,12.8917778 C33.3566211,13.7331111 33.4244842,14.5873333 33.5836421,15.4277778 C33.7089789,16.086 33.7487684,16.7562222 33.873,17.4144444 C33.9952421,18.1133333 34.0723895,18.8182222 34.1590421,19.5215556 C34.1957368,19.7997778 34.23,20.0884444 34.3763368,20.3342222 C34.4994632,20.5862222 34.8255158,20.5642222 35.0536421,20.6502222 C35.0333053,20.7551111 35.0123053,20.8602222 34.9919684,20.9657778 C34.0076211,20.9773333 33.0228316,20.9711111 32.0380421,20.9688889 C32.0437895,20.8544444 32.0473263,20.7395556 32.0583789,20.6255556 C32.2301368,20.6093333 32.4078632,20.6606667 32.5754211,20.6028889 C32.6735684,20.5688889 32.7058421,20.4555556 32.7084947,20.3608889 C32.7476211,19.7962222 32.6598632,19.2335556 32.5842632,18.676 C31.7232632,18.6775556 30.8616,18.6771111 30.0003789,18.6817778 C29.7810947,19.002 29.6385158,19.3762222 29.4380211,19.7115556 C29.3398737,19.9084444 29.1864632,20.1211111 29.2594105,20.3526667 C29.3084842,20.5384444 29.4939474,20.676 29.6875895,20.644 C29.6756526,20.75 29.6668105,20.8564444 29.6610632,20.9631111 C28.9791158,20.9808889 28.2960632,20.9668889 27.6141158,20.9768889 C27.6172105,20.8671111 27.6267158,20.7577778 27.6375474,20.6486667 C28.1154632,20.5815556 28.5655263,20.2995556 28.8058105,19.8744444 C29.8527158,17.9411111 30.8509895,15.9824444 31.8583263,14.0282222 C32.0453368,13.6493333 32.2599789,13.2833333 32.4286421,12.896 Z M32.0809263,14.7677778 C31.4672842,15.8853333 30.8134105,16.9857778 30.2671895,18.1368889 C31.0156737,18.1426667 31.7639368,18.1411111 32.5122,18.1384444 C32.4803684,17.8466667 32.4520737,17.5546667 32.4202421,17.2633333 C32.3731579,16.3882222 32.2595368,15.5191111 32.1691263,14.6471111 C32.1178421,14.664 32.109,14.7284444 32.0809263,14.7677778 Z" id="Fill-22" fill="#FFFFFF"></path>
                            <path d="M24.6696947,14.4722222 C24.6820737,14.3495556 24.6942316,14.2255556 24.7302632,14.1073333 C25.3302,14.108 25.9301368,14.1044444 26.5300737,14.1068889 C26.5134947,14.2297778 26.502,14.3542222 26.4706105,14.4748889 C26.2900105,14.5091111 26.0961474,14.528 25.9400842,14.6348889 C25.1447368,15.3011111 24.4952842,16.1175556 23.7636,16.8497778 C24.0483158,17.4517778 24.3849789,18.0313333 24.6977684,18.6208889 C25.0602947,19.2586667 25.3410316,19.9588889 25.8664737,20.4864444 C26.0435368,20.688 26.3165368,20.7415556 26.5442211,20.8624444 C26.5347158,20.896 26.5258737,20.9295556 26.5176947,20.9635556 C25.9949053,20.9768889 25.4723368,20.9777778 24.9495474,20.9673333 C24.6570947,20.9635556 24.4428947,20.7222222 24.3005368,20.4911111 C23.8033895,19.5462222 23.2878947,18.6102222 22.7673158,17.6786667 C22.7246526,17.604 22.6749158,17.5337778 22.6216421,17.4671111 C22.5699158,17.7268889 22.5564316,17.992 22.5108947,18.2528889 C22.4089895,18.8471111 22.2686211,19.4351111 22.1939053,20.034 C22.1826316,20.222 22.1218421,20.4324444 22.2462947,20.5977778 C22.4326421,20.6444444 22.6247368,20.6228889 22.8144,20.622 C22.806,20.7377778 22.7892,20.8533333 22.7777053,20.9693333 C21.8393368,20.9735556 20.9011895,20.9711111 19.9628211,20.9704444 C19.9811684,20.8586667 20.0019474,20.7468889 20.0233895,20.636 C20.1978,20.6171111 20.3772947,20.646 20.5481684,20.5966667 C20.8118842,20.416 20.8275789,20.0664444 20.8667053,19.7784444 C20.9637474,19.0382222 21.1611474,18.3148889 21.2447053,17.5724444 C21.3309158,17.0308889 21.4513895,16.4948889 21.5402526,15.9537778 C21.5731895,15.4995556 21.7330105,15.0571111 21.6905684,14.5977778 C21.4984737,14.5495556 21.3010737,14.5331111 21.1067684,14.5017778 C21.1056632,14.3804444 21.1056632,14.2586667 21.1067684,14.1373333 C22.0400526,14.1373333 22.9731158,14.1388889 23.9061789,14.1362222 C23.8847368,14.2491111 23.8639579,14.3626667 23.8456105,14.4764444 C23.6738526,14.5002222 23.5020947,14.5257778 23.3312211,14.558 C23.1851053,14.5777778 23.1411158,14.7453333 23.1019895,14.8644444 C22.9375263,15.5346667 22.8791684,16.2244444 22.7485263,16.9011111 C22.9585263,16.7824444 23.1223263,16.6008889 23.2927579,16.4324444 C23.8148842,15.9262222 24.3454105,15.4286667 24.8617895,14.9162222 C24.9583895,14.8166667 25.0549895,14.7022222 25.0925684,14.5673333 C24.9510947,14.5377778 24.8116105,14.4995556 24.6696947,14.4722222" id="Fill-23" fill="#FFFFFF"></path>
                            <path d="M37.1850316,14.4995556 C37.2263684,14.3704444 37.2444947,14.2202222 37.3225263,14.1095556 C38.2288421,14.1022222 39.1353789,14.1068889 40.0419158,14.11 C40.0529684,14.234 40.0330737,14.3573333 40.0094211,14.4791111 C39.7793053,14.5142222 39.5427789,14.5231111 39.3190737,14.5908889 C39.1776,14.6597778 39.1694211,14.8424444 39.1395789,14.9773333 C39.0314842,15.6522222 38.8685684,16.3184444 38.7872211,16.9982222 C38.6804526,17.6628889 38.5177579,18.318 38.4392842,18.9871111 C38.3875579,19.4475556 38.2299474,19.8922222 38.2146947,20.3573333 C38.1855158,20.486 38.3201368,20.5631111 38.4242526,20.5935556 C38.5781053,20.6255556 38.7379263,20.6062222 38.8946526,20.6244444 C38.8754211,20.7415556 38.8466842,20.8571111 38.8241368,20.9742222 C37.9010211,20.9768889 36.9776842,20.9784444 36.0545684,20.9731111 C36.0665053,20.8575556 36.0795474,20.7415556 36.0941368,20.626 C36.3202737,20.5935556 36.6231158,20.7111111 36.7840421,20.4933333 C36.9845368,20.1288889 36.9980211,19.7026667 37.0888737,19.3048889 C37.1850316,18.4948889 37.3961368,17.7031111 37.4920737,16.8926667 C37.6163053,16.128 37.8064105,15.3693333 37.8481895,14.5931111 C37.6269158,14.5622222 37.4058632,14.5288889 37.1850316,14.4995556" id="Fill-24" fill="#FFFFFF"></path>
                            <path d="M41.2857789,14.1304444 C42.3508105,14.1211111 43.4167263,14.128 44.4819789,14.1268889 C44.9926105,14.1346667 45.5445789,14.2837778 45.8781474,14.698 C46.1836421,15.11 46.2174632,15.6644444 46.1089263,16.152 C46.0337684,16.4655556 45.9325263,16.7862222 45.7178842,17.0328889 C45.4269789,17.3746667 45.0083053,17.5788889 44.5790211,17.6806667 C44.6188105,17.9257778 44.7423789,18.1453333 44.8365474,18.3726667 C45.0724105,18.9913333 45.3367895,19.6004444 45.6389684,20.1893333 C45.8567053,20.5195556 46.2813474,20.5882222 46.6412211,20.6464444 C46.6290632,20.7584444 46.6197789,20.8711111 46.5956842,20.9815556 C46.0468105,20.9808889 45.4986,20.9793333 44.9503895,20.9746667 C44.6714211,20.9762222 44.4432947,20.7788889 44.2814842,20.5693333 C44.0217474,20.1153333 43.9238211,19.5935556 43.7153684,19.118 C43.5555474,18.7168889 43.4193789,18.3048889 43.2113684,17.9253333 C43.0172842,17.9106667 42.8214316,17.9253333 42.6271263,17.9295556 C42.5446737,18.4748889 42.4615579,19.0197778 42.3572211,19.5615556 C42.3116842,19.848 42.2223789,20.1473333 42.2997474,20.4351111 C42.3932526,20.6706667 42.6972,20.584 42.8943789,20.6282222 C42.8758105,20.7411111 42.8965895,20.8686667 42.8616632,20.9742222 C41.9301474,20.9768889 40.9986316,20.9773333 40.0668947,20.9742222 C40.0863474,20.856 40.1018211,20.7373333 40.1312211,20.6213333 C40.3566947,20.6073333 40.6387579,20.6895556 40.8136105,20.5002222 C41.0293579,20.0344444 41.0382,19.5091111 41.1558,19.0155556 C41.2349368,18.2806667 41.4323368,17.5657778 41.5196526,16.8317778 C41.6078526,16.0633333 41.8804105,15.3191111 41.8589684,14.5377778 C41.6445474,14.4775556 41.4199579,14.4926667 41.2000105,14.4937778 C41.2260947,14.372 41.2554947,14.2513333 41.2857789,14.1304444 Z M43.2224211,14.5531111 C43.1660526,15.268 42.9618,15.96 42.8813368,16.6717778 C42.8563579,16.9395556 42.7911474,17.2008889 42.7451684,17.4655556 C43.0626,17.4655556 43.3804737,17.4706667 43.6981263,17.4671111 C44.0427474,17.4671111 44.3858211,17.2682222 44.541,16.9557778 C44.7269053,16.5755556 44.8186421,16.1573333 44.8776632,15.74 C44.9002105,15.5557778 44.9262947,15.3615556 44.8626316,15.182 C44.7596211,14.8791111 44.4959053,14.6171111 44.1733895,14.572 C43.8610421,14.5042222 43.5372,14.5184444 43.2224211,14.5531111 Z" id="Fill-25" fill="#FFFFFF"></path>
                            <path d="M11.2148842,14.1368889 C12.1391053,14.1291111 13.0633263,14.1368889 13.9875474,14.138 C13.9577053,14.2586667 13.9347158,14.3811111 13.9081895,14.5022222 C13.6789579,14.5357778 13.4393368,14.5184444 13.2204947,14.604 C13.1124,14.6791111 13.0867579,14.8182222 13.0637684,14.9388889 C12.9645158,15.6984444 12.7604842,16.4408889 12.6822316,17.204 C12.5692737,17.816 12.4415053,18.4266667 12.3614842,19.0444444 C12.2947263,19.4491111 12.1961368,19.848 12.1490526,20.256 C12.1318105,20.3824444 12.1678421,20.528 12.2801368,20.6013333 C12.4538842,20.6406667 12.6351474,20.6213333 12.8122105,20.6286667 C12.7896632,20.7515556 12.7673368,20.8748889 12.7405895,20.9977778 C11.8121684,21.0024444 10.8837474,21.0197778 9.95576842,20.984 C9.97875789,20.8633333 10.0028526,20.7435556 10.0212,20.6224444 C10.2342947,20.622 10.4493789,20.6302222 10.6602632,20.5877778 C10.8806526,20.236 10.9082842,19.8113333 10.9944947,19.4151111 C11.0849053,18.6177778 11.2984421,17.8413333 11.3919474,17.0444444 C11.5155158,16.2737778 11.6910316,15.5111111 11.7823263,14.7357778 C11.7783474,14.7042222 11.7692842,14.6417778 11.7653053,14.6102222 C11.5537579,14.5537778 11.3333684,14.5468889 11.1198316,14.5033333 C11.1494526,14.3804444 11.1819474,14.2586667 11.2148842,14.1368889" id="Fill-26" fill="#FFFFFF"></path>
                            <path d="M15.3138632,14.1446667 C16.2506842,14.1295556 17.1886105,14.1337778 18.1258737,14.1384444 C18.0980211,14.2548889 18.0688421,14.3711111 18.0500526,14.4895556 C17.8396105,14.5573333 17.5789895,14.4813333 17.4067895,14.6513333 C17.2505053,14.9153333 17.2354737,15.2328889 17.1744632,15.528 C17.0913474,16.1788889 16.9383789,16.8182222 16.8225474,17.464 C16.7133474,18.4162222 16.4231053,19.3404444 16.3671789,20.2995556 C16.3941474,20.5326667 16.6558737,20.622 16.8574737,20.6208889 C17.2071789,20.6197778 17.5586526,20.6464444 17.9074737,20.5997778 C18.2459053,20.528 18.5195684,20.288 18.7324421,20.0255556 C18.8374421,19.8764444 18.8838632,19.6922222 19.0019053,19.5511111 C19.1321053,19.5168889 19.2678316,19.5126667 19.4013474,19.5257778 C19.2468316,19.9993333 19.1723368,20.4944444 19.0463368,20.9757778 C18.3002842,20.9711111 17.5540105,20.9608889 16.8095053,21.004 C15.9332526,20.9973333 15.057,21.0082222 14.1811895,20.9977778 C14.2002,20.8722222 14.2245158,20.7473333 14.2455158,20.6224444 C14.4424737,20.6066667 14.6805474,20.6902222 14.8434632,20.5395556 C14.9933368,20.3777778 15.0218526,20.1477778 15.0627474,19.94 C15.1463053,19.1437778 15.3594,18.3684444 15.4564421,17.5746667 C15.5645368,16.856 15.7435895,16.1488889 15.8236105,15.426 C15.8589789,15.1568889 15.9666316,14.8822222 15.8903684,14.6097778 C15.7148526,14.518 15.5123684,14.5426667 15.3269053,14.4891111 C15.3059053,14.3751111 15.3076737,14.2597778 15.3138632,14.1446667" id="Fill-27" fill="#FFFFFF"></path>
                            <path d="M35.7882,0.145333333 L62.8607368,0.145333333 L62.8607368,25.6571111 L59.5575474,25.6571111 L59.4938842,25.592 C59.4916737,25.5893333 59.4870316,25.5835556 59.4850421,25.5808889 C59.4023684,25.4591111 59.3188105,25.338 59.2352526,25.2177778 C59.2332632,25.214 59.2290632,25.2077778 59.2268526,25.2046667 C59.2025368,25.1688889 59.1543474,25.0968889 59.1302526,25.0606667 C59.1282632,25.0575556 59.1236211,25.0513333 59.1214105,25.048 C58.9450105,24.7931111 58.7736947,24.5346667 58.6085684,24.2722222 C58.6065789,24.2691111 58.6030421,24.2628889 58.6008316,24.2602222 C56.5457053,21.0528889 54.9890526,17.5577778 53.0225684,14.2986667 C53.0203579,14.2948889 53.0163789,14.2884444 53.0141684,14.2855556 C52.6929789,13.7693333 52.2769579,13.3226667 51.8733158,12.8722222 C51.4188316,12.3697778 50.9077579,11.9251111 50.4236526,11.4544444 C50.9802632,11.0733333 51.6540316,10.912 52.3160842,10.8522222 C52.9436526,10.7542222 53.5822737,10.7411111 54.2178,10.7546667 C53.6846211,10.1671111 53.0950737,9.60288889 52.3713474,9.26066667 C51.4685684,8.98977778 50.5114105,9.22866667 49.5964737,9.05644444 C48.7339263,8.868 47.9825684,8.35622222 47.3236105,7.78511111 C46.6551474,7.162 46.0870421,6.44177778 45.5008105,5.74311111 C45.4986,5.74044444 45.4939579,5.73511111 45.4917474,5.73266667 C45.2176421,5.43177778 44.9545895,5.12111111 44.6610316,4.83977778 C44.0297053,4.24644444 43.3305158,3.732 42.6333158,3.22133333 C42.6297789,3.21866667 42.6229263,3.214 42.6193895,3.21133333 C42.5838,3.18777778 42.5128421,3.13933333 42.4772526,3.11533333 C42.4741579,3.11311111 42.4668632,3.10844444 42.4633263,3.10577778 C42.3132316,2.99977778 42.1587158,2.90066667 42.0057474,2.80022222 C42.0026526,2.79866667 41.9969053,2.79466667 41.9938105,2.79311111 C40.8251053,2.06488889 39.5896421,1.44133333 38.2998,0.960888889 C38.2962632,0.959333333 38.2894105,0.956666667 38.2858737,0.955111111 C38.2054105,0.923777778 38.1271579,0.892666667 38.0462526,0.864444444 C38.0378526,0.861111111 38.0210526,0.855555556 38.0126526,0.852222222 C37.9823684,0.841777778 37.9218,0.821333333 37.8921789,0.810888889 C37.8837789,0.807555556 37.8676421,0.801777778 37.8596842,0.799333333 C37.8256421,0.787777778 37.7584421,0.764 37.7244,0.752 C37.7213053,0.751111111 37.7151158,0.748888889 37.7120211,0.747777778 C37.4582526,0.655555556 37.2044842,0.562444444 36.9438632,0.491555556 C36.9392211,0.490666667 36.9301579,0.487555556 36.9255158,0.486444444 C36.8101263,0.451333333 36.6947368,0.417777778 36.5789053,0.386222222 C36.5740421,0.385111111 36.5647579,0.382444444 36.5601158,0.380888889 C36.4425158,0.347333333 36.3255789,0.314666667 36.2086421,0.281111111 C36.2055474,0.280222222 36.1998,0.278666667 36.1967053,0.277555556 C36.0603158,0.232888889 35.9208316,0.199333333 35.7882,0.145333333" id="Fill-28" fill="#00246A"></path>
                        </g>
                    </g>
                </g>
            </g>
        </g>
    </g>
</svg>