<svg xmlns="http://www.w3.org/2000/svg" width="13.276" height="11.632" viewBox="0 0 13.276 11.632"><defs><style>.a{fill:#fff;}</style></defs><path class="a" d="M9.866,38.688l-2.68-4.019a.752.752,0,0,0-.487-.244.554.554,0,0,0-.487.244l-2.68,4.019H.609A.575.575,0,0,0,0,39.3v.183l1.522,5.664a1.241,1.241,0,0,0,1.157.913H10.6a1.174,1.174,0,0,0,1.157-.913l1.522-5.664V39.3a.575.575,0,0,0-.609-.609Zm-4.994,0L6.7,36.008l1.827,2.68ZM6.7,43.56a1.218,1.218,0,1,1,1.218-1.218A1.222,1.222,0,0,1,6.7,43.56Z" transform="translate(0 -34.425)"/></svg>