<svg id="painter-palette" xmlns="http://www.w3.org/2000/svg" width="23" height="23" viewBox="0 0 23 23">
  <g id="palette">
    <path id="Path_4649" data-name="Path 4649" d="M11.5,0a11.5,11.5,0,0,0,0,23,1.965,1.965,0,0,0,1.917-1.917,1.64,1.64,0,0,0-.511-1.278,2.27,2.27,0,0,1-.511-1.278,1.965,1.965,0,0,1,1.917-1.917h2.3A6.327,6.327,0,0,0,23,10.222C23,4.6,17.889,0,11.5,0ZM4.472,11.5A1.965,1.965,0,0,1,2.556,9.583,1.965,1.965,0,0,1,4.472,7.667,1.965,1.965,0,0,1,6.389,9.583,1.965,1.965,0,0,1,4.472,11.5ZM8.306,6.389A1.965,1.965,0,0,1,6.389,4.472,1.965,1.965,0,0,1,8.306,2.556a1.965,1.965,0,0,1,1.917,1.917A1.965,1.965,0,0,1,8.306,6.389Zm6.389,0a1.965,1.965,0,0,1-1.917-1.917,1.917,1.917,0,1,1,3.833,0A1.965,1.965,0,0,1,14.694,6.389ZM18.528,11.5a1.965,1.965,0,0,1-1.917-1.917,1.917,1.917,0,0,1,3.833,0A1.965,1.965,0,0,1,18.528,11.5Z" fill="#949494"/>
  </g>
</svg>
