<svg xmlns="http://www.w3.org/2000/svg" width="18.024" height="21.629" viewBox="0 0 18.024 21.629">
  <g id="Group_4400" data-name="Group 4400" transform="translate(-513 -164)">
    <path id="Path_4702" data-name="Path 4702" d="M210.123,379.629H193.9a.9.9,0,0,1-.9-.9V358.9a.9.9,0,0,1,.9-.9h11.716a.9.9,0,0,1,.637.264l4.506,4.506a.9.9,0,0,1,.264.637v15.321A.9.9,0,0,1,210.123,379.629Zm-15.321-1.8h14.42V363.78l-3.978-3.978H194.8Z" transform="translate(320 -194)" fill="#919497"/>
    <path id="Path_4703" data-name="Path 4703" d="M202.654,368.309a3.154,3.154,0,1,1,3.154-3.154A3.158,3.158,0,0,1,202.654,368.309Zm0-4.506a1.352,1.352,0,1,0,1.352,1.352A1.353,1.353,0,0,0,202.654,363.8Z" transform="translate(319.357 -194.396)" fill="#919497"/>
    <path id="Path_4704" data-name="Path 4704" d="M206.913,373.309H197.9a.9.9,0,0,1-.9-.9,5.407,5.407,0,0,1,10.815,0A.9.9,0,0,1,206.913,373.309Zm-8-1.8H205.9a3.606,3.606,0,0,0-6.983,0Z" transform="translate(319.605 -194.889)" fill="#919497"/>
    <path id="Path_4705" data-name="Path 4705" d="M206.913,377.8H197.9a.9.9,0,1,1,0-1.8h9.012a.9.9,0,1,1,0,1.8Z" transform="translate(319.605 -195.778)" fill="#919497"/>
  </g>
</svg>
