<svg xmlns="http://www.w3.org/2000/svg" width="148.486" height="101.674" viewBox="0 0 148.486 101.674">
  <g id="Vector_Smart_Object" data-name="Vector Smart Object" transform="translate(-31.245 -52.865)">
    <g id="Group_13" data-name="Group 13">
      <g id="Group_12" data-name="Group 12">
        <g id="Group_11" data-name="Group 11">
          <g id="Group_2" data-name="Group 2" opacity="0.51">
            <rect id="Rectangle_1" data-name="Rectangle 1" width="75.479" height="97.885" transform="translate(65.534 56.654)" fill="#4eac53"/>
            <g id="Group_1" data-name="Group 1">
              <rect id="Rectangle_2" data-name="Rectangle 2" width="75.479" height="97.885" transform="translate(65.534 56.654)" fill="#4eac53"/>
            </g>
          </g>
          <g id="Group_10" data-name="Group 10">
            <g id="Group_4" data-name="Group 4">
              <rect id="Rectangle_3" data-name="Rectangle 3" width="75.479" height="97.885" transform="translate(63.218 53.699)" fill="#fff"/>
              <g id="Group_3" data-name="Group 3">
                <rect id="Rectangle_4" data-name="Rectangle 4" width="75.479" height="97.885" transform="translate(63.218 53.699)" fill="none" stroke="#4eac53" stroke-miterlimit="10" stroke-width="1.667"/>
              </g>
            </g>
            <line id="Line_1" data-name="Line 1" x2="17.343" transform="translate(108.097 74.062)" fill="none" stroke="#4eac53" stroke-miterlimit="10" stroke-width="0.834"/>
            <line id="Line_2" data-name="Line 2" x2="11.456" transform="translate(108.097 70.727)" fill="none" stroke="#418c42" stroke-miterlimit="10" stroke-width="1.667"/>
            <line id="Line_3" data-name="Line 3" x2="17.343" transform="translate(108.097 76.285)" fill="none" stroke="#4eac53" stroke-miterlimit="10" stroke-width="0.834"/>
            <line id="Line_4" data-name="Line 4" x2="17.343" transform="translate(108.097 78.369)" fill="none" stroke="#4eac53" stroke-miterlimit="10" stroke-width="0.834"/>
            <g id="Group_5" data-name="Group 5">
              <line id="Line_5" data-name="Line 5" x2="27.631" transform="translate(70.285 99.992)" fill="none" stroke="#4eac53" stroke-miterlimit="10" stroke-width="0.834"/>
              <line id="Line_6" data-name="Line 6" x2="61.081" transform="translate(70.285 103.449)" fill="none" stroke="#4eac53" stroke-miterlimit="10" stroke-width="0.834"/>
              <line id="Line_7" data-name="Line 7" x2="61.081" transform="translate(70.285 106.906)" fill="none" stroke="#4eac53" stroke-miterlimit="10" stroke-width="0.834"/>
              <line id="Line_8" data-name="Line 8" x2="61.081" transform="translate(70.285 110.363)" fill="none" stroke="#4eac53" stroke-miterlimit="10" stroke-width="0.834"/>
              <line id="Line_9" data-name="Line 9" x2="61.081" transform="translate(70.285 113.82)" fill="none" stroke="#4eac53" stroke-miterlimit="10" stroke-width="0.834"/>
              <line id="Line_10" data-name="Line 10" x2="61.081" transform="translate(70.285 117.277)" fill="none" stroke="#4eac53" stroke-miterlimit="10" stroke-width="0.834"/>
            </g>
            <g id="Group_6" data-name="Group 6">
              <line id="Line_11" data-name="Line 11" x2="19.081" transform="translate(70.285 125.665)" fill="none" stroke="#418c42" stroke-miterlimit="10" stroke-width="1.667"/>
              <line id="Line_12" data-name="Line 12" x2="61.081" transform="translate(70.285 129.122)" fill="none" stroke="#4eac53" stroke-miterlimit="10" stroke-width="0.834"/>
              <line id="Line_13" data-name="Line 13" x2="61.081" transform="translate(70.285 132.579)" fill="none" stroke="#4eac53" stroke-miterlimit="10" stroke-width="0.834"/>
              <line id="Line_14" data-name="Line 14" x2="61.081" transform="translate(70.285 136.036)" fill="none" stroke="#4eac53" stroke-miterlimit="10" stroke-width="0.834"/>
              <line id="Line_15" data-name="Line 15" x2="61.081" transform="translate(70.285 139.493)" fill="none" stroke="#4eac53" stroke-miterlimit="10" stroke-width="0.834"/>
              <line id="Line_16" data-name="Line 16" x2="61.081" transform="translate(70.285 142.95)" fill="none" stroke="#4eac53" stroke-miterlimit="10" stroke-width="0.834"/>
            </g>
            <g id="Group_9" data-name="Group 9">
              <ellipse id="Ellipse_1" data-name="Ellipse 1" cx="16.864" cy="16.863" rx="16.864" ry="16.863" transform="translate(69.792 59.353)" fill="#4eac53" opacity="0.3"/>
              <ellipse id="Ellipse_2" data-name="Ellipse 2" cx="16.864" cy="16.863" rx="16.864" ry="16.863" transform="translate(69.792 59.353)" fill="none" stroke="#4eac53" stroke-miterlimit="10" stroke-width="0.834"/>
              <g id="Group_8" data-name="Group 8">
                <path id="Path_2" data-name="Path 2" d="M89.413,88.743a10.984,10.984,0,0,1-5.471,0l1.011-1.665L80.536,84.6S75.358,81.613,76.055,74s9.068-9.174,10.659-9.058,10.232,1.126,10.8,10.8c0,0-.306,7.59-5.6,9.464l-3.571,1.874Z" fill="#fff"/>
                <path id="Path_3" data-name="Path 3" d="M93.992,75.237a18.094,18.094,0,0,1-10.764-2.077,4.866,4.866,0,0,1-3.983,2.452v3.737s.163,4.614,1.9,5.592a11.649,11.649,0,0,1-5.233-9.7c.125-6.472,6.885-10.39,10.8-10.294,0,0,9.5.384,10.473,8.446,0,0,1.129,8.561-4.459,11.323l1.1-4.292Z" fill="#fff" opacity="0.3"/>
                <path id="Path_4" data-name="Path 4" d="M81.471,85.136a10.755,10.755,0,1,1,9.938.333" fill="none" stroke="#4eac53" stroke-linecap="round" stroke-miterlimit="10" stroke-width="1.667"/>
                <path id="Path_5" data-name="Path 5" d="M94.137,77.447v2.378s1.717-.464,1.446-1.351S94.137,77.447,94.137,77.447Z" fill="#fff"/>
                <path id="Path_6" data-name="Path 6" d="M79.176,79.825V77.447s-1.717.463-1.447,1.35S79.176,79.825,79.176,79.825Z" fill="#fff"/>
                <g id="Group_7" data-name="Group 7">
                  <path id="Path_7" data-name="Path 7" d="M92.168,75.142V80.5a8.051,8.051,0,0,1-5.55,6.58s5.707-.21,7.174-5.734l.2-5.734Z" fill="#4eac53" opacity="0.3"/>
                  <path id="Path_8" data-name="Path 8" d="M87.193,89.219l-.575-2.141h1.724l.595,1.427Z" fill="#4eac53" opacity="0.3"/>
                  <path id="Path_9" data-name="Path 9" d="M93.992,75.611v4.095a7.4,7.4,0,0,1-7.374,7.373h0a7.4,7.4,0,0,1-7.374-7.373V75.611" fill="none" stroke="#4eac53" stroke-linecap="round" stroke-linejoin="round" stroke-width="1.667"/>
                  <path id="Path_10" data-name="Path 10" d="M88.342,87.079l1.071,1.665a11.556,11.556,0,0,1-2.675.476,12.684,12.684,0,0,1-2.8-.476l1.011-1.665" fill="none" stroke="#4eac53" stroke-linecap="round" stroke-linejoin="round" stroke-width="1.667"/>
                  <ellipse id="Ellipse_3" data-name="Ellipse 3" cx="0.715" cy="0.715" rx="0.715" ry="0.715" transform="translate(83.227 77.921)" fill="#4eac53"/>
                  <ellipse id="Ellipse_4" data-name="Ellipse 4" cx="0.715" cy="0.715" rx="0.715" ry="0.715" transform="translate(88.937 77.921)" fill="#4eac53"/>
                  <path id="Path_11" data-name="Path 11" d="M88.773,82.091a2.516,2.516,0,0,1-4.118.077" fill="none" stroke="#4eac53" stroke-linecap="round" stroke-linejoin="round" stroke-width="0.834"/>
                  <path id="Path_12" data-name="Path 12" d="M79.033,79.825a1.189,1.189,0,0,1,0-2.378" fill="none" stroke="#4eac53" stroke-linecap="round" stroke-linejoin="round" stroke-width="0.834"/>
                  <path id="Path_13" data-name="Path 13" d="M94.393,77.447a1.189,1.189,0,0,1,0,2.378" fill="none" stroke="#4eac53" stroke-linecap="round" stroke-linejoin="round" stroke-width="0.834"/>
                  <path id="Path_14" data-name="Path 14" d="M77.844,75.611s3.746.144,5.383-2.452" fill="none" stroke="#4eac53" stroke-linecap="round" stroke-miterlimit="10" stroke-width="1.667"/>
                  <path id="Path_15" data-name="Path 15" d="M81.987,71.539s2.058,4.2,12.644,3.647" fill="none" stroke="#4eac53" stroke-linecap="round" stroke-miterlimit="10" stroke-width="1.667"/>
                </g>
              </g>
            </g>
          </g>
        </g>
      </g>
    </g>
    <g id="Group_19" data-name="Group 19">
      <ellipse id="Ellipse_5" data-name="Ellipse 5" cx="24.958" cy="24.955" rx="24.958" ry="24.955" transform="translate(116.836 83.733)" fill="#4eac53" opacity="0.32"/>
      <g id="Group_17" data-name="Group 17">
        <g id="Group_16" data-name="Group 16">
          <g id="Group_14" data-name="Group 14">
            <rect id="Rectangle_5" data-name="Rectangle 5" width="10.064" height="10.371" transform="matrix(0, 1, -1, 0, 176.331, 98.623)" fill="#4eac53" opacity="0.78"/>
            <rect id="Rectangle_6" data-name="Rectangle 6" width="3.143" height="10.371" transform="matrix(0, 1, -1, 0, 176.331, 105.545)" fill="#4eac53" opacity="0.78"/>
            <rect id="Rectangle_7" data-name="Rectangle 7" width="10.064" height="10.371" transform="matrix(0, 1, -1, 0, 176.331, 98.623)" stroke-width="0.834" stroke="#4eac53" stroke-linecap="round" stroke-linejoin="round" fill="none"/>
          </g>
          <g id="Group_15" data-name="Group 15">
            <path id="Rectangle_8" data-name="Rectangle 8" d="M3.847,0h8.075a3.117,3.117,0,0,1,3.117,3.117V8.1a0,0,0,0,1,0,0H0a0,0,0,0,1,0,0V3.847A3.847,3.847,0,0,1,3.847,0Z" transform="matrix(0, 1, -1, 0, 178.897, 96.021)" fill="#fff"/>
            <path id="Rectangle_9" data-name="Rectangle 9" d="M2.464,0h9.756a2.819,2.819,0,0,1,2.819,2.819V8.1a0,0,0,0,1,0,0H0a0,0,0,0,1,0,0V2.464A2.464,2.464,0,0,1,2.464,0Z" transform="matrix(0, 1, -1, 0, 178.897, 96.021)" fill="none" stroke="#4eac53" stroke-linecap="round" stroke-linejoin="round" stroke-width="1.667"/>
            <line id="Line_17" data-name="Line 17" x1="5.553" transform="translate(170.798 97.525)" fill="none" stroke="#4eac53" stroke-linecap="round" stroke-linejoin="round" stroke-width="0.834"/>
            <line id="Line_18" data-name="Line 18" x1="5.553" transform="translate(170.798 98.999)" fill="none" stroke="#4eac53" stroke-linecap="round" stroke-linejoin="round" stroke-width="0.834"/>
            <line id="Line_19" data-name="Line 19" x1="5.553" transform="translate(170.798 100.474)" fill="none" stroke="#4eac53" stroke-linecap="round" stroke-linejoin="round" stroke-width="0.834"/>
            <line id="Line_20" data-name="Line 20" x1="5.553" transform="translate(170.798 101.949)" fill="none" stroke="#4eac53" stroke-linecap="round" stroke-linejoin="round" stroke-width="0.834"/>
            <line id="Line_21" data-name="Line 21" x1="5.553" transform="translate(170.798 103.424)" fill="none" stroke="#4eac53" stroke-linecap="round" stroke-linejoin="round" stroke-width="0.834"/>
            <line id="Line_22" data-name="Line 22" x1="5.553" transform="translate(170.798 104.899)" fill="none" stroke="#4eac53" stroke-linecap="round" stroke-linejoin="round" stroke-width="0.834"/>
            <line id="Line_23" data-name="Line 23" x1="5.553" transform="translate(170.798 106.374)" fill="none" stroke="#4eac53" stroke-linecap="round" stroke-linejoin="round" stroke-width="0.834"/>
            <line id="Line_24" data-name="Line 24" x1="5.553" transform="translate(170.798 107.849)" fill="none" stroke="#4eac53" stroke-linecap="round" stroke-linejoin="round" stroke-width="0.834"/>
            <line id="Line_25" data-name="Line 25" x1="5.553" transform="translate(170.798 109.324)" fill="none" stroke="#4eac53" stroke-linecap="round" stroke-linejoin="round" stroke-width="0.834"/>
          </g>
        </g>
        <ellipse id="Ellipse_6" data-name="Ellipse 6" cx="24.097" cy="24.094" rx="24.097" ry="24.094" transform="translate(121.052 79.477)" fill="#fff"/>
        <ellipse id="Ellipse_7" data-name="Ellipse 7" cx="24.097" cy="24.094" rx="24.097" ry="24.094" transform="translate(120.916 79.13)" fill="#4eac53" opacity="0.78"/>
        <path id="Path_16" data-name="Path 16" d="M148.4,79.572a24.094,24.094,0,0,1-10.927,46.756A24.094,24.094,0,1,0,148.4,79.572Z" fill="#4eac53" opacity="0.65"/>
        <ellipse id="Ellipse_8" data-name="Ellipse 8" cx="18.049" cy="18.047" rx="18.049" ry="18.047" transform="translate(127.1 85.524)" fill="#fff"/>
        <ellipse id="Ellipse_9" data-name="Ellipse 9" cx="18.049" cy="18.047" rx="18.049" ry="18.047" transform="translate(126.964 85.388)" fill="#4eac53" opacity="0.3"/>
        <ellipse id="Ellipse_10" data-name="Ellipse 10" cx="17.218" cy="17.216" rx="17.218" ry="17.216" transform="translate(127.794 86.219)" fill="#fff"/>
        <path id="Path_17" data-name="Path 17" d="M131.086,103.949A17.217,17.217,0,0,1,148.3,86.733c.273,0,.545.008.816.021a17.217,17.217,0,1,0-5.042,33.888A17.223,17.223,0,0,1,131.086,103.949Z" fill="#4eac53" opacity="0.3"/>
        <g id="Ellipse_11" data-name="Ellipse 11" transform="translate(126.964 85.388)" fill="none" stroke="#4eac53" stroke-linecap="round" stroke-linejoin="round" stroke-width="1.667">
          <ellipse cx="18.049" cy="18.047" rx="18.049" ry="18.047" stroke="none"/>
          <ellipse cx="18.049" cy="18.047" rx="18.883" ry="18.881" fill="none"/>
        </g>
        <ellipse id="Ellipse_12" data-name="Ellipse 12" cx="24.097" cy="24.094" rx="24.097" ry="24.094" transform="translate(120.916 79.341)" fill="none" stroke="#4eac53" stroke-linecap="round" stroke-linejoin="round" stroke-width="1.667"/>
      </g>
      <rect id="Rectangle_10" data-name="Rectangle 10" width="5.036" height="11.527" transform="matrix(0.764, 0.645, -0.646, 0.764, 150.408, 92.274)" stroke-width="0.834" stroke="#4eac53" stroke-linecap="round" stroke-linejoin="round" fill="#fff"/>
      <rect id="Rectangle_11" data-name="Rectangle 11" width="5.036" height="16.168" transform="matrix(-0.4, 0.917, -0.917, -0.4, 147.423, 101.399)" stroke-width="0.834" stroke="#4eac53" stroke-linecap="round" stroke-linejoin="round" fill="#fff"/>
      <g id="Group_18" data-name="Group 18">
        <ellipse id="Ellipse_13" data-name="Ellipse 13" cx="3.22" cy="3.219" rx="3.22" ry="3.219" transform="translate(141.688 100.094)" fill="#fff"/>
        <ellipse id="Ellipse_14" data-name="Ellipse 14" cx="3.22" cy="3.219" rx="3.22" ry="3.219" transform="translate(141.688 100.094)" fill="none" stroke="#4eac53" stroke-linecap="round" stroke-linejoin="round" stroke-width="0.834"/>
        <path id="Path_18" data-name="Path 18" d="M147.03,101.393a3.214,3.214,0,0,1-5.236,3.222,3.217,3.217,0,1,0,5.236-3.222Z" fill="#4eac53" opacity="0.3"/>
        <ellipse id="Ellipse_15" data-name="Ellipse 15" cx="3.22" cy="3.219" rx="3.22" ry="3.219" transform="translate(141.688 100.094)" fill="#4eac53" opacity="0.3"/>
      </g>
    </g>
    <g id="Group_21" data-name="Group 21">
      <path id="Path_19" data-name="Path 19" d="M45.776,92.507l-1,4.332L41.8,96.154,36,121.338a.417.417,0,1,0,.812.188l5.611-24.372,2.167.5L33.628,145.271a4.312,4.312,0,0,0,2.438,4.894l-.465,2.019a.834.834,0,0,0,1.625.374l.465-2.019a4.314,4.314,0,0,0,4.333-3.336L54.171,94.439Z" fill="#4eac53" opacity="0.51"/>
      <g id="Group_20" data-name="Group 20">
        <path id="Path_20" data-name="Path 20" d="M44.136,92.13l-11.96,51.952a3.483,3.483,0,0,0,2.605,4.164h0a3.484,3.484,0,0,0,4.165-2.606l11.96-51.952Z" fill="#fff"/>
        <path id="Path_21" data-name="Path 21" d="M44.136,92.13l-11.96,51.952a3.483,3.483,0,0,0,2.605,4.164h0a3.484,3.484,0,0,0,4.165-2.606l11.96-51.952Z" fill="none" stroke="#4eac53" stroke-miterlimit="10" stroke-width="1.667"/>
        <path id="Path_22" data-name="Path 22" d="M50,97.614l-6.094-1.4-4.062-.935-5.7,24.778" fill="none" stroke="#4eac53" stroke-linecap="round" stroke-miterlimit="10" stroke-width="0.834"/>
        <path id="Path_23" data-name="Path 23" d="M48.063,93.033,36.37,143.822s-1.1,3.781-2.971,3.749c0,0,4.487,2.673,5.932-3.6L50.906,93.688Z" fill="#4eac53" opacity="0.3"/>
        <line id="Line_26" data-name="Line 26" x2="6.771" y2="1.558" transform="translate(38.12 118.262)" fill="none" stroke="#4eac53" stroke-miterlimit="10" stroke-width="0.834"/>
        <line id="Line_27" data-name="Line 27" x1="0.633" y2="2.75" transform="translate(34.148 148.246)" fill="none" stroke="#4eac53" stroke-linecap="round" stroke-miterlimit="10" stroke-width="1.667"/>
      </g>
    </g>
  </g>
</svg>
