<svg xmlns="http://www.w3.org/2000/svg" width="121.302" height="131.185" viewBox="0 0 121.302 131.185">
  <g id="Group_4545" data-name="Group 4545" transform="translate(-701.194 -2774.794)">
    <line id="Line_1859" data-name="Line 1859" y2="3.628" transform="translate(720.626 2895.281)" fill="none" stroke="#4eac53" stroke-miterlimit="10" stroke-width="1"/>
    <line id="Line_1860" data-name="Line 1860" y2="4.082" transform="translate(794.774 2894.828)" fill="none" stroke="#4eac53" stroke-miterlimit="10" stroke-width="1"/>
    <line id="Line_1862" data-name="Line 1862" y2="4.082" transform="translate(756.041 2894.828)" fill="none" stroke="#4eac53" stroke-miterlimit="10" stroke-width="1"/>
    <line id="Line_1863" data-name="Line 1863" y2="12.513" transform="translate(759.205 2893.467)" fill="none" stroke="#4eac53" stroke-miterlimit="10" stroke-width="1"/>
    <g id="Group_3955" data-name="Group 3955" transform="translate(717.277 2775.99)">
      <g id="Group_1304" data-name="Group 1304" transform="translate(0 0)">
        <g id="Group_1292" data-name="Group 1292" transform="translate(7.893 0)">
          <g id="Group_1288" data-name="Group 1288">
            <rect id="Rectangle_857" data-name="Rectangle 857" width="76.203" height="98.836" transform="translate(21.804 0) rotate(12.745)" fill="#fff"/>
            <path id="Path_2109" data-name="Path 2109" d="M-363.319,64.359l5.469.968-16.844,97.142Z" transform="translate(448.914 -49.661)" fill="#4eac53" opacity="0.5"/>
            <g id="Group_1287" data-name="Group 1287" transform="translate(0 0)">
              <rect id="Rectangle_858" data-name="Rectangle 858" width="98.836" height="76.203" transform="translate(0 96.401) rotate(-77.255)" fill="none" stroke="#b3dcb6" stroke-miterlimit="10" stroke-width="2"/>
              <path id="Path_2110" data-name="Path 2110" d="M-352.431,75.062" transform="translate(446.843 -50.656)" fill="none" stroke="#4eac53" stroke-miterlimit="10" stroke-width="1"/>
              <path id="Path_2111" data-name="Path 2111" d="M-358.8,64.82" transform="translate(447.435 -49.704)" fill="none" stroke="#4eac53" stroke-miterlimit="10" stroke-width="1"/>
            </g>
          </g>
          <line id="Line_1075" data-name="Line 1075" x2="17.079" y2="3.863" transform="translate(24.781 13.734)" fill="none" stroke="#4eac53" stroke-miterlimit="10" stroke-width="1"/>
          <line id="Line_1076" data-name="Line 1076" x2="11.281" y2="2.552" transform="translate(25.524 10.45)" fill="none" stroke="#418c42" stroke-miterlimit="10" stroke-width="2"/>
          <line id="Line_1077" data-name="Line 1077" x2="17.079" y2="3.863" transform="translate(24.286 15.923)" fill="none" stroke="#4eac53" stroke-miterlimit="10" stroke-width="1"/>
          <line id="Line_1078" data-name="Line 1078" x2="17.079" y2="3.863" transform="translate(23.822 17.976)" fill="none" stroke="#4eac53" stroke-miterlimit="10" stroke-width="1"/>
          <g id="Group_1289" data-name="Group 1289" transform="translate(17.293 29.815)">
            <line id="Line_1079" data-name="Line 1079" x2="27.209" y2="6.154" transform="translate(3.85)" fill="none" stroke="#4eac53" stroke-miterlimit="10" stroke-width="1"/>
            <line id="Line_1080" data-name="Line 1080" x2="60.148" y2="13.604" transform="translate(3.08 3.404)" fill="none" stroke="#4eac53" stroke-miterlimit="10" stroke-width="1"/>
            <line id="Line_1081" data-name="Line 1081" x2="60.148" y2="13.604" transform="translate(2.31 6.809)" fill="none" stroke="#4eac53" stroke-miterlimit="10" stroke-width="1"/>
            <line id="Line_1082" data-name="Line 1082" x2="60.148" y2="13.604" transform="translate(1.54 10.213)" fill="none" stroke="#4eac53" stroke-miterlimit="10" stroke-width="1"/>
            <line id="Line_1083" data-name="Line 1083" x2="60.148" y2="13.604" transform="translate(0.77 13.618)" fill="none" stroke="#4eac53" stroke-miterlimit="10" stroke-width="1"/>
            <line id="Line_1084" data-name="Line 1084" x2="60.148" y2="13.604" transform="translate(0 17.022)" fill="none" stroke="#4eac53" stroke-miterlimit="10" stroke-width="1"/>
          </g>
          <g id="Group_1290" data-name="Group 1290" transform="translate(11.575 55.099)">
            <line id="Line_1085" data-name="Line 1085" x2="18.789" y2="4.25" transform="translate(3.85)" fill="none" stroke="#418c42" stroke-miterlimit="10" stroke-width="2"/>
            <line id="Line_1086" data-name="Line 1086" x2="60.148" y2="13.604" transform="translate(3.08 3.404)" fill="none" stroke="#4eac53" stroke-miterlimit="10" stroke-width="1"/>
            <line id="Line_1087" data-name="Line 1087" x2="60.148" y2="13.604" transform="translate(2.31 6.809)" fill="none" stroke="#4eac53" stroke-miterlimit="10" stroke-width="1"/>
            <line id="Line_1088" data-name="Line 1088" x2="60.148" y2="13.604" transform="translate(1.54 10.213)" fill="none" stroke="#4eac53" stroke-miterlimit="10" stroke-width="1"/>
            <line id="Line_1089" data-name="Line 1089" x2="60.148" y2="13.604" transform="translate(0.77 13.618)" fill="none" stroke="#4eac53" stroke-miterlimit="10" stroke-width="1"/>
            <line id="Line_1090" data-name="Line 1090" x2="60.148" y2="13.604" transform="translate(0 17.022)" fill="none" stroke="#4eac53" stroke-miterlimit="10" stroke-width="1"/>
          </g>
          <g id="Group_1291" data-name="Group 1291" transform="translate(27.222 88.931)">
            <path id="Path_2112" data-name="Path 2112" d="M-416.35,152.005c.2-.151.4-.314.609-.452a10.245,10.245,0,0,1,2.727-1.186c.055-.016.131.031.2.049-.019.065-.018.155-.061.191-.224.19-.459.366-.691.547a.83.83,0,0,0-.161.145,5.05,5.05,0,0,0,1.976-.7c.267-.182.521-.383.791-.56.055-.036.158,0,.239,0-.024.084-.02.2-.075.246-.336.254-.69.483-1.028.736a5.227,5.227,0,0,0-.44.412l.026.062c.227-.054.459-.089.678-.162.77-.26,1.547-.5,2.3-.81a25.388,25.388,0,0,0,2.391-1.109,4.606,4.606,0,0,0,.878-.8,7.223,7.223,0,0,1,1.868-1.482,1.212,1.212,0,0,1,.515-.141.534.534,0,0,1,.351.224.335.335,0,0,1-.044.322,4.373,4.373,0,0,1-.77.62c-.683.4-1.385.766-2.082,1.14a3.8,3.8,0,0,0-1,.836c-.444.491-.918.956-1.369,1.442-.225.242-.427.505-.637.763a.517.517,0,0,0-.05.138,1.579,1.579,0,0,0,.946-.174,8.081,8.081,0,0,1,1.752-.416c.332-.05.672-.049,1.008-.083.262-.027.257.223.357.351.025.033-.094.2-.165.287a3.348,3.348,0,0,1-.278.278l.031.054c.08-.027.16-.055.24-.082.408-.132.816-.267,1.226-.391.062-.019.184-.008.2.023a.311.311,0,0,1-.015.222,1.765,1.765,0,0,0-.174.387,1.99,1.99,0,0,1,.3-.141c.58-.162,1.16-.321,1.742-.471.075-.019.225,0,.238.034a.524.524,0,0,1,.006.323,2.181,2.181,0,0,1-.211.377c.366-.153.706-.314,1.058-.437a7.013,7.013,0,0,1,.96-.252c.1-.02.22.055.332.086a1.511,1.511,0,0,1-.11.326,2.481,2.481,0,0,0-.25.387c.093-.033.184-.066.277-.1.584-.2,1.168-.4,1.753-.591.048-.015.14,0,.159.026a.261.261,0,0,1,.036.2,3.068,3.068,0,0,1-.2.368.381.381,0,0,0-.06.226c.138-.071.271-.152.415-.21q.91-.37,1.827-.726c.057-.022.135.01.2.016a.623.623,0,0,1-.026.2c-.066.132-.169.249-.223.385a.222.222,0,0,0,.08.2,3.11,3.11,0,0,0,.512.169.181.181,0,0,0,.14-.042,2.208,2.208,0,0,1,1.292-.532,1.309,1.309,0,0,1,.241-.045.526.526,0,0,1,.283.1c.092.085.151.124.263.034.227-.182.457-.363.7-.526.222-.151.457-.286.694-.415.041-.022.116.02.176.033-.015.066-.008.162-.049.193-.324.246-.65.489-.988.714-.263.174-.545.318-.814.483a.764.764,0,0,0-.141.15l.025.056a2.213,2.213,0,0,0,.34-.034c1.186-.315,2.387-.586,3.554-.964A5.92,5.92,0,0,0-386.4,150.4a5.489,5.489,0,0,0,.322-.593l.188-.349.066.01a1.248,1.248,0,0,1,.01.246,2.258,2.258,0,0,1-.5,1,5.647,5.647,0,0,1-2.316,1.75,20.607,20.607,0,0,1-3.072.962c-.514.145-1.03.282-1.546.422a1.177,1.177,0,0,1-.178.032c-.274.027-.386-.1-.337-.363-.232.044-.465.088-.7.131a3.043,3.043,0,0,1-1.468-.257.373.373,0,0,1-.166-.465c.029-.067.063-.132.112-.239a1.9,1.9,0,0,0-.2.062l-1.7.785a1.618,1.618,0,0,1-.377.147.364.364,0,0,1-.259-.078c-.029-.024,0-.156.037-.219.112-.19.24-.372.362-.557l-.046-.073c-.426.155-.857.3-1.277.469-.264.107-.509.26-.768.38a1.166,1.166,0,0,1-.346.088c-.055.006-.116-.041-.175-.064a.752.752,0,0,1,.091-.211c.21-.244.432-.48.648-.718l-.053-.088a8.505,8.505,0,0,0-.909.281c-.434.186-.848.419-1.277.618a.749.749,0,0,1-.286.005,1.227,1.227,0,0,1,.085-.259c.124-.213.263-.418.42-.665a1.269,1.269,0,0,0-.2.008,7.769,7.769,0,0,0-1.878.632c-.014.006-.026.02-.039.021-.144.008-.288.015-.432.021.044-.112.082-.229.134-.337s.112-.19.2-.333c-.337.111-.623.206-.911.3-.208.066-.415.139-.628.185-.076.016-.168-.037-.253-.058.034-.082.065-.164.1-.244a.223.223,0,0,0,.045-.105c-.277.126-.551.257-.831.376-.13.054-.3.191-.4.008s.112-.248.237-.318c.41-.233.824-.46,1.227-.742a3.159,3.159,0,0,0-.637.018c-.637.145-1.266.319-1.9.483-.3.076-.594.17-.9.218a.455.455,0,0,1-.351-.131c-.045-.049,0-.239.059-.317.336-.4.686-.8,1.04-1.185.334-.366.679-.722,1-1.111-.258.119-.52.234-.776.357a26.119,26.119,0,0,1-3.318,1.253,5.388,5.388,0,0,1-.88.188.337.337,0,0,1-.288-.1c-.034-.069.052-.2.089-.3a.755.755,0,0,1,.057-.106c-.376.1-.729.2-1.085.278a1.915,1.915,0,0,1-.448.052.287.287,0,0,1-.2-.105c-.023-.033.023-.145.069-.188.18-.169.372-.324.556-.5a7.659,7.659,0,0,0-2.807,1.536l-.057-.028.087-.313Zm10.387-3.1a5.962,5.962,0,0,0,2.471-1.592.549.549,0,0,0-.587,0c-.235.174-.492.324-.712.514C-405.192,148.168-405.573,148.54-405.963,148.9Zm11.145,4.428.018.05a.466.466,0,0,0,.127.006c.372-.084.745-.169,1.115-.262.056-.015.1-.076.149-.117-.059-.031-.126-.1-.176-.087-.276.062-.551.135-.82.22A3.594,3.594,0,0,0-394.817,153.329Z" transform="translate(425.573 -146.276)" fill="#418c42"/>
            <path id="Path_2113" data-name="Path 2113" d="M-417.277,151.925a7.587,7.587,0,0,0-.664.648,7.053,7.053,0,0,0-.4.671.881.881,0,0,1-.219.174c-.012-.1-.07-.228-.029-.294a6.384,6.384,0,0,1,.63-.9c.445-.5.913-.976,1.393-1.439.642-.621,1.3-1.221,1.958-1.828.481-.445.964-.886,1.445-1.33a.3.3,0,0,0,.088-.174c-.26.1-.521.2-.78.3a23.7,23.7,0,0,0-3.253,1.676c-.537.316-1.111.568-1.673.84a.877.877,0,0,1-.347.087.307.307,0,0,1-.23-.1.238.238,0,0,1,.037-.221,6.954,6.954,0,0,1,.63-.677c.667-.593,1.348-1.171,2.022-1.756q.348-.3.692-.613a.214.214,0,0,0,.062-.168c-.583.128-1.174.232-1.75.389-.748.2-1.492.43-2.224.684a13.769,13.769,0,0,0-1.387.6c-.373.176-.731.382-1.1.572a.381.381,0,0,1-.168.063.307.307,0,0,1-.2-.063c-.026-.027-.006-.134.027-.18a1.267,1.267,0,0,1,.25-.252c.717-.524,1.443-1.033,2.149-1.572a3.159,3.159,0,0,0,.464-.561,20.632,20.632,0,0,0-6.207,1.091c.246.107.5.213.745.327.036.016.058.061.087.093l-.024.065c-.277-.077-.552-.152-.827-.233a.947.947,0,0,1-.249-.1c-.074-.049-.166-.116-.183-.191-.012-.049.08-.164.146-.186a17.013,17.013,0,0,1,1.68-.519c.85-.186,1.711-.338,2.574-.451.8-.1,1.6-.142,2.4-.2a.4.4,0,0,1,.259.131c.022.023-.044.155-.094.219a5.677,5.677,0,0,1-1.615,1.514.147.147,0,0,0-.065.087c.278-.124.549-.271.836-.367.785-.263,1.57-.534,2.37-.746.727-.191,1.471-.314,2.211-.448.1-.018.223.07.336.109a.86.86,0,0,1-.136.282c-.431.386-.879.753-1.309,1.139-.66.591-1.312,1.194-1.966,1.792a.217.217,0,0,0-.071.158c.213-.094.435-.174.64-.286,1.091-.59,2.16-1.224,3.272-1.772.747-.368,1.553-.619,2.335-.915a.593.593,0,0,1,.211,0c-.02.073-.018.168-.064.217q-.377.4-.775.783c-.446.426-.9.845-1.35,1.268-.522.49-1.048.974-1.559,1.474-.36.351-.7.724-1.047,1.088Z" transform="translate(426.51 -146.203)" fill="#418c42"/>
            <path id="Path_2114" data-name="Path 2114" d="M-384.926,157.305l1.459-.581a4.215,4.215,0,0,1-.484-.426,2.636,2.636,0,0,1-.254-.438c-.451-.079-.874-.167-1.3-.223-.37-.048-.746-.058-1.118-.088-.134-.011-.268-.036-.4-.043a.576.576,0,0,1-.544-.435.586.586,0,0,1,.172-.659,3.216,3.216,0,0,1,1.985-.872,6.886,6.886,0,0,0,.739-.033c.246-.046.476-.171.719-.238.564-.157,1.126-.329,1.7-.438a7.757,7.757,0,0,1,1.434-.127,1.551,1.551,0,0,1,.673.22c.2.105.212.3.088.658.3-.073.582-.152.871-.212a3.187,3.187,0,0,1,.6-.073c.24,0,.345.161.2.356a4.037,4.037,0,0,1-.63.7,4.3,4.3,0,0,1-1.7.821c-.629.181-1.27.319-1.91.456-.343.073-.7.1-1.043.161a1.08,1.08,0,0,0-.249.112,1.057,1.057,0,0,0,.158.282c.121.112.275.186.406.287a.215.215,0,0,1,.011.363,2.688,2.688,0,0,1-1.492.514C-384.85,157.349-384.871,157.331-384.926,157.305Zm1.207-2.944a2.339,2.339,0,0,0,.224-.1c.073-.044.139-.1.207-.147-.053-.067-.1-.181-.164-.2a3.532,3.532,0,0,0-.954-.153,1.6,1.6,0,0,0-1.2,1.209c-.04.258.015.317.274.287.493-.06.989-.1,1.478-.19a5.845,5.845,0,0,0,1.242-.311c.671-.282,1.312-.634,1.966-.956.061-.03.151-.044.178-.092a1.338,1.338,0,0,0,.216-.517c.005-.081-.2-.2-.334-.253a.915.915,0,0,0-.424-.034c-.647.083-1.3.159-1.937.278a9.178,9.178,0,0,0-1.054.325,6.408,6.408,0,0,1,.772.306c.223.123.234.256.107.445A.4.4,0,0,1-383.719,154.361Zm5.162-.8-.056-.069a.671.671,0,0,0-.176,0q-.687.178-1.372.367c-.046.013-.083.061-.123.092-.22.169-.429.356-.663.5a8.012,8.012,0,0,1-1.913.722c-.208.065-.4.168-.6.253l.026.068a.732.732,0,0,0,.11-.006c.708-.136,1.424-.24,2.121-.419a4.7,4.7,0,0,0,2.2-1.035C-378.849,153.883-378.707,153.717-378.557,153.559Zm-7.276,1.748c-.118-.781.362-1.183.883-1.57a3.357,3.357,0,0,0-.589.034,2.893,2.893,0,0,0-1.716.831.34.34,0,0,0,.071.567A3.678,3.678,0,0,0-385.833,155.306Zm2.089.112-.015-.083-1.026.14A1.589,1.589,0,0,0-383.744,155.419Z" transform="translate(422.893 -146.807)" fill="#418c42"/>
          </g>
        </g>
        <g id="Group_1298" data-name="Group 1298" transform="translate(4.16 2.932)">
          <g id="Group_1294" data-name="Group 1294" transform="translate(0)">
            <rect id="Rectangle_859" data-name="Rectangle 859" width="78.444" height="101.742" transform="translate(11.375 0) rotate(6.419)" fill="#fff"/>
            <path id="Path_2115" data-name="Path 2115" d="M-374.694,59.646l5.524.621-5.524,101.762Z" transform="translate(452.646 -52.155)" fill="#4eac53" opacity="0.5"/>
            <g id="Group_1293" data-name="Group 1293">
              <rect id="Rectangle_860" data-name="Rectangle 860" width="101.742" height="78.444" transform="translate(0 101.104) rotate(-83.581)" fill="none" stroke="#b3dcb6" stroke-miterlimit="10" stroke-width="2"/>
              <path id="Path_2116" data-name="Path 2116" d="M-363.141,69.838" transform="translate(451.572 -53.103)" fill="none" stroke="#4eac53" stroke-miterlimit="10" stroke-width="1"/>
              <path id="Path_2117" data-name="Path 2117" d="M-370.817,60.082" transform="translate(452.286 -52.196)" fill="none" stroke="#4eac53" stroke-miterlimit="10" stroke-width="1"/>
            </g>
          </g>
          <line id="Line_1091" data-name="Line 1091" x2="17.912" y2="2.015" transform="translate(15.978 13.714)" fill="none" stroke="#4eac53" stroke-miterlimit="10" stroke-width="1"/>
          <line id="Line_1092" data-name="Line 1092" x2="11.831" y2="1.331" transform="translate(16.366 10.27)" fill="none" stroke="#418c42" stroke-miterlimit="10" stroke-width="2"/>
          <line id="Line_1093" data-name="Line 1093" x2="17.912" y2="2.015" transform="translate(15.72 16.01)" fill="none" stroke="#4eac53" stroke-miterlimit="10" stroke-width="1"/>
          <line id="Line_1094" data-name="Line 1094" x2="17.912" y2="2.015" transform="translate(15.478 18.163)" fill="none" stroke="#4eac53" stroke-miterlimit="10" stroke-width="1"/>
          <g id="Group_1295" data-name="Group 1295" transform="translate(12.072 30.58)">
            <line id="Line_1095" data-name="Line 1095" x2="28.536" y2="3.211" transform="translate(2.009)" fill="none" stroke="#4eac53" stroke-miterlimit="10" stroke-width="1"/>
            <line id="Line_1096" data-name="Line 1096" x2="63.082" y2="7.097" transform="translate(1.607 3.571)" fill="none" stroke="#4eac53" stroke-miterlimit="10" stroke-width="1"/>
            <line id="Line_1097" data-name="Line 1097" x2="63.082" y2="7.097" transform="translate(1.205 7.141)" fill="none" stroke="#4eac53" stroke-miterlimit="10" stroke-width="1"/>
            <line id="Line_1098" data-name="Line 1098" x2="63.082" y2="7.097" transform="translate(0.803 10.712)" fill="none" stroke="#4eac53" stroke-miterlimit="10" stroke-width="1"/>
            <line id="Line_1099" data-name="Line 1099" x2="63.082" y2="7.097" transform="translate(0.402 14.282)" fill="none" stroke="#4eac53" stroke-miterlimit="10" stroke-width="1"/>
            <line id="Line_1100" data-name="Line 1100" x2="63.082" y2="7.097" transform="translate(0 17.853)" fill="none" stroke="#4eac53" stroke-miterlimit="10" stroke-width="1"/>
          </g>
          <g id="Group_1296" data-name="Group 1296" transform="translate(9.089 57.098)">
            <line id="Line_1101" data-name="Line 1101" x2="19.706" y2="2.217" transform="translate(2.009)" fill="none" stroke="#418c42" stroke-miterlimit="10" stroke-width="2"/>
            <line id="Line_1102" data-name="Line 1102" x2="63.082" y2="7.097" transform="translate(1.607 3.571)" fill="none" stroke="#4eac53" stroke-miterlimit="10" stroke-width="1"/>
            <line id="Line_1103" data-name="Line 1103" x2="63.082" y2="7.097" transform="translate(1.205 7.141)" fill="none" stroke="#4eac53" stroke-miterlimit="10" stroke-width="1"/>
            <line id="Line_1104" data-name="Line 1104" x2="63.082" y2="7.097" transform="translate(0.803 10.712)" fill="none" stroke="#4eac53" stroke-miterlimit="10" stroke-width="1"/>
            <line id="Line_1105" data-name="Line 1105" x2="63.082" y2="7.097" transform="translate(0.402 14.282)" fill="none" stroke="#4eac53" stroke-miterlimit="10" stroke-width="1"/>
            <line id="Line_1106" data-name="Line 1106" x2="63.082" y2="7.097" transform="translate(0 17.853)" fill="none" stroke="#4eac53" stroke-miterlimit="10" stroke-width="1"/>
          </g>
          <g id="Group_1297" data-name="Group 1297" transform="translate(27.156 88.619)">
            <path id="Path_2118" data-name="Path 2118" d="M-419.75,155.662c.19-.178.371-.366.572-.531a10.6,10.6,0,0,1,2.655-1.523c.055-.023.137.017.207.028-.013.069,0,.161-.041.2-.208.22-.428.427-.644.639a.824.824,0,0,0-.149.167,5.2,5.2,0,0,0,1.943-.94c.252-.217.489-.452.746-.663.053-.044.161-.019.245-.026-.015.089,0,.211-.05.26-.315.3-.651.571-.968.868a5.434,5.434,0,0,0-.4.472l.034.06c.226-.08.46-.142.676-.243.758-.353,1.526-.69,2.26-1.089a25.871,25.871,0,0,0,2.32-1.406,4.741,4.741,0,0,0,.808-.914,7.436,7.436,0,0,1,1.743-1.728,1.229,1.229,0,0,1,.511-.2.547.547,0,0,1,.385.19.342.342,0,0,1-.009.334,4.538,4.538,0,0,1-.717.722c-.653.486-1.33.941-2,1.4a3.886,3.886,0,0,0-.926.969c-.4.552-.831,1.082-1.237,1.63-.2.274-.38.567-.565.853a.527.527,0,0,0-.035.147,1.614,1.614,0,0,0,.948-.286,8.387,8.387,0,0,1,1.746-.624c.335-.089.682-.127,1.022-.2.265-.057.288.2.4.318.031.031-.073.213-.136.312a3.5,3.5,0,0,1-.253.316l.037.053c.079-.037.158-.075.237-.111.4-.181.8-.366,1.211-.54.061-.026.187-.029.2,0a.314.314,0,0,1,.008.229,1.85,1.85,0,0,0-.133.415,2.055,2.055,0,0,1,.294-.179q.861-.348,1.729-.679c.075-.028.23-.027.248.009a.547.547,0,0,1,.044.328,2.354,2.354,0,0,1-.173.41c.356-.2.685-.4,1.032-.567a7.265,7.265,0,0,1,.954-.366c.1-.032.231.031.348.051a1.477,1.477,0,0,1-.075.345,2.609,2.609,0,0,0-.212.424c.092-.044.181-.088.273-.131.575-.268,1.149-.539,1.727-.8.046-.022.142-.021.165.008a.271.271,0,0,1,.06.2,3.251,3.251,0,0,1-.168.4.391.391,0,0,0-.035.238c.132-.088.26-.187.4-.263q.888-.482,1.787-.949c.056-.029.139-.005.21-.006a.643.643,0,0,1,0,.213c-.053.142-.144.273-.185.418a.229.229,0,0,0,.105.2,3.215,3.215,0,0,0,.543.115.187.187,0,0,0,.138-.059,2.278,2.278,0,0,1,1.263-.69,1.359,1.359,0,0,1,.241-.074.538.538,0,0,1,.3.072c.105.077.169.111.274.005.21-.213.425-.423.653-.618a8.313,8.313,0,0,1,.663-.5c.039-.027.122.007.183.014-.007.069.011.166-.027.2-.3.288-.61.573-.931.842-.249.209-.521.388-.777.587a.771.771,0,0,0-.126.17l.031.054a2.173,2.173,0,0,0,.345-.073c1.178-.455,2.375-.87,3.526-1.389a6.085,6.085,0,0,0,2.983-2.562,5.7,5.7,0,0,0,.263-.644l.152-.379.069,0a1.325,1.325,0,0,1,.038.25,2.321,2.321,0,0,1-.4,1.078,5.8,5.8,0,0,1-2.17,2.053,21.264,21.264,0,0,1-3.034,1.333c-.51.207-1.022.405-1.535.607a1.183,1.183,0,0,1-.178.053c-.277.058-.405-.054-.386-.333-.233.071-.466.143-.7.213a3.141,3.141,0,0,1-1.531-.1.383.383,0,0,1-.222-.457c.022-.073.049-.143.088-.258a2.023,2.023,0,0,0-.2.086c-.551.331-1.1.665-1.652,1a1.714,1.714,0,0,1-.369.194.372.372,0,0,1-.274-.051c-.033-.021-.018-.16.013-.228.092-.208.2-.408.307-.61l-.056-.069c-.418.207-.843.4-1.253.624-.258.14-.492.325-.744.476a1.205,1.205,0,0,1-.345.129c-.055.013-.123-.029-.186-.045a.807.807,0,0,1,.068-.227c.189-.274.388-.54.583-.809l-.065-.083a8.793,8.793,0,0,0-.9.39c-.424.239-.82.525-1.236.777a.769.769,0,0,1-.292.038,1.3,1.3,0,0,1,.058-.275c.1-.232.221-.458.354-.728a1.484,1.484,0,0,0-.208.032,7.987,7.987,0,0,0-1.85.86c-.014.008-.024.024-.038.026-.146.024-.293.046-.439.07.032-.121.058-.243.1-.359s.093-.209.165-.363c-.332.151-.614.281-.9.407-.206.092-.409.189-.621.26a.659.659,0,0,1-.266-.031c.025-.087.048-.175.078-.261a.222.222,0,0,0,.034-.112c-.268.16-.534.325-.807.478-.127.071-.29.23-.408.054s.088-.267.207-.353c.393-.286.79-.565,1.171-.9a3.323,3.323,0,0,0-.649.091c-.635.22-1.259.471-1.887.709-.3.112-.59.241-.894.324a.468.468,0,0,1-.374-.093c-.052-.045-.031-.246.025-.331.3-.452.61-.893.929-1.331.3-.413.614-.815.9-1.25-.251.151-.5.3-.754.454a26.822,26.822,0,0,1-3.253,1.659,5.674,5.674,0,0,1-.879.291.348.348,0,0,1-.307-.073c-.042-.067.031-.208.056-.315a1.007,1.007,0,0,1,.047-.116c-.375.143-.724.283-1.078.409a2.035,2.035,0,0,1-.453.1.293.293,0,0,1-.219-.085c-.027-.031.006-.151.049-.2.165-.192.344-.373.512-.57a7.9,7.9,0,0,0-2.7,1.89l-.062-.022.054-.331Zm10.276-4.354a6.146,6.146,0,0,0,2.346-1.909.565.565,0,0,0-.6.063c-.221.2-.466.386-.669.607C-408.769,150.471-409.117,150.894-409.474,151.309Zm11.905,3.265.024.05a.478.478,0,0,0,.131-.009c.371-.128.743-.257,1.111-.394.055-.021.093-.09.139-.136-.064-.025-.141-.087-.19-.07-.275.094-.548.2-.814.318A3.73,3.73,0,0,0-397.569,154.574Z" transform="translate(429.684 -149.091)" fill="#418c42"/>
            <path id="Path_2119" data-name="Path 2119" d="M-420.754,155.75a8.058,8.058,0,0,0-.606.738,7.245,7.245,0,0,0-.333.733c-.041.081-.135.136-.205.2-.024-.1-.1-.224-.063-.3a6.489,6.489,0,0,1,.542-.993c.4-.56.824-1.1,1.262-1.632.587-.707,1.2-1.4,1.8-2.092.441-.51.886-1.015,1.327-1.525a.307.307,0,0,0,.071-.187c-.255.132-.511.264-.764.4a24.464,24.464,0,0,0-3.138,2.084c-.514.384-1.073.707-1.617,1.049a.912.912,0,0,1-.346.129.32.32,0,0,1-.248-.076.249.249,0,0,1,.014-.231,7.108,7.108,0,0,1,.568-.763c.615-.683,1.246-1.351,1.869-2.027.215-.232.428-.468.639-.7a.223.223,0,0,0,.044-.18c-.582.2-1.175.371-1.746.6-.742.294-1.478.61-2.2.952a14.245,14.245,0,0,0-1.351.771c-.361.222-.7.474-1.057.711a.4.4,0,0,1-.164.083.316.316,0,0,1-.211-.042c-.03-.024-.022-.137.007-.186a1.269,1.269,0,0,1,.228-.287c.673-.618,1.36-1.221,2.02-1.852A3.245,3.245,0,0,0-424,150.5a21.3,21.3,0,0,0-6.227,1.82c.264.082.532.162.8.249.038.013.066.056.1.085l-.016.07c-.291-.048-.583-.093-.873-.145a.96.96,0,0,1-.267-.078c-.082-.041-.182-.1-.209-.174-.018-.049.063-.177.128-.207a17.28,17.28,0,0,1,1.66-.721c.849-.288,1.712-.541,2.583-.754.8-.2,1.623-.327,2.437-.473a.405.405,0,0,1,.28.1c.024.02-.028.163-.072.234a5.835,5.835,0,0,1-1.482,1.732.157.157,0,0,0-.056.1c.27-.159.531-.34.814-.472.774-.357,1.546-.725,2.341-1.03.721-.278,1.469-.488,2.21-.709.1-.031.238.046.357.073a.883.883,0,0,1-.108.3c-.4.444-.813.871-1.21,1.314-.608.68-1.206,1.37-1.808,2.057a.226.226,0,0,0-.055.17c.209-.121.426-.228.623-.365,1.049-.728,2.072-1.5,3.146-2.185.724-.461,1.519-.809,2.285-1.2a.6.6,0,0,1,.217-.02c-.013.077,0,.173-.041.229-.228.3-.463.6-.7.889-.408.487-.825.967-1.237,1.45-.478.561-.962,1.116-1.429,1.685-.328.4-.632.82-.947,1.231Z" transform="translate(430.698 -149.187)" fill="#418c42"/>
            <path id="Path_2120" data-name="Path 2120" d="M-387.035,157.591l1.428-.761a4.311,4.311,0,0,1-.544-.381,2.814,2.814,0,0,1-.31-.42c-.47-.029-.912-.072-1.355-.08-.384-.007-.768.024-1.153.036-.14,0-.278-.007-.417,0a.593.593,0,0,1-.607-.384.6.6,0,0,1,.1-.693,3.3,3.3,0,0,1,1.932-1.117,7.021,7.021,0,0,0,.752-.117c.247-.074.468-.228.709-.325.56-.224,1.115-.464,1.689-.641a8.071,8.071,0,0,1,1.453-.292,1.6,1.6,0,0,1,.713.148c.22.084.251.279.165.664.3-.109.578-.222.867-.316a3.242,3.242,0,0,1,.6-.143c.245-.031.37.125.25.341a4.194,4.194,0,0,1-.566.785,4.428,4.428,0,0,1-1.644,1.033c-.622.256-1.263.47-1.9.683-.343.114-.7.182-1.048.283a1.1,1.1,0,0,0-.241.143,1.069,1.069,0,0,0,.193.27c.136.1.3.159.448.247a.221.221,0,0,1,.052.37,2.763,2.763,0,0,1-1.468.7C-386.953,157.627-386.976,157.61-387.035,157.591Zm.9-3.15a2.244,2.244,0,0,0,.218-.129c.069-.052.131-.114.195-.172-.063-.064-.121-.174-.19-.181a3.609,3.609,0,0,0-.994-.048A1.649,1.649,0,0,0-388,155.284c-.011.268.052.323.313.261.5-.116,1-.219,1.49-.362a6.006,6.006,0,0,0,1.235-.459c.654-.365,1.271-.8,1.9-1.2.059-.037.151-.061.172-.113a1.385,1.385,0,0,0,.162-.553c0-.083-.231-.185-.371-.221a.932.932,0,0,0-.438.015c-.653.157-1.308.309-1.95.5a9.332,9.332,0,0,0-1.042.452,6.613,6.613,0,0,1,.824.225c.242.1.268.235.16.444A.407.407,0,0,1-386.134,154.441Zm5.19-1.406-.065-.064a.686.686,0,0,0-.18.02q-.683.26-1.362.532c-.046.018-.078.071-.117.108-.206.2-.4.413-.62.589a8.237,8.237,0,0,1-1.876.956c-.2.091-.394.217-.59.327l.034.066a.784.784,0,0,0,.112-.018c.708-.22,1.429-.408,2.122-.67a4.84,4.84,0,0,0,2.135-1.308C-381.206,153.4-381.079,153.215-380.944,153.035Zm-7.246,2.613c-.209-.785.237-1.251.725-1.706a3.41,3.41,0,0,0-.6.1,2.975,2.975,0,0,0-1.662,1.045.349.349,0,0,0,.136.571A3.781,3.781,0,0,0-388.19,155.648Zm2.15-.122-.024-.083-1.034.259A1.635,1.635,0,0,0-386.039,155.527Z" transform="translate(426.919 -149.4)" fill="#418c42"/>
          </g>
        </g>
        <g id="Group_1303" data-name="Group 1303" transform="translate(0 6.307)">
          <g id="Group_1300" data-name="Group 1300">
            <rect id="Rectangle_861" data-name="Rectangle 861" width="82.112" height="106.5" transform="translate(0 0)" fill="#fff"/>
            <g id="Group_1299" data-name="Group 1299">
              <rect id="Rectangle_862" data-name="Rectangle 862" width="82.112" height="106.5" transform="translate(0 0)" fill="none" stroke="#4eac53" stroke-miterlimit="10" stroke-width="2"/>
              <path id="Path_2121" data-name="Path 2121" d="M-374.694,64.359" transform="translate(456.806 -55.968)" fill="none" stroke="#4eac53" stroke-miterlimit="10" stroke-width="1"/>
              <path id="Path_2122" data-name="Path 2122" d="M-383.821,55.108" transform="translate(457.655 -55.108)" fill="none" stroke="#4eac53" stroke-miterlimit="10" stroke-width="1"/>
            </g>
          </g>
          <line id="Line_1107" data-name="Line 1107" x2="18.868" transform="translate(6.393 13.727)" fill="none" stroke="#4eac53" stroke-miterlimit="10" stroke-width="1"/>
          <line id="Line_1108" data-name="Line 1108" x2="12.463" transform="translate(6.393 10.099)" fill="none" stroke="#418c42" stroke-miterlimit="10" stroke-width="2"/>
          <line id="Line_1109" data-name="Line 1109" x2="18.868" transform="translate(6.393 16.145)" fill="none" stroke="#4eac53" stroke-miterlimit="10" stroke-width="1"/>
          <line id="Line_1110" data-name="Line 1110" x2="18.868" transform="translate(6.393 18.413)" fill="none" stroke="#4eac53" stroke-miterlimit="10" stroke-width="1"/>
          <g id="Group_1301" data-name="Group 1301" transform="translate(6.393 31.493)">
            <line id="Line_1111" data-name="Line 1111" x2="30.059" fill="none" stroke="#4eac53" stroke-miterlimit="10" stroke-width="1"/>
            <line id="Line_1112" data-name="Line 1112" x2="66.449" transform="translate(0 3.761)" fill="none" stroke="#4eac53" stroke-miterlimit="10" stroke-width="1"/>
            <line id="Line_1113" data-name="Line 1113" x2="66.449" transform="translate(0 7.522)" fill="none" stroke="#4eac53" stroke-miterlimit="10" stroke-width="1"/>
            <line id="Line_1114" data-name="Line 1114" x2="66.449" transform="translate(0 11.283)" fill="none" stroke="#4eac53" stroke-miterlimit="10" stroke-width="1"/>
            <line id="Line_1115" data-name="Line 1115" x2="66.449" transform="translate(0 15.045)" fill="none" stroke="#4eac53" stroke-miterlimit="10" stroke-width="1"/>
            <line id="Line_1116" data-name="Line 1116" x2="66.449" transform="translate(0 18.806)" fill="none" stroke="#4eac53" stroke-miterlimit="10" stroke-width="1"/>
          </g>
          <g id="Group_1302" data-name="Group 1302" transform="translate(6.393 59.425)">
            <line id="Line_1117" data-name="Line 1117" x2="20.758" fill="none" stroke="#418c42" stroke-miterlimit="10" stroke-width="2"/>
            <line id="Line_1118" data-name="Line 1118" x2="66.449" transform="translate(0 3.761)" fill="none" stroke="#4eac53" stroke-miterlimit="10" stroke-width="1"/>
            <line id="Line_1119" data-name="Line 1119" x2="66.449" transform="translate(0 7.522)" fill="none" stroke="#4eac53" stroke-miterlimit="10" stroke-width="1"/>
            <line id="Line_1120" data-name="Line 1120" x2="66.449" transform="translate(0 11.283)" fill="none" stroke="#4eac53" stroke-miterlimit="10" stroke-width="1"/>
            <line id="Line_1121" data-name="Line 1121" x2="66.449" transform="translate(0 15.045)" fill="none" stroke="#4eac53" stroke-miterlimit="10" stroke-width="1"/>
            <line id="Line_1122" data-name="Line 1122" x2="66.449" transform="translate(0 18.806)" fill="none" stroke="#4eac53" stroke-miterlimit="10" stroke-width="1"/>
          </g>
        </g>
      </g>
    </g>
    <g id="Group_3956" data-name="Group 3956" transform="translate(703.115 2807.529)">
      <path id="Path_4935" data-name="Path 4935" d="M-762.113-468.312l5.392,7.1v10.8h12.748v-17.9h5.669l-7.369-10.519-7.37-10.519-7.369,10.519-7.37,10.519Z" transform="translate(771.46 493.634)" fill="#4eac53" opacity="0.29"/>
      <g id="Group_3947" data-name="Group 3947" transform="translate(0 0)">
        <path id="Path_1592" data-name="Path 1592" d="M-766.169-473.035v17.9h18.14v-17.9h5.669l-7.369-10.519-7.37-10.519-7.369,10.519-7.37,10.519Z" transform="translate(771.837 494.073)" fill="#fff"/>
        <g id="Group_971" data-name="Group 971" transform="translate(0 0)">
          <path id="Path_1593" data-name="Path 1593" d="M-766.169-473.035v17.9h18.14v-17.9h5.669l-7.369-10.519-7.37-10.519-7.369,10.519-7.37,10.519Z" transform="translate(771.837 494.073)" fill="#4eac53" opacity="0.6"/>
          <path id="Path_1594" data-name="Path 1594" d="M-766.169-473.035v17.9h7.029v-17.9h-5.669l7.369-10.519,3.855-5.5-3.515-5.017-7.369,10.519-7.37,10.519Z" transform="translate(771.837 494.073)" fill="#4eac53" opacity="0.3"/>
          <path id="Path_1595" data-name="Path 1595" d="M-766.169-473.035v17.9h18.14v-17.9h5.669l-7.369-10.519-7.37-10.519-7.369,10.519-7.37,10.519Z" transform="translate(771.837 494.073)" fill="none" stroke="#4eac53" stroke-miterlimit="10" stroke-width="2"/>
        </g>
      </g>
    </g>
  </g>
</svg>
