<svg xmlns="http://www.w3.org/2000/svg" width="119.126" height="98.215" viewBox="0 0 119.126 98.215">
  <g id="Group_3294" data-name="Group 3294" transform="translate(234.366 796.038)">
    <g id="Group_1180" data-name="Group 1180" transform="translate(-233.366 -795.037)">
      <g id="Group_1170" data-name="Group 1170" transform="translate(34.403)">
        <g id="Group_1162" data-name="Group 1162">
          <path id="Path_1894" data-name="Path 1894" d="M-187.806-794.934h62.586l5.774,5.774v90.441h-68.361Z" transform="translate(187.806 795.012)" fill="#fff"/>
          <path id="Path_1895" data-name="Path 1895" d="M-106.2-795.037v6.985h7.4Z" transform="translate(167.822 795.037)" fill="#4eac53" opacity="0.3"/>
          <path id="Path_1896" data-name="Path 1896" d="M-187.6-795.037h62.586l5.774,5.774v90.441H-187.6Z" transform="translate(187.756 795.037)" fill="none" stroke="#4eac53" stroke-miterlimit="10" stroke-width="2"/>
          <path id="Path_1897" data-name="Path 1897" d="M-106.2-795.037v6.985H-99.3" transform="translate(167.822 795.037)" fill="none" stroke="#4eac53" stroke-miterlimit="10" stroke-width="1"/>
        </g>
        <circle id="Ellipse_267" data-name="Ellipse 267" cx="15.274" cy="15.274" r="15.274" transform="translate(19.342 4.617)" fill="#4eac53" opacity="0.3"/>
        <circle id="Ellipse_268" data-name="Ellipse 268" cx="15.274" cy="15.274" r="15.274" transform="translate(19.342 4.617)" fill="none" stroke="#4eac53" stroke-miterlimit="10" stroke-width="1"/>
        <line id="Line_917" data-name="Line 917" x2="20.994" transform="translate(24.159 38.301)" fill="none" stroke="#418c42" stroke-miterlimit="10" stroke-width="2"/>
        <line id="Line_918" data-name="Line 918" x2="9.007" transform="translate(29.884 40.975)" fill="none" stroke="#4eac53" stroke-miterlimit="10" stroke-width="1"/>
        <g id="Group_1163" data-name="Group 1163" transform="translate(6.73 44.278)">
          <circle id="Ellipse_269" data-name="Ellipse 269" cx="3.304" cy="3.304" r="3.304" fill="#4eac53" opacity="0.3"/>
          <circle id="Ellipse_270" data-name="Ellipse 270" cx="3.304" cy="3.304" r="3.304" transform="translate(9.968)" fill="#4eac53" opacity="0.3"/>
          <circle id="Ellipse_271" data-name="Ellipse 271" cx="3.304" cy="3.304" r="3.304" transform="translate(19.935)" fill="#4eac53" opacity="0.3"/>
          <circle id="Ellipse_272" data-name="Ellipse 272" cx="3.304" cy="3.304" r="3.304" transform="translate(49.838)" fill="#4eac53" opacity="0.3"/>
        </g>
        <circle id="Ellipse_273" data-name="Ellipse 273" cx="3.304" cy="3.304" r="3.304" transform="translate(6.73 44.278)" fill="none" stroke="#4eac53" stroke-miterlimit="10" stroke-width="1"/>
        <path id="Path_1898" data-name="Path 1898" d="M-177.885-730.719a3.307,3.307,0,0,1-1.009-2.377,3.319,3.319,0,0,1,3.3-3.3,3.306,3.306,0,0,1,2.706,1.409" transform="translate(185.624 780.678)" fill="none" stroke="#418c42" stroke-miterlimit="10" stroke-width="2"/>
        <circle id="Ellipse_274" data-name="Ellipse 274" cx="3.304" cy="3.304" r="3.304" transform="translate(16.697 44.278)" fill="none" stroke="#4eac53" stroke-miterlimit="10" stroke-width="1"/>
        <circle id="Ellipse_275" data-name="Ellipse 275" cx="3.304" cy="3.304" r="3.304" transform="translate(26.665 44.278)" fill="none" stroke="#4eac53" stroke-miterlimit="10" stroke-width="1"/>
        <circle id="Ellipse_276" data-name="Ellipse 276" cx="3.304" cy="3.304" r="3.304" transform="translate(36.632 44.278)" fill="none" stroke="#4eac53" stroke-miterlimit="10" stroke-width="1"/>
        <circle id="Ellipse_277" data-name="Ellipse 277" cx="3.304" cy="3.304" r="3.304" transform="translate(46.6 44.278)" fill="none" stroke="#4eac53" stroke-miterlimit="10" stroke-width="1"/>
        <circle id="Ellipse_278" data-name="Ellipse 278" cx="3.304" cy="3.304" r="3.304" transform="translate(56.567 44.278)" fill="none" stroke="#4eac53" stroke-miterlimit="10" stroke-width="1"/>
        <path id="Path_1899" data-name="Path 1899" d="M-159.471-731.55a3.307,3.307,0,0,1-2.919,1.757,3.319,3.319,0,0,1-3.3-3.3,3.32,3.32,0,0,1,3.3-3.3,3.253,3.253,0,0,1,.47.034" transform="translate(182.391 780.678)" fill="none" stroke="#418c42" stroke-miterlimit="10" stroke-width="2"/>
        <path id="Path_1900" data-name="Path 1900" d="M-152.131-734.414a3.309,3.309,0,0,1,3.03-1.986,3.3,3.3,0,0,1,2.272.906" transform="translate(179.07 780.678)" fill="none" stroke="#418c42" stroke-miterlimit="10" stroke-width="2"/>
        <path id="Path_1901" data-name="Path 1901" d="M-136.836-729.9a3.312,3.312,0,0,1-2.458-3.194,3.32,3.32,0,0,1,3.3-3.3,3.32,3.32,0,0,1,3.3,3.3" transform="translate(175.927 780.678)" fill="none" stroke="#418c42" stroke-miterlimit="10" stroke-width="2"/>
        <path id="Path_1902" data-name="Path 1902" d="M-120.326-730.9a3.305,3.305,0,0,1-2.464,1.1,3.319,3.319,0,0,1-3.3-3.3,3.319,3.319,0,0,1,3.3-3.3,3.308,3.308,0,0,1,2.9,1.717" transform="translate(172.694 780.678)" fill="none" stroke="#418c42" stroke-miterlimit="10" stroke-width="2"/>
        <path id="Path_1903" data-name="Path 1903" d="M-112.872-733.428a3.316,3.316,0,0,1,3.287-2.972,3.3,3.3,0,0,1,2.032.7" transform="translate(169.456 780.678)" fill="none" stroke="#418c42" stroke-miterlimit="10" stroke-width="2"/>
        <line id="Line_919" data-name="Line 919" x2="5.949" transform="translate(35.986 56.395)" fill="none" stroke="#4eac53" stroke-miterlimit="10" stroke-width="1"/>
        <line id="Line_920" data-name="Line 920" x2="10.376" transform="translate(26.228 56.395)" fill="none" stroke="#418c42" stroke-miterlimit="10" stroke-width="2"/>
        <line id="Line_921" data-name="Line 921" y2="19.885" transform="translate(33.704 63.377)" fill="none" stroke="#4eac53" stroke-miterlimit="10" stroke-width="1"/>
        <circle id="Ellipse_279" data-name="Ellipse 279" cx="1.888" cy="1.888" r="1.888" transform="translate(31.816 61.489)" fill="#418c42"/>
        <circle id="Ellipse_280" data-name="Ellipse 280" cx="1.888" cy="1.888" r="1.888" transform="translate(31.693 72.092)" fill="#418c42"/>
        <circle id="Ellipse_281" data-name="Ellipse 281" cx="1.888" cy="1.888" r="1.888" transform="translate(31.816 81.373)" fill="#418c42"/>
        <g id="Group_1164" data-name="Group 1164" transform="translate(10.6 62.621)">
          <line id="Line_922" data-name="Line 922" x1="15.31" fill="none" stroke="#4eac53" stroke-miterlimit="10" stroke-width="1"/>
          <line id="Line_923" data-name="Line 923" x1="11.566" transform="translate(0 1.888)" fill="none" stroke="#4eac53" stroke-miterlimit="10" stroke-width="1"/>
        </g>
        <g id="Group_1165" data-name="Group 1165" transform="translate(39.181 67.656)">
          <line id="Line_924" data-name="Line 924" x1="15.31" fill="none" stroke="#4eac53" stroke-miterlimit="10" stroke-width="1"/>
          <line id="Line_925" data-name="Line 925" x1="11.566" transform="translate(0 1.888)" fill="none" stroke="#4eac53" stroke-miterlimit="10" stroke-width="1"/>
        </g>
        <g id="Group_1166" data-name="Group 1166" transform="translate(11.591 74.49)">
          <line id="Line_926" data-name="Line 926" x1="15.31" fill="none" stroke="#418c42" stroke-miterlimit="10" stroke-width="2"/>
          <line id="Line_927" data-name="Line 927" x1="11.566" transform="translate(0 1.888)" fill="none" stroke="#4eac53" stroke-miterlimit="10" stroke-width="1"/>
        </g>
        <g id="Group_1167" data-name="Group 1167" transform="translate(39.181 82.317)">
          <line id="Line_928" data-name="Line 928" x1="15.31" fill="none" stroke="#4eac53" stroke-miterlimit="10" stroke-width="1"/>
          <line id="Line_929" data-name="Line 929" x1="11.566" transform="translate(0 1.888)" fill="none" stroke="#4eac53" stroke-miterlimit="10" stroke-width="1"/>
        </g>
        <g id="Group_1169" data-name="Group 1169" transform="translate(24.521 8.458)">
          <path id="Path_1904" data-name="Path 1904" d="M-155.333-762.415l8.006.1a9.311,9.311,0,0,0,5.037-.1h7.922V-774.17s-.911-9.36-9.9-9.645c0,0-9.31-.424-10.939,8.845Z" transform="translate(155.333 783.832)" fill="#fff"/>
          <path id="Path_1905" data-name="Path 1905" d="M-138.84-783.587s6.412,2.976,6.412,10.131v11.1h2.1v-11.755S-131.16-782.547-138.84-783.587Z" transform="translate(151.294 783.775)" fill="#4eac53" opacity="0.3"/>
          <g id="Group_1168" data-name="Group 1168">
            <path id="Path_1906" data-name="Path 1906" d="M-136.357-770.92v4.058a7.413,7.413,0,0,1-5.111,6.06s5.255-.193,6.607-5.281l.183-5.281Z" transform="translate(151.938 780.782)" fill="#4eac53" opacity="0.3"/>
            <path id="Path_1907" data-name="Path 1907" d="M-140.938-755.406l-.529-1.971h1.588l.548,1.314Z" transform="translate(151.938 777.357)" fill="#4eac53" opacity="0.3"/>
            <path id="Path_1908" data-name="Path 1908" d="M-142.29-762.419h7.922v-10.934a10.483,10.483,0,0,0-10.483-10.483,10.483,10.483,0,0,0-10.483,10.483v10.934h8.006" transform="translate(155.333 783.836)" fill="none" stroke="#4eac53" stroke-linecap="round" stroke-linejoin="round" stroke-width="2"/>
            <path id="Path_1909" data-name="Path 1909" d="M-136.88-771.363v3.771a6.81,6.81,0,0,1-6.79,6.79h0a6.81,6.81,0,0,1-6.79-6.79v-3.771" transform="translate(154.14 780.782)" fill="none" stroke="#4eac53" stroke-linecap="round" stroke-linejoin="round" stroke-width="2"/>
            <path id="Path_1910" data-name="Path 1910" d="M-140.679-757.377l.985,1.533a10.639,10.639,0,0,1-2.464.439,11.67,11.67,0,0,1-2.573-.439l.931-1.533" transform="translate(152.737 777.357)" fill="none" stroke="#4eac53" stroke-linecap="round" stroke-linejoin="round" stroke-width="2"/>
            <circle id="Ellipse_282" data-name="Ellipse 282" cx="0.658" cy="0.658" r="0.658" transform="translate(7.347 11.546)" fill="#4eac53"/>
            <circle id="Ellipse_283" data-name="Ellipse 283" cx="0.658" cy="0.658" r="0.658" transform="translate(12.605 11.546)" fill="#4eac53"/>
            <path id="Path_1911" data-name="Path 1911" d="M-140.07-763.461a2.313,2.313,0,0,1-1.921,1.022,2.313,2.313,0,0,1-1.871-.95" transform="translate(152.524 778.846)" fill="none" stroke="#4eac53" stroke-linecap="round" stroke-linejoin="round" stroke-width="1"/>
            <path id="Path_1912" data-name="Path 1912" d="M-146.057-773.524a2.343,2.343,0,0,1-2.5,2.15,2.593,2.593,0,0,1-2.163-1.074" transform="translate(154.203 781.311)" fill="none" stroke="#4eac53" stroke-linecap="round" stroke-miterlimit="10" stroke-width="2"/>
            <path id="Path_1913" data-name="Path 1913" d="M-133.332-772.36a2.615,2.615,0,0,1-2.1.986,2.344,2.344,0,0,1-2.5-2.15" transform="translate(151.072 781.311)" fill="none" stroke="#4eac53" stroke-linecap="round" stroke-miterlimit="10" stroke-width="2"/>
            <path id="Path_1914" data-name="Path 1914" d="M-139.551-773.524a2.343,2.343,0,0,1-2.5,2.15,2.344,2.344,0,0,1-2.5-2.15" transform="translate(152.691 781.311)" fill="none" stroke="#4eac53" stroke-linecap="round" stroke-miterlimit="10" stroke-width="2"/>
          </g>
          <path id="Path_1915" data-name="Path 1915" d="M-151.073-766.934a1.1,1.1,0,0,1-1.095-1.095,1.1,1.1,0,0,1,1.095-1.1" transform="translate(154.558 780.234)" fill="none" stroke="#4eac53" stroke-linecap="round" stroke-linejoin="round" stroke-width="1"/>
          <path id="Path_1916" data-name="Path 1916" d="M-131.987-769.125a1.1,1.1,0,0,1,1.1,1.1,1.1,1.1,0,0,1-1.1,1.095" transform="translate(149.616 780.234)" fill="none" stroke="#4eac53" stroke-linecap="round" stroke-linejoin="round" stroke-width="1"/>
        </g>
      </g>
      <rect id="Rectangle_834" data-name="Rectangle 834" width="85.577" height="47.632" transform="translate(32.549 40.316)" fill="#4eac53" opacity="0.31"/>
      <g id="Group_1171" data-name="Group 1171" transform="translate(25.385 32.776)">
        <rect id="Rectangle_835" data-name="Rectangle 835" width="85.577" height="47.632" transform="translate(0.572)" fill="#fff"/>
        <rect id="Rectangle_836" data-name="Rectangle 836" width="85.577" height="47.632" transform="translate(0 0.564)" fill="#4eac53" opacity="0.5"/>
        <rect id="Rectangle_837" data-name="Rectangle 837" width="85.577" height="47.632" transform="translate(0.572)" fill="none" stroke="#4eac53" stroke-miterlimit="10" stroke-width="2"/>
      </g>
      <g id="Group_1172" data-name="Group 1172" transform="translate(102.519 37.1)">
        <line id="Line_930" data-name="Line 930" x2="2.358" y2="2.358" fill="none" stroke="#4eac53" stroke-miterlimit="10" stroke-width="1"/>
        <line id="Line_931" data-name="Line 931" x1="2.358" y2="2.358" fill="none" stroke="#4eac53" stroke-miterlimit="10" stroke-width="1"/>
      </g>
      <g id="Group_1178" data-name="Group 1178" transform="translate(0 6.032)">
        <g id="Group_1176" data-name="Group 1176">
          <g id="Group_1175" data-name="Group 1175" transform="translate(40.796 15.299)">
            <g id="Group_1173" data-name="Group 1173" transform="translate(0 2.358)">
              <rect id="Rectangle_838" data-name="Rectangle 838" width="9.116" height="9.393" transform="translate(9.393) rotate(90)" fill="#4eac53" opacity="0.78"/>
              <rect id="Rectangle_839" data-name="Rectangle 839" width="2.847" height="9.393" transform="translate(9.393 6.27) rotate(90)" fill="#4eac53" opacity="0.78"/>
              <rect id="Rectangle_840" data-name="Rectangle 840" width="9.116" height="9.393" transform="translate(9.393) rotate(90)" stroke-width="1" stroke="#4eac53" stroke-linecap="round" stroke-linejoin="round" fill="none"/>
            </g>
            <g id="Group_1174" data-name="Group 1174" transform="translate(4.382)">
              <path id="Rectangle_841" data-name="Rectangle 841" d="M4.615,0H9.883a3.739,3.739,0,0,1,3.739,3.739v3.6a0,0,0,0,1,0,0H0a0,0,0,0,1,0,0V4.615A4.615,4.615,0,0,1,4.615,0Z" transform="translate(7.335 0) rotate(90)" fill="#fff"/>
              <path id="Rectangle_842" data-name="Rectangle 842" d="M2.955,0H10.24a3.382,3.382,0,0,1,3.382,3.382V7.335a0,0,0,0,1,0,0H0a0,0,0,0,1,0,0V2.955A2.955,2.955,0,0,1,2.955,0Z" transform="translate(7.335 0) rotate(90)" fill="none" stroke="#4eac53" stroke-linecap="round" stroke-linejoin="round" stroke-width="2"/>
              <line id="Line_932" data-name="Line 932" x1="5.03" transform="translate(0 1.362)" fill="none" stroke="#4eac53" stroke-linecap="round" stroke-linejoin="round" stroke-width="1"/>
              <line id="Line_933" data-name="Line 933" x1="5.03" transform="translate(0 2.698)" fill="none" stroke="#4eac53" stroke-linecap="round" stroke-linejoin="round" stroke-width="1"/>
              <line id="Line_934" data-name="Line 934" x1="5.03" transform="translate(0 4.034)" fill="none" stroke="#4eac53" stroke-linecap="round" stroke-linejoin="round" stroke-width="1"/>
              <line id="Line_935" data-name="Line 935" x1="5.03" transform="translate(0 5.37)" fill="none" stroke="#4eac53" stroke-linecap="round" stroke-linejoin="round" stroke-width="1"/>
              <line id="Line_936" data-name="Line 936" x1="5.03" transform="translate(0 6.706)" fill="none" stroke="#4eac53" stroke-linecap="round" stroke-linejoin="round" stroke-width="1"/>
              <line id="Line_937" data-name="Line 937" x1="5.03" transform="translate(0 8.042)" fill="none" stroke="#4eac53" stroke-linecap="round" stroke-linejoin="round" stroke-width="1"/>
              <line id="Line_938" data-name="Line 938" x1="5.03" transform="translate(0 9.378)" fill="none" stroke="#4eac53" stroke-linecap="round" stroke-linejoin="round" stroke-width="1"/>
              <line id="Line_939" data-name="Line 939" x1="5.03" transform="translate(0 10.714)" fill="none" stroke="#4eac53" stroke-linecap="round" stroke-linejoin="round" stroke-width="1"/>
              <line id="Line_940" data-name="Line 940" x1="5.03" transform="translate(0 12.05)" fill="none" stroke="#4eac53" stroke-linecap="round" stroke-linejoin="round" stroke-width="1"/>
            </g>
          </g>
          <circle id="Ellipse_284" data-name="Ellipse 284" cx="21.824" cy="21.824" r="21.824" transform="translate(0.123 0.314)" fill="#fff"/>
          <circle id="Ellipse_285" data-name="Ellipse 285" cx="21.824" cy="21.824" r="21.824" fill="#4eac53" opacity="0.78"/>
          <path id="Path_1917" data-name="Path 1917" d="M-203.609-786.519a21.83,21.83,0,0,1,15.079,20.757,21.824,21.824,0,0,1-21.824,21.824,22.018,22.018,0,0,1-3.151-.229,21.8,21.8,0,0,0,6.746,1.068,21.824,21.824,0,0,0,21.824-21.824A21.826,21.826,0,0,0-203.609-786.519Z" transform="translate(228.503 786.92)" fill="#4eac53" opacity="0.65"/>
          <circle id="Ellipse_286" data-name="Ellipse 286" cx="16.347" cy="16.347" r="16.347" transform="translate(5.601 5.792)" fill="#fff"/>
          <circle id="Ellipse_287" data-name="Ellipse 287" cx="16.347" cy="16.347" r="16.347" transform="translate(5.477 5.668)" fill="#4eac53" opacity="0.3"/>
          <circle id="Ellipse_288" data-name="Ellipse 288" cx="15.595" cy="15.595" r="15.595" transform="translate(6.23 6.421)" fill="#fff"/>
          <path id="Path_1918" data-name="Path 1918" d="M-222.17-762.484a15.6,15.6,0,0,1,15.595-15.595c.248,0,.494.008.739.019a15.631,15.631,0,0,0-3.827-.475,15.6,15.6,0,0,0-15.595,15.595A15.594,15.594,0,0,0-210.4-747.365,15.6,15.6,0,0,1-222.17-762.484Z" transform="translate(231.381 784.965)" fill="#4eac53" opacity="0.3"/>
          <g id="Ellipse_289" data-name="Ellipse 289" transform="translate(5.477 5.668)" fill="none" stroke="#4eac53" stroke-linecap="round" stroke-linejoin="round" stroke-width="2">
            <circle cx="16.347" cy="16.347" r="16.347" stroke="none"/>
            <circle cx="16.347" cy="16.347" r="17.347" fill="none"/>
          </g>
          <circle id="Ellipse_290" data-name="Ellipse 290" cx="21.824" cy="21.824" r="21.824" transform="translate(0 0.191)" stroke-width="2" stroke="#4eac53" stroke-linecap="round" stroke-linejoin="round" fill="none"/>
        </g>
        <rect id="Rectangle_843" data-name="Rectangle 843" width="4.561" height="10.441" transform="matrix(0.764, 0.645, -0.645, 0.764, 26.711, 11.905)" stroke-width="1" stroke="#4eac53" stroke-linecap="round" stroke-linejoin="round" fill="#fff"/>
        <rect id="Rectangle_844" data-name="Rectangle 844" width="4.561" height="14.643" transform="translate(24.007 20.171) rotate(113.57)" stroke-width="1" stroke="#4eac53" stroke-linecap="round" stroke-linejoin="round" fill="#fff"/>
        <g id="Group_1177" data-name="Group 1177" transform="translate(18.813 18.989)">
          <circle id="Ellipse_291" data-name="Ellipse 291" cx="2.916" cy="2.916" r="2.916" fill="#fff"/>
          <circle id="Ellipse_292" data-name="Ellipse 292" cx="2.916" cy="2.916" r="2.916" stroke-width="1" stroke="#4eac53" stroke-linecap="round" stroke-linejoin="round" fill="none"/>
          <path id="Path_1919" data-name="Path 1919" d="M-203.582-760.345a2.915,2.915,0,0,1,.1.73A2.916,2.916,0,0,1-206.4-756.7a2.9,2.9,0,0,1-1.923-.728,2.914,2.914,0,0,0,2.82,2.186,2.916,2.916,0,0,0,2.916-2.916A2.908,2.908,0,0,0-203.582-760.345Z" transform="translate(208.421 761.521)" fill="#4eac53" opacity="0.3"/>
          <circle id="Ellipse_293" data-name="Ellipse 293" cx="2.916" cy="2.916" r="2.916" fill="#4eac53" opacity="0.3"/>
        </g>
      </g>
      <g id="Group_1179" data-name="Group 1179" transform="translate(39.339 44.396)">
        <line id="Line_941" data-name="Line 941" x2="19.542" transform="translate(0.347)" fill="#fff" stroke="#418c42" stroke-miterlimit="10" stroke-width="2"/>
        <line id="Line_942" data-name="Line 942" x2="54.207" transform="translate(0.347 2.909)" fill="none" stroke="#4eac53" stroke-miterlimit="10" stroke-width="1"/>
        <line id="Line_943" data-name="Line 943" x2="54.207" transform="translate(0.347 5.818)" fill="none" stroke="#4eac53" stroke-miterlimit="10" stroke-width="1"/>
        <line id="Line_944" data-name="Line 944" x2="54.207" transform="translate(0.347 8.728)" fill="none" stroke="#4eac53" stroke-miterlimit="10" stroke-width="1"/>
        <line id="Line_945" data-name="Line 945" x2="54.207" transform="translate(0 15.325)" fill="none" stroke="#4eac53" stroke-miterlimit="10" stroke-width="1"/>
        <line id="Line_946" data-name="Line 946" x2="54.207" transform="translate(0 18.234)" fill="none" stroke="#4eac53" stroke-miterlimit="10" stroke-width="1"/>
        <line id="Line_947" data-name="Line 947" x2="54.207" transform="translate(0 21.143)" fill="none" stroke="#4eac53" stroke-miterlimit="10" stroke-width="1"/>
      </g>
    </g>
  </g>
</svg>
