<svg xmlns="http://www.w3.org/2000/svg" width="94.228" height="111.358" viewBox="0 0 94.228 111.358">
  <g id="Group_3283" data-name="Group 3283" transform="translate(775.851 798.845)">
    <g id="Group_965" data-name="Group 965" transform="translate(-754.56 -797.845)">
      <g id="Group_951" data-name="Group 951">
        <path id="Path_1551" data-name="Path 1551" d="M-743.124-797.845h65.86l6.076,6.076v87.226h-71.937Z" transform="translate(743.124 797.845)" fill="#fff"/>
        <path id="Path_1552" data-name="Path 1552" d="M-661.721-797.845v7.35h7.791Z" transform="translate(726.405 797.845)" fill="#4eac53" opacity="0.3"/>
        <path id="Path_1553" data-name="Path 1553" d="M-743.124-797.845h65.86l6.076,6.076v87.226h-71.937Z" transform="translate(743.124 797.845)" fill="none" stroke="#4eac53" stroke-miterlimit="10" stroke-width="2"/>
        <path id="Path_1554" data-name="Path 1554" d="M-661.721-797.845v7.35h7.252" transform="translate(726.405 797.845)" fill="none" stroke="#4eac53" stroke-miterlimit="10" stroke-width="1"/>
      </g>
      <rect id="Rectangle_780" data-name="Rectangle 780" width="64.036" height="14.109" transform="translate(4.286 43.118)" fill="#4eac53" opacity="0.3"/>
      <g id="Group_964" data-name="Group 964" transform="translate(4.297 4.858)">
        <line id="Line_658" data-name="Line 658" x2="22.092" transform="translate(34.762 8.143)" fill="none" stroke="#418c42" stroke-miterlimit="10" stroke-width="2"/>
        <line id="Line_659" data-name="Line 659" x2="15.04" transform="translate(34.762 11.114)" fill="none" stroke="#4eac53" stroke-miterlimit="10" stroke-width="1"/>
        <g id="Group_952" data-name="Group 952" transform="translate(0.576 61.039)">
          <line id="Line_660" data-name="Line 660" x1="35.844" fill="none" stroke="#4eac53" stroke-miterlimit="10" stroke-width="1"/>
        </g>
        <g id="Group_955" data-name="Group 955">
          <circle id="Ellipse_124" data-name="Ellipse 124" cx="16.073" cy="16.073" r="16.073" fill="#4eac53" opacity="0.3"/>
          <circle id="Ellipse_125" data-name="Ellipse 125" cx="16.073" cy="16.073" r="16.073" fill="none" stroke="#4eac53" stroke-miterlimit="10" stroke-width="1"/>
          <g id="Group_954" data-name="Group 954" transform="translate(5.833 5.322)">
            <path id="Path_1555" data-name="Path 1555" d="M-717.489-762.341a10.467,10.467,0,0,1-5.214,0l.964-1.587-4.211-2.366s-4.934-2.843-4.269-10.1,8.642-8.745,10.158-8.633,9.752,1.074,10.293,10.293c0,0-.291,7.234-5.337,9.02l-3.4,1.786Z" transform="translate(730.356 785.033)" fill="#fff"/>
            <path id="Path_1556" data-name="Path 1556" d="M-713.145-775.214a17.244,17.244,0,0,1-10.259-1.98,4.638,4.638,0,0,1-3.8,2.338v3.562s.156,4.4,1.814,5.329a11.1,11.1,0,0,1-4.988-9.249c.119-6.169,6.562-9.9,10.293-9.812,0,0,9.051.366,9.98,8.05,0,0,1.077,8.16-4.249,10.793l1.046-4.091Z" transform="translate(730.376 785.032)" fill="#fff" opacity="0.3"/>
            <path id="Path_1557" data-name="Path 1557" d="M-725.078-765.778a10.273,10.273,0,0,1-5.3-8.954,10.293,10.293,0,0,1,10.293-10.293,10.293,10.293,0,0,1,10.293,10.293,10.293,10.293,0,0,1-5.817,9.271" transform="translate(730.375 785.032)" fill="none" stroke="#4eac53" stroke-linecap="round" stroke-miterlimit="10" stroke-width="2"/>
            <path id="Path_1558" data-name="Path 1558" d="M-708.517-770.027v2.267s1.636-.441,1.378-1.287S-708.517-770.027-708.517-770.027Z" transform="translate(725.886 781.951)" fill="#fff"/>
            <path id="Path_1559" data-name="Path 1559" d="M-726.825-767.76v-2.267s-1.636.441-1.378,1.286S-726.825-767.76-726.825-767.76Z" transform="translate(729.935 781.951)" fill="#fff"/>
            <g id="Group_953" data-name="Group 953" transform="translate(1.841 6.293)">
              <path id="Path_1560" data-name="Path 1560" d="M-712.245-772.792v5.106a7.674,7.674,0,0,1-5.29,6.272s5.439-.2,6.838-5.465l.19-5.465Z" transform="translate(725.898 776.226)" fill="#4eac53" opacity="0.3"/>
              <path id="Path_1561" data-name="Path 1561" d="M-716.987-756.432l-.548-2.04h1.644l.567,1.36Z" transform="translate(725.898 773.284)" fill="#4eac53" opacity="0.3"/>
              <path id="Path_1562" data-name="Path 1562" d="M-712.324-772.228v3.9a7.048,7.048,0,0,1-7.028,7.028h0a7.048,7.048,0,0,1-7.028-7.028v-3.9" transform="translate(727.714 776.11)" fill="none" stroke="#4eac53" stroke-linecap="round" stroke-linejoin="round" stroke-width="2"/>
              <path id="Path_1563" data-name="Path 1563" d="M-716.551-758.473l1.02,1.587a11.013,11.013,0,0,1-2.55.454,12.088,12.088,0,0,1-2.664-.454l.964-1.587" transform="translate(726.557 773.285)" fill="none" stroke="#4eac53" stroke-linecap="round" stroke-linejoin="round" stroke-width="2"/>
              <circle id="Ellipse_126" data-name="Ellipse 126" cx="0.681" cy="0.681" r="0.681" transform="translate(5.131 6.083)" fill="#4eac53"/>
              <circle id="Ellipse_127" data-name="Ellipse 127" cx="0.681" cy="0.681" r="0.681" transform="translate(10.573 6.083)" fill="#4eac53"/>
              <path id="Path_1564" data-name="Path 1564" d="M-715.965-764.456a2.4,2.4,0,0,1-1.988,1.057,2.4,2.4,0,0,1-1.937-.983" transform="translate(726.381 774.513)" fill="none" stroke="#4eac53" stroke-linecap="round" stroke-linejoin="round" stroke-width="1"/>
              <path id="Path_1565" data-name="Path 1565" d="M-726.926-767.76a1.133,1.133,0,0,1-1.133-1.134,1.133,1.133,0,0,1,1.133-1.133" transform="translate(728.059 775.658)" fill="none" stroke="#4eac53" stroke-linecap="round" stroke-linejoin="round" stroke-width="1"/>
              <path id="Path_1566" data-name="Path 1566" d="M-708.21-770.027a1.134,1.134,0,0,1,1.134,1.133,1.134,1.134,0,0,1-1.134,1.134" transform="translate(723.982 775.658)" fill="none" stroke="#4eac53" stroke-linecap="round" stroke-linejoin="round" stroke-width="1"/>
              <path id="Path_1567" data-name="Path 1567" d="M-728.059-772.832s3.57.137,5.131-2.338" transform="translate(728.059 776.714)" fill="none" stroke="#4eac53" stroke-linecap="round" stroke-miterlimit="10" stroke-width="2"/>
              <path id="Path_1568" data-name="Path 1568" d="M-723.09-777.113s1.961,4.006,12.051,3.476" transform="translate(727.039 777.113)" fill="none" stroke="#4eac53" stroke-linecap="round" stroke-miterlimit="10" stroke-width="2"/>
            </g>
          </g>
        </g>
        <line id="Line_661" data-name="Line 661" x2="15.04" transform="translate(34.762 13.16)" fill="none" stroke="#4eac53" stroke-miterlimit="10" stroke-width="1"/>
        <line id="Line_662" data-name="Line 662" x2="15.04" transform="translate(34.762 15.14)" fill="none" stroke="#4eac53" stroke-miterlimit="10" stroke-width="1"/>
        <line id="Line_663" data-name="Line 663" x2="15.04" transform="translate(34.762 20.717)" fill="none" stroke="#4eac53" stroke-miterlimit="10" stroke-width="1"/>
        <line id="Line_664" data-name="Line 664" x2="15.04" transform="translate(34.762 22.763)" fill="none" stroke="#4eac53" stroke-miterlimit="10" stroke-width="1"/>
        <line id="Line_665" data-name="Line 665" x2="15.04" transform="translate(34.762 24.744)" fill="none" stroke="#4eac53" stroke-miterlimit="10" stroke-width="1"/>
        <path id="Path_1569" data-name="Path 1569" d="M-734.31-732.259s7.424-9.767,17.792-3.476,16.384-.729,16.384-.729,4.608-6.224,13.056,0,10.111.671,10.111.671" transform="translate(737.017 780.948)" fill="none" stroke="#4eac53" stroke-miterlimit="10" stroke-width="1"/>
        <circle id="Ellipse_128" data-name="Ellipse 128" cx="1.987" cy="1.987" r="1.987" transform="translate(0.72 46.703)" fill="#418c42"/>
        <circle id="Ellipse_129" data-name="Ellipse 129" cx="1.987" cy="1.987" r="1.987" transform="translate(14.178 41.313)" fill="#418c42"/>
        <circle id="Ellipse_130" data-name="Ellipse 130" cx="1.987" cy="1.987" r="1.987" transform="translate(26.198 45.286)" fill="#418c42"/>
        <circle id="Ellipse_131" data-name="Ellipse 131" cx="1.987" cy="1.987" r="1.987" transform="translate(40.296 39.806)" fill="#418c42"/>
        <circle id="Ellipse_132" data-name="Ellipse 132" cx="1.987" cy="1.987" r="1.987" transform="translate(48.907 42.877)" fill="#418c42"/>
        <circle id="Ellipse_133" data-name="Ellipse 133" cx="1.987" cy="1.987" r="1.987" transform="translate(58.065 43.168)" fill="#418c42"/>
        <g id="Group_957" data-name="Group 957" transform="translate(47.05 58.39)">
          <g id="Group_956" data-name="Group 956" transform="translate(8.611 2.053)">
            <line id="Line_666" data-name="Line 666" x1="7.171" fill="none" stroke="#4eac53" stroke-miterlimit="10" stroke-width="1"/>
            <line id="Line_667" data-name="Line 667" x1="5.417" transform="translate(0 1.987)" fill="none" stroke="#4eac53" stroke-miterlimit="10" stroke-width="1"/>
          </g>
          <circle id="Ellipse_134" data-name="Ellipse 134" cx="3.112" cy="3.112" r="3.112" fill="none" stroke="#418c42" stroke-miterlimit="10" stroke-width="2"/>
        </g>
        <g id="Group_959" data-name="Group 959" transform="translate(46.976 67.131)">
          <g id="Group_958" data-name="Group 958" transform="translate(8.611 2.053)">
            <line id="Line_668" data-name="Line 668" x1="7.171" fill="none" stroke="#4eac53" stroke-miterlimit="10" stroke-width="1"/>
            <line id="Line_669" data-name="Line 669" x1="5.417" transform="translate(0 1.987)" fill="none" stroke="#4eac53" stroke-miterlimit="10" stroke-width="1"/>
          </g>
          <circle id="Ellipse_135" data-name="Ellipse 135" cx="3.112" cy="3.112" r="3.112" fill="none" stroke="#418c42" stroke-miterlimit="10" stroke-width="2"/>
        </g>
        <g id="Group_961" data-name="Group 961" transform="translate(46.976 75.872)">
          <g id="Group_960" data-name="Group 960" transform="translate(8.611 2.053)">
            <line id="Line_670" data-name="Line 670" x1="7.171" fill="none" stroke="#4eac53" stroke-miterlimit="10" stroke-width="1"/>
            <line id="Line_671" data-name="Line 671" x1="5.417" transform="translate(0 1.987)" fill="none" stroke="#4eac53" stroke-miterlimit="10" stroke-width="1"/>
          </g>
          <circle id="Ellipse_136" data-name="Ellipse 136" cx="3.112" cy="3.112" r="3.112" fill="none" stroke="#418c42" stroke-miterlimit="10" stroke-width="2"/>
        </g>
        <line id="Line_672" data-name="Line 672" x2="22.092" transform="translate(0.576 56.735)" fill="none" stroke="#418c42" stroke-miterlimit="10" stroke-width="2"/>
        <g id="Group_962" data-name="Group 962" transform="translate(0.576 69.25)">
          <line id="Line_673" data-name="Line 673" x1="35.844" fill="none" stroke="#4eac53" stroke-miterlimit="10" stroke-width="1"/>
          <line id="Line_674" data-name="Line 674" x1="27.078" transform="translate(0 1.987)" fill="none" stroke="#4eac53" stroke-miterlimit="10" stroke-width="1"/>
        </g>
        <g id="Group_963" data-name="Group 963" transform="translate(0.576 77.991)">
          <line id="Line_675" data-name="Line 675" x1="35.844" fill="none" stroke="#4eac53" stroke-miterlimit="10" stroke-width="1"/>
          <line id="Line_676" data-name="Line 676" x1="27.078" transform="translate(0 1.987)" fill="none" stroke="#4eac53" stroke-miterlimit="10" stroke-width="1"/>
        </g>
      </g>
    </g>
    <path id="Path_1570" data-name="Path 1570" d="M-728.2-686.211v-15.681h-15.892v15.681h-4.966L-742.6-677l6.456,9.216,6.456-9.216,6.456-9.216Z" transform="translate(-10.216 -19.707)" fill="#4eac53" opacity="0.51"/>
    <rect id="Rectangle_781" data-name="Rectangle 781" width="35.331" height="22.448" transform="translate(-754.56 -749.307)" fill="#4eac53" opacity="0.51"/>
    <rect id="Rectangle_782" data-name="Rectangle 782" width="52.047" height="23.546" transform="translate(-774.851 -754.472)" fill="#fff"/>
    <g id="Group_966" data-name="Group 966" transform="translate(-774.851 -754.472)">
      <rect id="Rectangle_783" data-name="Rectangle 783" width="52.047" height="23.546" fill="#4eac53" opacity="0.8"/>
      <rect id="Rectangle_784" data-name="Rectangle 784" width="52.047" height="4.078" transform="translate(0 19.468)" fill="#4eac53" opacity="0.62"/>
      <text id="PDF" transform="translate(11.919 16.237)" fill="#fff" font-size="14" font-family="OpenSans-Extrabold, Open Sans" font-weight="800"><tspan x="0" y="0">PDF</tspan></text>
      <rect id="Rectangle_785" data-name="Rectangle 785" width="52.047" height="23.546" fill="none" stroke="#4eac53" stroke-miterlimit="10" stroke-width="2"/>
    </g>
    <g id="Group_967" data-name="Group 967" transform="translate(-762.535 -723.471)">
      <path id="Path_1571" data-name="Path 1571" d="M-732.3-688.567v-15.681h-15.892v15.681h-4.966l6.456,9.216,6.456,9.216,6.456-9.216,6.456-9.216Z" transform="translate(753.161 704.248)" fill="#fff"/>
      <path id="Path_1572" data-name="Path 1572" d="M-729.761-688.567v-15.681h-6.158v15.681h4.966l-6.456,9.216-3.377,4.821,3.079,4.4,6.456-9.216,6.456-9.216Z" transform="translate(750.619 704.248)" fill="#4eac53" opacity="0.3"/>
      <path id="Path_1573" data-name="Path 1573" d="M-732.3-688.567v-15.681h-15.892v15.681h-4.966l6.456,9.216,6.456,9.216,6.456-9.216,6.456-9.216Z" transform="translate(753.161 704.248)" fill="none" stroke="#4eac53" stroke-miterlimit="10" stroke-width="2"/>
    </g>
  </g>
</svg>
