<svg xmlns="http://www.w3.org/2000/svg" width="16.535" height="22.966" viewBox="0 0 16.535 22.966"><defs><style>.a{fill:#fff;}</style></defs><g transform="translate(0 0)"><path class="a" d="M26.9,12.5h-11V33.435l2.031,2.031,2.079-2.079,2.079,2.079,2.079-2.079,2.079,2.079,2.079-2.079L30.4,35.465l.677-.677,1.354-1.354V17.963Zm.411,2.321,2.78,2.78H27.31Zm3.723,18.058-.677.677-2.079-2.079L26.2,33.556l-2.079-2.079L22.04,33.556l-2.079-2.079-2.079,2.079-.677-.677V13.854h8.7V18.93h5.077V32.879Z" transform="translate(-15.9 -12.5)"/><rect class="a" width="8.824" height="1.354" transform="translate(3.844 15.254)"/><rect class="a" width="8.824" height="1.354" transform="translate(3.844 12.135)"/><rect class="a" width="8.824" height="1.354" transform="translate(3.844 9.041)"/></g></svg>