<svg xmlns="http://www.w3.org/2000/svg" width="43.552" height="62.588" viewBox="0 0 43.552 62.588"><defs><style>.a{fill:#ffcd91;}</style></defs><g transform="translate(-897.686 -1074)"><g transform="translate(212 -562)"><path class="a" d="M1567,5089.5a10.046,10.046,0,0,0,10-10.089,10.09,10.09,0,0,1,0,20.179A10.046,10.046,0,0,0,1567,5089.5Zm23.237-27.848a5,5,0,1,1,10,0,5,5,0,1,1-10,0Z" transform="translate(-871 -3401)"/></g><path class="a" d="M1679.848,5079a5.082,5.082,0,0,0-10.162,0,5.082,5.082,0,0,0,10.162,0" transform="translate(-772 -4000)"/></g></svg>