<svg xmlns="http://www.w3.org/2000/svg" width="121.132" height="96.487" viewBox="0 0 121.132 96.487">
  <g id="Group_4546" data-name="Group 4546" transform="translate(-311.89 -2785.193)">
    <g id="Group_3953" data-name="Group 3953" transform="translate(256.758 2734.895)">
      <g id="Group_24" data-name="Group 24">
        <rect id="Rectangle_12" data-name="Rectangle 12" width="119.377" height="94.731" rx="10.231" transform="translate(56.01 51.177)" fill="#fff"/>
        <g id="Group_23" data-name="Group 23">
          <rect id="Rectangle_13" data-name="Rectangle 13" width="119.377" height="94.731" rx="10.231" transform="translate(56.01 51.177)" fill="none" stroke="#4eac53" stroke-miterlimit="10" stroke-width="1.755"/>
          <line id="Line_28" data-name="Line 28" x2="119.377" transform="translate(56.01 65.903)" fill="none" stroke="#4eac53" stroke-miterlimit="10" stroke-width="0.876"/>
          <path id="Path_25" data-name="Path 25" d="M56.01,65.777v-3.86A10.261,10.261,0,0,1,66.218,51.663h98.96a10.261,10.261,0,0,1,10.209,10.254v3.86Z" fill="#4eac53" opacity="0.3"/>
          <g id="Group_22" data-name="Group 22">
            <ellipse id="Ellipse_16" data-name="Ellipse 16" cx="1.459" cy="1.466" rx="1.459" ry="1.466" transform="translate(63.838 57.839)" fill="#4eac53"/>
            <ellipse id="Ellipse_17" data-name="Ellipse 17" cx="1.459" cy="1.466" rx="1.459" ry="1.466" transform="translate(70.114 57.839)" fill="#4eac53"/>
            <ellipse id="Ellipse_18" data-name="Ellipse 18" cx="1.459" cy="1.466" rx="1.459" ry="1.466" transform="translate(76.389 57.839)" fill="#4eac53"/>
          </g>
        </g>
      </g>
    </g>
    <g id="Group_3954" data-name="Group 3954" transform="translate(256.758 2734.895)">
      <g id="Group_27" data-name="Group 27">
        <path id="Path_26" data-name="Path 26" d="M146.783,88.065S121.412,82.4,115.572,72.491c-5.84,9.911-31.211,15.574-31.211,15.574-1.41,35.6,31.211,52.183,31.211,52.183S148.193,123.663,146.783,88.065Z" fill="#fff"/>
        <path id="Path_27" data-name="Path 27" d="M115.572,140.248s32.621-16.585,31.211-52.183c0,0-25.371-5.663-31.211-15.574Z" fill="#4eac53" opacity="0.3"/>
        <path id="Path_28" data-name="Path 28" d="M115.572,134.134a63.241,63.241,0,0,1-12.4-10.408c-8.417-9.179-12.906-19.65-13.374-31.174,6.672-1.8,18.434-5.634,25.759-11.748,3.7,3.1,8.966,5.911,15.911,8.518,3.75,1.407,7.288,2.479,9.887,3.2-.462,11.536-4.951,22.017-13.375,31.2A63.241,63.241,0,0,1,115.572,134.134Z" fill="#fff"/>
        <path id="Path_29" data-name="Path 29" d="M115.554,80.593c-7.325,6.114-19.087,9.943-25.759,11.747.468,11.525,4.957,22,13.374,31.175a63.274,63.274,0,0,0,12.4,10.408Z" fill="#4eac53" opacity="0.3"/>
        <g id="Group_26" data-name="Group 26">
          <rect id="Rectangle_14" data-name="Rectangle 14" width="17.518" height="15.776" rx="3.327" transform="translate(106.914 100.794)" fill="#fff"/>
          <rect id="Rectangle_15" data-name="Rectangle 15" width="17.518" height="15.776" rx="3.327" transform="translate(106.914 100.428)" fill="#4eac53" opacity="0.72"/>
          <path id="Path_30" data-name="Path 30" d="M122.192,115.963a2.3,2.3,0,0,0,2.291-2.3V102.488a2.3,2.3,0,0,0-2.291-2.3h-2.139v15.776Z" fill="#4eac53" opacity="0.3"/>
          <rect id="Rectangle_16" data-name="Rectangle 16" width="17.518" height="15.776" rx="3.327" transform="translate(106.914 100.428)" fill="none" stroke="#4eac53" stroke-miterlimit="10" stroke-width="0.878"/>
          <path id="Path_31" data-name="Path 31" d="M111.293,100.315a4.38,4.38,0,1,1,8.76,0" fill="none" stroke="#4eac53" stroke-miterlimit="10" stroke-width="2.633"/>
          <path id="Path_32" data-name="Path 32" d="M117.842,107.254a2.19,2.19,0,1,0-3.644,1.633v3.421h2.909v-3.421A2.188,2.188,0,0,0,117.842,107.254Z" fill="#fff" stroke="#4eac53" stroke-miterlimit="10" stroke-width="0.878"/>
        </g>
        <path id="Path_33" data-name="Path 33" d="M146.783,88.065S121.412,82.4,115.572,72.491c-5.84,9.911-31.211,15.574-31.211,15.574-1.41,35.6,31.211,52.183,31.211,52.183S148.193,123.663,146.783,88.065Z" fill="none" stroke="#4eac53" stroke-miterlimit="10" stroke-width="1.755"/>
        <path id="Path_34" data-name="Path 34" d="M115.572,133.924a63.274,63.274,0,0,1-12.4-10.408c-8.417-9.18-12.906-19.651-13.374-31.175,6.672-1.8,18.434-5.633,25.759-11.747,3.7,3.1,8.966,5.911,15.911,8.517,3.75,1.407,7.288,2.48,9.887,3.2-.462,11.537-4.951,22.017-13.375,31.205A63.274,63.274,0,0,1,115.572,133.924Z" fill="none" stroke="#4eac53" stroke-miterlimit="10" stroke-width="0.878"/>
      </g>
    </g>
  </g>
</svg>
