<svg xmlns="http://www.w3.org/2000/svg" width="31.13" height="22.833" viewBox="0 0 31.13 22.833">
  <g id="Group_4376" data-name="Group 4376" transform="translate(-193.87 -322.71)">
    <g id="Group_4375" data-name="Group 4375" transform="translate(193.87 322.71)">
      <path id="Path_5109" data-name="Path 5109" d="M332.995,432.071h2.075v11.414h-2.075Z" transform="translate(-318.468 -420.652)" fill="#959595"/>
      <path id="Path_5110" data-name="Path 5110" d="M219.376,343.467h-6.828v-2.075h6.828a2.974,2.974,0,0,0,2.075-1.038,5.333,5.333,0,0,0,1.473-3.538c-.135-3.248-3.57-5.437-6.693-5.437h-1.318l-.27-.623a9.7,9.7,0,0,0-10.314-5.873,9.887,9.887,0,0,0-8.3,8.892,10.456,10.456,0,0,0,.073,2.49,6.07,6.07,0,0,0,5.935,5.126h4.285v2.075h-4.285a8.164,8.164,0,0,1-8.031-6.89,12.425,12.425,0,0,1-.083-2.968,11.987,11.987,0,0,1,10.117-10.781,11.747,11.747,0,0,1,12.223,6.475c4.057,0,8.54,2.854,8.737,7.419a7.349,7.349,0,0,1-2.075,5.074,4.949,4.949,0,0,1-3.549,1.671Z" transform="translate(-193.87 -322.71)" fill="#959595"/>
      <path id="Path_5111" data-name="Path 5111" d="M304.429,424.35l-3.414-3.445L297.6,424.35l-1.473-1.463,4.887-4.929,4.887,4.929Z" transform="translate(-285.451 -408.012)" fill="#959595"/>
    </g>
  </g>
</svg>
