<svg xmlns="http://www.w3.org/2000/svg" width="33.556" height="26.691" viewBox="0 0 33.556 26.691">
  <g id="Group_3440" data-name="Group 3440" transform="translate(-816.35 -543.35)">
    <path id="Path_4652" data-name="Path 4652" d="M118.269,116.825h1.986a2.887,2.887,0,0,0,2.888-2.887h0a2.887,2.887,0,0,0-2.888-2.887H117.22a2.887,2.887,0,0,0-2.888,2.887h0a2.89,2.89,0,0,0,2.012,2.752.418.418,0,0,1,.294.4v.406l.783-.445A1.721,1.721,0,0,1,118.269,116.825Z" transform="translate(705.691 451.431)" fill="#cdcdcd" stroke="#797979" stroke-miterlimit="10" stroke-width="1.3"/>
    <path id="Path_4653" data-name="Path 4653" d="M137.589,111.058h-4.6a6.691,6.691,0,0,1-6.691-6.691h0a6.692,6.692,0,0,1,6.691-6.692h7.038a6.692,6.692,0,0,1,6.692,6.692h0a6.694,6.694,0,0,1-4.664,6.378.97.97,0,0,0-.68.923v.941l-1.817-1.032A3.982,3.982,0,0,0,137.589,111.058Z" transform="translate(702.541 454.954)" fill="#cdcdcd" stroke="#797979" stroke-miterlimit="10" stroke-width="1.3"/>
    <g id="Group_3319" data-name="Group 3319" transform="translate(835.86 556.886)">
      <path id="Path_4654" data-name="Path 4654" d="M142.036,103.917H139.9a.173.173,0,0,1-.173.055,8.779,8.779,0,0,1-.524.863l.193.055a.149.149,0,0,1-.145.09v4.4h-.477v-3.968a9.841,9.841,0,0,1-2.636,2.3,2.643,2.643,0,0,0-.31-.387,8.939,8.939,0,0,0,3.375-3.409h-3.189v-.462h6.018Zm-.187,3.713a15.735,15.735,0,0,0-2.395-1.78l.331-.318a15.541,15.541,0,0,1,2.415,1.719Z" transform="translate(-135.831 -103.455)" fill="#595959" stroke="rgba(0,0,0,0)" stroke-width="1"/>
    </g>
    <path id="Path_4655" data-name="Path 4655" d="M120.24,100.645h5.051a7.342,7.342,0,0,0,7.342-7.342h0a7.342,7.342,0,0,0-7.342-7.342H117.57a7.342,7.342,0,0,0-7.342,7.342h0a7.344,7.344,0,0,0,5.116,7,1.064,1.064,0,0,1,.746,1.013v1.032l1.993-1.131A4.364,4.364,0,0,1,120.24,100.645Z" transform="translate(706.772 458.039)" fill="#fff" stroke="#797979" stroke-linecap="round" stroke-linejoin="round" stroke-width="1.3"/>
    <g id="Group_3321" data-name="Group 3321" transform="translate(825.711 548.12)">
      <path id="Path_4656" data-name="Path 4656" d="M123.468,95.636l-.618,1.873h-.8l2.023-5.955H125l2.032,5.955h-.821l-.636-1.873Zm1.952-.6-.583-1.713c-.133-.39-.221-.743-.309-1.087h-.018c-.088.353-.185.716-.3,1.078l-.583,1.723Z" transform="translate(-122.054 -91.554)" fill="#949494" stroke="rgba(0,0,0,0)" stroke-width="1"/>
    </g>
  </g>
</svg>
