<svg xmlns="http://www.w3.org/2000/svg" width="20.509" height="19.597" viewBox="0 0 20.509 19.597">
  <g id="linkedin-logo_1_" data-name="linkedin-logo (1)" transform="translate(0 -9.558)">
    <path id="LinkedIn" d="M20.509,21.573v7.582h-4.4V22.081c0-1.777-.636-2.99-2.227-2.99A2.4,2.4,0,0,0,11.631,20.7a3.008,3.008,0,0,0-.146,1.072v7.385h-4.4s.059-11.982,0-13.223h4.4v1.874c-.009.014-.021.029-.029.043h.029v-.043a4.366,4.366,0,0,1,3.962-2.185C18.34,15.621,20.509,17.511,20.509,21.573ZM2.488,9.558a2.291,2.291,0,1,0-.058,4.57h.029a2.292,2.292,0,1,0,.029-4.57ZM.261,29.155h4.4V15.932H.261Z" transform="translate(0)" fill="#949494"/>
  </g>
</svg>
