<svg xmlns="http://www.w3.org/2000/svg" width="39.279" height="39.188" viewBox="0 0 39.279 39.188"><defs><style>.a{fill:#018f2b;}</style></defs><g transform="translate(0 -0.334)"><path class="a" d="M10.151,39.522H.618V12.765h9.533ZM2.367,37.774H8.4V14.514H2.367ZM5.386,11.095a5.38,5.38,0,1,1,5.383-5.381A5.391,5.391,0,0,1,5.386,11.095Zm0-9.012A3.631,3.631,0,1,0,9.021,5.714,3.638,3.638,0,0,0,5.386,2.083Zm33.893,37.44h-9.52V26.488c0-3.9-.474-5.757-3.17-5.757-2.727,0-3.79,1.555-3.79,5.546V39.523H13.283V12.765h9.2v1.893a9.468,9.468,0,0,1,6.591-2.514c8.989,0,10.2,6.465,10.2,12.788v14.59Zm-7.771-1.749h6.022V24.933c0-6.815-1.414-11.04-8.452-11.04a7.325,7.325,0,0,0-6.585,3.572l-.246.467H20.739V14.515H15.033v23.26h6.019v-11.5c0-1.995,0-7.295,5.539-7.295,4.919,0,4.919,4.883,4.919,7.506V37.774h0Z" transform="translate(0 0)"/></g></svg>