<svg xmlns="http://www.w3.org/2000/svg" width="11.693" height="15.318" viewBox="0 0 11.693 15.318">
  <g id="lock" transform="translate(-15.698 -5)">
    <path id="Path_1000" data-name="Path 1000" d="M25.962,11.229h-.426V9.136a4.136,4.136,0,0,0-8.272,0v2.093h-.153a1.4,1.4,0,0,0-1.413,1.43v6.246a1.4,1.4,0,0,0,1.43,1.413h8.851a1.4,1.4,0,0,0,1.413-1.43V12.642A1.446,1.446,0,0,0,25.962,11.229Zm-4.034,4.8V17.8h-.647v-1.77a.936.936,0,1,1,.647,0Zm2.093-4.8H18.8V9.136a2.613,2.613,0,1,1,5.225-.017Z" transform="translate(0)" fill="#34c25e"/>
  </g>
</svg>
