<svg xmlns="http://www.w3.org/2000/svg" width="43.182" height="54.403" viewBox="0 0 43.182 54.403"><defs><style>.a,.b{fill:none;}.a{stroke:#fff;}.c{fill:#fff;}</style></defs><g transform="translate(-752.5 -4456.597)"><g transform="translate(7 89)"><line class="a" y2="48" transform="translate(746 4373.5)"/><line class="a" x2="37.5" transform="translate(745.5 4421.5)"/><line class="a" y1="5" transform="translate(782.5 4416.5)"/></g><line class="a" x2="7" transform="translate(752.5 4462.5)"/><g transform="translate(675 4443.797)"><path class="b" d="M23,59.474H57.152V12.8H23ZM36.218,17.227H53.484v1.455H36.218Zm0,2.72H47.792V21.4H36.218Zm0,2.656H51.586v1.455H36.218Zm-6.135-5.376a3.415,3.415,0,1,1-3.415,3.415A3.484,3.484,0,0,1,30.083,17.227Zm-3.352,11.7H53.484v1.455H26.731Zm0,3.984H53.484v1.455H26.731Zm0,3.921H53.484v1.455H26.731Zm0,3.984H53.484v1.455H26.731Zm0,3.921H53.484V46.13H26.731Zm0,3.984H40.076v1.455H26.731Zm0,4.87H53.168v1.455H26.731Z" transform="translate(62.265 1.265)"/><path class="c" d="M21,10.8V60H57.682V10.8ZM56.417,58.739H22.265V12.065H56.417Z" transform="translate(63 2)"/><rect class="c" width="17.266" height="1.455" transform="translate(98.483 18.492)"/><rect class="c" width="11.574" height="1.455" transform="translate(98.483 21.211)"/><rect class="c" width="15.368" height="1.455" transform="translate(98.483 23.868)"/><circle class="c" cx="3.415" cy="3.415" r="3.415" transform="translate(88.933 18.492)"/><rect class="c" width="26.436" height="1.455" transform="translate(88.996 54.857)"/><rect class="c" width="26.752" height="1.455" transform="translate(88.996 30.192)"/><rect class="c" width="26.752" height="1.455" transform="translate(88.996 34.177)"/><rect class="c" width="26.752" height="1.455" transform="translate(88.996 38.098)"/><rect class="c" width="26.752" height="1.455" transform="translate(88.996 42.082)"/><rect class="c" width="26.752" height="1.391" transform="translate(88.996 46.003)"/><rect class="c" width="13.345" height="1.455" transform="translate(88.996 49.988)"/></g></g></svg>