<svg xmlns="http://www.w3.org/2000/svg" width="43.182" height="54.403" viewBox="0 0 43.182 54.403">
  <g id="Group_4538" data-name="Group 4538" transform="translate(-738.5 -4686.597)">
    <g id="Group_3602" data-name="Group 3602" transform="translate(-7 319)">
      <line id="Line_1759" data-name="Line 1759" y2="48" transform="translate(746 4373.5)" fill="none" stroke="#008d29" stroke-width="1"/>
      <line id="Line_1760" data-name="Line 1760" x2="37.5" transform="translate(745.5 4421.5)" fill="none" stroke="#008d29" stroke-width="1"/>
      <line id="Line_1761" data-name="Line 1761" y1="5" transform="translate(782.5 4416.5)" fill="none" stroke="#008d29" stroke-width="1"/>
    </g>
    <line id="Line_1759-2" data-name="Line 1759" x2="7" transform="translate(738.5 4692.5)" fill="none" stroke="#018f2b" stroke-width="1"/>
    <g id="noun_Document_93921" transform="translate(661 4673.797)">
      <path id="Path_2155" data-name="Path 2155" d="M23,59.474H57.152V12.8H23ZM36.218,17.227H53.484v1.455H36.218Zm0,2.72H47.792V21.4H36.218Zm0,2.656H51.586v1.455H36.218Zm-6.135-5.376a3.415,3.415,0,1,1-3.415,3.415A3.484,3.484,0,0,1,30.083,17.227Zm-3.352,11.7H53.484v1.455H26.731Zm0,3.984H53.484v1.455H26.731Zm0,3.921H53.484v1.455H26.731Zm0,3.984H53.484v1.455H26.731Zm0,3.921H53.484V46.13H26.731Zm0,3.984H40.076v1.455H26.731Zm0,4.87H53.168v1.455H26.731Z" transform="translate(62.265 1.265)" fill="none"/>
      <path id="Path_2156" data-name="Path 2156" d="M21,10.8V60H57.682V10.8ZM56.417,58.739H22.265V12.065H56.417Z" transform="translate(63 2)" fill="#008b29"/>
      <rect id="Rectangle_892" data-name="Rectangle 892" width="17.266" height="1.455" transform="translate(98.483 18.492)" fill="#008b29"/>
      <rect id="Rectangle_893" data-name="Rectangle 893" width="11.574" height="1.455" transform="translate(98.483 21.211)" fill="#008b29"/>
      <rect id="Rectangle_894" data-name="Rectangle 894" width="15.368" height="1.455" transform="translate(98.483 23.868)" fill="#008b29"/>
      <circle id="Ellipse_406" data-name="Ellipse 406" cx="3.415" cy="3.415" r="3.415" transform="translate(88.933 18.492)" fill="#008b29"/>
      <rect id="Rectangle_895" data-name="Rectangle 895" width="26.436" height="1.455" transform="translate(88.996 54.857)" fill="#008b29"/>
      <rect id="Rectangle_896" data-name="Rectangle 896" width="26.752" height="1.455" transform="translate(88.996 30.192)" fill="#008b29"/>
      <rect id="Rectangle_897" data-name="Rectangle 897" width="26.752" height="1.455" transform="translate(88.996 34.177)" fill="#008b29"/>
      <rect id="Rectangle_898" data-name="Rectangle 898" width="26.752" height="1.455" transform="translate(88.996 38.098)" fill="#008b29"/>
      <rect id="Rectangle_899" data-name="Rectangle 899" width="26.752" height="1.455" transform="translate(88.996 42.082)" fill="#008b29"/>
      <rect id="Rectangle_900" data-name="Rectangle 900" width="26.752" height="1.391" transform="translate(88.996 46.003)" fill="#008b29"/>
      <rect id="Rectangle_901" data-name="Rectangle 901" width="13.345" height="1.455" transform="translate(88.996 49.988)" fill="#008b29"/>
    </g>
  </g>
</svg>
