<svg id="noun_Document_93921" xmlns="http://www.w3.org/2000/svg" width="36.682" height="49.204" viewBox="0 0 36.682 49.204">
  <path id="Path_2155" data-name="Path 2155" d="M23,59.474H57.152V12.8H23ZM36.218,17.227H53.484v1.455H36.218Zm0,2.72H47.792V21.4H36.218Zm0,2.656H51.586v1.455H36.218Zm-6.135-5.376a3.415,3.415,0,1,1-3.415,3.415A3.484,3.484,0,0,1,30.083,17.227Zm-3.352,11.7H53.484v1.455H26.731Zm0,3.984H53.484v1.455H26.731Zm0,3.921H53.484v1.455H26.731Zm0,3.984H53.484v1.455H26.731Zm0,3.921H53.484V46.13H26.731Zm0,3.984H40.076v1.455H26.731Zm0,4.87H53.168v1.455H26.731Z" transform="translate(-21.735 -11.535)" fill="none"/>
  <path id="Path_2156" data-name="Path 2156" d="M21,10.8V60H57.682V10.8ZM56.417,58.739H22.265V12.065H56.417V58.739Z" transform="translate(-21 -10.8)" fill="#fff"/>
  <rect id="Rectangle_892" data-name="Rectangle 892" width="17.266" height="1.455" transform="translate(14.483 5.692)" fill="#fff"/>
  <rect id="Rectangle_893" data-name="Rectangle 893" width="11.574" height="1.455" transform="translate(14.483 8.411)" fill="#fff"/>
  <rect id="Rectangle_894" data-name="Rectangle 894" width="15.368" height="1.455" transform="translate(14.483 11.068)" fill="#fff"/>
  <circle id="Ellipse_406" data-name="Ellipse 406" cx="3.415" cy="3.415" r="3.415" transform="translate(4.933 5.692)" fill="#fff"/>
  <rect id="Rectangle_895" data-name="Rectangle 895" width="26.436" height="1.455" transform="translate(4.996 42.057)" fill="#fff"/>
  <rect id="Rectangle_896" data-name="Rectangle 896" width="26.752" height="1.455" transform="translate(4.996 17.392)" fill="#fff"/>
  <rect id="Rectangle_897" data-name="Rectangle 897" width="26.752" height="1.455" transform="translate(4.996 21.377)" fill="#fff"/>
  <rect id="Rectangle_898" data-name="Rectangle 898" width="26.752" height="1.455" transform="translate(4.996 25.298)" fill="#fff"/>
  <rect id="Rectangle_899" data-name="Rectangle 899" width="26.752" height="1.455" transform="translate(4.996 29.282)" fill="#fff"/>
  <rect id="Rectangle_900" data-name="Rectangle 900" width="26.752" height="1.391" transform="translate(4.996 33.203)" fill="#fff"/>
  <rect id="Rectangle_901" data-name="Rectangle 901" width="13.345" height="1.455" transform="translate(4.996 37.188)" fill="#fff"/>
</svg>
