<svg xmlns="http://www.w3.org/2000/svg" width="22.558" height="27.707" viewBox="0 0 22.558 27.707"><defs><style>.a{fill:#959595;}</style></defs><g transform="translate(-44.806)"><path class="a" d="M119.883,298.147c0-.46-.319-.735-.883-.735a1.958,1.958,0,0,0-.467.044v1.476a1.766,1.766,0,0,0,.379.029C119.512,298.962,119.883,298.658,119.883,298.147Z" transform="translate(-69.49 -280.32)"/><path class="a" d="M194.316,297.681a2.334,2.334,0,0,0-.512.044V301a2.043,2.043,0,0,0,.393.023,1.549,1.549,0,0,0,1.691-1.75A1.434,1.434,0,0,0,194.316,297.681Z" transform="translate(-140.435 -280.574)"/><path class="a" d="M60.36,0H49.231a2.953,2.953,0,0,0-2.949,2.949v10.9h-.288a1.188,1.188,0,0,0-1.188,1.188v7.207a1.188,1.188,0,0,0,1.188,1.188h.288v1.321a2.952,2.952,0,0,0,2.949,2.949H64.416a2.952,2.952,0,0,0,2.948-2.949V6.979ZM47.923,16.343a9.315,9.315,0,0,1,1.527-.1,2.4,2.4,0,0,1,1.527.4,1.461,1.461,0,0,1,.534,1.157,1.6,1.6,0,0,1-.46,1.186,2.318,2.318,0,0,1-1.624.526,2.927,2.927,0,0,1-.386-.022v1.787H47.923ZM64.416,25.9H49.231a1.144,1.144,0,0,1-1.142-1.143V23.437H62.244a1.188,1.188,0,0,0,1.188-1.188V15.042a1.188,1.188,0,0,0-1.188-1.188H48.089V2.949a1.144,1.144,0,0,1,1.142-1.141L59.684,1.8V5.661a2.046,2.046,0,0,0,2.045,2.045l3.785-.011.043,17.064A1.143,1.143,0,0,1,64.416,25.9Zm-12.181-4.65V16.343a10.178,10.178,0,0,1,1.527-.1,3.218,3.218,0,0,1,2.047.533,2.212,2.212,0,0,1,.845,1.884,2.533,2.533,0,0,1-.831,2.024,3.588,3.588,0,0,1-2.306.645A9.783,9.783,0,0,1,52.234,21.252Zm8.093-2.906v.919H58.532v2.01H57.4v-5h3.055V17.2H58.532v1.142Z"/></g></svg>