<svg xmlns="http://www.w3.org/2000/svg" width="99.751" height="93.423" viewBox="0 0 99.751 93.423"><defs><style>.a,.f,.n{fill:#fff;}.b,.i,.l{fill:#4eac53;}.b,.f{opacity:0.3;}.c,.d,.e,.g,.h,.j,.m{fill:none;}.c,.d,.g,.h,.j,.m,.n{stroke:#4eac53;}.c,.d,.e,.g,.m,.n{stroke-miterlimit:10;}.c,.e,.g,.h{stroke-width:2px;}.e{stroke:#418c42;}.g,.h,.j{stroke-linecap:round;}.h,.j{stroke-linejoin:round;}.k{fill:#418c42;}.l{opacity:0.72;}.m{stroke-width:5px;}</style></defs><g transform="translate(-189.473 -3443.768)"><g transform="translate(190.473 3444.768)"><g transform="translate(0 0)"><path class="a" d="M-228.344-217.9h64.534l5.954,5.954v85.469h-70.488Z" transform="translate(228.344 217.902)"/><path class="b" d="M-146.941-217.9v7.2h7.635Z" transform="translate(210.322 217.902)"/><path class="c" d="M-228.344-217.9h64.534l5.954,5.954v85.469h-70.488Z" transform="translate(228.344 217.902)"/><path class="d" d="M-146.941-217.9v7.2h7.106" transform="translate(210.322 217.902)"/></g><rect class="b" width="62.746" height="13.825" transform="translate(4.2 42.249)"/><g transform="translate(4.21 4.76)"><line class="e" x2="21.647" transform="translate(34.062 7.979)"/><line class="d" x2="14.738" transform="translate(34.062 10.89)"/><g transform="translate(0.565 59.809)"><line class="d" x1="35.122"/></g><ellipse class="b" cx="15.749" cy="15.749" rx="15.749" ry="15.749"/><ellipse class="d" cx="15.749" cy="15.749" rx="15.749" ry="15.749"/><g transform="translate(5.716 5.216)"><path class="a" d="M-202.966-182.854a10.256,10.256,0,0,1-5.109,0l.944-1.555-4.125-2.319s-4.835-2.786-4.183-9.9,8.468-8.569,9.954-8.459,9.555,1.052,10.085,10.085c0,0-.286,7.088-5.231,8.839l-3.334,1.75Z" transform="translate(215.575 205.089)"/><path class="f" d="M-198.711-195.468a16.9,16.9,0,0,1-10.053-1.941,4.545,4.545,0,0,1-3.719,2.291v3.491s.153,4.31,1.778,5.222a10.879,10.879,0,0,1-4.887-9.062c.118-6.045,6.431-9.7,10.086-9.614,0,0,8.869.359,9.779,7.887,0,0,1.055,8-4.163,10.576l1.024-4.008Z" transform="translate(215.596 205.088)"/><path class="g" d="M-210.4-186.223A10.067,10.067,0,0,1-215.593-195a10.086,10.086,0,0,1,10.086-10.085A10.085,10.085,0,0,1-195.422-195a10.087,10.087,0,0,1-5.7,9.085" transform="translate(215.595 205.088)"/><path class="a" d="M-193.737-190.084v2.221s1.6-.432,1.35-1.261S-193.737-190.084-193.737-190.084Z" transform="translate(210.756 201.767)"/><path class="a" d="M-212.073-187.863v-2.221s-1.6.433-1.35,1.261S-212.073-187.863-212.073-187.863Z" transform="translate(215.121 201.767)"/><g transform="translate(1.804 6.167)"><path class="b" d="M-197.572-192.849v5a7.518,7.518,0,0,1-5.183,6.146s5.33-.2,6.7-5.355l.186-5.355Z" transform="translate(210.949 196.213)"/><path class="b" d="M-202.218-176.53l-.537-2h1.61l.555,1.333Z" transform="translate(210.949 193.042)"/><path class="h" d="M-197.826-192.285v3.825a6.907,6.907,0,0,1-6.887,6.886h0a6.906,6.906,0,0,1-6.886-6.886v-3.825" transform="translate(212.907 196.088)"/><path class="h" d="M-201.854-178.529l1,1.555a10.818,10.818,0,0,1-2.5.444,11.863,11.863,0,0,1-2.61-.444l.944-1.555" transform="translate(211.66 193.042)"/><ellipse class="i" cx="0.668" cy="0.668" rx="0.668" ry="0.668" transform="translate(5.028 5.96)"/><ellipse class="i" cx="0.668" cy="0.668" rx="0.668" ry="0.668" transform="translate(10.36 5.96)"/><path class="j" d="M-201.263-184.513a2.348,2.348,0,0,1-1.949,1.036,2.347,2.347,0,0,1-1.9-.964" transform="translate(211.47 194.367)"/><path class="j" d="M-212.168-187.863a1.111,1.111,0,0,1-1.111-1.11,1.111,1.111,0,0,1,1.111-1.111" transform="translate(213.279 195.6)"/><path class="j" d="M-193.429-190.084a1.111,1.111,0,0,1,1.11,1.111,1.11,1.11,0,0,1-1.11,1.11" transform="translate(208.884 195.6)"/><path class="g" d="M-213.279-192.936s3.5.134,5.028-2.291" transform="translate(213.279 196.739)"/><path class="g" d="M-208.31-197.169s1.922,3.924,11.808,3.406" transform="translate(212.179 197.169)"/></g></g><line class="d" x2="14.738" transform="translate(34.062 12.894)"/><line class="d" x2="14.738" transform="translate(34.062 14.835)"/><line class="d" x2="14.738" transform="translate(34.062 20.3)"/><line class="d" x2="14.738" transform="translate(34.062 22.304)"/><line class="d" x2="14.738" transform="translate(34.062 24.245)"/><path class="d" d="M-219.53-152.456s7.275-9.57,17.434-3.406,16.054-.713,16.054-.713,4.515-6.1,12.793,0,9.909.656,9.909.656" transform="translate(222.182 200.164)"/><ellipse class="k" cx="1.947" cy="1.947" rx="1.947" ry="1.947" transform="translate(0.706 45.762)"/><ellipse class="k" cx="1.947" cy="1.947" rx="1.947" ry="1.947" transform="translate(13.893 40.481)"/><ellipse class="k" cx="1.947" cy="1.947" rx="1.947" ry="1.947" transform="translate(25.67 44.374)"/><ellipse class="k" cx="1.947" cy="1.947" rx="1.947" ry="1.947" transform="translate(39.484 39.005)"/><ellipse class="k" cx="1.947" cy="1.947" rx="1.947" ry="1.947" transform="translate(47.922 42.013)"/><ellipse class="k" cx="1.947" cy="1.947" rx="1.947" ry="1.947" transform="translate(56.896 42.299)"/><line class="e" x2="21.647" transform="translate(0.565 55.592)"/><g transform="translate(0.565 67.855)"><line class="d" x1="35.122"/><line class="d" x1="26.532" transform="translate(0 1.947)"/></g><g transform="translate(0.565 76.42)"><line class="d" x1="35.122"/><line class="d" x1="26.532" transform="translate(0 1.947)"/></g></g></g><g transform="translate(229.15 3462.479)"><path class="b" d="M-124.444-181.116s-22.023-5.1-27.092-14.038c-5.07,8.933-27.093,14.038-27.093,14.038-1.223,32.087,27.093,47.037,27.093,47.037S-123.22-149.029-124.444-181.116Z" transform="translate(178.666 195.154)"/><path class="a" d="M-118.269-178.71s-22.028-4.9-27.1-13.461c-5.07,8.566-27.1,13.461-27.1,13.461-1.224,30.769,27.1,45.1,27.1,45.1S-117.045-147.941-118.269-178.71Z" transform="translate(177.302 194.494)"/><path class="b" d="M-137.651-133.606s28.322-14.335,27.1-45.1c0,0-22.028-4.9-27.1-13.461Z" transform="translate(169.586 194.494)"/><path class="a" d="M-144.014-136.847a54.862,54.862,0,0,1-10.77-9c-7.308-7.934-11.2-16.985-11.611-26.946,5.793-1.559,16-4.869,22.365-10.154,3.21,2.675,7.785,5.109,13.814,7.363,3.256,1.216,6.327,2.144,8.583,2.766-.4,9.972-4.3,19.031-11.612,26.972A54.861,54.861,0,0,1-144.014-136.847Z" transform="translate(175.95 192.451)"/><path class="b" d="M-144.03-183.178c-6.36,5.284-16.572,8.6-22.365,10.154.407,9.962,4.3,19.012,11.611,26.946a54.86,54.86,0,0,0,10.77,9Z" transform="translate(175.95 192.503)"/><g transform="translate(22.189 20.009)"><rect class="a" width="19.711" height="17.672" rx="3.791" transform="translate(0 5.464)"/><rect class="l" width="19.711" height="17.672" rx="3.791" transform="translate(0 5.055)"/><path class="b" d="M-128.775-145.638a2.585,2.585,0,0,0,2.577-2.577v-12.518a2.585,2.585,0,0,0-2.577-2.577h-2.407v17.672Z" transform="translate(145.965 168.095)"/><rect class="d" width="19.711" height="17.672" rx="3.791" transform="translate(0 5.055)"/><path class="m" d="M-143.84-164.527a4.928,4.928,0,0,1,4.928-4.928,4.928,4.928,0,0,1,4.928,4.928" transform="translate(148.768 169.455)"/><path class="n" d="M-135.778-153.842a2.463,2.463,0,0,0-2.464-2.464,2.464,2.464,0,0,0-2.464,2.464,2.451,2.451,0,0,0,.828,1.83v3.832h3.273v-3.832A2.448,2.448,0,0,0-135.778-153.842Z" transform="translate(148.074 166.544)"/></g><path class="c" d="M-118.269-178.71s-22.028-4.9-27.1-13.461c-5.07,8.566-27.1,13.461-27.1,13.461-1.224,30.769,27.1,45.1,27.1,45.1S-117.045-147.941-118.269-178.71Z" transform="translate(177.302 194.494)"/><path class="d" d="M-144.014-137.081a54.86,54.86,0,0,1-10.77-9c-7.308-7.934-11.2-16.985-11.611-26.946,5.793-1.559,16-4.869,22.365-10.154,3.21,2.676,7.785,5.109,13.814,7.363,3.256,1.217,6.327,2.143,8.583,2.766-.4,9.972-4.3,19.031-11.612,26.972A54.86,54.86,0,0,1-144.014-137.081Z" transform="translate(175.95 192.503)"/></g></g></svg>