<svg xmlns="http://www.w3.org/2000/svg" width="21.855" height="19.642" viewBox="0 0 21.855 19.642">
  <g id="Group_4387" data-name="Group 4387" transform="translate(-251.791 -395.754)">
    <circle id="Ellipse_548" data-name="Ellipse 548" cx="1.371" cy="1.371" r="1.371" transform="translate(261.486 402.079)" fill="#959595"/>
    <path id="Path_4700" data-name="Path 4700" d="M260.623,407.589h4.466a.163.163,0,0,0,.163-.163v-.1a2.127,2.127,0,0,0-2.124-2.124h-.543a2.128,2.128,0,0,0-2.124,2.124v.1A.163.163,0,0,0,260.623,407.589Z" fill="#959595"/>
    <rect id="Rectangle_3553" data-name="Rectangle 3553" width="10.783" height="1.288" transform="translate(257.74 409.007)" fill="#959595"/>
    <path id="Path_4697" data-name="Path 4697" d="M272.418,395.754h-19.4a1.231,1.231,0,0,0-1.227,1.228v17.187a1.23,1.23,0,0,0,1.227,1.227h19.4a1.231,1.231,0,0,0,1.228-1.227V396.982A1.231,1.231,0,0,0,272.418,395.754ZM260.74,397.1a1.059,1.059,0,1,1-1.058,1.059A1.059,1.059,0,0,1,260.74,397.1Zm-3,0a1.059,1.059,0,1,1-1.058,1.059A1.059,1.059,0,0,1,257.74,397.1Zm-3,0a1.059,1.059,0,1,1-1.058,1.059A1.059,1.059,0,0,1,254.74,397.1Zm17.2,16.129H253.778v-13.1h18.158Z" fill="#959595"/>
  </g>
</svg>
