<svg xmlns="http://www.w3.org/2000/svg" width="21.007" height="21.186" viewBox="0 0 21.007 21.186">
  <g id="share" transform="translate(-2.006)">
    <g id="Group_3317" data-name="Group 3317" transform="translate(2.006)">
      <path id="Path_4650" data-name="Path 4650" d="M19.15,13.465a3.835,3.835,0,0,0-3.015,1.479L9.578,11.592a3.835,3.835,0,0,0,.148-1A3.8,3.8,0,0,0,9.55,9.51l6.527-3.337a3.844,3.844,0,1,0-.786-2.313,3.819,3.819,0,0,0,.149,1L8.885,8.214A3.857,3.857,0,1,0,8.942,12.9l6.524,3.337a3.813,3.813,0,0,0-.176,1.086,3.86,3.86,0,1,0,3.86-3.861Z" transform="translate(-2.006)" fill="#1aa844"/>
    </g>
  </g>
</svg>
