<svg xmlns="http://www.w3.org/2000/svg" width="18.72" height="17.934" viewBox="0 0 18.72 17.934">
  <path id="star" d="M18.313,9.175a1.343,1.343,0,0,0-.744-2.29l-4.533-.659A.592.592,0,0,1,12.59,5.9L10.563,1.8a1.343,1.343,0,0,0-2.408,0L6.129,5.9a.593.593,0,0,1-.446.324L1.15,6.885a1.343,1.343,0,0,0-.744,2.29l3.279,3.2a.593.593,0,0,1,.171.525L3.082,17.41A1.314,1.314,0,0,0,3.375,18.5a1.357,1.357,0,0,0,1.655.326l4.053-2.131a.607.607,0,0,1,.552,0l4.054,2.131a1.328,1.328,0,0,0,.624.156,1.346,1.346,0,0,0,1.03-.483,1.314,1.314,0,0,0,.293-1.089L14.862,12.9a.593.593,0,0,1,.171-.525Z" transform="translate(0.001 -1.047)" fill="#fabe1a"/>
</svg>
