<svg xmlns="http://www.w3.org/2000/svg" width="211" height="119" viewBox="0 0 211 119">
  <g id="Vector_Smart_Object" data-name="Vector Smart Object" transform="translate(-781 -1626)">
    <g id="Vector_Smart_Object-2" data-name="Vector Smart Object" transform="translate(723.323 1455.4)">
      <g id="Group_1" data-name="Group 1">
        <path id="Path_1" data-name="Path 1" d="M268.677,201.12a3.709,3.709,0,0,0-6.967-1.752h0l-11.541,20.121c-.352.611-.44.848-1.183.218a8.47,8.47,0,0,0-4.944-1.3l-.069,0-.066,0a8.47,8.47,0,0,0-4.944,1.3c-.742.631-.828.393-1.182-.218-.258-.446-6.42-11.158-9.759-16.963,2.7-4.577,5.965-10.542,6.446-11.423.015-.03.032-.057.047-.085l.015-.03a4.227,4.227,0,0,0-7.4-4.081h0c-.051.088-.1.177-.146.269-.659,1.205-12.482,21.98-12.649,22.272-.4.7-.5.97-1.352.248a9.69,9.69,0,0,0-5.652-1.487l-.077,0-.077,0a9.684,9.684,0,0,0-5.652,1.487c-.848.72-.949.453-1.352-.248-.317-.553-8.55-14.864-12.033-20.914,2.673-4.532,6.152-10.833,6.152-10.833l0,0a4.732,4.732,0,0,0-4.124-7.1,4.757,4.757,0,0,0-4.188,2.492c-.318.555-14.413,25.208-14.863,25.992s-.569,1.094-1.526.282c-.976-.714-2.9-1.622-6.381-1.681a.143.143,0,0,0-.03,0,.135.135,0,0,0-.03,0c-3.485.06-5.405.968-6.381,1.681-.957.812-1.071.509-1.528-.282s-14.543-25.439-14.861-25.992a4.762,4.762,0,0,0-8.948,2.248,4.707,4.707,0,0,0,.635,2.361l0,0s3.478,6.3,6.152,10.833c-3.483,6.049-11.715,20.361-12.033,20.914-.4.7-.5.97-1.352.248a9.69,9.69,0,0,0-5.652-1.487l-.077,0-.077,0a9.689,9.689,0,0,0-5.652,1.487c-.848.72-.949.453-1.352-.248-.168-.293-11.988-21.067-12.649-22.272-.045-.092-.094-.182-.146-.269h0a4.226,4.226,0,0,0-7.4,4.081l.015.03c.015.028.03.056.047.085.481.878,3.745,6.846,6.446,11.423-3.339,5.805-9.5,16.517-9.759,16.963-.354.611-.44.848-1.182.218a8.47,8.47,0,0,0-4.944-1.3l-.066,0-.069,0a8.476,8.476,0,0,0-4.944,1.3c-.743.631-.831.393-1.183-.218L64.644,199.368h0a3.709,3.709,0,0,0-6.967,1.752,3.64,3.64,0,0,0,.44,1.741h0l0,.007c.01.019.021.039.032.056l14.424,24.625a6.68,6.68,0,0,1,.837,3.468v54.735a3.861,3.861,0,0,0,7.722,0V258.606a1.256,1.256,0,0,1,2.489,0v27.146a3.862,3.862,0,0,0,7.725,0s0-52.531,0-54.735a6.7,6.7,0,0,1,.834-3.468s6.38-10.813,10.46-17.732c2.89,4.88,5.244,8.846,5.244,8.846a7.643,7.643,0,0,1,.957,3.966c0,2.522,0,62.573,0,62.573a4.415,4.415,0,0,0,8.829,0V254.167a1.436,1.436,0,0,1,2.845,0V285.2a4.414,4.414,0,0,0,8.827,0s0-60.051,0-62.573a7.64,7.64,0,0,1,.957-3.966s8.278-14.031,12.838-21.762l7.428,12.589a8.632,8.632,0,0,1,1.079,4.478c0,2.846,0,70.664,0,70.664a4.985,4.985,0,0,0,9.971,0V249.586a1.557,1.557,0,0,1,3.1,0v35.046a4.985,4.985,0,0,0,9.971,0s0-67.818,0-70.664a8.632,8.632,0,0,1,1.079-4.478s3.517-5.964,7.427-12.589l12.84,21.762a7.656,7.656,0,0,1,.955,3.966c0,2.522,0,62.573,0,62.573a4.415,4.415,0,0,0,8.829,0V254.167a1.436,1.436,0,0,1,2.845,0V285.2a4.414,4.414,0,0,0,8.827,0s0-60.051,0-62.573a7.643,7.643,0,0,1,.957-3.966s2.354-3.966,5.244-8.846c4.083,6.919,10.46,17.732,10.46,17.732a6.683,6.683,0,0,1,.837,3.468c0,2.2,0,54.735,0,54.735a3.861,3.861,0,0,0,7.723,0V258.606a1.256,1.256,0,0,1,2.489,0v27.146a3.861,3.861,0,0,0,7.723,0s0-52.531,0-54.735a6.683,6.683,0,0,1,.837-3.468L268.2,202.924c.01-.017.021-.037.032-.056l0-.007a3.617,3.617,0,0,0,.442-1.741Zm0,0" fill="#34c25e"/>
        <path id="Path_2" data-name="Path 2" d="M207.238,205.8v0h.03v0a10.378,10.378,0,0,0,0-20.753v0h-.03v0a10.378,10.378,0,0,0,0,20.753Zm0,0" fill="#34c25e"/>
        <path id="Path_3" data-name="Path 3" d="M243.96,216.3v0l.013,0,.013,0v0a9.079,9.079,0,0,0,0-18.156v0l-.013,0-.013,0v0a9.079,9.079,0,0,0,0,18.156Zm0,0" fill="#34c25e"/>
        <path id="Path_4" data-name="Path 4" d="M163.176,194.965a11.719,11.719,0,1,0-11.52-11.718,11.745,11.745,0,0,0,11.52,11.718Zm0,0" fill="#34c25e"/>
        <path id="Path_5" data-name="Path 5" d="M119.087,205.8v0h.03v0a10.378,10.378,0,0,0,0-20.753v0h-.03v0a10.378,10.378,0,0,0,0,20.753Zm0,0" fill="#34c25e"/>
        <path id="Path_6" data-name="Path 6" d="M82.369,216.3v0l.013,0,.013,0v0a9.079,9.079,0,0,0,0-18.156v0l-.013,0-.013,0v0a9.079,9.079,0,0,0,0,18.156Zm0,0" fill="#34c25e"/>
      </g>
    </g>
    <path id="Color_Overlay" data-name="Color Overlay" d="M968.54,1741.152v-27.146a1.257,1.257,0,0,0-2.489,0v27.146a3.861,3.861,0,0,1-7.723,0s0-52.53,0-54.735a6.679,6.679,0,0,0-.837-3.468s-6.376-10.813-10.46-17.733c-2.891,4.881-5.244,8.846-5.244,8.846a7.643,7.643,0,0,0-.957,3.965c0,2.522,0,62.573,0,62.573a4.414,4.414,0,0,1-8.827,0v-31.034a1.436,1.436,0,0,0-2.845,0V1740.6a4.415,4.415,0,0,1-8.83,0s0-60.052,0-62.573a7.654,7.654,0,0,0-.955-3.965l-12.84-21.762c-3.91,6.626-7.426,12.59-7.426,12.59a8.627,8.627,0,0,0-1.08,4.478c0,2.846,0,70.664,0,70.664a4.986,4.986,0,0,1-9.971,0v-35.046a1.557,1.557,0,0,0-3.1,0v35.046a4.986,4.986,0,0,1-9.971,0s0-67.819,0-70.664a8.627,8.627,0,0,0-1.08-4.478s-3.518-5.964-7.428-12.59l-12.838,21.762a7.637,7.637,0,0,0-.958,3.965c0,2.522,0,62.573,0,62.573a4.414,4.414,0,0,1-8.827,0v-31.034a1.436,1.436,0,0,0-2.845,0V1740.6a4.415,4.415,0,0,1-8.83,0s0-60.052,0-62.573a7.643,7.643,0,0,0-.957-3.965s-2.354-3.965-5.244-8.846c-4.081,6.919-10.461,17.733-10.461,17.733a6.7,6.7,0,0,0-.834,3.468c0,2.205,0,54.735,0,54.735a3.862,3.862,0,0,1-7.725,0v-27.146a1.257,1.257,0,0,0-2.489,0v27.146a3.861,3.861,0,0,1-7.722,0v-54.735a6.679,6.679,0,0,0-.837-3.468l-14.423-24.625c-.011-.017-.022-.037-.032-.056l0-.006h0a3.638,3.638,0,0,1-.44-1.741,3.709,3.709,0,0,1,6.968-1.752l11.541,20.121c.352.611.44.849,1.183.218a8.475,8.475,0,0,1,4.944-1.3l.069,0,.066,0a8.466,8.466,0,0,1,4.944,1.3c.742.631.829.393,1.183-.218.257-.446,6.42-11.158,9.759-16.963-2.7-4.577-5.965-10.544-6.446-11.423l-.048-.086-.014-.03a4.226,4.226,0,0,1,7.4-4.081h0c.051.087.1.177.146.269.661,1.205,12.481,21.98,12.649,22.272.4.7.5.968,1.352.248a9.686,9.686,0,0,1,5.652-1.488l.077,0,.077,0a9.683,9.683,0,0,1,5.651,1.488c.848.722.949.453,1.352-.248.318-.554,8.551-14.864,12.033-20.913-2.673-4.532-6.152-10.833-6.152-10.833l0,0a4.731,4.731,0,0,1,4.124-7.1,4.757,4.757,0,0,1,4.189,2.491c.318.553,14.413,25.208,14.861,25.992s.571,1.094,1.528.283c.976-.714,2.9-1.622,6.381-1.681a.161.161,0,0,1,.03,0,.172.172,0,0,1,.031,0c3.484.059,5.4.968,6.381,1.681.958.812,1.071.509,1.526-.283s14.546-25.437,14.863-25.992a4.762,4.762,0,0,1,8.947,2.247,4.7,4.7,0,0,1-.634,2.361l0,0s-3.478,6.3-6.151,10.833c3.483,6.049,11.715,20.36,12.033,20.913.4.7.5.968,1.352.248a9.681,9.681,0,0,1,5.652-1.488l.077,0,.077,0a9.687,9.687,0,0,1,5.652,1.488c.848.722.949.453,1.352-.248.167-.292,11.991-21.067,12.649-22.272.045-.092.094-.182.146-.269h0a4.226,4.226,0,0,1,7.4,4.081l-.015.03c-.015.028-.032.056-.047.086-.481.881-3.745,6.846-6.447,11.423,3.339,5.805,9.5,16.517,9.76,16.963.354.611.44.849,1.182.218a8.468,8.468,0,0,1,4.944-1.3l.067,0,.068,0a8.468,8.468,0,0,1,4.944,1.3c.742.631.831.393,1.183-.218l11.542-20.121A3.709,3.709,0,0,1,992,1656.52a3.618,3.618,0,0,1-.442,1.741l0,.006c-.01.019-.021.039-.031.056L977.1,1682.949a6.685,6.685,0,0,0-.836,3.468c0,2.205,0,54.735,0,54.735a3.861,3.861,0,0,1-7.722,0ZM967.3,1671.7l-.013,0v0a9.079,9.079,0,0,1,0-18.156v0l.013,0,.013,0v0a9.079,9.079,0,0,1,0,18.156v0Zm-161.591,0-.013,0v0a9.079,9.079,0,0,1,0-18.156v0l.013,0,.013,0v0a9.079,9.079,0,0,1,0,18.156v0Zm124.871-10.5h-.015v0a10.378,10.378,0,0,1,0-20.753v0h.03v0a10.377,10.377,0,0,1,0,20.753v0Zm-88.152,0h-.014v0a10.377,10.377,0,0,1,0-20.753v0h.03v0a10.378,10.378,0,0,1,0,20.753v0Zm32.555-22.557a11.523,11.523,0,1,1,11.52,11.717A11.745,11.745,0,0,1,874.98,1638.647Z" fill="#34c25e"/>
  </g>
</svg>
