<svg xmlns="http://www.w3.org/2000/svg" width="325.046" height="183.32" viewBox="0 0 325.046 183.32">
  <g id="Vector_Smart_Object" data-name="Vector Smart Object" transform="translate(-799 -1216)">
    <g id="Vector_Smart_Object-2" data-name="Vector Smart Object" transform="translate(799 1216)">
      <g id="Group_35" data-name="Group 35" transform="translate(0 0)">
        <path id="Path_55" data-name="Path 55" d="M382.722,217.617a5.713,5.713,0,0,0-10.733-2.7h0l-17.779,31c-.542.941-.678,1.307-1.822.335-1.164-.852-3.458-1.936-7.616-2.007l-.106,0-.1,0c-4.158.072-6.452,1.155-7.616,2.007-1.143.972-1.276.606-1.821-.335-.4-.688-9.89-17.189-15.034-26.132,4.162-7.05,9.19-16.24,9.93-17.6.023-.045.049-.088.073-.131l.023-.046a6.511,6.511,0,0,0-11.4-6.286h0c-.079.135-.155.273-.224.415-1.015,1.856-19.228,33.86-19.486,34.31-.621,1.08-.777,1.495-2.083.383-1.332-.972-3.953-2.212-8.707-2.291-.04,0-.079,0-.118,0s-.079,0-.119,0c-4.756.079-7.375,1.32-8.707,2.291-1.306,1.109-1.461.7-2.082-.383-.489-.852-13.172-22.9-18.537-32.217,4.118-6.981,9.477-16.688,9.477-16.688l0,0a7.29,7.29,0,0,0-6.353-10.937,7.329,7.329,0,0,0-6.452,3.838c-.489.855-22.2,38.834-22.9,40.041s-.876,1.685-2.351.435c-1.5-1.1-4.462-2.5-9.83-2.59a.219.219,0,0,0-.047,0,.208.208,0,0,0-.046,0c-5.368.092-8.327,1.491-9.83,2.59-1.475,1.25-1.65.784-2.354-.435s-22.4-39.189-22.893-40.041a7.336,7.336,0,0,0-13.784,3.462,7.251,7.251,0,0,0,.978,3.637l0,0s5.358,9.707,9.477,16.688c-5.365,9.319-18.048,31.365-18.537,32.217-.621,1.08-.777,1.495-2.083.383-1.332-.972-3.953-2.212-8.707-2.291-.04,0-.08,0-.119,0s-.079,0-.118,0c-4.754.079-7.375,1.32-8.707,2.291-1.306,1.109-1.461.7-2.083-.383-.258-.451-18.468-32.454-19.486-34.31-.069-.142-.146-.28-.224-.415h0a6.51,6.51,0,0,0-11.4,6.286l.023.046c.024.043.047.086.073.131.74,1.353,5.769,10.546,9.93,17.6-5.143,8.943-14.637,25.444-15.034,26.132-.545.941-.678,1.307-1.821.335-1.164-.852-3.458-1.936-7.616-2.007l-.1,0-.106,0c-4.158.072-6.449,1.155-7.616,2.007-1.144.972-1.279.606-1.822-.335l-17.779-31h0a5.713,5.713,0,0,0-10.733,2.7,5.607,5.607,0,0,0,.678,2.682h0l.007.01c.016.029.033.06.049.086l22.219,37.935a10.291,10.291,0,0,1,1.29,5.342v84.32a5.948,5.948,0,0,0,11.9,0V306.173a1.935,1.935,0,0,1,3.834,0v41.819a5.95,5.95,0,0,0,11.9,0s0-80.923,0-84.32a10.316,10.316,0,0,1,1.285-5.342s9.828-16.658,16.114-27.317c4.453,7.518,8.079,13.627,8.079,13.627a11.774,11.774,0,0,1,1.474,6.109c0,3.885,0,96.393,0,96.393a6.8,6.8,0,0,0,13.6,0V299.335a2.213,2.213,0,0,1,4.383,0v47.807a6.8,6.8,0,0,0,13.6,0s0-92.509,0-96.393a11.769,11.769,0,0,1,1.475-6.109s12.752-21.615,19.776-33.524l11.443,19.394a13.3,13.3,0,0,1,1.663,6.9c0,4.384,0,108.858,0,108.858a7.68,7.68,0,0,0,15.36,0V292.278a2.4,2.4,0,0,1,4.77,0v53.988a7.68,7.68,0,0,0,15.36,0s0-104.474,0-108.858a13.3,13.3,0,0,1,1.663-6.9s5.417-9.187,11.441-19.394l19.78,33.524a11.794,11.794,0,0,1,1.471,6.109c0,3.885,0,96.393,0,96.393a6.8,6.8,0,0,0,13.6,0V299.335a2.213,2.213,0,0,1,4.383,0v47.807a6.8,6.8,0,0,0,13.6,0s0-92.509,0-96.393a11.774,11.774,0,0,1,1.474-6.109s3.626-6.109,8.079-13.627c6.291,10.658,16.114,27.317,16.114,27.317a10.3,10.3,0,0,1,1.289,5.342c0,3.4,0,84.32,0,84.32a5.948,5.948,0,0,0,11.9,0V306.173a1.935,1.935,0,0,1,3.834,0v41.819a5.948,5.948,0,0,0,11.9,0s0-80.923,0-84.32a10.3,10.3,0,0,1,1.289-5.342l22.216-37.935c.016-.026.033-.056.049-.086l.007-.01a5.572,5.572,0,0,0,.681-2.682Zm0,0" transform="translate(-57.677 -170.6)" fill="#34c25e"/>
        <path id="Path_56" data-name="Path 56" d="M212.773,217.02v0h.047v0a15.987,15.987,0,0,0,0-31.97v0h-.047v0a15.987,15.987,0,0,0,0,31.97Zm0,0" transform="translate(17.628 -162.792)" fill="#34c25e"/>
        <path id="Path_57" data-name="Path 57" d="M248.8,226.113v0c.007,0,.014,0,.019,0s.017,0,.02,0v0a13.986,13.986,0,0,0,0-27.969v0l-.02,0-.019,0v0a13.986,13.986,0,0,0,0,27.969Zm0,0" transform="translate(38.169 -155.714)" fill="#34c25e"/>
        <path id="Path_58" data-name="Path 58" d="M169.4,207.631a18.054,18.054,0,1,0-17.746-18.051A18.093,18.093,0,0,0,169.4,207.631Zm0,0" transform="translate(-6.88 -170.098)" fill="#34c25e"/>
        <path id="Path_59" data-name="Path 59" d="M124.621,217.02v0h.047v0a15.987,15.987,0,0,0,0-31.97v0h-.047v0a15.987,15.987,0,0,0,0,31.97Zm0,0" transform="translate(-30.019 -162.792)" fill="#34c25e"/>
        <path id="Path_60" data-name="Path 60" d="M87.211,226.113v0s.014,0,.02,0,.016,0,.019,0v0a13.986,13.986,0,0,0,0-27.969v0l-.019,0-.02,0v0a13.986,13.986,0,0,0,0,27.969Zm0,0" transform="translate(-49.172 -155.714)" fill="#34c25e"/>
      </g>
    </g>
    <path id="Color_Overlay" data-name="Color Overlay" d="M288.865,177.082V135.337a1.936,1.936,0,0,0-3.835,0v41.745a5.948,5.948,0,0,1-11.9,0s0-80.782,0-84.173a10.26,10.26,0,0,0-1.289-5.333s-9.822-16.629-16.111-27.271c-4.453,7.507-8.078,13.605-8.078,13.605a11.739,11.739,0,0,0-1.473,6.1c0,3.878,0,96.227,0,96.227a6.8,6.8,0,0,1-13.6,0V128.511a2.213,2.213,0,0,0-4.382,0v47.724a6.8,6.8,0,0,1-13.6,0s0-92.348,0-96.227a11.755,11.755,0,0,0-1.471-6.1s-12.751-21.577-19.778-33.466c-6.022,10.189-11.438,19.361-11.438,19.361a13.249,13.249,0,0,0-1.664,6.886c0,4.376,0,108.669,0,108.669a7.679,7.679,0,0,1-15.358,0V121.466a2.4,2.4,0,0,0-4.769,0V175.36a7.679,7.679,0,0,1-15.358,0s0-104.293,0-108.669a13.249,13.249,0,0,0-1.664-6.886s-5.419-9.172-11.441-19.361L111.875,73.91a11.73,11.73,0,0,0-1.475,6.1c0,3.878,0,96.227,0,96.227a6.8,6.8,0,0,1-13.6,0V128.511a2.213,2.213,0,0,0-4.382,0v47.724a6.8,6.8,0,0,1-13.6,0s0-92.348,0-96.227a11.738,11.738,0,0,0-1.474-6.1s-3.626-6.1-8.078-13.605C62.978,70.947,53.151,87.576,53.151,87.576a10.284,10.284,0,0,0-1.285,5.333c0,3.391,0,84.173,0,84.173a5.949,5.949,0,0,1-11.9,0V135.337a1.936,1.936,0,0,0-3.834,0v41.745a5.947,5.947,0,0,1-11.894,0V92.909a10.26,10.26,0,0,0-1.289-5.333L.731,49.708c-.017-.026-.033-.057-.05-.087l-.007-.008h0A5.588,5.588,0,0,1,0,46.933a5.715,5.715,0,0,1,10.732-2.693s17.235,30,17.776,30.943.678,1.305,1.822.335c1.167-.851,3.457-1.932,7.615-2h.208c4.159.072,6.452,1.153,7.615,2,1.144.97,1.277.6,1.821-.335L62.62,49.1c-4.162-7.038-9.188-16.216-9.928-17.566-.026-.046-.05-.09-.074-.132l-.022-.046a6.508,6.508,0,0,1,11.4-6.275h0c.079.133.155.273.225.414,1.018,1.853,19.225,33.8,19.483,34.249.621,1.08.778,1.491,2.082.383,1.332-.97,3.952-2.209,8.706-2.288.04,0,.079,0,.119,0s.079,0,.119,0c4.752.079,7.374,1.318,8.7,2.288,1.306,1.11,1.461.7,2.082-.383.489-.85,13.171-22.857,18.534-32.159-4.117-6.97-9.475-16.66-9.475-16.66l0,0a7.227,7.227,0,0,1-.979-3.63A7.338,7.338,0,0,1,127.382,3.83c.489.851,22.2,38.767,22.89,39.972s.879,1.683,2.354.434c1.5-1.1,4.461-2.494,9.829-2.587a.169.169,0,0,1,.046,0,.18.18,0,0,1,.047,0c5.366.093,8.324,1.489,9.829,2.587,1.475,1.249,1.65.782,2.35-.434S197.13,4.683,197.619,3.83A7.337,7.337,0,0,1,211.4,7.287a7.227,7.227,0,0,1-.977,3.63l0,0s-5.357,9.69-9.475,16.66c5.365,9.3,18.045,31.31,18.534,32.159.621,1.08.776,1.491,2.082.383,1.332-.97,3.949-2.209,8.706-2.288.04,0,.079,0,.119,0s.079,0,.118,0c4.753.079,7.373,1.318,8.706,2.288,1.306,1.11,1.461.7,2.082-.383.258-.448,18.469-32.4,19.484-34.249.069-.141.146-.281.225-.414h0a6.522,6.522,0,0,1,12.126,3.3,6.443,6.443,0,0,1-.729,2.977l-.024.046c-.024.041-.05.086-.072.132-.74,1.355-5.768,10.528-9.93,17.566,5.143,8.926,14.635,25.4,15.033,26.086.545.94.678,1.305,1.82.335,1.163-.851,3.457-1.932,7.615-2h.208c4.157.072,6.452,1.153,7.615,2,1.144.97,1.28.6,1.822-.335l17.777-30.943A5.714,5.714,0,0,1,325,46.933a5.559,5.559,0,0,1-.681,2.68l-.007.008a.978.978,0,0,1-.049.087L302.051,87.576a10.268,10.268,0,0,0-1.288,5.333c0,3.391,0,84.173,0,84.173a5.947,5.947,0,0,1-11.894,0Zm-1.915-106.8c-.005,0-.013,0-.019,0v0a13.961,13.961,0,0,1,0-27.92v0c.007,0,.014,0,.019,0l.021,0v0a13.961,13.961,0,0,1,0,27.92v0Zm-248.9,0-.021,0v0a13.961,13.961,0,0,1,0-27.92v0l.021,0,.019,0v0a13.961,13.961,0,0,1,0,27.92v0ZM230.392,54.137h-.024v-.006a15.958,15.958,0,0,1,0-31.913v0h.046v0a15.958,15.958,0,0,1,0,31.913v.006Zm-135.78,0H94.59v-.006a15.958,15.958,0,0,1,0-31.913v0h.046v0a15.958,15.958,0,0,1,0,31.913v.006Zm50.144-34.688A17.748,17.748,0,1,1,162.5,37.467,18.075,18.075,0,0,1,144.756,19.448Z" transform="translate(799 1216.32)" fill="#34c25e"/>
  </g>
</svg>
