<svg width="88" height="88" viewBox="0 0 88 88" fill="none" xmlns="http://www.w3.org/2000/svg">
<path d="M77.8611 0.459229H10.1387C7.10699 0.459229 4.62646 2.95293 4.62646 6.00078V74.0827C4.62646 77.1306 7.10699 79.6243 10.1387 79.6243H12.5012H24.3132H63.6866H75.4987H77.8611C80.8928 79.6243 83.3734 77.1306 83.3734 74.0827V6.00078C83.3734 2.95293 80.8928 0.459229 77.8611 0.459229ZM75.4987 66.1662C75.4987 69.2141 73.0181 71.7078 69.9864 71.7078H18.0134C14.9817 71.7078 12.5012 69.2141 12.5012 66.1662V63.7913H12.1074C11.4381 63.7913 10.9262 63.2767 10.9262 62.6038V58.6455C10.9262 57.9726 11.4381 57.4581 12.1074 57.4581H12.5012V22.6254H12.1074C11.4381 22.6254 10.9262 22.1109 10.9262 21.438V17.4797C10.9262 16.8068 11.4381 16.2922 12.1074 16.2922H12.5012V13.9173C12.5012 10.8694 14.9817 8.37573 18.0134 8.37573H69.9864C73.0181 8.37573 75.4987 10.8694 75.4987 13.9173V66.1662Z" fill="#CCC6F3"/>
<path d="M69.9862 8.37573H18.0133C14.9815 8.37573 12.501 10.8694 12.501 13.9173V16.2922H12.8947C13.5641 16.2922 14.0759 16.8068 14.0759 17.4797V21.438C14.0759 22.1109 13.5641 22.6254 12.8947 22.6254H12.501V57.4581H12.8947C13.5641 57.4581 14.0759 57.9726 14.0759 58.6455V62.6038C14.0759 63.2767 13.5641 63.7913 12.8947 63.7913H12.501V66.1662C12.501 69.2141 14.9815 71.7078 18.0133 71.7078H69.9862C73.018 71.7078 75.4985 69.2141 75.4985 66.1662V13.9173C75.4985 10.8694 73.018 8.37573 69.9862 8.37573ZM32.1877 47.5624C28.0535 47.5624 24.7067 44.1979 24.7067 40.0418C24.7067 35.8856 28.0535 32.5211 32.1877 32.5211C36.3219 32.5211 39.6686 35.8856 39.6686 40.0418C39.6686 44.1979 36.3219 47.5624 32.1877 47.5624ZM67.6238 62.6038C67.6238 63.2767 67.1119 63.7913 66.4426 63.7913H65.6551C64.9858 63.7913 64.4739 63.2767 64.4739 62.6038V17.4797C64.4739 16.8068 64.9858 16.2922 65.6551 16.2922H66.4426C67.1119 16.2922 67.6238 16.8068 67.6238 17.4797V62.6038Z" fill="#ABA0EB"/>
<path d="M32.188 32.5211C28.0538 32.5211 24.707 35.8856 24.707 40.0417C24.707 44.1979 28.0538 47.5624 32.188 47.5624C36.3222 47.5624 39.6689 44.1979 39.6689 40.0417C39.6689 35.8856 36.3222 32.5211 32.188 32.5211ZM32.188 45.1875C29.3531 45.1875 27.0694 42.8917 27.0694 40.0417C27.0694 37.1918 29.3531 34.896 32.188 34.896C35.0229 34.896 37.3065 37.1918 37.3065 40.0417C37.3065 42.8917 35.0229 45.1875 32.188 45.1875Z" fill="#EEECFB"/>
<path d="M32.1878 42.8125C33.71 42.8125 34.9439 41.572 34.9439 40.0417C34.9439 38.5115 33.71 37.271 32.1878 37.271C30.6656 37.271 29.4316 38.5115 29.4316 40.0417C29.4316 41.572 30.6656 42.8125 32.1878 42.8125Z" fill="#EEECFB"/>
<path d="M32.1879 34.896C29.353 34.896 27.0693 37.1918 27.0693 40.0418C27.0693 42.8917 29.353 45.1875 32.1879 45.1875C35.0228 45.1875 37.3064 42.8917 37.3064 40.0418C37.3064 37.1918 35.0228 34.896 32.1879 34.896ZM32.1879 42.8125C30.6523 42.8125 29.4317 41.5855 29.4317 40.0418C29.4317 38.4981 30.6523 37.271 32.1879 37.271C33.7235 37.271 34.944 38.4981 34.944 40.0418C34.944 41.5855 33.7235 42.8125 32.1879 42.8125Z" fill="#8A7AE3"/>
<path d="M14.0761 21.4379V17.4797C14.0761 16.8068 13.5643 16.2922 12.8949 16.2922H12.5012H12.1075C11.4381 16.2922 10.9263 16.8068 10.9263 17.4797V21.4379C10.9263 22.1109 11.4381 22.6254 12.1075 22.6254H12.5012H12.8949C13.5643 22.6254 14.0761 22.1109 14.0761 21.4379Z" fill="#EEECFB"/>
<path d="M66.4428 16.2922H65.6553C64.986 16.2922 64.4741 16.8068 64.4741 17.4797V62.6038C64.4741 63.2767 64.986 63.7913 65.6553 63.7913H66.4428C67.1122 63.7913 67.624 63.2767 67.624 62.6038V17.4797C67.624 16.8068 67.1122 16.2922 66.4428 16.2922Z" fill="#EEECFB"/>
<path d="M14.0761 62.6038V58.6455C14.0761 57.9726 13.5643 57.4581 12.8949 57.4581H12.5012H12.1075C11.4381 57.4581 10.9263 57.9726 10.9263 58.6455V62.6038C10.9263 63.2767 11.4381 63.7913 12.1075 63.7913H12.5012H12.8949C13.5643 63.7913 14.0761 63.2767 14.0761 62.6038Z" fill="#EEECFB"/>
<path d="M12.501 85.9575C12.501 86.8283 13.2097 87.5408 14.0759 87.5408H19.9032C20.2182 87.5408 20.4938 87.3824 20.6119 87.1054L24.313 79.6243H12.501V85.9575Z" fill="#ABA0EB"/>
<path d="M67.3876 87.1054C67.5057 87.3824 67.7814 87.5408 68.0964 87.5408H73.9236C74.7898 87.5408 75.4986 86.8283 75.4986 85.9575V79.6243H63.6865L67.3876 87.1054Z" fill="#ABA0EB"/>
<path d="M74.5678 56.5477C74.5678 56.5477 71.9031 57.8711 72.5693 60.5178C73.2355 63.1646 75.9002 61.8412 75.9002 59.8561C75.9002 57.8711 74.5678 56.5477 74.5678 56.5477Z" fill="white"/>
<path d="M62.0168 28.7569C62.0168 28.7569 60.9043 29.3127 61.1774 30.4177C61.4506 31.5227 62.5697 30.9735 62.5697 30.1398C62.5764 29.3061 62.0168 28.7569 62.0168 28.7569Z" fill="white"/>
<path d="M83.341 9.81191C83.341 9.80529 78.5645 10.8838 75.8998 11.5455C73.8347 12.0616 73.3683 13.7622 73.2684 14.5033C73.2418 14.715 73.2817 14.9201 73.395 15.0988C74.1211 16.2832 77.0789 21.5238 75.9065 26.7643C74.8739 31.3763 75.4401 45.5099 75.7466 51.6569C75.7532 51.7694 75.7333 51.8819 75.6999 51.9944C75.3336 53.073 74.9538 53.6155 74.5741 53.2384C73.2418 51.915 74.9605 44.7291 71.9094 35.3729C69.5179 28.0414 69.9309 27.7635 67.9124 22.1391C66.9264 19.3865 67.073 14.4967 67.1996 12.8027C67.2062 12.7432 67.2129 12.6836 67.2329 12.6307L67.6326 11.2213C67.7925 10.6523 67.3794 10.0898 66.7799 10.07C65.9405 10.0435 64.6948 10.1758 63.2492 10.8971C60.7977 12.1013 62.2832 23.6544 62.5497 25.5402C62.5763 25.7453 62.5364 25.9438 62.4298 26.1159C62.0767 26.6915 61.244 27.6708 61.244 26.1026C61.244 24.1176 60.5778 18.1624 59.2455 15.5156C57.9131 12.8689 59.2455 12.2072 59.2455 10.2222C59.2455 8.64734 58.4061 6.23219 58.0597 5.30583C57.9664 5.061 57.9797 4.78971 58.1063 4.56474C59.5452 1.99078 62.6696 -0.966958 64.5749 0.296863C66.5734 1.62024 69.9042 0.958549 73.2351 0.296863C75.1204 -0.080298 77.432 -0.0273631 79.4438 0.0851235C82.6948 0.270396 85.2928 3.05609 84.9731 6.27851C84.8598 7.45631 84.3669 8.61426 83.2277 9.56047" fill="white"/>
<path d="M75.9 11.553C73.2354 12.2147 73.2354 14.8615 73.2354 14.8615C73.2354 14.8615 77.2324 20.8166 75.9 26.7718C74.8608 31.4235 75.447 45.7755 75.7535 51.8299C76.6462 49.0706 77.4322 43.2478 77.8986 40.0055C78.5647 35.3737 77.8986 28.7569 80.5633 20.8166C83.228 12.8764 83.228 11.553 83.228 10.2297C83.228 9.99808 83.2679 9.87236 83.3412 9.81942V9.81281C83.3412 9.81281 78.5647 10.8914 75.9 11.553Z" fill="white"/>
<path d="M75.9 11.553C73.9814 12.0295 73.4485 13.5315 73.2953 14.3387C73.2353 14.6431 73.2953 14.9475 73.4551 15.2122C74.2745 16.5752 77.0392 21.6702 75.9 26.7718C75.3404 29.2796 75.2472 34.6128 75.3338 39.946C75.3604 41.5142 77.6587 41.6598 77.8852 40.1048C77.8919 40.0717 77.8919 40.0386 77.8985 40.0055C78.5647 35.3737 77.8985 28.7569 80.5632 20.8166C83.2279 12.8764 83.2279 11.553 83.2279 10.2297C83.2279 9.99808 83.2679 9.87236 83.3412 9.81942V9.81281C83.3412 9.81281 78.5647 10.8914 75.9 11.553Z" fill="#EEECFB"/>
<path d="M63.2427 10.8914C60.578 12.2147 62.5832 25.8058 62.5832 25.8058C62.6298 24.178 63.0761 16.3503 67.2397 12.2147C67.2397 12.2147 67.2197 12.4 67.1997 12.7176L67.9059 10.2297C67.9059 10.2297 65.9074 9.56799 63.2427 10.8914Z" fill="#EEECFB"/>
<path d="M16.5746 59.2557C16.5746 59.2557 13.7994 60.6499 14.4932 63.4384C15.187 66.2269 17.9622 64.8327 17.9622 62.7413C17.9622 60.6499 16.5746 59.2557 16.5746 59.2557Z" fill="white"/>
<path d="M3.5036 30.6735C3.5036 30.6735 2.34497 31.2591 2.62942 32.4233C2.91388 33.5875 4.07945 33.0089 4.07945 32.1305C4.08639 31.2591 3.5036 30.6735 3.5036 30.6735Z" fill="white"/>
<path d="M29.8679 40.4333C29.8679 40.4333 28.7092 41.0189 28.9937 42.1831C29.2851 43.3473 30.4437 42.7687 30.4437 41.8903C30.4506 41.0189 29.8679 40.4333 29.8679 40.4333Z" fill="white"/>
<path d="M36.6949 8.36551C37.3887 10.4569 36.6949 12.5483 36.6949 12.5483C36.6949 12.5483 31.8384 21.6109 31.1446 27.1879C30.4508 32.7649 30.4508 37.6448 30.4508 37.6448C30.4508 37.6448 29.757 39.7362 29.757 36.2505C29.757 32.7649 28.3694 28.5822 27.6756 26.4908C26.9818 24.3994 25.5942 20.2166 26.288 17.4281C26.9818 14.6396 26.9818 13.2454 26.9818 12.5483C26.9818 11.9766 26.0383 10.4569 25.7122 10.7218V10.7148C25.7122 10.7148 20.7377 11.8511 17.9625 12.5483C17.9348 12.5552 17.907 12.5622 17.8793 12.5692C15.8742 13.1129 14.9445 15.4413 15.9089 17.2887C17.0328 19.4289 18.9685 24.009 17.9625 28.5822C16.8802 33.483 17.4907 48.6036 17.8099 54.9823C17.4144 56.2302 16.9981 56.8855 16.5749 56.4672C15.1873 55.0729 17.2687 47.4046 13.7998 37.6448C10.7679 29.112 11.0246 27.1879 9.637 23.7023C8.47836 20.7953 8.76975 15.4692 8.90157 13.7752L9.637 11.154C9.637 11.154 7.55562 10.4569 4.78044 11.8511C2.00527 13.2454 4.09359 27.5644 4.09359 27.5644C4.08665 28.5822 4.08665 29.9764 3.39286 29.9764C3.39286 29.9764 2.69906 29.9764 2.69906 27.885C2.69906 25.7937 2.00527 19.5195 0.617682 16.731C-0.769905 13.9425 0.617682 13.2454 0.617682 11.154C0.617682 10.436 0.451171 9.55062 0.236095 8.70013C-0.638084 5.25633 1.68612 1.6731 5.21059 1.38728C5.53668 1.3594 5.85582 1.36637 6.16803 1.39425C13.106 2.09138 11.7184 1.39425 15.1873 0.697127C18.6563 1.28895e-06 23.5129 0.697127 25.5942 0.697127C26.6974 0.697127 27.9878 0.501932 28.862 0.320679C29.8403 0.111541 30.8463 0.0488001 31.8453 0.16034C32.0465 0.181254 32.2616 0.209139 32.4767 0.237024C33.7463 0.411305 34.7939 1.34545 35.127 2.59331L36.6949 8.36551Z" fill="white"/>
<path d="M17.9627 12.5483C15.1875 13.2454 15.1875 16.0339 15.1875 16.0339C15.1875 16.0339 19.3503 22.308 17.9627 28.5822C16.8804 33.483 17.4909 48.6036 17.81 54.9823C18.7328 52.0753 19.5584 45.9406 20.0441 42.5247C20.7378 37.6448 20.0441 30.6735 22.8192 22.308C25.5944 13.9425 25.5944 12.5483 25.5944 11.154C25.5944 10.91 25.636 10.7776 25.7123 10.7218V10.7148C25.7123 10.7148 20.7378 11.8511 17.9627 12.5483Z" fill="white"/>
<path d="M17.9625 12.5483C17.9348 12.5552 17.907 12.5622 17.8793 12.5692C15.8742 13.1129 14.9445 15.4413 15.9089 17.2887C17.0329 19.4289 18.9685 24.009 17.9625 28.5822C16.8802 33.483 17.4908 48.6036 17.8099 54.9823C18.7326 52.0753 19.5583 45.9406 20.0439 42.5247C20.7377 37.6448 20.0439 30.6735 22.8191 22.308C25.5943 13.9425 25.5943 12.5483 25.5943 11.154C25.5943 10.91 25.6359 10.7776 25.7122 10.7218V10.7148C25.7122 10.7148 20.7377 11.8511 17.9625 12.5483Z" fill="#EEECFB"/>
<path opacity="0.5" d="M29.8403 0.00697126C29.8264 0 29.7987 0 29.757 0C29.6044 0 29.6599 0 29.8403 0.00697126Z" fill="white"/>
<path d="M4.7805 11.8511C2.00532 13.2454 4.09364 27.5644 4.09364 27.5644C4.14221 25.8425 4.60705 17.6024 8.94326 13.2454C8.94326 13.2454 8.92244 13.4406 8.90163 13.7752L9.63705 11.154C9.63705 11.154 7.55567 10.4569 4.7805 11.8511Z" fill="#EEECFB"/>
</svg>
