<svg width="135" height="150" viewBox="0 0 135 150" fill="none" xmlns="http://www.w3.org/2000/svg">
<ellipse cx="67.5021" cy="77.5" rx="67.2199" ry="67.5" fill="#EEECFB"/>
<path d="M101.327 150H40.2885C35.1586 150 31 145.821 31 140.667V9.33333C31 4.17867 35.1586 0 40.2885 0H101.327C106.457 0 110.615 4.17867 110.615 9.33333V140.667C110.615 145.821 106.457 150 101.327 150Z" fill="#6459D3"/>
<path d="M100 3.33325H89.7164V6.66659C89.7164 7.77092 88.8254 8.66659 87.726 8.66659H53.8895C52.7901 8.66659 51.8991 7.77092 51.8991 6.66659V3.33325H41.6155C37.5849 3.33325 34.3174 6.61659 34.3174 10.6666V139.333C34.3174 143.383 37.5849 146.667 41.6155 146.667H100C104.031 146.667 107.298 143.383 107.298 139.333V10.6666C107.298 6.61659 104.031 3.33325 100 3.33325Z" fill="#EEECFB"/>
<path d="M70.8077 101.667C85.4645 101.667 97.3462 89.7275 97.3462 74.9999C97.3462 60.2723 85.4645 48.3333 70.8077 48.3333C56.151 48.3333 44.2693 60.2723 44.2693 74.9999C44.2693 89.7275 56.151 101.667 70.8077 101.667Z" fill="#5848D5"/>
<path d="M70.8078 91.9689C61.4798 91.9689 53.9203 84.3729 53.9203 74.9999C53.9203 65.6269 61.4798 58.0309 70.8078 58.0309C75.4696 58.0309 79.6908 59.9306 82.7491 63.0013L89.5731 56.1443C84.77 51.3179 78.134 48.3333 70.8078 48.3333C56.1506 48.3333 44.2693 60.2719 44.2693 74.9999C44.2693 89.7279 56.1506 101.667 70.8078 101.667C78.1363 101.667 84.77 98.6819 89.5751 93.8579L82.7514 87.0012C79.6908 90.0696 75.4696 91.9689 70.8078 91.9689Z" fill="#A9A2E6"/>
<path d="M87.6951 74.9998H79.2502C79.2502 70.3155 75.4695 66.5142 70.8053 66.5142C66.1412 66.5142 62.3628 70.3132 62.3628 74.9998C62.3628 77.2818 63.2608 79.3512 64.7214 80.8788L64.7151 80.8852L75.1703 91.3908L75.1722 91.3928C82.3831 89.4592 87.6951 82.8538 87.6951 74.9998Z" fill="#232161"/>
<path d="M97.3442 75H87.6932C87.6932 82.854 82.3792 89.4593 75.1724 91.3933L82.625 98.882C91.3499 94.5133 97.3442 85.4603 97.3442 75Z" fill="#5848D5"/>
<path d="M92.521 72.5752H70.8069C69.4746 72.5752 68.3945 73.6602 68.3945 74.9992C68.3945 76.3379 69.4743 77.4232 70.8069 77.4232H92.5187C93.8509 77.4232 94.931 76.3382 94.931 74.9992C94.9333 73.6602 93.8532 72.5752 92.521 72.5752Z" fill="#A9A2E6"/>
<path opacity="0.5" d="M92.521 72.5752H70.8069C69.4746 72.5752 68.3945 73.6602 68.3945 74.9992C68.3945 76.3379 69.4743 77.4232 70.8069 77.4232H92.5187C93.8509 77.4232 94.931 76.3382 94.931 74.9992C94.9333 73.6602 93.8532 72.5752 92.521 72.5752Z" fill="#A9A2E6"/>
<path d="M49.0937 76.8179C50.0929 76.8179 50.903 76.0039 50.903 74.9999C50.903 73.9958 50.0929 73.1819 49.0937 73.1819C48.0945 73.1819 47.2844 73.9958 47.2844 74.9999C47.2844 76.0039 48.0945 76.8179 49.0937 76.8179Z" fill="white"/>
<path d="M70.8078 54.9988C71.807 54.9988 72.6171 54.1849 72.6171 53.1808C72.6171 52.1767 71.807 51.3628 70.8078 51.3628C69.8086 51.3628 68.9985 52.1767 68.9985 53.1808C68.9985 54.1849 69.8086 54.9988 70.8078 54.9988Z" fill="white"/>
<path d="M70.8078 98.6345C71.807 98.6345 72.6171 97.8206 72.6171 96.8165C72.6171 95.8125 71.807 94.9985 70.8078 94.9985C69.8086 94.9985 68.9985 95.8125 68.9985 96.8165C68.9985 97.8206 69.8086 98.6345 70.8078 98.6345Z" fill="white"/>
<path d="M55.4277 61.3894C56.4269 61.3894 57.2369 60.5755 57.2369 59.5714C57.2369 58.5674 56.4269 57.7534 55.4277 57.7534C54.4284 57.7534 53.6184 58.5674 53.6184 59.5714C53.6184 60.5755 54.4284 61.3894 55.4277 61.3894Z" fill="white"/>
<path d="M55.4277 92.2722C56.4269 92.2722 57.2369 91.4583 57.2369 90.4542C57.2369 89.4502 56.4269 88.6362 55.4277 88.6362C54.4284 88.6362 53.6184 89.4502 53.6184 90.4542C53.6184 91.4583 54.4284 92.2722 55.4277 92.2722Z" fill="white"/>
<path d="M86.1879 92.2722C87.1872 92.2722 87.9972 91.4583 87.9972 90.4542C87.9972 89.4502 87.1872 88.6362 86.1879 88.6362C85.1887 88.6362 84.3787 89.4502 84.3787 90.4542C84.3787 91.4583 85.1887 92.2722 86.1879 92.2722Z" fill="white"/>
</svg>
