<svg width="72" height="96" viewBox="0 0 72 96" fill="none" xmlns="http://www.w3.org/2000/svg">
    <path d="M18.8079 23.856C18.8079 14.341 26.5183 6.58098 35.9725 6.58098C45.4266 6.58098 53.137 14.341 53.137 23.856V29.1482C54.0361 29.6418 54.9352 30.1902 55.7798 30.7661C57.1421 31.6984 58.4498 32.7404 59.6759 33.8372V23.856C59.6759 10.6941 49.0502 0 35.9725 0C22.8947 0 12.269 10.6941 12.269 23.856V33.8372C14.258 32.0274 16.4376 30.4644 18.8079 29.1482V23.856Z" fill="#5841D8"/>
    <path d="M44.146 52.922C44.146 48.3702 40.4951 44.6958 35.9724 44.6958C31.4497 44.6958 27.7988 48.3702 27.7988 52.922C27.7988 56.5141 30.0874 59.5579 33.2751 60.6821L29.1611 75.9555H42.7837L38.6697 60.6821C41.8574 59.5579 44.146 56.5141 44.146 52.922Z" fill="#5841D8"/>
    <path d="M71.2008 56.6787C71.1191 55.7738 70.9828 54.8963 70.8194 54.0188C70.7649 53.7172 70.7104 53.443 70.6559 53.1414C68.776 43.8458 63.2997 35.8937 55.7527 30.7661C51.9929 28.2159 47.6881 26.3513 43.0836 25.3916C42.7839 25.3368 42.5115 25.2819 42.2118 25.2271C41.3399 25.0626 40.4681 24.9529 39.569 24.8432C38.3702 24.7335 37.1714 24.6512 35.9454 24.6512C34.7193 24.6512 33.5205 24.7061 32.3217 24.8432C31.4226 24.9255 30.5508 25.0626 29.6789 25.2271C15.13 27.832 3.68692 39.3762 1.07137 54.0188C0.9079 54.8963 0.798919 55.7738 0.689937 56.6787C0.608202 57.8852 0.553711 59.0917 0.553711 60.3256C0.553711 61.5595 0.608202 62.7661 0.744428 63.9726C0.826164 64.8775 0.962391 65.7549 1.12586 66.6324C3.71417 81.2751 15.1844 92.7918 29.7334 95.4241C30.6053 95.5887 31.4771 95.6984 32.3762 95.808C33.575 95.9177 34.7738 96 35.9999 96C37.2259 96 38.4247 95.9451 39.6235 95.808C40.5226 95.7258 41.3944 95.5887 42.2663 95.4241C56.8153 92.8192 68.2583 81.2751 70.8739 66.6324C71.0373 65.7549 71.1463 64.8775 71.2553 63.9726C71.3643 62.7661 71.446 61.5595 71.446 60.3256C71.446 59.0917 71.337 57.8852 71.2008 56.6787ZM35.9726 87.7463C20.9604 87.7463 8.7273 75.4344 8.7273 60.3256C8.7273 45.2168 20.9604 32.9049 35.9726 32.9049C50.9848 32.9049 63.2179 45.2168 63.2179 60.3256C63.2179 75.4344 50.9848 87.7463 35.9726 87.7463Z" fill="#5841D8"/>
</svg>
