<svg width="135" height="156" viewBox="0 0 135 156" fill="none" xmlns="http://www.w3.org/2000/svg">
<ellipse cx="67.5021" cy="77.5" rx="67.2199" ry="67.5" fill="#EEECFB"/>
<path d="M47.713 153.204C47.713 154.467 48.7715 155.5 50.0651 155.5L85.9346 155.5C87.2283 155.5 88.2867 154.467 88.2867 153.204L88.2867 121.056L47.713 121.056L47.713 153.204ZM84.7586 126.222L84.7586 150.333L77.7023 150.333L77.7023 126.222L84.7586 126.222ZM75.9382 126.222L75.9382 143.444L68.8819 143.444L68.8819 126.222L75.9382 126.222ZM67.1178 126.222L67.1178 143.444L60.0615 143.444L60.0615 126.222L67.1178 126.222ZM58.2975 126.222L58.2975 150.333L51.2412 150.333L51.2412 126.222L58.2975 126.222Z" fill="#0C0754"/>
<path d="M68.882 126.222L68.882 143.445L75.9383 143.445L75.9383 126.222L68.882 126.222Z" fill="#FBEBA1"/>
<path d="M77.7024 126.222L77.7024 150.333L84.7587 150.333L84.7587 126.222L77.7024 126.222Z" fill="#FBEBA1"/>
<path d="M60.0616 126.222L60.0616 143.445L67.1179 143.445L67.1179 126.222L60.0616 126.222Z" fill="#FBEBA1"/>
<path d="M51.2412 126.222L51.2412 150.333L58.2975 150.333L58.2975 126.222L51.2412 126.222Z" fill="#FBEBA1"/>
<path d="M37.1287 7.38923L37.1287 114.167C37.1287 117.956 40.304 121.056 44.185 121.056L47.7131 121.056L88.2868 121.056L91.815 121.056C95.6959 121.056 98.8713 117.956 98.8713 114.167L98.8713 7.38923C98.8713 3.60035 95.6959 0.500356 91.815 0.500356L44.185 0.500358C40.304 0.500358 37.1287 3.60035 37.1287 7.38923ZM77.7024 28.917C77.7024 34.141 73.351 38.3892 68 38.3892C62.6489 38.3892 58.2976 34.141 58.2976 28.917C58.2976 23.6929 62.6489 19.4448 68 19.4448C73.351 19.4448 77.7024 23.6929 77.7024 28.917Z" fill="#5848D5"/>
<path fill-rule="evenodd" clip-rule="evenodd" d="M53.4999 75.2051V81.3531C53.4999 82.4852 54.3979 83.4014 55.5021 83.4014C56.6076 83.4014 57.5098 82.4852 57.5098 81.3531V75.2051C57.5098 74.0713 58.4031 73.1536 59.5132 73.1536C60.6194 73.1536 61.5166 74.0713 61.5166 75.2051V81.3531C61.5166 82.4852 62.4146 83.4014 63.52 83.4014C64.6293 83.4014 65.5269 82.4852 65.5269 81.3531V75.2051C65.5269 74.0713 66.4241 73.1536 67.53 73.1536C68.6404 73.1536 69.5384 74.0713 69.5384 75.2051V81.3531C69.5384 82.4852 70.436 83.4014 71.5403 83.4014C72.6457 83.4014 73.5437 82.4852 73.5437 81.3531V75.2051C73.5437 74.0713 74.4413 73.1536 75.5514 73.1536C76.6572 73.1536 77.5548 74.0713 77.5548 75.2051V81.3531C77.5548 82.4852 78.4528 83.4014 79.5613 83.4014C80.6671 83.4014 81.5647 82.4852 81.5647 81.3531V75.2051C81.5647 67.2811 75.2807 60.856 67.53 60.856C59.7796 60.856 53.4999 67.2811 53.4999 75.2051Z" fill="#CCC6F3"/>
</svg>
