<svg width="88" height="76" viewBox="0 0 88 76" fill="none" xmlns="http://www.w3.org/2000/svg">
<path d="M26.8037 27.5452C26.8855 26.9398 27.0218 26.362 27.1582 25.8116C27.0218 26.362 26.9128 26.9398 26.8037 27.5452Z" fill="#5841D8"/>
<path d="M33.0732 44.0826C32.6371 43.7248 32.2282 43.3396 31.8193 42.9268C32.201 43.3121 32.6098 43.6973 33.0732 44.0826Z" fill="#5841D8"/>
<path d="M28.0032 37.231C27.785 36.7081 27.5669 36.1578 27.4033 35.5799C27.5942 36.1578 27.785 36.7081 28.0032 37.231Z" fill="#5841D8"/>
<path d="M31.7926 42.9275C31.3836 42.5148 31.0019 42.102 30.6475 41.6617C31.0292 42.102 31.4109 42.5148 31.7926 42.9275Z" fill="#5841D8"/>
<path d="M30.1301 40.9732C29.8029 40.5054 29.4757 40.0376 29.1758 39.5422C29.4757 40.0376 29.8029 40.5054 30.1301 40.9732Z" fill="#5841D8"/>
<path d="M35.145 45.5686C34.6543 45.266 34.1909 44.9357 33.7275 44.6055C34.1909 44.9357 34.6543 45.266 35.145 45.5686Z" fill="#5841D8"/>
<path d="M51.2273 46.7522C50.7094 46.9723 50.1642 47.1925 49.5918 47.3576C50.1642 47.165 50.7094 46.9723 51.2273 46.7522Z" fill="#5841D8"/>
<path d="M41.6323 47.9624C41.0326 47.8798 40.4602 47.7422 39.915 47.6047C40.4602 47.7422 41.0326 47.8523 41.6323 47.9624Z" fill="#5841D8"/>
<path d="M39.0701 47.3576C38.5249 47.1925 37.9797 46.9723 37.4346 46.7522C37.9525 46.9723 38.4976 47.165 39.0701 47.3576Z" fill="#5841D8"/>
<path d="M48.7466 47.6047C48.1741 47.7422 47.6017 47.8798 47.0293 47.9624C47.629 47.8523 48.2014 47.7422 48.7466 47.6047Z" fill="#5841D8"/>
<path d="M41.6323 12.5752C41.0326 12.6578 40.4602 12.7954 39.915 12.933C40.4602 12.7954 41.0326 12.6853 41.6323 12.5752Z" fill="#5841D8"/>
<path d="M27.1582 34.7271C27.0218 34.1492 26.8855 33.5713 26.8037 32.9935C26.9128 33.5713 27.0218 34.1767 27.1582 34.7271Z" fill="#5841D8"/>
<path d="M44.3313 44.0276C51.8547 44.0276 57.9605 37.8638 57.9605 30.269C57.9605 22.6742 51.8547 16.5103 44.3313 16.5103C36.808 16.5103 30.7021 22.6742 30.7021 30.269C30.7021 37.8638 36.808 44.0276 44.3313 44.0276ZM44.3313 22.4265C46.5938 22.4265 48.4201 24.2702 48.4201 26.5541C48.4201 28.3428 47.2752 29.8837 45.6943 30.4616L47.7386 38.1114H40.924L42.9684 30.4616C41.3874 29.8837 40.2426 28.3703 40.2426 26.5541C40.2426 24.2702 42.0689 22.4265 44.3313 22.4265Z" fill="#5841D8"/>
<path d="M39.0701 13.1811C38.5249 13.3462 37.9797 13.5663 37.4346 13.7865C37.9525 13.5663 38.4976 13.3737 39.0701 13.1811Z" fill="#5841D8"/>
<path d="M48.7466 12.933C48.1741 12.7954 47.6017 12.6578 47.0293 12.5752C47.629 12.6853 48.2014 12.7954 48.7466 12.933Z" fill="#5841D8"/>
<path d="M51.2273 13.7865C50.7094 13.5663 50.1642 13.3462 49.5918 13.1811C50.1642 13.3737 50.7094 13.5663 51.2273 13.7865Z" fill="#5841D8"/>
<path d="M30.6475 18.9043C31.0019 18.464 31.3836 18.0512 31.7926 17.6385C31.4109 18.0237 31.0292 18.4365 30.6475 18.9043Z" fill="#5841D8"/>
<path d="M59.4875 39.5422C59.1876 40.0376 58.8604 40.5054 58.5332 40.9732C58.8604 40.5054 59.1876 40.0376 59.4875 39.5422Z" fill="#5841D8"/>
<path d="M60.6592 23.3076C60.8773 23.8305 61.0954 24.3808 61.259 24.9587C61.0682 24.3808 60.8773 23.8305 60.6592 23.3076Z" fill="#5841D8"/>
<path d="M56.8701 42.9268C56.4612 43.3396 56.0523 43.7248 55.6162 44.0826C56.0523 43.6973 56.4612 43.3121 56.8701 42.9268Z" fill="#5841D8"/>
<path d="M58.0153 41.6335C57.6608 42.0738 57.2791 42.4866 56.8701 42.8993C57.2518 42.5141 57.6336 42.1013 58.0153 41.6335Z" fill="#5841D8"/>
<path d="M61.8584 32.9935C61.7766 33.5989 61.6402 34.1767 61.5039 34.7271C61.6402 34.1767 61.7493 33.5713 61.8584 32.9935Z" fill="#5841D8"/>
<path d="M61.5039 25.8116C61.6402 26.3895 61.7766 26.9673 61.8584 27.5452C61.7493 26.9398 61.6402 26.362 61.5039 25.8116Z" fill="#5841D8"/>
<path d="M61.259 35.5799C61.0954 36.1303 60.8773 36.6806 60.6592 37.231C60.8773 36.7081 61.0682 36.1578 61.259 35.5799Z" fill="#5841D8"/>
<path d="M54.935 44.6055C54.4716 44.9357 54.0082 45.266 53.5176 45.5686C54.0082 45.266 54.4716 44.9357 54.935 44.6055Z" fill="#5841D8"/>
<path d="M29.1758 20.9957C29.4757 20.5004 29.8029 20.0326 30.1301 19.5648C29.8029 20.0326 29.4757 20.5004 29.1758 20.9957Z" fill="#5841D8"/>
<path d="M56.8701 17.6113C57.2791 18.0241 57.6608 18.4369 58.0153 18.8771C57.6336 18.4369 57.2518 18.0241 56.8701 17.6113Z" fill="#5841D8"/>
<path d="M27.4033 24.9587C27.5669 24.4083 27.785 23.858 28.0032 23.3076C27.785 23.8305 27.5942 24.3808 27.4033 24.9587Z" fill="#5841D8"/>
<path d="M58.5332 19.5648C58.8604 20.0326 59.1876 20.5004 59.4875 20.9957C59.1876 20.5004 58.8604 20.0326 58.5332 19.5648Z" fill="#5841D8"/>
<path d="M33.0731 16.455C32.8823 16.6201 32.6915 16.7852 32.4734 16.9778C32.2554 17.198 32.0101 17.3906 31.792 17.6107C32.2009 17.2255 32.6097 16.8402 33.0731 16.455Z" fill="#5841D8"/>
<path d="M53.5176 14.9695C54.0082 15.2722 54.4716 15.6024 54.935 15.9326C54.4716 15.6024 54.0082 15.2722 53.5176 14.9695Z" fill="#5841D8"/>
<path d="M56.87 17.6107C56.6519 17.3906 56.4339 17.1704 56.1885 16.9778C55.9977 16.8127 55.8069 16.6201 55.5889 16.455C56.0523 16.8402 56.4611 17.2255 56.87 17.6107Z" fill="#5841D8"/>
<path d="M33.7275 15.9326C34.1909 15.6024 34.6543 15.2722 35.145 14.9695C34.6543 15.2722 34.1909 15.6024 33.7275 15.9326Z" fill="#5841D8"/>
<path d="M42.968 30.4621L40.9236 38.112H47.7382L45.6939 30.4621C47.2749 29.8843 48.4197 28.3708 48.4197 26.5547C48.4197 24.2707 46.5934 22.4271 44.3309 22.4271C42.0685 22.4271 40.2422 24.2707 40.2422 26.5547C40.2422 28.3433 41.387 29.8843 42.968 30.4621Z" fill="#CCC6F3"/>
<path d="M27.1585 34.7269C27.2403 35.002 27.3221 35.3047 27.4039 35.5799C27.5674 36.1303 27.7855 36.6806 28.0035 37.231C28.3306 38.029 28.7395 38.7994 29.1757 39.5424C29.4755 40.0377 29.8026 40.5055 30.1297 40.9733C30.2932 41.1934 30.4841 41.4411 30.6476 41.6612C31.002 42.1015 31.3836 42.5143 31.7925 42.927C32.2013 43.3398 32.6102 43.725 33.0463 44.0828C33.2644 44.2754 33.4825 44.4405 33.7278 44.6056C34.1912 44.9358 34.6546 45.266 35.1452 45.5687C35.8812 46.009 36.6445 46.4217 37.4349 46.7519C37.9529 46.9721 38.498 47.1922 39.0704 47.3573C39.343 47.4399 39.6156 47.5224 39.9155 47.605C40.4879 47.7426 41.0603 47.8802 41.6327 47.9627C42.505 48.1003 43.4045 48.1553 44.3313 48.1553C45.2581 48.1553 46.1576 48.0728 47.0299 47.9627C47.6296 47.8802 48.202 47.7426 48.7472 47.605C49.0198 47.5224 49.3196 47.4399 49.5922 47.3573C50.1374 47.1922 50.6825 46.9721 51.2277 46.7519C52.0182 46.4217 52.7814 46.009 53.5174 45.5687C54.008 45.266 54.4714 44.9358 54.9348 44.6056C55.1529 44.4405 55.3982 44.2479 55.6163 44.0828C56.0524 43.725 56.4613 43.3398 56.8702 42.927C57.279 42.5143 57.6607 42.1015 58.015 41.6612C58.2058 41.4411 58.3694 41.221 58.5329 40.9733C58.86 40.5055 59.1871 40.0377 59.487 39.5424C59.9231 38.7994 60.332 38.029 60.6591 37.231C60.8772 36.7081 61.0952 36.1578 61.2588 35.5799C61.3405 35.3047 61.4223 35.0296 61.5041 34.7269C61.6404 34.149 61.7767 33.5711 61.8585 32.9933C61.9948 32.1127 62.0493 31.2047 62.0493 30.2691C62.0493 29.3335 61.9675 28.4254 61.8585 27.5449C61.7767 26.9395 61.6404 26.3616 61.5041 25.8113C61.4223 25.5361 61.3405 25.2334 61.2588 24.9582C61.0952 24.4079 60.8772 23.8575 60.6591 23.3072C60.332 22.5092 59.9231 21.7387 59.487 20.9957C59.1871 20.5004 58.86 20.0326 58.5329 19.5648C58.3694 19.3447 58.1786 19.097 58.015 18.8769C57.6607 18.4366 57.279 18.0239 56.8702 17.6111C56.4613 17.1983 56.0524 16.8131 55.6163 16.4554C55.8071 16.6205 55.9979 16.7856 56.216 16.9782V11.97C56.1887 5.36588 50.8733 0 44.3313 0C37.7893 0 32.4739 5.36588 32.4739 11.97V16.9782C32.6647 16.8131 32.8555 16.6205 33.0736 16.4554C32.6375 16.8131 32.2286 17.1983 31.8197 17.6111C31.4108 18.0239 31.0292 18.4366 30.6749 18.8769C30.4841 19.097 30.3205 19.3172 30.157 19.5648C29.8299 20.0326 29.5028 20.5004 29.2029 20.9957C28.7668 21.7387 28.3579 22.5092 28.0308 23.3072C27.8127 23.83 27.5947 24.3804 27.4311 24.9582C27.3493 25.2334 27.2676 25.5086 27.1858 25.8113C27.0495 26.3891 26.9132 26.967 26.8314 27.5449C26.6951 28.4254 26.6406 29.3335 26.6406 30.2691C26.6406 31.2047 26.7224 32.1127 26.8314 32.9933C26.9132 33.5711 27.0222 34.1765 27.1585 34.7269ZM54.9348 15.9325C54.4714 15.6023 54.008 15.2721 53.5174 14.9694C54.008 15.2721 54.4714 15.6023 54.9348 15.9325ZM44.3313 3.30208C49.0743 3.30208 52.9177 7.18202 52.9177 11.97V14.6117C52.3725 14.309 51.8001 14.0338 51.2277 13.7862C50.7098 13.566 50.1646 13.3459 49.5922 13.1808C49.3196 13.0983 49.047 13.0157 48.7472 12.9331C48.1747 12.7956 47.6023 12.658 47.0299 12.5754C46.1576 12.4378 45.2581 12.3828 44.3313 12.3828C43.4045 12.3828 42.505 12.4654 41.6327 12.5754C41.0331 12.658 40.4606 12.7956 39.9155 12.9331C39.6429 13.0157 39.343 13.0983 39.0704 13.1808C38.5253 13.3459 37.9801 13.566 37.4349 13.7862C36.8625 14.0338 36.2901 14.309 35.7449 14.6117V11.97C35.7449 7.18202 39.5884 3.30208 44.3313 3.30208ZM35.1452 14.9694C34.6546 15.2721 34.1912 15.6023 33.7278 15.9325C34.1912 15.6023 34.6546 15.2721 35.1452 14.9694ZM44.3313 16.5104C51.8546 16.5104 57.9605 22.6743 57.9605 30.2691C57.9605 37.8638 51.8546 44.0277 44.3313 44.0277C36.808 44.0277 30.7021 37.8638 30.7021 30.2691C30.7021 22.6743 36.808 16.5104 44.3313 16.5104Z" fill="#CCC6F3"/>
<path d="M84.6736 53.5013H3.98878C2.18973 53.5013 0.717773 54.9872 0.717773 56.8034V66.7096C0.717773 68.5257 2.18973 70.0117 3.98878 70.0117H84.6736C86.4727 70.0117 87.9446 68.5257 87.9446 66.7096V56.8034C87.9446 54.9872 86.4727 53.5013 84.6736 53.5013ZM12.7115 65.6089C10.6126 65.6089 8.89529 63.8753 8.89529 61.7565C8.89529 59.6376 10.6126 57.9041 12.7115 57.9041C14.8104 57.9041 16.5276 59.6376 16.5276 61.7565C16.5276 63.8753 14.8104 65.6089 12.7115 65.6089ZM25.7955 65.6089C23.6966 65.6089 21.9793 63.8753 21.9793 61.7565C21.9793 59.6376 23.6966 57.9041 25.7955 57.9041C27.8944 57.9041 29.6117 59.6376 29.6117 61.7565C29.6117 63.8753 27.8944 65.6089 25.7955 65.6089ZM38.8795 65.6089C36.7806 65.6089 35.0633 63.8753 35.0633 61.7565C35.0633 59.6376 36.7806 57.9041 38.8795 57.9041C40.9784 57.9041 42.6957 59.6376 42.6957 61.7565C42.6957 63.8753 40.9784 65.6089 38.8795 65.6089ZM51.9635 65.6089C49.8647 65.6089 48.1474 63.8753 48.1474 61.7565C48.1474 59.6376 49.8647 57.9041 51.9635 57.9041C54.0624 57.9041 55.7797 59.6376 55.7797 61.7565C55.7797 63.8753 54.0624 65.6089 51.9635 65.6089Z" fill="#CCC6F3"/>
<path d="M38.8797 65.6092C40.9873 65.6092 42.6958 63.8844 42.6958 61.7567C42.6958 59.6291 40.9873 57.9043 38.8797 57.9043C36.772 57.9043 35.0635 59.6291 35.0635 61.7567C35.0635 63.8844 36.772 65.6092 38.8797 65.6092Z" fill="#5841D8"/>
<path d="M51.9627 65.6092C54.0703 65.6092 55.7788 63.8844 55.7788 61.7567C55.7788 59.6291 54.0703 57.9043 51.9627 57.9043C49.855 57.9043 48.1465 59.6291 48.1465 61.7567C48.1465 63.8844 49.855 65.6092 51.9627 65.6092Z" fill="#5841D8"/>
<path d="M25.7957 65.6092C27.9033 65.6092 29.6118 63.8844 29.6118 61.7567C29.6118 59.6291 27.9033 57.9043 25.7957 57.9043C23.6881 57.9043 21.9795 59.6291 21.9795 61.7567C21.9795 63.8844 23.6881 65.6092 25.7957 65.6092Z" fill="#5841D8"/>
<path d="M12.7117 65.6092C14.8193 65.6092 16.5279 63.8844 16.5279 61.7567C16.5279 59.6291 14.8193 57.9043 12.7117 57.9043C10.6041 57.9043 8.89551 59.6291 8.89551 61.7567C8.89551 63.8844 10.6041 65.6092 12.7117 65.6092Z" fill="#5841D8"/>
</svg>
