<svg width="480" height="1024" viewBox="0 0 480 1024" fill="none" xmlns="http://www.w3.org/2000/svg">
<mask id="mask0" mask-type="alpha" maskUnits="userSpaceOnUse" x="0" y="0" width="481" height="1025">
<path d="M480 0H0V1025H480V0Z" fill="#5B66AF"/>
</mask>
<g mask="url(#mask0)">
<path d="M481.996 1H0V1026H481.996V1Z" fill="#5841D8"/>
<path d="M145.181 641.056C133.711 629.565 113.763 631.064 113.763 631.064C113.763 631.064 93.8153 629.565 82.3452 641.056C70.8751 652.547 71.8725 711 71.8725 711C71.8725 711 70.8751 769.453 82.3452 780.944C93.8153 792.435 113.763 790.936 113.763 790.936C113.763 790.936 133.711 792.435 145.181 780.944C156.651 769.453 155.654 711 155.654 711C155.654 711 156.651 652.547 145.181 641.056Z" fill="#DEDDEA"/>
<path d="M157.515 442.405C154.52 443.207 153.322 445.513 152.074 446.516C150.776 447.518 106.545 458.547 96.0609 466.268C82.6318 476.194 -15.1163 564.477 -15.1163 564.477L-17.9619 573C-17.9619 573 86.5257 476.595 97.8082 468.774C105.247 463.611 151.375 447.719 152.473 447.969C153.572 448.22 156.267 449.473 159.163 448.721C162.608 447.769 165.054 445.613 164.604 443.909C164.205 442.154 161.01 441.502 157.515 442.405Z" fill="#0C0C20"/>
<path d="M7.3808 592.843C8.18131 589.841 10.4828 588.641 11.4834 587.39C12.4841 586.139 23.4911 541.766 31.196 531.26C41.1023 517.803 129.209 419.851 129.209 419.851L137.714 417C137.714 417 41.5026 521.705 33.6976 533.011C28.5443 540.465 12.6842 586.69 12.9344 587.79C13.1845 588.891 14.4353 591.592 13.6848 594.494C12.7342 597.946 10.5828 600.397 8.88176 599.947C7.18067 599.496 6.48022 596.295 7.3808 592.843Z" fill="#0C0C20"/>
<path d="M131.939 411.109C131.939 411.109 129.639 410.959 125.339 411.861C123.389 412.313 120.99 412.964 118.19 413.967C112.24 416.123 105.691 420.185 101.991 422.592C96.9918 425.6 91.4423 430.163 85.1429 436.48C80.7433 440.893 77.0936 445.105 74.1439 449.066C72.344 451.372 66.8445 458.893 64.4947 467.116C63.1449 471.83 62.5949 475.741 62.3449 478.749C57.7954 475.991 52.4958 479.902 48.5962 483.763C44.6965 487.674 40.7969 492.989 43.5966 497.552C40.5969 497.803 36.6972 498.354 31.9977 499.708C23.7484 502.065 16.2991 507.58 13.9993 509.385C9.99966 512.343 5.85005 516.004 1.45044 520.416C-4.84899 526.734 -9.39859 532.299 -12.3983 537.313C-14.8481 541.024 -18.8977 547.592 -20.9975 553.559C-21.9975 556.367 -22.6474 558.774 -23.0974 560.729C-23.9973 565.041 -23.8473 567.348 -23.8473 567.348C-24.0473 567.799 -23.9473 568.35 -23.5973 568.701L-19.3477 572.963C-18.8977 573.415 -18.1478 573.465 -17.6478 573.014C-16.4479 571.911 -14.3981 570.156 -13.8982 570.657C-13.3982 571.158 -4.99899 576.523 -0.0994353 578.83C0.0505512 578.88 0.150567 578.93 0.300553 578.93C7.04994 583.493 15.4992 586 24.3984 586C36.3973 585.95 47.5463 581.387 55.7955 573.114C63.9448 564.941 68.8443 553.258 69.1443 541.124C69.3443 534.104 67.9944 527.386 65.3947 521.569C63.7948 517.708 59.5952 507.73 58.5953 506.427C56.4955 503.569 52.2459 497.903 49.7461 497.552C49.5461 497.502 49.1461 497.502 48.5962 497.452C44.6465 493.49 49.0462 488.326 51.196 486.22C53.2958 484.114 58.4453 479.652 62.3949 483.613C62.4449 484.164 62.4949 484.565 62.4949 484.766C62.8449 487.223 68.4944 491.485 71.3441 493.641C72.644 494.644 82.5931 498.855 86.4428 500.46C92.2423 503.067 98.9416 504.371 105.941 504.221C118.04 503.92 129.639 499.006 137.838 490.833C146.087 482.56 150.637 471.378 150.687 459.345C150.687 450.42 148.187 441.946 143.638 435.177C143.638 435.077 143.588 434.926 143.538 434.776C141.238 429.862 135.938 421.488 135.388 420.937C134.888 420.435 136.688 418.38 137.738 417.176C138.188 416.675 138.188 415.923 137.688 415.472L133.439 411.21C132.939 411.009 132.389 410.909 131.939 411.109ZM65.9946 541.124C65.6946 552.506 61.145 563.387 53.4957 571.058C45.7964 578.78 35.3974 582.992 24.1984 583.042C13.5494 583.042 3.60023 579.231 -3.09916 572.462C-11.1984 564.339 -14.4481 558.322 -14.1981 551.754C-13.9482 543.731 -8.34867 534.455 3.45026 522.672C21.9986 504.07 38.0471 495.346 55.9455 513.296C62.5949 519.915 66.2446 530.093 65.9946 541.124ZM147.437 459.445C147.437 470.676 143.188 481.106 135.488 488.827C127.839 496.499 116.99 501.062 105.641 501.363C94.642 501.663 84.4929 498.003 77.8435 491.334C59.9452 473.384 68.6444 457.289 87.1927 438.687C98.9916 426.853 108.191 421.238 116.19 420.987C122.739 420.786 128.739 423.995 136.838 432.118C143.638 438.787 147.487 448.765 147.437 459.445Z" fill="#0C0C20"/>
<g opacity="0.2">
<path opacity="0.2" d="M142.547 427.405C139.551 428.207 138.353 430.513 137.105 431.516C135.807 432.518 91.5759 443.547 81.0922 451.268C67.663 461.194 -30.0851 549.477 -30.0851 549.477L-32.9307 558C-32.9307 558 71.557 461.595 82.8395 453.774C90.2779 448.611 136.406 432.719 137.504 432.969C138.603 433.22 141.299 434.473 144.194 433.721C147.639 432.769 150.085 430.613 149.636 428.909C149.236 427.154 146.041 426.502 142.547 427.405Z" fill="#0C0C20"/>
<path opacity="0.2" d="M-7.58795 577.843C-6.78744 574.841 -4.48597 573.641 -3.48533 572.39C-2.48469 571.139 8.52234 526.766 16.2273 516.26C26.1336 502.803 114.24 404.851 114.24 404.851L122.745 402C122.745 402 26.5338 506.705 18.7289 518.011C13.5756 525.465 -2.28455 571.69 -2.03439 572.79C-1.78423 573.891 -0.533433 576.592 -1.28391 579.494C-2.23452 582.946 -4.38591 585.397 -6.08699 584.947C-7.78808 584.496 -8.48853 581.295 -7.58795 577.843Z" fill="#0C0C20"/>
<path opacity="0.2" d="M116.97 396.109C116.97 396.109 114.67 395.959 110.371 396.861C108.421 397.313 106.021 397.965 103.221 398.967C97.2717 401.123 90.7223 405.185 87.0226 407.592C82.0231 410.6 76.4736 415.163 70.1741 421.481C65.7745 425.893 62.1249 430.105 59.1751 434.066C57.3753 436.372 51.8758 443.893 49.526 452.116C48.1761 456.83 47.6262 460.741 47.3762 463.749C42.8266 460.991 37.5271 464.902 33.6274 468.763C29.7278 472.674 25.8281 477.989 28.6279 482.552C25.6282 482.803 21.7285 483.354 17.0289 484.708C8.77967 487.065 1.33034 492.58 -0.969453 494.385C-4.96909 497.343 -9.1187 501.004 -13.5183 505.416C-19.8177 511.734 -24.3673 517.299 -27.3671 522.313C-29.8168 526.024 -33.8665 532.592 -35.9663 538.559C-36.9662 541.367 -37.6162 543.774 -38.0661 545.729C-38.966 550.041 -38.816 552.348 -38.816 552.348C-39.016 552.799 -38.916 553.35 -38.5661 553.701L-34.3165 557.963C-33.8665 558.415 -33.1165 558.465 -32.6166 558.014C-31.4167 556.911 -29.3669 555.156 -28.8669 555.657C-28.367 556.158 -19.9677 561.523 -15.0682 563.83C-14.9182 563.88 -14.8182 563.93 -14.6682 563.93C-7.91881 568.493 0.530406 571 9.4296 571C21.4285 570.95 32.5775 566.387 40.8268 558.114C48.9761 549.941 53.8756 538.258 54.1756 526.124C54.3756 519.104 53.0257 512.386 50.4259 506.569C48.8261 502.708 44.6264 492.73 43.6265 491.427C41.5267 488.569 37.2771 482.903 34.7773 482.552C34.5773 482.502 34.1774 482.502 33.6274 482.452C29.6778 478.49 34.0774 473.326 36.2272 471.22C38.327 469.114 43.4765 464.652 47.4262 468.613C47.4762 469.164 47.5262 469.565 47.5262 469.766C47.8761 472.223 53.5256 476.485 56.3754 478.641C57.6753 479.644 67.6244 483.856 71.474 485.46C77.2735 488.067 83.9729 489.371 90.9722 489.221C103.071 488.92 114.67 484.006 122.869 475.833C131.119 467.56 135.668 456.378 135.718 444.345C135.718 435.42 133.218 426.946 128.669 420.177C128.669 420.077 128.619 419.926 128.569 419.776C126.269 414.862 120.97 406.488 120.42 405.937C119.92 405.435 121.72 403.38 122.769 402.176C123.219 401.675 123.219 400.923 122.719 400.472L118.47 396.21C117.97 396.009 117.42 395.909 116.97 396.109ZM51.0259 526.124C50.7259 537.506 46.1763 548.387 38.527 556.058C30.8277 563.78 20.4286 567.992 9.22964 568.042C-1.4194 568.042 -11.3685 564.231 -18.0679 557.462C-26.1672 549.339 -29.4169 543.322 -29.1669 536.754C-28.9169 528.731 -23.3174 519.455 -11.5185 507.672C7.02984 489.07 23.0784 480.346 40.9768 498.296C47.6262 504.915 51.2758 515.093 51.0259 526.124ZM132.468 444.445C132.468 455.676 128.219 466.106 120.52 473.827C112.87 481.499 102.021 486.062 90.6723 486.363C79.6733 486.663 69.5242 483.003 62.8748 476.334C44.9764 458.384 53.6756 442.289 72.224 423.687C84.0229 411.854 93.222 406.238 101.221 405.987C107.771 405.786 113.77 408.995 121.869 417.118C128.669 423.787 132.518 433.765 132.468 444.445Z" fill="#0C0C20"/>
</g>
<path opacity="0.2" d="M66.2433 541.099C65.9433 552.476 61.3933 563.353 53.7433 571.021C46.0434 578.74 35.6434 582.95 24.4435 583C13.7935 583 3.84352 579.191 -2.85646 572.424C-10.9564 564.305 -14.2064 558.29 -13.9564 551.724C-13.7064 543.705 -8.10642 534.433 3.69354 522.654C22.2435 504.059 38.2934 495.338 56.1933 513.282C62.8433 519.898 66.4933 530.072 66.2433 541.099ZM147.693 459.452C147.693 470.679 143.443 481.104 135.743 488.823C128.093 496.491 117.243 501.052 105.893 501.353C94.8932 501.654 84.7432 497.995 78.0933 491.329C60.1933 473.385 68.8933 457.296 87.4432 438.702C99.2432 426.873 108.443 421.259 116.443 421.009C122.993 420.808 128.993 424.016 137.093 432.136C143.893 438.802 147.743 448.776 147.693 459.452Z" fill="white"/>
<path opacity="0.1" d="M66.4833 541.092C66.1842 552.464 61.6477 563.335 54.0202 571C33.0323 503.519 53.9704 570.649 32.9326 503.769C40.6598 502.467 48.3869 505.122 56.5128 513.288C63.0934 519.901 66.7326 530.071 66.4833 541.092ZM147.693 459.484C147.693 470.705 143.456 481.126 135.778 488.841C116.735 420.909 135.679 489.041 116.585 421.009C123.116 420.808 129.098 424.015 137.174 432.13C143.904 438.843 147.743 448.813 147.693 459.484Z" fill="white"/>
<path opacity="0.2" d="M169.764 888.364C169.764 888.364 167.371 873.658 166.374 867.155L170.013 865.705L169.066 858.552L167.072 843.846L166.125 836.692L161.889 836.242C161.39 832.191 161.091 829.289 161.041 827.739C160.543 803.378 178.935 760.66 179.832 751.456C180.729 742.253 182.075 693.282 178.187 684.878C176.243 680.677 170.86 675.374 165.726 669.522C160.692 663.719 154.163 655.216 152.867 655.016C150.325 654.616 146.936 662.569 146.687 668.121C146.438 673.674 147.933 680.927 150.824 686.729C153.714 692.532 157.004 694.032 157.004 694.032L155.26 709.539L146.438 696.583C146.438 696.583 144.195 673.073 140.656 654.015C137.167 634.957 134.874 610.197 133.479 603.744C132.083 597.291 128.744 594.44 124.906 595.09C121.068 595.741 118.277 598.792 119.074 606.345C119.872 613.898 120.021 694.983 115.685 694.983C111.349 694.983 102.576 678.226 102.576 657.417C102.576 636.608 103.474 636.008 104.819 624.303C106.165 612.598 103.822 611.798 101.679 613.048C99.5361 614.299 87.8232 623.753 87.8232 623.753C87.8232 623.753 79.8484 630.055 74.7645 635.307C69.6308 640.51 64.7961 647.313 64.7961 647.313C64.7961 647.313 59.8617 649.363 52.0365 655.516C44.1614 661.619 42.417 669.122 40.0744 676.225C37.682 683.278 32.9968 692.932 34.0933 699.335C35.1899 705.737 59.463 770.715 62.9021 785.321C65.7929 797.476 76.3096 824.787 81.1942 847.447L77.456 848.898L78.403 856.051L80.3967 870.757L81.3437 877.91L84.2345 878.21C84.384 882.512 84.5834 887.464 84.7329 892.966C82.5399 892.766 80.7456 892.516 79.3998 892.366C77.8049 892.166 76.3595 893.416 76.3595 895.067L76.4093 902.97C76.1601 902.92 75.9109 902.92 75.6617 902.87C73.6182 902.67 71.8737 904.271 71.8737 906.322L56.2731 1202.15C56.3229 1206.5 59.8617 1210 64.198 1210H231.518L169.764 888.364Z" fill="#0C0C20"/>
<path d="M96.5792 1196C96.5792 1196 91.2213 888.245 88.7176 864.244C86.2139 840.244 71.6423 803.843 68.1872 789.243C64.7321 774.643 57.9721 759.092 55.6186 747.392C53.2651 735.692 45.3534 709.741 44.2518 703.291C43.1502 696.841 44.8527 687.241 47.2562 680.191C49.6598 673.141 51.4124 665.641 59.274 659.49C67.1357 653.34 72.093 651.29 72.093 651.29C72.093 651.29 76.9502 644.49 82.1078 639.29C87.2654 634.09 95.2272 627.74 95.2272 627.74C95.2272 627.74 101.486 614.29 103.64 613.04C105.793 611.79 111.652 616.54 110.3 628.29C108.948 639.99 108.046 640.59 108.046 661.39C108.046 682.191 116.909 698.941 121.216 698.941C125.522 698.941 124.27 674.041 122.818 656.89C121.366 639.74 119.413 613.84 118.612 606.34C117.811 598.789 120.615 595.739 124.471 595.089C128.326 594.439 131.681 597.339 133.083 603.739C134.485 610.14 138.291 635.94 141.796 654.99C145.301 674.041 152.111 700.541 152.111 700.541L160.975 713.491L162.727 697.991C162.727 697.991 159.372 696.541 156.518 690.691C153.614 684.891 152.111 677.641 152.362 672.091C152.612 666.541 156.017 658.59 158.571 658.99C159.823 659.19 166.433 667.691 171.49 673.491C176.598 679.341 182.006 684.641 184.009 688.841C187.914 697.241 186.562 746.192 185.661 755.392C184.76 764.592 166.282 807.293 166.783 831.644C167.284 855.994 228.525 1195.9 228.525 1195.9H96.5792V1196Z" fill="#FCCEBD"/>
<path d="M90.7142 706.998C91.7418 706.651 87.6312 667.028 88.6075 655.771C89.5837 644.514 95.801 628 95.801 628C95.801 628 90.4572 641.737 88.4533 646.547C86.4495 651.357 80.8489 665.044 81.9793 672.186C83.1097 679.327 89.9948 707.246 90.7142 706.998Z" fill="#E5B8AE"/>
<path d="M70.1417 721C69.0801 721 57.9334 697.416 57.8803 690.039C57.8273 682.663 62.4982 669.215 63.6129 666.806C64.7806 664.448 72.8487 651 72.8487 651C72.8487 651 63.3475 667.559 62.1267 676.09C60.9059 684.62 71.681 721 70.1417 721Z" fill="#E5B8AE"/>
<path d="M152.033 700.675L160.907 713.661L162.661 698.118C162.661 698.118 161.007 728 159.553 728C158.099 728 153.537 716.519 150.88 705.137C148.223 693.756 141.705 655 141.705 655L152.033 700.675Z" fill="#EFC3B6"/>
<path opacity="0.4" d="M97.2974 846.5L93.8047 853L95.3016 879L102.786 884L160.166 875.5L165.655 868.5L161.164 844L156.674 839L97.2974 846.5Z" fill="black"/>
<path d="M228.524 1196L225.478 1180.2L222.482 1164.41L216.49 1132.77C212.545 1111.67 208.65 1090.58 204.855 1069.44C201.01 1048.34 197.265 1027.2 193.519 1006.06C189.824 984.912 186.179 963.769 182.534 942.625C178.988 921.481 175.443 900.287 172.097 879.094C170.449 868.497 168.801 857.9 167.353 847.253C167.004 844.604 166.654 841.905 166.354 839.256L165.905 835.207L165.755 833.157C165.705 832.458 165.655 831.758 165.655 831.108C165.655 829.708 165.705 828.359 165.805 827.009C165.905 825.66 166.055 824.31 166.205 822.96C166.554 820.261 166.954 817.562 167.503 814.913C169.6 804.316 172.746 793.969 176.092 783.772C177.79 778.673 179.537 773.575 181.235 768.526C182.084 765.977 182.933 763.428 183.682 760.879C184.082 759.629 184.431 758.329 184.681 757.03C184.731 756.73 184.831 756.38 184.881 756.08C184.93 755.78 184.98 755.48 184.98 755.13C185.03 754.481 185.08 753.831 185.13 753.131C185.53 747.783 185.729 742.434 185.929 737.086C186.129 731.737 186.229 726.389 186.229 720.991C186.279 715.642 186.229 710.244 185.979 704.895C185.879 702.196 185.729 699.547 185.48 696.898C185.43 696.248 185.33 695.548 185.28 694.898C185.18 694.248 185.13 693.549 184.98 692.899C184.731 691.599 184.531 690.25 183.982 689C184.531 690.2 184.831 691.549 185.08 692.849C185.23 693.499 185.33 694.149 185.43 694.848C185.53 695.498 185.63 696.198 185.679 696.848C186.029 699.497 186.229 702.196 186.428 704.895C186.778 710.244 186.928 715.642 186.978 720.991C187.078 726.339 187.078 731.737 186.978 737.086C186.928 742.434 186.778 747.833 186.528 753.181C186.478 753.831 186.429 754.531 186.379 755.23C186.329 755.88 186.229 756.63 186.079 757.28C185.829 758.629 185.48 759.929 185.08 761.229C184.331 763.828 183.532 766.377 182.733 768.976C181.085 774.075 179.438 779.173 177.84 784.322C174.644 794.519 171.598 804.816 169.65 815.313C169.151 817.912 168.751 820.561 168.452 823.16C168.302 824.46 168.202 825.81 168.102 827.109C168.052 828.409 168.002 829.758 168.002 831.058C168.002 831.708 168.052 832.358 168.102 833.007L168.252 834.957L168.701 838.906C169.051 841.555 169.4 844.204 169.75 846.853C171.248 857.45 172.996 868.047 174.694 878.644C178.139 899.838 181.685 920.981 185.28 942.125L206.902 1069.04L217.688 1132.52L222.981 1164.26L225.628 1180.15L228.524 1196Z" fill="#F9DAD2"/>
<path d="M97.1497 1196.75C97.1497 1196.75 91.8112 888.435 89.3166 864.391C86.822 840.347 72.3034 803.88 68.8608 789.253C65.4182 774.626 58.6828 759.048 56.3378 747.326C53.9929 735.605 45.3117 709.657 45.0123 703.145C42.9168 661.519 72.8522 651 72.8522 651C72.8522 651 55.3899 661.519 50.8996 690.072C46.4093 718.624 96.3015 823.316 101.79 865.894C107.278 908.472 113.764 1197 113.764 1197L97.1497 1196.75Z" fill="#EFC3B6"/>
<path d="M121.569 699C122.1 698.95 122.454 698.499 122.631 697.998C122.853 697.497 122.985 696.946 123.118 696.445C123.34 695.343 123.472 694.241 123.561 693.139C123.738 690.884 123.738 688.68 123.738 686.426C123.694 681.917 123.473 677.459 123.251 672.95C122.764 663.983 121.923 655.015 121.303 646.048L120.373 632.572C120.108 628.064 119.798 623.605 119.576 619.096L118.779 605.62C118.735 604.468 118.735 603.316 118.868 602.164C119.001 601.012 119.222 599.859 119.665 598.807C120.108 597.755 120.772 596.803 121.613 596.152C122.454 595.501 123.428 595.15 124.447 595C123.472 595.25 122.543 595.701 121.79 596.403C121.037 597.104 120.506 598.056 120.152 599.058C119.798 600.06 119.621 601.162 119.576 602.264C119.532 603.366 119.532 604.468 119.665 605.57L120.329 612.283C120.55 614.538 120.728 616.792 120.949 618.996C121.347 623.505 121.702 627.963 122.056 632.472L123.074 645.948L124.004 659.424C124.269 663.933 124.535 668.441 124.624 672.95C124.756 677.459 124.801 681.967 124.624 686.526C124.535 688.78 124.358 691.035 124.048 693.289C123.871 694.391 123.694 695.543 123.384 696.595C123.207 697.146 123.03 697.697 122.764 698.148C122.631 698.399 122.454 698.599 122.277 698.8C122.056 698.9 121.834 699 121.569 699Z" fill="#E5B8AE"/>
<path d="M96.699 1196C95.3422 1149.21 94.086 1102.37 92.9302 1055.52L91.1714 985.286C90.5684 961.89 90.0156 938.494 89.3121 915.048L88.7594 897.501C88.5584 891.652 88.4077 885.803 88.1564 879.954C88.0057 877.055 87.9554 874.105 87.8047 871.206L87.5031 866.856L87.3524 864.707C87.3021 864.007 87.2016 863.257 87.1011 862.557C86.3976 856.858 85.1916 851.159 83.7846 845.51C82.3776 839.861 80.7696 834.262 79.0611 828.663C77.3525 823.064 75.5435 817.515 73.7345 811.966C71.9255 806.417 70.0662 800.818 68.4079 795.169C67.5537 792.369 66.8502 789.42 66.1467 786.62C65.3929 783.821 64.5889 781.021 63.7346 778.222C61.9759 772.673 60.0664 767.124 58.2574 761.525C57.3528 758.725 56.4986 755.926 55.6946 753.076C55.4936 752.376 55.3428 751.626 55.1418 750.926C54.9408 750.226 54.7901 749.477 54.6393 748.777C54.2876 747.277 54.0363 745.927 53.7348 744.477C51.1218 733.129 47.8052 721.881 44.8405 710.533C44.4887 709.134 44.1369 707.684 43.7852 706.234C43.4334 704.784 43.1319 703.285 43.0314 701.785C42.8807 700.285 42.8807 698.785 42.9812 697.286C43.0314 695.786 43.1822 694.286 43.3832 692.836C43.7852 689.887 44.3882 686.987 45.1419 684.138C45.544 682.688 45.9962 681.288 46.4485 679.889L47.8555 675.739C48.8102 672.94 49.8655 670.14 51.373 667.541C52.1268 666.241 52.981 664.991 53.9358 663.841C54.4383 663.291 54.8905 662.692 55.4433 662.142C55.6946 661.892 55.9458 661.592 56.2473 661.342L57.1016 660.592C57.3528 660.342 57.6543 660.092 57.9558 659.842L58.8101 659.142C59.4131 658.692 60.0161 658.242 60.5689 657.792C61.7749 656.943 62.9809 656.093 64.2371 655.243C65.4934 654.443 66.7497 653.643 68.0059 652.893C69.3124 652.143 70.5687 651.443 71.9757 650.844L71.7747 650.993C73.433 648.744 75.1918 646.594 76.9505 644.495C78.7595 642.395 80.6188 640.345 82.6289 638.396C84.6389 636.446 86.6991 634.646 88.8097 632.847C90.9202 631.047 93.081 629.297 95.2417 627.598L95.1915 627.648C96.4478 625.098 97.704 622.548 99.111 620.049C99.8145 618.799 100.518 617.549 101.222 616.349C101.573 615.75 101.975 615.15 102.377 614.55C102.779 614 103.232 613.4 103.784 613C103.181 613.4 102.779 614 102.377 614.6C101.975 615.2 101.624 615.8 101.272 616.399C100.568 617.649 99.8648 618.899 99.2618 620.149C97.9553 622.648 96.7492 625.248 95.5432 627.798V627.847L95.493 627.897C93.3322 629.647 91.2217 631.447 89.1614 633.247C87.1012 635.046 85.0409 636.946 83.0811 638.896C81.1213 640.845 79.3123 642.895 77.5535 645.045C75.7948 647.194 74.1365 649.344 72.5285 651.593L72.428 651.693L72.2772 651.743C70.9707 652.343 69.7145 653.043 68.4582 653.793C67.2019 654.543 65.9959 655.343 64.7899 656.143C63.5839 656.942 62.3779 657.842 61.2221 658.692C60.6191 659.142 60.0664 659.592 59.5136 660.042L58.7096 660.742C58.4081 660.992 58.1568 661.192 57.9056 661.442L57.1016 662.192C56.8503 662.442 56.5991 662.691 56.3478 662.991C55.8453 663.491 55.3931 664.091 54.9408 664.641C54.0865 665.791 53.2825 666.941 52.579 668.241C51.172 670.74 50.167 673.44 49.2625 676.189L47.9057 680.388C47.4535 681.788 47.0515 683.138 46.6997 684.538C45.9962 687.337 45.4435 690.187 45.0917 693.036C44.941 694.486 44.7902 695.886 44.7399 697.336C44.6897 698.785 44.6897 700.185 44.8405 701.585C44.9912 702.985 45.2927 704.334 45.6445 705.784C45.9962 707.184 46.348 708.584 46.75 710.033C48.2575 715.682 49.9158 721.281 51.4735 726.93C53.0313 732.58 54.6393 738.229 55.9961 743.978C56.3478 745.377 56.6493 746.877 56.9508 748.277C57.1016 748.977 57.2523 749.677 57.4533 750.376C57.6543 751.076 57.8051 751.776 58.0061 752.476C58.7599 755.276 59.6644 758.025 60.5689 760.825C62.4281 766.374 64.3879 771.873 66.1467 777.522C67.0512 780.321 67.9054 783.171 68.6592 786.02C69.4129 788.92 70.0662 791.669 70.9205 794.469C72.5787 800.018 74.4883 805.567 76.2973 811.166C80.0158 822.264 83.5836 833.462 86.4981 844.91C87.9554 850.609 89.1614 856.408 89.9152 862.307C90.0157 863.057 90.1162 863.757 90.1664 864.507L90.3171 866.706L90.6187 871.156C90.7695 874.105 90.8699 877.005 91.0207 879.954C91.2719 885.803 91.473 891.652 91.6237 897.501L92.1262 915.048L93.0307 950.192L93.7844 985.336L94.4377 1020.48L94.9905 1055.62C95.895 1102.32 96.3975 1149.16 96.699 1196Z" fill="#E5B8AE"/>
<g opacity="0.2">
<path opacity="0.2" d="M90.8675 844.848C90.174 844.948 89.7281 845.6 89.8272 846.253L90.174 848.811L94.4342 880.521L94.781 883.08C94.8801 883.782 95.524 884.234 96.168 884.133L130.151 889L161.608 875.102C162.301 875.002 162.747 874.349 162.648 873.697L162.252 870.938L153.434 872.142L152.295 863.663L150.313 848.912L149.174 840.433L157.991 839.228L157.694 836.92C157.595 836.218 156.951 835.766 156.307 835.867L122.324 831L90.8675 844.848Z" fill="#0C0C20"/>
<path opacity="0.2" d="M125.731 825.398C125.782 825.647 125.58 825.847 125.328 825.897L117.269 826.992C117.017 827.042 116.816 826.843 116.766 826.594C116.715 826.345 116.917 826.146 117.169 826.096L125.228 825C125.479 825 125.731 825.149 125.731 825.398Z" fill="#0C0C20"/>
<path opacity="0.2" d="M127.095 825.811L127.73 829.793C127.783 830.309 127.412 830.777 126.83 830.871L117.618 831.996C117.035 832.042 116.506 831.714 116.4 831.199L115.765 827.217C115.712 826.701 116.082 826.233 116.665 826.139L125.877 825.014C126.459 824.921 126.989 825.296 127.095 825.811Z" fill="#0C0C20"/>
<path opacity="0.2" d="M127.137 825.901L127.73 830.328C127.779 830.901 127.433 831.422 126.889 831.526L123.577 831.995C123.033 832.047 122.538 831.683 122.439 831.11L121.747 825.641L126.049 825.016C126.543 824.912 127.038 825.328 127.137 825.901Z" fill="#0C0C20"/>
<path opacity="0.2" d="M168.775 839.553L169.705 846.747L171.662 861.537L172.641 868.73L167.6 870.793L158.888 872L157.762 863.498L155.804 848.709L154.679 840.207L163.391 839L168.775 839.553Z" fill="#0C0C20"/>
<path opacity="0.2" d="M126.237 892C143.598 892 157.672 877.897 157.672 860.5C157.672 843.103 143.598 829 126.237 829C108.876 829 94.8027 843.103 94.8027 860.5C94.8027 877.897 108.876 892 126.237 892Z" fill="#0C0C20"/>
<path opacity="0.2" d="M126.237 883C138.638 883 148.691 872.926 148.691 860.5C148.691 848.074 138.638 838 126.237 838C113.837 838 103.784 848.074 103.784 860.5C103.784 872.926 113.837 883 126.237 883Z" fill="#0C0C20"/>
<path opacity="0.2" d="M111.365 849L128.732 862.3L128.186 863L110.819 849.7L110.77 849.1L111.365 849Z" fill="#0C0C20"/>
<path opacity="0.2" d="M120.749 867.415L128.038 858L128.732 858.537L121.443 867.951L120.848 868L120.749 867.415Z" fill="#0C0C20"/>
<path opacity="0.2" d="M106.527 863.157L131.448 859.763L131.388 859.317L106.466 862.71L106.527 863.157Z" fill="#0C0C20"/>
<path opacity="0.2" d="M126.237 862C127.064 862 127.734 861.328 127.734 860.5C127.734 859.672 127.064 859 126.237 859C125.41 859 124.74 859.672 124.74 860.5C124.74 861.328 125.41 862 126.237 862Z" fill="#0C0C20"/>
<path opacity="0.2" d="M126.237 861C126.513 861 126.736 860.776 126.736 860.5C126.736 860.224 126.513 860 126.237 860C125.962 860 125.738 860.224 125.738 860.5C125.738 860.776 125.962 861 126.237 861Z" fill="#0C0C20"/>
<g opacity="0.2">
<g opacity="0.2">
<path opacity="0.2" d="M104.908 862.96L104.017 863.081L104.077 863.528L104.969 863.406L104.908 862.96Z" fill="#0C0C20"/>
</g>
<g opacity="0.2">
<path opacity="0.2" d="M105.557 851.696L105.387 852.113L106.22 852.454L106.39 852.037L105.557 851.696Z" fill="#0C0C20"/>
</g>
<g opacity="0.2">
<path opacity="0.2" d="M112.672 842.536L112.316 842.812L112.867 843.524L113.223 843.248L112.672 842.536Z" fill="#0C0C20"/>
</g>
<g opacity="0.2">
<path opacity="0.2" d="M123.334 838.26L122.888 838.32L123.009 839.213L123.455 839.153L123.334 838.26Z" fill="#0C0C20"/>
</g>
<g opacity="0.2">
<path opacity="0.2" d="M134.283 839.636L133.942 840.47L134.359 840.641L134.7 839.807L134.283 839.636Z" fill="#0C0C20"/>
</g>
<g opacity="0.2">
<path opacity="0.2" d="M143.507 846.467L142.796 847.018L143.071 847.374L143.783 846.823L143.507 846.467Z" fill="#0C0C20"/>
</g>
<g opacity="0.2">
<path opacity="0.2" d="M148.063 857.102L147.171 857.224L147.232 857.67L148.123 857.549L148.063 857.102Z" fill="#0C0C20"/>
</g>
<g opacity="0.2">
<path opacity="0.2" d="M145.866 868.203L145.695 868.62L146.528 868.961L146.699 868.544L145.866 868.203Z" fill="#0C0C20"/>
</g>
<g opacity="0.2">
<path opacity="0.2" d="M139.337 877.019L138.981 877.295L139.532 878.007L139.888 877.732L139.337 877.019Z" fill="#0C0C20"/>
</g>
<g opacity="0.2">
<path opacity="0.2" d="M129.185 881.46L128.739 881.521L128.861 882.413L129.307 882.353L129.185 881.46Z" fill="#0C0C20"/>
</g>
<g opacity="0.2">
<path opacity="0.2" d="M117.794 879.989L117.453 880.823L117.87 880.993L118.21 880.16L117.794 879.989Z" fill="#0C0C20"/>
</g>
<g opacity="0.2">
<path opacity="0.2" d="M109.102 873.13L108.391 873.681L108.666 874.038L109.378 873.486L109.102 873.13Z" fill="#0C0C20"/>
</g>
</g>
</g>
<path d="M93.8761 845.848C93.1731 845.948 92.7211 846.6 92.8215 847.253L93.173 849.811L102.112 848.607L103.267 857.087L105.275 871.837L106.43 880.317L97.4916 881.521L97.8432 884.08C97.9436 884.782 98.5964 885.234 99.2492 885.133L133.698 890L165.585 876.102C166.288 876.002 166.74 875.349 166.64 874.697L166.238 871.938L157.3 873.142L156.145 864.663L154.136 849.912L152.981 841.433L161.919 840.228L161.618 837.92C161.518 837.218 160.865 836.766 160.212 836.867L125.764 832L93.8761 845.848Z" fill="#9A9AA5"/>
<path d="M129.723 826.398C129.773 826.647 129.571 826.847 129.32 826.897L121.26 827.992C121.009 828.042 120.807 827.843 120.757 827.594C120.706 827.345 120.908 827.146 121.16 827.096L129.219 826C129.471 826 129.723 826.149 129.723 826.398Z" fill="#868693"/>
<path d="M130.141 826.811L130.724 830.793C130.772 831.309 130.432 831.777 129.899 831.871L121.454 832.996C120.92 833.042 120.435 832.714 120.338 832.199L119.756 828.217C119.707 827.701 120.047 827.233 120.581 827.139L129.025 826.014C129.559 825.921 130.044 826.296 130.141 826.811Z" fill="#9A9AA5"/>
<path d="M130.131 826.901L130.724 831.328C130.773 831.901 130.427 832.422 129.884 832.526L126.571 832.995C126.027 833.047 125.532 832.683 125.433 832.11L124.741 826.641L129.043 826.016C129.537 825.912 130.032 826.328 130.131 826.901Z" fill="#868693"/>
<path d="M82.8281 853.122L83.8097 860.146L85.8763 874.439L86.9095 881.415L92.5926 882L101.789 880.78L100.6 872.537L98.5339 858.244L97.3456 850L88.1495 851.171L82.8281 853.122Z" fill="#0C0C20"/>
<path d="M171.768 840.553L172.698 847.747L174.656 862.537L175.634 869.73L170.593 871.793L161.881 873L160.755 864.498L158.798 849.709L157.672 841.207L166.384 840L171.768 840.553Z" fill="#0C0C20"/>
<path d="M129.231 893C146.592 893 160.666 878.897 160.666 861.5C160.666 844.103 146.592 830 129.231 830C111.871 830 97.7969 844.103 97.7969 861.5C97.7969 878.897 111.871 893 129.231 893Z" fill="#B3B3BC"/>
<path d="M129.232 884C141.632 884 151.685 873.926 151.685 861.5C151.685 849.074 141.632 839 129.232 839C116.831 839 106.778 849.074 106.778 861.5C106.778 873.926 116.831 884 129.232 884Z" fill="white"/>
<path d="M114.392 850L132.724 863.3L132.148 864L113.816 850.7L113.764 850.1L114.392 850Z" fill="#3D393E"/>
<path d="M123.743 868.415L131.032 859L131.727 859.537L124.437 868.951L123.842 869L123.743 868.415Z" fill="#3D393E"/>
<path d="M110.026 864.158L134.947 860.764L134.887 860.318L109.966 863.712L110.026 864.158Z" fill="#66CED6"/>
<path d="M129.73 863C130.281 863 130.728 862.328 130.728 861.5C130.728 860.672 130.281 860 129.73 860C129.179 860 128.732 860.672 128.732 861.5C128.732 862.328 129.179 863 129.73 863Z" fill="#66CED6"/>
<path d="M129.231 862C129.507 862 129.73 861.776 129.73 861.5C129.73 861.224 129.507 861 129.231 861C128.956 861 128.732 861.224 128.732 861.5C128.732 861.776 128.956 862 129.231 862Z" fill="#3D393E"/>
<path d="M108.406 863.961L107.515 864.082L107.575 864.529L108.467 864.407L108.406 863.961Z" fill="white"/>
<path d="M109.055 852.697L108.885 853.114L109.718 853.455L109.888 853.038L109.055 852.697Z" fill="white"/>
<path d="M116.17 843.537L115.814 843.813L116.366 844.525L116.721 844.25L116.17 843.537Z" fill="white"/>
<path d="M126.832 839.261L126.386 839.322L126.507 840.215L126.953 840.154L126.832 839.261Z" fill="white"/>
<path d="M137.781 840.638L137.44 841.471L137.857 841.642L138.198 840.808L137.781 840.638Z" fill="white"/>
<path d="M147.006 847.467L146.294 848.019L146.569 848.375L147.281 847.824L147.006 847.467Z" fill="white"/>
<path d="M151.561 858.104L150.669 858.225L150.73 858.672L151.621 858.55L151.561 858.104Z" fill="white"/>
<path d="M149.365 869.204L149.194 869.621L150.027 869.963L150.198 869.546L149.365 869.204Z" fill="white"/>
<path d="M142.834 878.02L142.479 878.296L143.029 879.008L143.385 878.732L142.834 878.02Z" fill="white"/>
<path d="M132.683 882.461L132.237 882.522L132.359 883.414L132.805 883.354L132.683 882.461Z" fill="white"/>
<path d="M121.291 880.99L120.95 881.823L121.367 881.994L121.708 881.161L121.291 880.99Z" fill="white"/>
<path d="M112.599 874.131L111.888 874.682L112.163 875.039L112.875 874.487L112.599 874.131Z" fill="white"/>
<path opacity="0.1" d="M171.768 840.553L172.698 847.747L174.656 862.537L175.634 869.73L170.593 871.793L161.881 873L160.755 864.498L158.798 849.709L157.672 841.207L166.384 840L171.768 840.553Z" fill="white"/>
<path opacity="0.2" d="M125.413 830.295C142.424 827.927 158.1 840.072 160.375 857.407C161.611 866.63 158.842 875.398 153.402 882C105.78 841.533 153.254 882.353 105.78 841.332C110.577 835.486 117.451 831.404 125.413 830.295Z" fill="white"/>
<path opacity="0.1" d="M88.966 897.884C88.966 897.884 109.45 899.807 132.344 898.605C155.238 897.403 177.63 892.884 177.63 892.884L177.128 890C177.128 890 162.769 894.038 133.951 895.672C105.132 897.307 88.8154 894.471 88.8154 894.471L88.966 897.884Z" fill="#0C0C20"/>
<path d="M83.9756 1169.8C84.0255 1173.8 87.2687 1177 91.2104 1177H226.276C230.717 1177 234.16 1173 233.411 1168.6L187.109 893.24C186.859 891.689 185.362 890.688 183.816 891.088C177.379 892.639 160.165 896.291 134.22 897.842C108.624 899.393 91.5097 897.692 84.8737 896.792C83.2771 896.592 81.8301 897.842 81.8301 899.493L83.9756 1169.8Z" fill="white"/>
<path opacity="0.1" d="M81.9802 915L189.606 906.105L188.204 898C188.204 898 168.181 903.436 134.642 905.413C101.103 907.39 81.8301 903.98 81.8301 903.98L81.9802 915Z" fill="#0C0C20"/>
<path d="M82.1764 1206.14C82.2262 1210.5 85.7668 1214 90.1053 1214H237.563C242.45 1214 246.14 1209.65 245.392 1204.79L195.076 902.875C194.777 900.973 192.882 899.672 190.987 900.073C183.407 901.674 163.859 905.376 136.631 907.278C109.653 909.179 89.6066 907.628 81.6278 906.727C79.5833 906.527 77.8379 908.128 77.8379 910.18L82.1764 1206.14Z" fill="#0C0754"/>
<path opacity="0.1" d="M225.132 1214H237.519C242.433 1214 246.144 1209.65 245.392 1204.79L194.792 902.874C194.491 900.973 192.585 899.672 190.679 900.073C187.57 900.723 182.455 901.723 175.635 902.824C224.781 1214 225.132 1214 225.132 1214Z" fill="white"/>
<path opacity="0.2" d="M477.423 587.782L386.883 603.783C379.288 605.133 371.993 600.033 370.694 592.432L336.516 398.419C335.167 390.818 340.264 383.518 347.859 382.218L438.399 366.217C445.994 364.867 453.289 369.967 454.588 377.568L488.765 571.581C490.114 579.182 485.018 586.432 477.423 587.782Z" fill="#0C0C20"/>
<path d="M484.408 594.782L393.868 610.783C386.273 612.133 378.978 607.033 377.679 599.432L343.502 405.419C342.153 397.818 347.249 390.518 354.844 389.218L445.384 373.217C452.979 371.867 460.274 376.967 461.573 384.568L495.751 578.581C497.1 586.182 492.003 593.432 484.408 594.782Z" fill="#181845"/>
<path d="M444.745 378.183L429.544 380.89L430.392 385.804C430.691 387.458 429.594 389.013 427.95 389.314L377.862 398.188C376.217 398.489 374.672 397.386 374.373 395.732L373.526 390.818L358.325 393.525C352.345 394.578 348.357 400.294 349.454 406.311L382.846 596.893C383.892 602.909 389.574 606.921 395.554 605.817L481.925 590.475C487.905 589.422 491.892 583.706 490.796 577.689L457.404 387.107C456.407 381.091 450.726 377.079 444.745 378.183Z" fill="#DEDDEA"/>
<path d="M416.03 472.381C402.316 474.77 393.157 487.813 395.559 501.453L397.461 512.056C397.812 513.998 399.664 515.292 401.616 514.943C403.568 514.595 404.869 512.753 404.569 510.812L402.667 500.208C402.316 498.267 403.618 496.375 405.57 496.076C407.522 495.728 409.373 497.022 409.724 498.964L411.626 509.567C411.976 511.508 413.828 512.803 415.78 512.454C417.732 512.106 419.033 510.264 418.683 508.322L416.781 497.719C416.431 495.778 417.732 493.886 419.684 493.587C421.636 493.239 423.538 494.533 423.888 496.475L425.79 507.078C426.14 509.019 427.992 510.314 429.944 509.965C431.896 509.617 433.198 507.775 432.847 505.833L430.945 495.23C430.595 493.289 431.896 491.397 433.898 491.098C435.85 490.75 437.702 492.044 438.053 493.986L439.954 504.589C440.305 506.53 442.157 507.825 444.109 507.476C446.061 507.128 447.362 505.286 447.012 503.344L445.11 492.741C442.807 479.101 429.744 469.991 416.03 472.381Z" fill="#5841D8"/>
<g opacity="0.2">
<path opacity="0.2" d="M225.53 508.366L229.263 514.846C231.652 513.451 234.688 514.298 236.082 516.691C237.475 519.083 236.629 522.124 234.24 523.52L237.973 530L285.406 502.584L272.963 481L225.53 508.366Z" fill="#0C0C20"/>
<path opacity="0.2" d="M271.047 489.79L244.201 505.307L249.701 514.843L276.547 499.326L271.047 489.79Z" fill="#0C0C20"/>
<path opacity="0.2" d="M224.776 508.651L168.648 540.67L181.11 562L237.237 529.981C243.219 526.582 245.263 519.045 241.823 513.134C238.384 507.272 230.757 505.252 224.776 508.651Z" fill="#0C0C20"/>
<path opacity="0.2" d="M234 523.327C231.617 524.72 228.589 523.875 227.2 521.487C225.81 519.099 226.654 516.065 229.036 514.673C231.419 513.28 234.446 514.125 235.836 516.513C237.226 518.95 236.382 521.984 234 523.327Z" fill="#0C0C20"/>
</g>
<path d="M231.519 512.366L235.251 518.846C237.64 517.451 240.677 518.298 242.07 520.691C243.464 523.083 242.618 526.124 240.229 527.52L243.961 534L291.394 506.584L278.951 485L231.519 512.366Z" fill="#181845"/>
<path d="M277.046 494.295L250.2 509.811L255.7 519.348L282.546 503.831L277.046 494.295Z" fill="#2F2E7E"/>
<path d="M230.764 512.681L174.637 545.283L187.098 567L243.226 534.399C249.207 530.938 251.251 523.264 247.812 517.246C244.372 511.277 236.746 509.221 230.764 512.681ZM239.986 528.781C237.144 530.436 233.456 529.433 231.811 526.574C230.166 523.716 231.163 520.004 234.004 518.349C236.845 516.694 240.534 517.697 242.179 520.556C243.824 523.415 242.877 527.076 239.986 528.781Z" fill="#DEDDEA"/>
<path d="M234.511 518.797C231.665 520.448 230.666 524.15 232.314 527.002C233.961 529.853 237.656 530.854 240.502 529.203C243.347 527.552 244.346 523.85 242.698 520.998C241.051 518.147 237.406 517.146 234.511 518.797ZM240.002 528.303C237.606 529.703 234.56 528.853 233.163 526.451C231.765 524.05 232.613 520.998 235.01 519.597C237.406 518.197 240.452 519.047 241.85 521.449C243.247 523.9 242.399 526.952 240.002 528.303Z" fill="#181845"/>
<g opacity="0.2">
<path opacity="0.2" d="M261.444 608L269.099 610.617C270.171 610.998 270.681 612.092 270.324 613.044L267.721 619.753C267.313 620.752 266.139 621.228 265.119 620.895L257.464 618.278L261.444 608Z" fill="#0C0C20"/>
<path opacity="0.2" d="M261.265 613.521L265.964 615.233L266.648 613.351L261.949 611.639L261.265 613.521Z" fill="#0C0C20"/>
<path opacity="0.2" d="M262.118 611.161L268.695 613.557L269.379 611.676L262.802 609.279L262.118 611.161Z" fill="#0C0C20"/>
<path opacity="0.2" d="M260.405 615.87L265.104 617.582L265.788 615.7L261.089 613.989L260.405 615.87Z" fill="#0C0C20"/>
<path opacity="0.2" d="M259.538 618.208L266.116 620.605L266.8 618.723L260.222 616.327L259.538 618.208Z" fill="#0C0C20"/>
<path opacity="0.2" d="M225.869 610.392L255.142 620.871C256.196 621.266 257.351 620.722 257.702 619.684L262.322 607.129C262.723 606.091 262.171 604.954 261.117 604.608L231.844 594.129C230.789 593.734 229.635 594.278 229.283 595.316L224.664 607.871C224.262 608.859 224.814 609.996 225.869 610.392ZM235.71 601.84C237.166 602.335 237.869 603.916 237.367 605.3C236.865 606.734 235.258 607.426 233.852 606.932C232.396 606.437 231.693 604.856 232.195 603.472C232.697 602.038 234.254 601.297 235.71 601.84Z" fill="#0C0C20"/>
</g>
<path d="M265.436 612L273.091 614.617C274.163 614.998 274.673 616.092 274.316 617.044L271.713 623.753C271.305 624.752 270.131 625.228 269.111 624.895L261.456 622.278L265.436 612Z" fill="#2F2E7E"/>
<path d="M265.266 617.525L269.965 619.237L270.649 617.355L265.95 615.644L265.266 617.525Z" fill="#DEDDEA"/>
<path d="M266.118 615.165L272.696 617.561L273.38 615.68L266.802 613.283L266.118 615.165Z" fill="#DEDDEA"/>
<path d="M264.406 619.874L269.104 621.586L269.788 619.705L265.09 617.993L264.406 619.874Z" fill="#DEDDEA"/>
<path d="M263.539 622.213L270.117 624.609L270.801 622.728L264.223 620.331L263.539 622.213Z" fill="#DEDDEA"/>
<path d="M229.861 614.392L259.134 624.871C260.188 625.266 261.343 624.722 261.695 623.684L266.314 611.129C266.716 610.091 266.163 608.954 265.109 608.608L235.836 598.129C234.782 597.734 233.627 598.278 233.275 599.316L228.656 611.871C228.254 612.859 228.806 613.996 229.861 614.392ZM239.702 605.84C241.158 606.335 241.861 607.916 241.359 609.3C240.857 610.734 239.25 611.426 237.844 610.932C236.388 610.437 235.685 608.856 236.187 607.472C236.69 606.038 238.246 605.297 239.702 605.84Z" fill="#181845"/>
<g opacity="0.2">
<path opacity="0.2" d="M777.381 846.448L281.302 937.897C278.102 938.499 275.003 936.393 274.353 933.185L235.608 741.661C235.009 738.402 237.208 735.244 240.458 734.692L742.136 646L777.381 846.448Z" fill="#0C0C20"/>
<g opacity="0.2">
<path opacity="0.2" d="M310.866 776.601L286.306 780.951C284.659 781.251 283.112 780.151 282.812 778.501L278.469 753.9C278.17 752.25 279.268 750.699 280.915 750.399L305.475 746.049C307.122 745.749 308.669 746.849 308.969 748.499L313.312 773.1C313.561 774.75 312.463 776.301 310.866 776.601Z" fill="#0C0C20"/>
<path opacity="0.2" d="M736.974 664.938L245.247 751.951C243.597 752.251 242.048 751.148 241.748 749.493L240.548 742.572C240.248 740.917 241.348 739.363 242.997 739.062L734.725 652.049C736.374 651.749 737.923 652.852 738.223 654.507L739.423 661.428C739.673 663.083 738.623 664.637 736.974 664.938Z" fill="#0C0C20"/>
<path opacity="0.2" d="M379.721 764.601L355.162 768.951C353.515 769.251 351.968 768.151 351.668 766.501L347.326 741.9C347.026 740.25 348.124 738.699 349.771 738.399L374.33 734.049C375.977 733.749 377.525 734.849 377.824 736.499L382.167 761.1C382.417 762.8 381.368 764.351 379.721 764.601Z" fill="#0C0C20"/>
<path opacity="0.2" d="M345.794 770.6L321.234 774.951C319.587 775.251 318.039 774.151 317.74 772.501L313.397 747.9C313.097 746.25 314.196 744.699 315.843 744.399L340.402 740.049C342.05 739.749 343.597 740.849 343.897 742.499L348.239 767.1C348.489 768.75 347.391 770.3 345.794 770.6Z" fill="#0C0C20"/>
<path opacity="0.2" d="M448.579 752.6L424.019 756.951C422.372 757.251 420.824 756.151 420.525 754.501L416.182 729.9C415.883 728.25 416.981 726.699 418.628 726.399L443.188 722.049C444.835 721.749 446.382 722.849 446.682 724.499L451.025 749.1C451.274 750.75 450.176 752.35 448.579 752.6Z" fill="#0C0C20"/>
<path opacity="0.2" d="M414.65 758.601L390.09 762.951C388.443 763.251 386.896 762.151 386.596 760.501L382.253 735.9C381.954 734.25 383.052 732.699 384.699 732.399L409.259 728.049C410.906 727.749 412.454 728.849 412.753 730.499L417.096 755.1C417.346 756.75 416.247 758.351 414.65 758.601Z" fill="#0C0C20"/>
<path opacity="0.2" d="M483.494 746.6L458.944 750.951C457.297 751.251 455.75 750.151 455.451 748.501L451.11 723.9C450.81 722.25 451.908 720.699 453.555 720.399L478.105 716.049C479.751 715.749 481.298 716.849 481.598 718.499L485.939 743.1C486.238 744.75 485.14 746.3 483.494 746.6Z" fill="#0C0C20"/>
<path opacity="0.2" d="M370.728 802.601L346.178 806.951C344.531 807.251 342.985 806.151 342.685 804.501L338.344 779.9C338.045 778.25 339.142 776.699 340.789 776.399L365.339 772.049C366.986 771.749 368.532 772.849 368.832 774.499L373.173 799.1C373.472 800.75 372.375 802.301 370.728 802.601Z" fill="#0C0C20"/>
<path opacity="0.2" d="M335.814 809.6L311.254 813.951C309.607 814.251 308.06 813.151 307.76 811.501L303.417 786.9C303.118 785.25 304.216 783.7 305.863 783.4L330.423 779.049C332.07 778.749 333.618 779.849 333.917 781.499L338.26 806.1C338.51 807.75 337.411 809.3 335.814 809.6Z" fill="#0C0C20"/>
<path opacity="0.2" d="M439.597 790.6L415.038 794.951C413.39 795.251 411.843 794.151 411.543 792.501L407.201 767.9C406.901 766.25 407.999 764.7 409.647 764.4L434.206 760.049C435.853 759.749 437.401 760.849 437.7 762.499L442.043 787.1C442.293 788.75 441.195 790.35 439.597 790.6Z" fill="#0C0C20"/>
<path opacity="0.2" d="M403.676 797.026L381.097 800.952C379.452 801.246 377.907 800.167 377.608 798.548L373.272 774.408C372.973 772.789 374.069 771.268 375.714 770.974L398.293 767.048C399.938 766.754 401.483 767.833 401.782 769.453L406.119 793.592C406.368 795.26 405.271 796.781 403.676 797.026Z" fill="#0C0C20"/>
<path opacity="0.2" d="M508.442 778.601L483.892 782.951C482.245 783.251 480.699 782.151 480.399 780.501L476.058 755.9C475.759 754.25 476.856 752.7 478.503 752.4L503.053 748.049C504.699 747.749 506.246 748.849 506.546 750.499L510.887 775.1C511.186 776.75 510.088 778.301 508.442 778.601Z" fill="#0C0C20"/>
<path opacity="0.2" d="M473.526 784.601L448.967 788.951C447.32 789.251 445.773 788.151 445.473 786.501L441.13 761.9C440.831 760.25 441.929 758.699 443.576 758.399L468.135 754.049C469.782 753.749 471.329 754.849 471.629 756.499L475.972 781.1C476.221 782.75 475.173 784.351 473.526 784.601Z" fill="#0C0C20"/>
<path opacity="0.2" d="M388.691 836.6L364.141 840.951C362.494 841.251 360.948 840.151 360.648 838.501L356.307 813.9C356.008 812.25 357.105 810.699 358.752 810.399L383.302 806.049C384.948 805.749 386.495 806.849 386.795 808.499L391.136 833.1C391.435 834.75 390.337 836.3 388.691 836.6Z" fill="#0C0C20"/>
<path opacity="0.2" d="M354.774 842.6L330.214 846.951C328.567 847.251 327.02 846.151 326.72 844.501L322.377 819.9C322.078 818.25 323.176 816.699 324.823 816.399L349.383 812.049C351.03 811.749 352.578 812.849 352.877 814.499L357.22 839.1C357.47 840.75 356.371 842.3 354.774 842.6Z" fill="#0C0C20"/>
<path opacity="0.2" d="M458.487 824.6L433.226 828.951C431.532 829.251 429.94 828.151 429.632 826.501L425.165 801.9C424.857 800.25 425.986 798.7 427.681 798.4L452.942 794.049C454.636 793.749 456.228 794.849 456.536 796.499L461.003 821.1C461.26 822.75 460.13 824.3 458.487 824.6Z" fill="#0C0C20"/>
<path opacity="0.2" d="M423.619 830.601L399.069 834.951C397.422 835.251 395.875 834.151 395.576 832.501L391.235 807.9C390.935 806.25 392.033 804.7 393.68 804.4L418.23 800.049C419.876 799.749 421.423 800.849 421.722 802.499L426.064 827.1C426.363 828.75 425.265 830.301 423.619 830.601Z" fill="#0C0C20"/>
<path opacity="0.2" d="M492.475 818.6L467.925 822.951C466.279 823.251 464.732 822.151 464.432 820.501L460.091 795.9C459.792 794.25 460.89 792.699 462.536 792.399L487.086 788.049C488.733 787.749 490.28 788.849 490.579 790.499L494.92 815.1C495.219 816.8 494.122 818.35 492.475 818.6Z" fill="#0C0C20"/>
<path opacity="0.2" d="M408.578 869.601L383.327 873.951C381.634 874.251 380.043 873.151 379.735 871.501L375.269 846.9C374.961 845.25 376.091 843.699 377.784 843.399L403.035 839.049C404.729 838.749 406.32 839.849 406.628 841.499L411.093 866.1C411.401 867.75 410.272 869.301 408.578 869.601Z" fill="#0C0C20"/>
<path opacity="0.2" d="M373.734 875.601L349.175 879.951C347.528 880.251 345.981 879.151 345.681 877.501L341.338 852.9C341.039 851.25 342.137 849.7 343.784 849.4L368.343 845.049C369.99 844.749 371.538 845.849 371.837 847.499L376.18 872.1C376.429 873.75 375.381 875.301 373.734 875.601Z" fill="#0C0C20"/>
<path opacity="0.2" d="M477.506 857.6L452.956 861.951C451.31 862.251 449.763 861.151 449.464 859.501L445.122 834.9C444.823 833.25 445.921 831.7 447.567 831.4L472.117 827.049C473.764 826.749 475.311 827.849 475.61 829.499L479.951 854.1C480.251 855.75 479.153 857.3 477.506 857.6Z" fill="#0C0C20"/>
<path opacity="0.2" d="M442.591 863.601L418.032 867.951C416.385 868.251 414.837 867.151 414.538 865.501L410.195 840.9C409.895 839.25 410.993 837.7 412.641 837.4L437.2 833.049C438.848 832.749 440.395 833.849 440.694 835.499L445.037 860.1C445.287 861.8 444.189 863.351 442.591 863.601Z" fill="#0C0C20"/>
<path opacity="0.2" d="M335.814 918.601L311.255 922.951C309.607 923.251 308.06 922.151 307.76 920.501L303.417 895.9C303.118 894.25 304.216 892.7 305.863 892.4L330.423 888.049C332.07 887.749 333.618 888.849 333.917 890.499L338.26 915.1C338.51 916.8 337.411 918.351 335.814 918.601Z" fill="#0C0C20"/>
<path opacity="0.2" d="M369.742 912.6L345.183 916.951C343.536 917.251 341.988 916.151 341.689 914.501L337.346 889.9C337.047 888.25 338.145 886.699 339.792 886.399L364.351 882.049C365.998 881.749 367.545 882.849 367.845 884.499L372.188 909.1C372.437 910.75 371.389 912.3 369.742 912.6Z" fill="#0C0C20"/>
<path opacity="0.2" d="M414.628 904.809L380.134 910.95C378.482 911.252 376.93 910.145 376.63 908.484L372.274 883.715C371.974 882.054 373.075 880.493 374.727 880.191L409.222 874.05C410.874 873.748 412.426 874.855 412.726 876.516L417.082 901.285C417.382 902.946 416.281 904.506 414.628 904.809Z" fill="#0C0C20"/>
<path opacity="0.2" d="M586.29 874.445L424.021 902.951C422.373 903.249 420.825 902.155 420.526 900.513L416.182 876.037C415.882 874.395 416.981 872.853 418.629 872.555L580.898 844.049C582.545 843.751 584.093 844.845 584.393 846.487L588.737 870.963C588.986 872.605 587.938 874.147 586.29 874.445Z" fill="#0C0C20"/>
<path opacity="0.2" d="M511.448 851.601L486.888 855.951C485.241 856.251 483.694 855.151 483.394 853.501L479.051 828.9C478.752 827.25 479.85 825.699 481.497 825.399L506.057 821.049C507.704 820.749 509.251 821.849 509.551 823.499L513.894 848.1C514.143 849.75 513.045 851.351 511.448 851.601Z" fill="#0C0C20"/>
</g>
</g>
<path d="M781.415 856.313L285.679 943.901C282.429 944.502 279.28 942.299 278.73 939.043L245.588 750.647C244.988 747.392 247.188 744.237 250.437 743.687L746.173 656.099C749.422 655.498 752.571 657.701 753.121 660.956L786.264 849.353C786.864 852.608 784.664 855.712 781.415 856.313Z" fill="#DEDDEA"/>
<path d="M320.845 785.601L296.286 789.951C294.638 790.251 293.091 789.151 292.792 787.501L288.449 762.9C288.149 761.25 289.247 759.699 290.895 759.399L315.454 755.049C317.101 754.749 318.649 755.849 318.948 757.499L323.291 782.1C323.541 783.75 322.443 785.301 320.845 785.601Z" fill="#0C0C20"/>
<path d="M285.906 792.6L261.356 796.951C259.709 797.251 258.162 796.151 257.863 794.501L253.522 769.9C253.222 768.25 254.32 766.7 255.967 766.4L280.517 762.049C282.163 761.749 283.71 762.849 284.01 764.499L288.351 789.1C288.65 790.75 287.552 792.3 285.906 792.6Z" fill="#0C0C20"/>
<path d="M746.953 673.938L255.226 760.951C253.577 761.251 252.027 760.148 251.727 758.493L250.528 751.572C250.228 749.917 251.328 748.363 252.977 748.062L744.704 661.049C746.353 660.749 747.903 661.852 748.203 663.507L749.402 670.428C749.652 672.083 748.603 673.637 746.953 673.938Z" fill="#0C0C20"/>
<path d="M389.701 773.601L365.142 777.951C363.495 778.251 361.947 777.151 361.648 775.501L357.305 750.9C357.006 749.25 358.104 747.699 359.751 747.399L384.31 743.049C385.957 742.749 387.504 743.849 387.804 745.499L392.146 770.1C392.396 771.8 391.348 773.351 389.701 773.601Z" fill="#0C0C20"/>
<path d="M355.773 779.6L331.213 783.951C329.566 784.251 328.019 783.151 327.719 781.501L323.376 756.9C323.077 755.25 324.175 753.699 325.822 753.399L350.382 749.049C352.029 748.749 353.577 749.849 353.876 751.499L358.219 776.1C358.469 777.75 357.37 779.3 355.773 779.6Z" fill="#0C0C20"/>
<path d="M458.558 761.6L433.999 765.951C432.351 766.251 430.804 765.151 430.504 763.501L426.162 738.9C425.862 737.25 426.96 735.699 428.607 735.399L453.167 731.049C454.814 730.749 456.362 731.849 456.661 733.499L461.004 758.1C461.254 759.75 460.156 761.35 458.558 761.6Z" fill="#0C0C20"/>
<path d="M424.63 767.601L400.07 771.951C398.423 772.251 396.875 771.151 396.576 769.501L392.233 744.9C391.933 743.25 393.032 741.699 394.679 741.399L419.238 737.049C420.886 736.749 422.433 737.849 422.733 739.499L427.075 764.1C427.325 765.75 426.227 767.351 424.63 767.601Z" fill="#0C0C20"/>
<path d="M493.473 755.6L468.923 759.951C467.277 760.251 465.73 759.151 465.43 757.501L461.089 732.9C460.79 731.25 461.888 729.699 463.534 729.399L488.084 725.049C489.731 724.749 491.278 725.849 491.577 727.499L495.918 752.1C496.217 753.75 495.12 755.3 493.473 755.6Z" fill="#0C0C20"/>
<path d="M380.707 811.601L356.158 815.951C354.511 816.251 352.964 815.151 352.665 813.501L348.324 788.9C348.024 787.25 349.122 785.699 350.769 785.399L375.318 781.049C376.965 780.749 378.512 781.849 378.811 783.499L383.152 808.1C383.452 809.75 382.354 811.301 380.707 811.601Z" fill="#0C0C20"/>
<path d="M345.794 818.6L321.234 822.951C319.587 823.251 318.039 822.151 317.74 820.501L313.397 795.9C313.097 794.25 314.196 792.7 315.843 792.4L340.402 788.049C342.05 787.749 343.597 788.849 343.897 790.499L348.239 815.1C348.489 816.75 347.391 818.3 345.794 818.6Z" fill="#0C0C20"/>
<path d="M449.577 799.6L425.017 803.951C423.37 804.251 421.822 803.151 421.523 801.501L417.18 776.9C416.881 775.25 417.979 773.7 419.626 773.4L444.186 769.049C445.833 768.749 447.38 769.849 447.68 771.499L452.023 796.1C452.272 797.75 451.174 799.35 449.577 799.6Z" fill="#0C0C20"/>
<path d="M413.656 806.026L391.077 809.952C389.432 810.246 387.887 809.167 387.588 807.548L383.251 783.408C382.952 781.789 384.049 780.268 385.694 779.974L408.273 776.048C409.918 775.754 411.463 776.833 411.762 778.453L416.098 802.592C416.347 804.26 415.251 805.781 413.656 806.026Z" fill="#0C0C20"/>
<path d="M483.505 793.601L458.947 797.951C457.299 798.251 455.752 797.151 455.453 795.501L451.11 770.9C450.81 769.25 451.908 767.699 453.556 767.399L478.114 763.049C479.762 762.749 481.309 763.849 481.609 765.499L485.951 790.1C486.201 791.75 485.153 793.351 483.505 793.601Z" fill="#0C0C20"/>
<path d="M311.85 824.038L267.388 831.95C265.732 832.254 264.176 831.138 263.875 829.465L259.509 804.512C259.208 802.838 260.312 801.266 261.968 800.962L306.43 793.05C308.086 792.746 309.642 793.862 309.943 795.535L314.309 820.488C314.56 822.212 313.506 823.785 311.85 824.038Z" fill="#0C0C20"/>
<path d="M398.67 845.6L374.12 849.951C372.474 850.251 370.927 849.151 370.628 847.501L366.287 822.9C365.987 821.25 367.085 819.699 368.732 819.399L393.281 815.049C394.928 814.749 396.475 815.849 396.774 817.499L401.115 842.1C401.415 843.75 400.317 845.3 398.67 845.6Z" fill="#0C0C20"/>
<path d="M364.754 851.6L340.194 855.951C338.547 856.251 336.999 855.151 336.7 853.501L332.357 828.9C332.057 827.25 333.156 825.699 334.803 825.399L359.362 821.049C361.01 820.749 362.557 821.849 362.857 823.499L367.199 848.1C367.449 849.75 366.351 851.3 364.754 851.6Z" fill="#0C0C20"/>
<path d="M468.467 833.6L443.205 837.951C441.511 838.251 439.919 837.151 439.611 835.501L435.144 810.9C434.836 809.25 435.966 807.7 437.66 807.4L462.922 803.049C464.616 802.749 466.208 803.849 466.516 805.499L470.983 830.1C471.239 831.75 470.11 833.3 468.467 833.6Z" fill="#0C0C20"/>
<path d="M433.598 839.601L409.048 843.951C407.402 844.251 405.855 843.151 405.555 841.501L401.214 816.9C400.915 815.25 402.013 813.7 403.659 813.4L428.209 809.049C429.856 808.749 431.403 809.849 431.702 811.499L436.043 836.1C436.342 837.75 435.245 839.301 433.598 839.601Z" fill="#0C0C20"/>
<path d="M502.454 827.6L477.905 831.951C476.258 832.251 474.711 831.151 474.412 829.501L470.071 804.9C469.771 803.25 470.869 801.699 472.516 801.399L497.066 797.049C498.712 796.749 500.259 797.849 500.558 799.499L504.899 824.1C505.199 825.8 504.101 827.35 502.454 827.6Z" fill="#0C0C20"/>
<path d="M418.558 878.601L393.307 882.951C391.613 883.251 390.022 882.151 389.714 880.501L385.249 855.9C384.941 854.25 386.07 852.699 387.764 852.399L413.015 848.049C414.709 847.749 416.3 848.849 416.608 850.499L421.073 875.1C421.381 876.75 420.252 878.301 418.558 878.601Z" fill="#0C0C20"/>
<path d="M383.713 884.601L359.155 888.951C357.507 889.251 355.96 888.151 355.661 886.501L351.318 861.9C351.018 860.25 352.116 858.7 353.764 858.4L378.322 854.049C379.97 853.749 381.517 854.849 381.816 856.499L386.159 881.1C386.409 882.75 385.36 884.301 383.713 884.601Z" fill="#0C0C20"/>
<path d="M487.486 866.6L462.936 870.951C461.289 871.251 459.742 870.151 459.443 868.501L455.102 843.9C454.803 842.25 455.9 840.7 457.547 840.4L482.097 836.049C483.743 835.749 485.29 836.849 485.59 838.499L489.931 863.1C490.23 864.75 489.132 866.3 487.486 866.6Z" fill="#0C0C20"/>
<path d="M452.571 872.601L428.011 876.951C426.364 877.251 424.817 876.151 424.517 874.501L420.174 849.9C419.875 848.25 420.973 846.7 422.62 846.4L447.18 842.049C448.827 841.749 450.374 842.849 450.674 844.499L455.017 869.1C455.266 870.8 454.168 872.351 452.571 872.601Z" fill="#0C0C20"/>
<path d="M345.794 927.601L321.234 931.951C319.587 932.251 318.039 931.151 317.74 929.501L313.397 904.9C313.097 903.25 314.196 901.7 315.843 901.4L340.402 897.049C342.05 896.749 343.597 897.849 343.897 899.499L348.239 924.1C348.489 925.8 347.391 927.351 345.794 927.601Z" fill="#0C0C20"/>
<path d="M310.853 933.601L286.303 937.951C284.657 938.251 283.11 937.151 282.81 935.501L278.469 910.9C278.17 909.25 279.268 907.699 280.914 907.399L305.464 903.049C307.111 902.749 308.657 903.849 308.957 905.499L313.298 930.1C313.597 931.75 312.5 933.301 310.853 933.601Z" fill="#0C0C20"/>
<path d="M379.721 921.6L355.162 925.951C353.515 926.251 351.968 925.151 351.668 923.501L347.326 898.9C347.026 897.25 348.124 895.699 349.771 895.399L374.33 891.049C375.977 890.749 377.525 891.849 377.824 893.499L382.167 918.1C382.417 919.75 381.368 921.3 379.721 921.6Z" fill="#0C0C20"/>
<path d="M424.608 913.976L390.114 919.952C388.461 920.246 386.909 919.168 386.609 917.552L382.253 893.453C381.953 891.836 383.055 890.318 384.707 890.024L419.201 884.048C420.853 883.754 422.405 884.832 422.706 886.448L427.061 910.547C427.362 912.164 426.26 913.682 424.608 913.976Z" fill="#0C0C20"/>
<path d="M597.253 883.445L434.046 911.951C432.389 912.249 430.832 911.155 430.531 909.513L426.162 885.037C425.861 883.395 426.965 881.853 428.623 881.555L591.83 853.049C593.487 852.751 595.043 853.845 595.345 855.487L599.714 879.963C599.965 881.605 598.91 883.147 597.253 883.445Z" fill="#0C0C20"/>
<path d="M348.767 890.851L280.382 902.95C278.722 903.253 277.162 902.144 276.86 900.48L272.482 875.677C272.18 874.014 273.287 872.451 274.948 872.149L343.333 860.05C344.993 859.747 346.553 860.856 346.855 862.52L351.233 887.323C351.484 888.986 350.377 890.549 348.767 890.851Z" fill="#0C0C20"/>
<path d="M329.835 857.185L274.263 866.951C272.63 867.247 271.096 866.162 270.799 864.534L266.494 840.267C266.197 838.64 267.286 837.111 268.919 836.815L324.49 827.049C326.123 826.753 327.657 827.838 327.954 829.466L332.259 853.733C332.556 855.36 331.468 856.889 329.835 857.185Z" fill="#0C0C20"/>
<g opacity="0.2">
<path opacity="0.2" d="M289.601 195.261L86.8824 231.017C78.3796 232.517 72.3776 240.118 72.8777 248.719L75.8287 299.977C76.4289 310.129 85.7321 317.53 95.7354 315.729L310.257 277.924C320.261 276.173 326.513 266.022 323.612 256.27L308.857 207.063C306.356 198.862 298.103 193.761 289.601 195.261Z" fill="#0C0C20"/>
<path opacity="0.2" d="M-239.862 302.127L-392.265 76.8122C-396.763 70.2015 -392.915 61.1869 -385.07 59.7846L693.595 -130.824C701.44 -132.226 708.136 -125.015 706.187 -117.302L639.829 146.675C638.78 150.882 635.332 154.087 631.085 154.839L-228.869 306.835C-233.117 307.586 -237.464 305.733 -239.862 302.127Z" fill="#0C0C20"/>
</g>
<path opacity="0.2" d="M-265.839 298.241L-419.648 71.2229C-427.799 59.2087 -420.848 42.7894 -406.547 40.2864L675.068 -150.689C689.369 -153.192 701.47 -140.177 697.92 -126.06L630.966 139.904C629.016 147.563 622.815 153.37 615.065 154.722L-245.837 306.701C-253.588 308.053 -261.438 304.749 -265.839 298.241Z" fill="#0C0C20"/>
<path d="M296.586 200.261L93.8678 236.017C85.3649 237.517 79.3629 245.118 79.8631 253.719L82.8141 304.977C83.4143 315.129 92.7174 322.53 102.721 320.729L317.243 282.924C327.246 281.173 333.498 271.022 330.597 261.27L315.842 212.063C313.342 203.862 305.089 198.761 296.586 200.261Z" fill="#C4C5E3"/>
<path d="M-241.889 308.191L-395.698 81.173C-403.848 69.1588 -396.898 52.7394 -382.597 50.2364L699.019 -140.689C713.319 -143.192 725.42 -130.177 721.87 -116.06L654.916 149.904C652.966 157.563 646.765 163.37 639.015 164.722L-221.887 316.701C-229.638 318.053 -237.488 314.749 -241.889 308.191Z" fill="#C4C5E3"/>
<path d="M-240.89 313.241L-394.7 86.2229C-402.85 74.2088 -395.9 57.7894 -381.599 55.2864L700.017 -135.689C714.318 -138.192 726.418 -125.177 722.868 -111.06L655.914 154.904C653.964 162.563 647.763 168.37 640.013 169.722L-220.889 321.701C-228.64 323.053 -236.49 319.749 -240.89 313.241Z" fill="#0C0C20"/>
<path d="M-232.877 307.127L-385.28 81.8122C-389.777 75.2015 -385.93 66.1869 -378.085 64.7846L700.58 -125.824C708.426 -127.226 715.121 -120.015 713.172 -112.302L646.815 151.675C645.765 155.882 642.317 159.087 638.07 159.839L-221.884 311.835C-226.131 312.586 -230.478 310.733 -232.877 307.127Z" fill="#DEDDEA"/>
<path opacity="0.2" d="M484.459 594.899L461.326 599L406.154 380.219L445.605 373.217C453.167 371.866 460.43 376.968 461.724 384.571L495.752 578.643C497.095 586.295 492.02 593.548 484.459 594.899Z" fill="white"/>
<path d="M-95.7998 279L-62.7801 259.971L-14.2512 253.962L-3.24464 243.947L0.757748 235.935H18.2682H27.2736L43.7834 225.42L67.7977 205.389L75.3022 200.883H96.3147L133.737 207.092L181.866 212.901L191.371 208.394L204.879 196.877L228.393 183.356L261.913 163.827L285.427 128.774L310.943 112.25L322.449 91.7188L335.958 85.209L344.463 73.191L352.968 42.6451L374.48 0.58196L385.487 -20.9504L420.508 -27.9609L432.515 -30.9654L450.026 -28.4617L455.529 -41.982L464.034 -54" stroke="#21C6F9" stroke-width="10" stroke-miterlimit="10"/>
<path opacity="0.2" d="M247.484 -55.7366L700.048 -135.689C714.329 -138.191 726.414 -125.182 722.868 -111.073L656.005 154.752C654.058 162.407 647.866 168.211 640.126 169.562L314.897 227L247.484 -55.7366Z" fill="white"/>
</g>
</svg>
