<svg xmlns="http://www.w3.org/2000/svg" width="16.661" height="30.023" viewBox="0 0 16.661 30.023">
  <g id="Group_4410" data-name="Group 4410" transform="translate(-490.111 -1307.745)">
    <path id="Path_4809" data-name="Path 4809" d="M105.793,501.271l5.12-14.07h-3.572l-3.565,9.8-3.566-9.8H96.637l5.121,14.07" transform="translate(394.666 821.044)" fill="none" stroke="#34c25e" stroke-linecap="round" stroke-linejoin="round" stroke-width="1"/>
    <path id="Path_4810" data-name="Path 4810" d="M110.716,517.549a10.815,10.815,0,0,0,.47-1.844c-.057-.471-.729-1.233-.9-1.679a10.844,10.844,0,0,0-.441-1.851c-.27-.392-1.219-.754-1.575-1.069s-.829-1.212-1.251-1.434a10.851,10.851,0,0,0-1.89-.215c-.462-.115-1.3-.689-1.774-.689s-1.307.6-1.774.689a8.639,8.639,0,0,0-1.89.215c-.422.222-.915,1.1-1.251,1.434s-1.3.677-1.575,1.069a10.961,10.961,0,0,0-.441,1.851c-.169.446-.84,1.207-.9,1.679A10.814,10.814,0,0,0,96,517.549a10.969,10.969,0,0,0-.015,1.9c.169.444,1,1.022,1.273,1.414s.515,1.376.872,1.692,1.363.44,1.784.661,1.1.98,1.558,1.093a10.908,10.908,0,0,0,1.887-.244,10.892,10.892,0,0,0,1.887.244c.461-.114,1.136-.872,1.557-1.093s1.428-.345,1.785-.661.6-1.3.871-1.692,1.1-.97,1.272-1.414A10.787,10.787,0,0,0,110.716,517.549Z" transform="translate(395.084 812.941)" fill="none" stroke="#34c25e" stroke-miterlimit="10" stroke-width="1"/>
    <path id="Path_4811" data-name="Path 4811" d="M109.777,518.657a4.286,4.286,0,1,1-4.286-4.286A4.286,4.286,0,0,1,109.777,518.657Z" transform="translate(392.949 810.837)" fill="none" stroke="#34c25e" stroke-linecap="round" stroke-linejoin="round" stroke-width="1"/>
  </g>
</svg>
