<svg xmlns="http://www.w3.org/2000/svg" width="30.03" height="30.031" viewBox="0 0 30.03 30.031">
  <g id="Group_4408" data-name="Group 4408" transform="translate(-327.827 -1305.745)">
    <path id="Path_4801" data-name="Path 4801" d="M112.877,410.1l2.914,9.895,2.622-6.451,5.979,1.027-6.358-8.543" transform="translate(232.965 915.283)" fill="none" stroke="#34c25e" stroke-linejoin="round" stroke-width="1"/>
    <path id="Path_4802" data-name="Path 4802" d="M91.941,406.108l-7.12,6.347,6.475.207,1.38,6.273,4.465-8.636" transform="translate(243.506 915.252)" fill="none" stroke="#34c25e" stroke-linejoin="round" stroke-width="1"/>
    <path id="Path_4803" data-name="Path 4803" d="M112.108,392.673c.072-.58.661-1.684.589-2.263s-.913-1.514-1.124-2.06-.214-1.791-.553-2.272-1.527-.925-1.973-1.311-1.038-1.489-1.567-1.761a13.821,13.821,0,0,0-2.369-.263c-.579-.141-1.626-.845-2.223-.845s-1.637.739-2.222.845a11.108,11.108,0,0,0-2.369.263c-.528.272-1.145,1.348-1.566,1.761s-1.634.831-1.973,1.311-.34,1.726-.552,2.272-1.052,1.481-1.125,2.06.518,1.683.589,2.263a13.06,13.06,0,0,0-.019,2.336c.211.546,1.256,1.256,1.594,1.736s.646,1.689,1.092,2.076,1.709.539,2.236.811,1.373,1.2,1.952,1.342a14.015,14.015,0,0,0,2.364-.3,13.969,13.969,0,0,0,2.364.3c.579-.14,1.423-1.071,1.952-1.342s1.791-.424,2.236-.811.754-1.6,1.092-2.076,1.382-1.191,1.594-1.736A13.118,13.118,0,0,0,112.108,392.673Z" transform="translate(240.404 924.348)" fill="none" stroke="#34c25e" stroke-miterlimit="10" stroke-width="1"/>
    <path id="Path_4804" data-name="Path 4804" d="M111.122,393.752a5.846,5.846,0,1,1-5.846-5.725A5.787,5.787,0,0,1,111.122,393.752Z" transform="translate(238.016 922.045)" fill="none" stroke="#34c25e" stroke-miterlimit="10" stroke-width="1"/>
  </g>
</svg>
