<svg xmlns="http://www.w3.org/2000/svg" width="30.931" height="30.031" viewBox="0 0 30.931 30.031">
  <g id="Group_4400" data-name="Group 4400" transform="translate(-327.986 -1224.667)">
    <path id="Path_4768" data-name="Path 4768" d="M847.305,418.835a3.952,3.952,0,0,0-1.525-6.8,3.957,3.957,0,0,0-3.406-5.079,3.453,3.453,0,0,0,.028-.411,3.31,3.31,0,0,0-3.924-3.262,81.844,81.844,0,0,1-6.254-2.037,2.837,2.837,0,0,0-2.715,2.037,3.31,3.31,0,0,0-3.924,3.262,3.453,3.453,0,0,0,.028.411,3.957,3.957,0,0,0-3.406,5.079,3.952,3.952,0,0,0-1.525,6.8,4.536,4.536,0,0,0,2.882,8.039,4.767,4.767,0,0,0,.511-.031,5.8,5.8,0,0,0,9.918,1.15,5.8,5.8,0,0,0,9.918-1.15,4.767,4.767,0,0,0,.511.031,4.536,4.536,0,0,0,2.882-8.039Z" transform="translate(-490.543 823.917)" fill="none" stroke="#34c25e" stroke-linecap="round" stroke-linejoin="round" stroke-width="1"/>
    <g id="Group_3694" data-name="Group 3694" transform="translate(332.672 1227.827)">
      <g id="Group_3692" data-name="Group 3692">
        <path id="Path_4769" data-name="Path 4769" d="M839.3,405.511c1.131,1.283-1.132,5.641-2.381,4.388" transform="translate(-829.934 -405.511)" fill="none" stroke="#34c25e" stroke-linecap="round" stroke-linejoin="round" stroke-width="1"/>
        <path id="Path_4770" data-name="Path 4770" d="M828.021,423.479c-1.072-.533-.077-2.4.612-2.866a4.57,4.57,0,0,1,3.265-.185" transform="translate(-826.416 -411.032)" fill="none" stroke="#34c25e" stroke-linecap="round" stroke-linejoin="round" stroke-width="1"/>
        <path id="Path_4771" data-name="Path 4771" d="M826.269,437.605c1.128-.361,2.96-.743,3.943.164.728.673.595,1.778.594,2.722" transform="translate(-825.935 -417.419)" fill="none" stroke="#34c25e" stroke-linecap="round" stroke-linejoin="round" stroke-width="1"/>
        <path id="Path_4772" data-name="Path 4772" d="M833.137,410.322c-.144,1.256-.069,3.825,1.731,3.959" transform="translate(-828.497 -407.318)" fill="none" stroke="#34c25e" stroke-linecap="round" stroke-linejoin="round" stroke-width="1"/>
        <path id="Path_4773" data-name="Path 4773" d="M836.156,432.691a4.557,4.557,0,0,1-3.547,3.217" transform="translate(-828.317 -415.722)" fill="none" stroke="#34c25e" stroke-linecap="round" stroke-linejoin="round" stroke-width="1"/>
        <path id="Path_4774" data-name="Path 4774" d="M825.734,429.848c1.251-1,2.389-.946,3.912-.9,1.88.059,1.772-.714,2.7-2.022" transform="translate(-825.734 -413.557)" fill="none" stroke="#34c25e" stroke-linecap="round" stroke-linejoin="round" stroke-width="1"/>
      </g>
      <g id="Group_3693" data-name="Group 3693" transform="translate(11.89)">
        <path id="Path_4775" data-name="Path 4775" d="M845.086,405.511c-1.13,1.283,1.133,5.641,2.382,4.388" transform="translate(-844.779 -405.511)" fill="none" stroke="#34c25e" stroke-linecap="round" stroke-linejoin="round" stroke-width="1"/>
        <path id="Path_4776" data-name="Path 4776" d="M855.362,423.479c1.072-.533.077-2.4-.612-2.866a4.57,4.57,0,0,0-3.265-.185" transform="translate(-847.299 -411.032)" fill="none" stroke="#34c25e" stroke-linecap="round" stroke-linejoin="round" stroke-width="1"/>
        <path id="Path_4777" data-name="Path 4777" d="M856.995,437.605c-1.128-.361-2.959-.743-3.942.164-.728.673-.595,1.778-.594,2.722" transform="translate(-847.661 -417.419)" fill="none" stroke="#34c25e" stroke-linecap="round" stroke-linejoin="round" stroke-width="1"/>
        <path id="Path_4778" data-name="Path 4778" d="M851.792,410.322c.144,1.256.069,3.825-1.732,3.959" transform="translate(-846.763 -407.318)" fill="none" stroke="#34c25e" stroke-linecap="round" stroke-linejoin="round" stroke-width="1"/>
        <path id="Path_4779" data-name="Path 4779" d="M847.709,432.691a4.557,4.557,0,0,0,3.547,3.217" transform="translate(-845.88 -415.722)" fill="none" stroke="#34c25e" stroke-linecap="round" stroke-linejoin="round" stroke-width="1"/>
        <path id="Path_4780" data-name="Path 4780" d="M856.285,429.848c-1.251-1-2.389-.946-3.912-.9-1.88.059-1.772-.714-2.7-2.022" transform="translate(-846.617 -413.557)" fill="none" stroke="#34c25e" stroke-linecap="round" stroke-linejoin="round" stroke-width="1"/>
      </g>
    </g>
    <line id="Line_1774" data-name="Line 1774" y2="5.06" transform="translate(343.451 1235.214)" fill="none" stroke="#34c25e" stroke-linecap="round" stroke-linejoin="round" stroke-width="1"/>
    <line id="Line_1775" data-name="Line 1775" y2="4.049" transform="translate(343.289 1245.209)" fill="none" stroke="#34c25e" stroke-linecap="round" stroke-linejoin="round" stroke-width="1"/>
  </g>
</svg>
