<svg xmlns="http://www.w3.org/2000/svg" width="21.862" height="30.031" viewBox="0 0 21.862 30.031">
  <g id="Group_4401" data-name="Group 4401" transform="translate(-411.022 -1226.667)">
    <path id="Path_4781" data-name="Path 4781" d="M639.154,615.6a2.491,2.491,0,0,1-2.225,2.678H620.517a2.49,2.49,0,0,1-2.225-2.678V591.928a2.49,2.49,0,0,1,2.225-2.677h16.412a2.49,2.49,0,0,1,2.225,2.677Z" transform="translate(-206.77 637.917)" fill="none" stroke="#018f2b" stroke-linecap="round" stroke-linejoin="round" stroke-width="1"/>
    <rect id="Rectangle_3683" data-name="Rectangle 3683" width="15.26" height="7.912" transform="translate(414.189 1230.207)" fill="none" stroke="#018f2b" stroke-linecap="round" stroke-linejoin="round" stroke-width="1"/>
    <line id="Line_1776" data-name="Line 1776" x2="4.021" transform="translate(415.135 1241.931)" fill="none" stroke="#018f2b" stroke-linecap="round" stroke-linejoin="round" stroke-width="1"/>
    <line id="Line_1777" data-name="Line 1777" x2="4.021" transform="translate(424.697 1241.931)" fill="none" stroke="#018f2b" stroke-linecap="round" stroke-linejoin="round" stroke-width="1"/>
    <line id="Line_1778" data-name="Line 1778" x2="4.021" transform="translate(415.135 1246.667)" fill="none" stroke="#018f2b" stroke-linecap="round" stroke-linejoin="round" stroke-width="1"/>
    <line id="Line_1779" data-name="Line 1779" x2="4.021" transform="translate(424.697 1246.667)" fill="none" stroke="#018f2b" stroke-linecap="round" stroke-linejoin="round" stroke-width="1"/>
    <line id="Line_1780" data-name="Line 1780" x2="4.021" transform="translate(415.135 1251.404)" fill="none" stroke="#018f2b" stroke-linecap="round" stroke-linejoin="round" stroke-width="1"/>
    <line id="Line_1781" data-name="Line 1781" x2="4.021" transform="translate(424.697 1251.404)" fill="none" stroke="#018f2b" stroke-linecap="round" stroke-linejoin="round" stroke-width="1"/>
  </g>
</svg>
