<svg xmlns="http://www.w3.org/2000/svg" width="27.082" height="30.2" viewBox="0 0 27.082 30.2">
  <g id="Group_4403" data-name="Group 4403" transform="translate(-560.613 -1228.069)">
    <path id="Path_4782" data-name="Path 4782" d="M847.509,982.609a11.322,11.322,0,1,1-11.322-11.323A11.322,11.322,0,0,1,847.509,982.609Z" transform="translate(-262.033 261.058)" fill="none" stroke="#34c25e" stroke-linecap="round" stroke-linejoin="round" stroke-width="1"/>
    <g id="Group_3697" data-name="Group 3697" transform="translate(567.486 1253.895)">
      <line id="Line_1782" data-name="Line 1782" y1="3.712" x2="1.7" fill="none" stroke="#34c25e" stroke-linecap="round" stroke-linejoin="round" stroke-width="1"/>
      <line id="Line_1783" data-name="Line 1783" x1="1.7" y1="3.712" transform="translate(11.633)" fill="none" stroke="#34c25e" stroke-linecap="round" stroke-linejoin="round" stroke-width="1"/>
    </g>
    <path id="Path_4783" data-name="Path 4783" d="M843,974.242v9.477h5.816" transform="translate(-268.847 259.947)" fill="none" stroke="#34c25e" stroke-linecap="round" stroke-linejoin="round" stroke-width="1"/>
    <g id="Group_3698" data-name="Group 3698" transform="translate(561.119 1228.576)">
      <path id="Path_4784" data-name="Path 4784" d="M824.07,966.161a4.741,4.741,0,0,0-1.038,6.625l7.663-5.586A4.741,4.741,0,0,0,824.07,966.161Z" transform="translate(-822.122 -965.251)" fill="none" stroke="#34c25e" stroke-linecap="round" stroke-linejoin="round" stroke-width="1"/>
      <path id="Path_4785" data-name="Path 4785" d="M856.77,966.161a4.741,4.741,0,0,1,1.038,6.625l-7.663-5.586A4.742,4.742,0,0,1,856.77,966.161Z" transform="translate(-832.65 -965.251)" fill="none" stroke="#34c25e" stroke-linecap="round" stroke-linejoin="round" stroke-width="1"/>
    </g>
    <line id="Line_1784" data-name="Line 1784" y2="3.767" transform="translate(574.153 1228.576)" fill="none" stroke="#34c25e" stroke-linecap="round" stroke-linejoin="round" stroke-width="1"/>
  </g>
</svg>
