<svg xmlns="http://www.w3.org/2000/svg" width="21.764" height="21.764" viewBox="0 0 21.764 21.764">
  <g id="Group_4381" data-name="Group 4381" transform="translate(-189 -307)">
    <path id="Path_5112" data-name="Path 5112" d="M209.4,326.043h-.338a1.369,1.369,0,0,1-1.26-.849l-6.656-17.328c-.005-.011-.014-.019-.019-.03a1.288,1.288,0,0,0-.163-.256,1.255,1.255,0,0,0-.131-.188,1.721,1.721,0,0,0-.161-.114,1.388,1.388,0,0,0-.282-.177.272.272,0,0,0-.025-.016,1.207,1.207,0,0,0-.172-.031,1.434,1.434,0,0,0-.315-.054,1.287,1.287,0,0,0-.321.057,1.126,1.126,0,0,0-.166.027s-.009.011-.011.011a1.345,1.345,0,0,0-.772.77l-6.656,17.328a1.361,1.361,0,0,1-1.257.849h-.338a1.361,1.361,0,1,0,0,2.721h5.44a1.361,1.361,0,1,0,0-2.721h-.256a.681.681,0,0,1-.68-.68.693.693,0,0,1,.043-.247c0-.006-.01.008-.01,0l.691-1.8h7.263l.773,2.065s0,0,0,.005a.686.686,0,0,1-.292.816s.011.008.011.011a1.335,1.335,0,0,0-.741,1.189,1.363,1.363,0,0,0,1.361,1.361h5.44a1.361,1.361,0,0,0,0-2.721ZM196.635,320.6l1.891-4.928c0-.005.005.016.011,0a.765.765,0,0,1,1.437-.019v0l1.855,4.952h-5.195Z" fill="#1aa844"/>
  </g>
</svg>
