<svg xmlns="http://www.w3.org/2000/svg" width="27.214" height="27.215" viewBox="0 0 27.214 27.215">
  <g id="settings-work-tool" transform="translate(-0.003 0)">
    <g id="Group_3318" data-name="Group 3318" transform="translate(0.003 0)">
      <path id="Path_4651" data-name="Path 4651" d="M27.132,12.1a.886.886,0,0,0-.875-.67A3,3,0,0,1,24.2,6.2a.756.756,0,0,0,.083-1.026,13.465,13.465,0,0,0-2.156-2.177.757.757,0,0,0-1.034.084A3.136,3.136,0,0,1,17.7,3.84,3.023,3.023,0,0,1,15.861.886a.755.755,0,0,0-.668-.795A13.585,13.585,0,0,0,12.132.083a.757.757,0,0,0-.674.779A3.028,3.028,0,0,1,9.6,3.765,3.145,3.145,0,0,1,6.227,3,.759.759,0,0,0,5.2,2.911,13.516,13.516,0,0,0,3,5.088.757.757,0,0,0,3.08,6.122a3.015,3.015,0,0,1,.761,3.4A3.146,3.146,0,0,1,.88,11.356a.74.74,0,0,0-.786.668,13.631,13.631,0,0,0-.006,3.095.9.9,0,0,0,.892.669,2.984,2.984,0,0,1,2.8,1.865,3.026,3.026,0,0,1-.761,3.365.756.756,0,0,0-.083,1.025,13.514,13.514,0,0,0,2.153,2.178.757.757,0,0,0,1.036-.082,3.131,3.131,0,0,1,3.392-.763,3.018,3.018,0,0,1,1.841,2.953.756.756,0,0,0,.668.795,13.543,13.543,0,0,0,3.061.008.757.757,0,0,0,.674-.779,3.024,3.024,0,0,1,1.862-2.9,3.14,3.14,0,0,1,3.37.767.76.76,0,0,0,1.027.086,13.547,13.547,0,0,0,2.2-2.176.755.755,0,0,0-.081-1.034,3.015,3.015,0,0,1-.762-3.395,3.046,3.046,0,0,1,2.784-1.845l.168,0a.757.757,0,0,0,.8-.667A13.62,13.62,0,0,0,27.132,12.1Zm-13.5,6.079a4.539,4.539,0,1,1,4.539-4.539A4.544,4.544,0,0,1,13.631,18.175Z" transform="translate(-0.003 0)" fill="#1aa844" fill-rule="evenodd"/>
    </g>
  </g>
</svg>
