<svg xmlns="http://www.w3.org/2000/svg" width="23.5" height="27.525" viewBox="0 0 23.5 27.525">
  <g id="Group_4373" data-name="Group 4373" transform="translate(-286.628 -407.535)">
    <g id="Group_3486" data-name="Group 3486">
      <path id="Path_4702" data-name="Path 4702" d="M305.628,431.535h-18a1,1,0,0,1-1-1v-22a1,1,0,0,1,1-1h13a1.007,1.007,0,0,1,.707.293l5,5a1,1,0,0,1,.293.707v17A1,1,0,0,1,305.628,431.535Zm-17-2h16V413.949l-4.414-4.414H288.628Z" fill="#1aa844"/>
      <path id="Path_4703" data-name="Path 4703" d="M296.628,418.535a3.5,3.5,0,1,1,3.5-3.5A3.5,3.5,0,0,1,296.628,418.535Zm0-5a1.5,1.5,0,1,0,1.5,1.5A1.5,1.5,0,0,0,296.628,413.535Z" fill="#1aa844"/>
      <path id="Path_4704" data-name="Path 4704" d="M301.628,423.535h-10a1,1,0,0,1-1-1,6,6,0,0,1,12,0A1,1,0,0,1,301.628,423.535Zm-8.874-2H300.5a4,4,0,0,0-7.748,0Z" fill="#1aa844"/>
      <path id="Path_4705" data-name="Path 4705" d="M301.628,427.535h-10a1,1,0,1,1,0-2h10a1,1,0,0,1,0,2Z" fill="#1aa844"/>
    </g>
    <path id="Path_5108" data-name="Path 5108" d="M309.835,416.353l-4.818-4.818a5.537,5.537,0,0,1-.945,1.883l4.056,4.056V433.06h-16v-2.81a5.517,5.517,0,0,1-2,.041v3.769a1,1,0,0,0,1,1h18a1,1,0,0,0,1-1v-17A1,1,0,0,0,309.835,416.353Z" fill="#1aa844"/>
  </g>
</svg>
