<svg xmlns="http://www.w3.org/2000/svg" width="24.698" height="24.698" viewBox="0 0 24.698 24.698">
  <g id="Group_4382" data-name="Group 4382" transform="translate(-189.625 -307.625)">
    <path id="Path_5113" data-name="Path 5113" d="M201.974,332.323a12.347,12.347,0,1,1,8.733-3.616,12.353,12.353,0,0,1-8.733,3.616Zm0-22.453a10.1,10.1,0,1,0,7.145,2.96A10.1,10.1,0,0,0,201.974,309.87Zm5.613,10.1a1.123,1.123,0,0,0-1.122-1.123H203.1v-5.613a1.123,1.123,0,0,0-2.246,0v6.736a1.125,1.125,0,0,0,1.123,1.123h4.491a1.123,1.123,0,0,0,1.122-1.123Z" fill="#1aa844"/>
  </g>
</svg>
