<svg xmlns="http://www.w3.org/2000/svg" width="329.408" height="286.373" viewBox="0 0 329.408 286.373">
  <g id="Group_2122" data-name="Group 2122" transform="translate(-5843.331 -824.317)" opacity="0.25">
    <path id="Path_2761" data-name="Path 2761" d="M6020.36,831.564l62.405-6.747-47.366,71.8Z" transform="translate(48.646)" fill="none" stroke="#8c8c8c" stroke-linecap="round" stroke-linejoin="round" stroke-width="1"/>
    <path id="Path_2762" data-name="Path 2762" d="M5974.413,961.352l99.924,76.331-139.029,34.88Z" transform="translate(25.209 37.625)" fill="none" stroke="#8c8c8c" stroke-linecap="round" stroke-linejoin="round" stroke-width="1"/>
    <path id="Path_2763" data-name="Path 2763" d="M5895.34,971.289l90.085-9.936-39.1,111.209Z" transform="translate(14.193 37.625)" fill="none" stroke="#8c8c8c" stroke-linecap="round" stroke-linejoin="round" stroke-width="1"/>
    <path id="Path_2764" data-name="Path 2764" d="M5965.966,966.907l82.564-25.716,17.358,102.047Z" transform="translate(33.656 32.07)" fill="none" stroke="#8c8c8c" stroke-linecap="round" stroke-linejoin="round" stroke-width="1"/>
    <path id="Path_2765" data-name="Path 2765" d="M5942.426,902.709,6055.017,951.8l-82.564,25.716Z" transform="translate(27.168 21.465)" fill="none" stroke="#8c8c8c" stroke-linecap="round" stroke-linejoin="round" stroke-width="1"/>
    <path id="Path_2766" data-name="Path 2766" d="M5895.338,987.449l60.061-84.74,30.026,74.8Z" transform="translate(14.194 21.465)" fill="none" stroke="#8c8c8c" stroke-linecap="round" stroke-linejoin="round" stroke-width="1"/>
    <path id="Path_2767" data-name="Path 2767" d="M5863.434,916.866l46.1,66.681-65.7,16.562Z" transform="translate(-0.001 25.366)" fill="none" stroke="#8c8c8c" stroke-linecap="round" stroke-linejoin="round" stroke-width="1"/>
    <path id="Path_2768" data-name="Path 2768" d="M5843.833,985.7l65.7-16.562-32.222,90.778Z" transform="translate(-0.001 39.773)" fill="none" stroke="#8c8c8c" stroke-linecap="round" stroke-linejoin="round" stroke-width="1"/>
    <path id="Path_2769" data-name="Path 2769" d="M5870.079,1059.921l32.222-90.778,50.981,101.273Z" transform="translate(7.231 39.773)" fill="none" stroke="#8c8c8c" stroke-linecap="round" stroke-linejoin="round" stroke-width="1"/>
    <path id="Path_2770" data-name="Path 2770" d="M6030.691,957.747l1.859-76.635,83.141,68.46Z" transform="translate(51.495 15.513)" fill="none" stroke="#8c8c8c" stroke-linecap="round" stroke-linejoin="round" stroke-width="1"/>
    <path id="Path_2771" data-name="Path 2771" d="M6030.694,942.956l85-8.173L6048.052,1045Z" transform="translate(51.494 30.304)" fill="none" stroke="#8c8c8c" stroke-linecap="round" stroke-linejoin="round" stroke-width="1"/>
    <path id="Path_2772" data-name="Path 2772" d="M5961.189,876.753l75.477-46.646,15.04,65.059Z" transform="translate(32.34 1.458)" fill="none" stroke="#8c8c8c" stroke-linecap="round" stroke-linejoin="round" stroke-width="1"/>
    <path id="Path_2773" data-name="Path 2773" d="M5961.19,866.677l90.515,18.412-1.859,76.634Z" transform="translate(32.34 11.536)" fill="none" stroke="#8c8c8c" stroke-linecap="round" stroke-linejoin="round" stroke-width="1"/>
    <path id="Path_2774" data-name="Path 2774" d="M5893.715,858.906l86.105,10.145-23.973,45.728Z" transform="translate(13.747 9.394)" fill="none" stroke="#8c8c8c" stroke-linecap="round" stroke-linejoin="round" stroke-width="1"/>
    <path id="Path_2775" data-name="Path 2775" d="M5859.2,932.837l44.023-73.929,62.135,55.872Z" transform="translate(4.235 9.394)" fill="none" stroke="#8c8c8c" stroke-linecap="round" stroke-linejoin="round" stroke-width="1"/>
    <path id="Path_2776" data-name="Path 2776" d="M6032.152,882.606l88.191-6.92-5.052,75.381Z" transform="translate(51.895 14.018)" fill="none" stroke="#8c8c8c" stroke-linecap="round" stroke-linejoin="round" stroke-width="1"/>
    <path id="Path_2777" data-name="Path 2777" d="M6032.151,896.623l47.365-71.8,40.825,64.885Z" transform="translate(51.895 0)" fill="none" stroke="#8c8c8c" stroke-linecap="round" stroke-linejoin="round" stroke-width="1"/>
  </g>
</svg>
