<?xml version="1.0" standalone="no"?>
<!DOCTYPE svg PUBLIC "-//W3C//DTD SVG 1.1//EN" "http://www.w3.org/Graphics/SVG/1.1/DTD/svg11.dtd" >
<svg xmlns="http://www.w3.org/2000/svg" xmlns:xlink="http://www.w3.org/1999/xlink" version="1.1">
<metadata></metadata>
<defs>
<font id="sigvarregular" horiz-adv-x="1181" >
<font-face units-per-em="2048" ascent="1638" descent="-410" />
<missing-glyph horiz-adv-x="593" />
<glyph unicode="&#xd;" horiz-adv-x="593" />
<glyph unicode=" "  horiz-adv-x="593" />
<glyph unicode="&#x09;" horiz-adv-x="593" />
<glyph unicode="&#xa0;" horiz-adv-x="593" />
<glyph unicode="!" horiz-adv-x="542" d="M109 135l161 164l164 -162l-164 -166zM141 1475h267l-72 -1067h-125z" />
<glyph unicode="&#x22;" horiz-adv-x="636" d="M96 1004l41 471h158l-43 -471h-156zM344 1004l41 471h156l-41 -471h-156z" />
<glyph unicode="#" horiz-adv-x="1198" d="M96 459l23 102h235l74 352h-235l20 103h238l90 430h102l-92 -430h215l90 430h100l-90 -430h236l-21 -103h-235l-76 -352h236l-21 -102h-235l-93 -430h-100l90 430h-213l-92 -430h-100l90 430h-236zM455 561h215l73 352h-213z" />
<glyph unicode="$" horiz-adv-x="1064" d="M53 68l15 159l28 -22q98 -74 196.5 -102.5t172.5 -28.5q123 0 200.5 60.5t88 129t10.5 82.5q0 70 -44 126t-147 120l-108 67l-33 19l-137 80l-62 43q-158 131 -157 299q0 207 117.5 279.5t175 88t112.5 15.5v153h111v-151q16 2 32.5 2h24.5q47 0 150 -19l45 -10l18 -2 l15 -4l22 -2l12 -2h17l18 -172l-22 16l-27 17q-160 100 -307 100q-160 0 -219.5 -88t-59.5 -152q0 -74 61.5 -146.5t186.5 -143.5l55 -31l105 -57l47 -27q59 -31 147 -113t88 -237q0 -109 -61 -208.5t-139 -140t-125 -57t-84 -22.5v-160h-111v147q-92 0 -149.5 8.5 t-159.5 41.5l-59 20l-31 12z" />
<glyph unicode="%" horiz-adv-x="1597" d="M70 1067l2 74q0 186 72.5 273t217.5 87h31q25 -4 92.5 -10t131 -89t63.5 -261v-150q0 -176 -63.5 -259t-134 -91t-90 -9t-27.5 -1q-145 0 -219 86t-74 274zM231 0l1010 1475h135l-1011 -1475h-134zM264 1067l2 -88q0 -98 4 -131t23.5 -81t83.5 -48q18 0 45 14.5t44 50 t17 99.5q0 350 -17 440t-91 90q-57 0 -83 -53t-26 -203zM913 403q0 221 77 331t222 110q12 0 30 -2t89.5 -10.5t132 -88t60.5 -266.5v-71.5t2 -67.5q0 -176 -63.5 -259t-137.5 -94.5t-111 -11.5q-29 0 -100.5 9.5t-133.5 91.5t-62 258zM1108 403l2 -86q0 -96 4 -126.5 t22.5 -80t82.5 -49.5q18 0 51 17.5t47 95.5t14 328q0 92 -4 122.5t-23.5 80t-80.5 49.5q-20 0 -52 -16.5t-47.5 -82.5t-15.5 -252z" />
<glyph unicode="&#x26;" horiz-adv-x="1425" d="M68 350q0 59 18 116.5t53 103.5t73 85t112 103l36 28l-18 27l-10 12l-33 45l-25 33l-36 55q-59 104 -60 205q0 190 132 254t183.5 71t86.5 7q55 0 126.5 -20.5t122 -89t50.5 -154.5q0 -82 -35 -136.5t-60.5 -82t-97.5 -92.5l-33 -29l-28 -25l-29 -24q90 -121 185.5 -237 t205.5 -238l12 18l19 29q63 113 63 211l-2 26q-8 78 -30 107h297l-27 -35l-39 -61l-14 -21l-31 -51l-25 -37l-32 -49l-23 -37l-59 -96l-11 -17l-38 -53l61 -68q72 -76 134.5 -128t100.5 -74l19 -8l29 -15l20 -8h-387l-119 135q-37 -37 -110.5 -86t-161.5 -61.5t-137 -12.5 q-100 0 -198.5 37t-164 130.5t-65.5 207.5zM287 408q0 -129 84 -211t215 -82q33 0 105.5 13t142.5 83l-105 117q-76 88 -149.5 176t-147.5 188l-24 -22q-55 -57 -82 -104.5t-33 -79t-6 -50v-28.5zM393 1212q0 -29 7.5 -68.5t54.5 -105.5l26 -43l23 -30l22 -31l13 -16l24 22 l55 57q72 84 88.5 138.5t16.5 101.5q0 23 -5 57.5t-48 72.5t-101 38q-41 0 -108.5 -35t-67.5 -158z" />
<glyph unicode="'" horiz-adv-x="391" d="M96 1004l41 471h158l-43 -471h-156z" />
<glyph unicode="(" horiz-adv-x="593" d="M102 735q0 240 81 412t175.5 277.5t210.5 172.5l23 13l20 12l-26 -35q-137 -170 -203 -336t-66 -397v-233q0 -233 64.5 -397.5t204.5 -338.5l26 -35l-20 13l-23 12q-236 137 -316.5 307t-104 249t-34 150.5t-11.5 103.5t-1 50z" />
<glyph unicode=")" horiz-adv-x="593" d="M-18 -150l28 35q137 172 203 338t66 398v233q0 233 -63.5 395t-205.5 338l-28 35l22 -12l23 -13q115 -68 208 -171t175 -277t82 -412q0 -240 -81 -411.5t-174.5 -277t-209.5 -173.5l-23 -12z" />
<glyph unicode="*" horiz-adv-x="759" d="M45 1231l84 139l215 -172l-53 283h170l-45 -291l215 184l84 -141l-269 -98l259 -103l-89 -135l-202 178l47 -280h-164l55 282l-221 -180l-84 143l264 99z" />
<glyph unicode="+" d="M76 637v199h418v417h192v-417h420v-199h-420v-416h-192v416h-418z" />
<glyph unicode="," horiz-adv-x="409" d="M25 -262l55 94q63 106 63 164q0 33 -23.5 75t-66.5 62l160 162l166 -162q-18 -102 -86 -191t-201 -169z" />
<glyph unicode="-" horiz-adv-x="798" d="M63 489l84 164h588l-82 -164h-590z" />
<glyph unicode="." horiz-adv-x="385" d="M31 135l162 162l161 -162l-161 -164z" />
<glyph unicode="/" horiz-adv-x="1085" d="M49 -145l871 1763h116l-866 -1763h-121z" />
<glyph unicode="0" horiz-adv-x="1183" d="M82 723l4 115q0 281 101.5 436.5t234.5 191t205 35.5q233 0 351 -223t118 -682q0 -307 -138.5 -469t-355.5 -162q-240 0 -379 161t-139 486zM322 657q0 -55 4 -104t14 -139t32.5 -159t73 -130.5t148.5 -61.5q80 0 131 50.5t76.5 119t44.5 203.5q8 43 12 98.5t4 96.5v211 q0 61 -2 91t-15.5 133t-32.5 163.5t-52 99.5t-74 57.5t-84 18.5q-98 0 -155.5 -74t-90 -189.5t-32.5 -320.5l-2 -88v-76z" />
<glyph unicode="1" d="M387 1440l92 6q127 16 242 63v-1237v-28v-29v-51l2 -39q2 -31 8 -62.5t14 -62.5h-282q10 37 16 77t6 87v41v39v28v639l2 123v35v111q0 111 -17 161t-62 84l-15 11z" />
<glyph unicode="2" horiz-adv-x="1183" d="M61 0l54 61l61 72q88 100 131 153.5t185.5 245t210 325.5t67.5 247q0 109 -65.5 176.5t-174.5 67.5q-59 0 -114.5 -18.5t-97.5 -46.5t-82 -73l-27 -30l22 200l15 9l14 8l51 26q70 33 135.5 52.5t124.5 19.5q207 0 324 -92t117 -252q0 -47 -13.5 -107.5t-59.5 -137.5 t-179 -253l-195 -243l-86 -105l-49 -59l-57 -68h409q166 0 273 78l18 14l19 15l-76 -285h-955z" />
<glyph unicode="3" horiz-adv-x="1183" d="M111 254q68 -57 122 -79.5t88.5 -33t67.5 -13.5t51 -3q133 0 219 86t86 221q0 12 -2 29.5t-11 80t-90 138.5t-247 119l-28 8l-19 4l35 10q143 51 218 136t75 190q0 96 -56.5 156.5t-152.5 60.5q-16 0 -41 -4t-52.5 -12.5t-59 -22.5t-56.5 -29l-29 -16l43 145l11 7l10 4 q66 33 139.5 48t142.5 15h33q25 -4 88.5 -10t136 -81t72.5 -181q0 -63 -26 -123l-29 -55q-39 -66 -83 -109t-124 -88l-53 -25l57 -18q162 -57 247 -160.5t85 -234.5q0 -61 -29.5 -166t-157.5 -193t-298 -88q-100 0 -167 21.5t-93.5 35t-61.5 33.5l-8 6l-8 7z" />
<glyph unicode="4" d="M12 506l662 969h186v-836h35q94 0 134 3t110 13l-15 -20q-66 -90 -99.5 -110.5t-113.5 -20.5h-47h-8v-199v-29v-43l2 -49q0 -47 6 -93t17 -91h-283q16 49 21.5 85t5.5 99v33v59l2 29v201h-615zM221 639h406v594z" />
<glyph unicode="5" d="M111 254l12 -12l14 -11q57 -49 141 -78.5t160 -29.5q84 0 146.5 31.5t96.5 82t46 106.5t12 120q0 115 -101 212t-304 161l-62 18l105 621h444q70 0 118 6t81 16l14 4l15 8l-99 -229h-489l-55 -311l43 -13q166 -55 269 -121.5t160.5 -142.5t78 -141.5t20.5 -138.5 q0 -147 -88 -265t-183.5 -144t-139.5 -30t-93 -4q-96 0 -176 28t-143 77z" />
<glyph unicode="6" d="M133 590v60.5t19.5 199.5t150.5 364.5t263 235.5t180.5 55t95.5 8q35 0 51 -2l-23 -6l-20 -8l-45 -18q-184 -82 -280.5 -224.5t-137.5 -412.5l-6 -45l-4 -31q41 37 121 83t186 46q117 0 211 -69.5t118.5 -151.5t30 -129t5.5 -111q0 -172 -96.5 -291.5t-209 -146.5 t-168.5 -27q-197 0 -319.5 163t-122.5 458zM365 467l4 -74q10 -98 29.5 -154.5t69.5 -110.5t138 -54q90 0 132 54t59.5 104.5t22.5 98.5t5 77.5v44.5v28q0 78 -22.5 132.5t-74.5 107.5t-136 53q-127 0 -172 -86t-53 -156q-2 -16 -2 -35.5v-29.5z" />
<glyph unicode="7" horiz-adv-x="1183" d="M66 -37q90 117 161.5 236.5t192.5 357.5l51 102l301 639h-305q-154 0 -221.5 -19t-75.5 -22.5t-41 -19.5l39 285l610 -41l62 -2h41h34q117 0 203 14l-528 -1038l-6 -15l-54 -90q-82 -141 -138 -202.5t-144 -111.5t-182 -73z" />
<glyph unicode="8" horiz-adv-x="1183" d="M66 348q0 82 39.5 165t114.5 145.5t169 117.5l39 23l-18 8l-17 10l-51 33q-70 49 -114 96t-68.5 107.5t-24.5 117.5q0 86 48 159t154.5 124t258.5 51l72 -4q78 -8 145 -31q104 -39 161.5 -109.5t57.5 -156.5q0 -100 -52 -166.5t-102.5 -111.5t-105.5 -82l25 -13l26 -14 l62 -37q49 -35 80.5 -62.5t65.5 -67.5t57.5 -103.5t23.5 -130.5q0 -137 -86 -253t-213 -159t-231 -43q-205 0 -360.5 102.5t-155.5 284.5zM283 371q0 -129 79.5 -213t204.5 -84q35 0 143.5 25.5t135 129t26.5 142.5q0 90 -64.5 168.5t-207.5 165.5l-39 20l-14 6l-21 10 l-39 -26q-96 -72 -143 -137.5t-53 -113.5t-7 -66.5t-1 -26.5zM362 1206q0 -59 35 -109t82 -89t137 -86l52 -25l20 21q63 59 91 118.5t36 97t8 66.5q0 92 -63.5 149.5t-169.5 57.5q-49 0 -102.5 -19.5t-89.5 -69.5t-36 -112z" />
<glyph unicode="9" d="M129 -35l23 12l22 13l51 30q143 86 237.5 182.5t181.5 245t128 302t41 294.5q0 154 -53 250.5t-168 96.5q-45 0 -81 -14.5t-85 -68t-56.5 -124t-7.5 -85v-22.5q0 -150 81 -236.5t216 -86.5q12 0 30 2t26 2l30 4q-102 -76 -266 -76q-152 0 -250 106.5t-98 264.5q0 23 3 46 t22.5 108t117 172t180.5 100.5t111.5 15.5t52.5 2q197 0 317 -128t120 -353q0 -86 -14.5 -164t-35 -142.5t-76 -189.5t-191.5 -266t-293.5 -217t-315.5 -76z" />
<glyph unicode=":" horiz-adv-x="448" d="M61 135l162 162l162 -162l-162 -164zM63 897l162 164l162 -164l-162 -164z" />
<glyph unicode=";" horiz-adv-x="475" d="M57 -262l56 94q63 106 63 164q0 33 -23.5 75t-66.5 62l160 162l166 -162q-18 -102 -86 -191t-201 -169zM84 901l164 164l166 -164l-166 -166z" />
<glyph unicode="&#x3c;" horiz-adv-x="1054" d="M96 737l862 486v-179l-567 -307l567 -307v-178z" />
<glyph unicode="=" horiz-adv-x="1183" d="M74 479v183h1036v-183h-1036zM74 813v182h1036v-182h-1036z" />
<glyph unicode="&#x3e;" horiz-adv-x="1054" d="M96 252v178l568 307l-568 307v179l862 -486z" />
<glyph unicode="?" horiz-adv-x="788" d="M35 1257v148l18 10l19 12l41 21q55 27 109 39t108 12q180 0 284.5 -90t104.5 -233q0 -33 -8.5 -73t-32 -82t-76.5 -103l-115 -115l-28 -33q-78 -92 -97.5 -144.5t-19.5 -183.5v-41h-129v74v41l-4 107q0 45 11 77.5t46 85.5l60 82l8 13l35 47l41 63q49 70 56 109t7 71 q0 84 -52 136.5t-142 52.5q-14 0 -24.5 -1t-33 -6t-47 -13.5t-45.5 -16.5q-55 -29 -94 -66zM117 137l162 164l161 -164l-164 -166z" />
<glyph unicode="@" horiz-adv-x="1548" d="M96 788q0 113 39 216.5t120 213t212 188.5t217 89t111.5 10h40.5q274 0 450 -178t176 -455q0 -33 -2 -66.5t-21.5 -145t-114.5 -228.5t-157.5 -126t-85.5 -9q-80 0 -131 51t-43 123q-10 -37 -61 -97.5t-146 -60.5q-55 0 -117.5 29t-102.5 119t-40 239l9 72 q31 195 109.5 287t135 120.5t113.5 28.5q121 0 178 -108l10 -21l19 117l100 -2l-78 -440l-28 -179q-4 -25 -4 -63q0 -39 14 -83t78 -44q14 0 35.5 7t48 28.5t63.5 65.5t64.5 113t39 140.5t11.5 132.5q0 238 -144.5 386.5t-371.5 148.5q-23 0 -51.5 -3t-149.5 -20.5 t-272.5 -204t-151.5 -446.5v-47q4 -23 7 -54.5t4 -38.5t35 -141.5t192.5 -261.5t363.5 -127q88 0 169 23t148.5 63.5t126 91t103.5 111.5l41 -73l-51 -60q-119 -125 -256 -186.5t-289 -61.5q-313 0 -514 231.5t-201 585.5zM559 596q0 -39 7 -69.5t31 -81t105 -50.5 q55 0 90 35t53.5 66.5t42 100.5t42.5 167l4 20l14 86q4 23 4 44.5v31.5q0 31 -6 68t-43 69.5t-88 32.5q-31 0 -69.5 -16.5t-75.5 -66.5t-72 -154l-27 -101q-8 -49 -10 -92t-2 -90z" />
<glyph unicode="A" horiz-adv-x="1333" d="M-33 0q23 35 48.5 81t50.5 105l28 64l12 29l11 28l78 195l90 229l77 205l99 276q14 43 26.5 86t12.5 76q0 25 -11 66l-6 18l-6 17h250l246 -586l67 -160q158 -377 218.5 -501t134.5 -228h-316q-10 76 -53 184l-29 74l-8 18l-6 13l-6 16l-146 342h-462l-127 -340l-4 -14 l-7 -17l-10 -30l-18 -60q-10 -33 -16.5 -64.5t-6.5 -55.5q0 -27 2 -41q6 -16 6 -25h-219zM395 739h398l-211 504z" />
<glyph unicode="B" horiz-adv-x="1196" d="M111 0q12 43 19 87t7 99l2 60v30v31v860v13v16v59v33l-6 90l-16 92h59l68 -2q45 0 100 2t119 7l82 6l80 6q23 2 37 3t28 -1q59 0 94 -6t98.5 -28.5t114 -94.5t50.5 -164q0 -94 -62.5 -188.5t-189.5 -155.5l-66 -25l29 -4q372 -61 372 -372q0 -22 -1 -39t-15 -125.5 t-174 -198.5t-522 -90h-307zM373 850l24 -2h29l57 2q125 0 202 57.5t110 157.5q12 47 12 90q0 14 -11.5 77.5t-87 110t-235.5 46.5l-74 -3h-26v-536zM375 217q0 -76 39 -102.5t151 -26.5q29 0 44.5 3t81 25.5t126 96.5t60.5 174q2 12 2 26.5v22.5q0 315 -402 316h-53l-27 -2 h-22v-467v-66z" />
<glyph unicode="C" horiz-adv-x="1282" d="M88 754q0 256 136 444t296 240.5t262 52.5h66q33 -6 47 -8l61 -8l45 -7l52 -8l14 -2l6 -2l35 -4l22 -2h11l24 4l17 -197l-47 33q-29 18 -63 34.5t-106.5 42.5t-166.5 26q-180 0 -297 -131.5t-132.5 -270.5t-17.5 -177t-2 -71q0 -307 130 -475t339 -168q102 0 187.5 37 t181.5 133l41 47l-60 -192q-90 -74 -201.5 -113t-219.5 -39q-184 0 -342 103.5t-238 277.5t-80 400z" />
<glyph unicode="D" horiz-adv-x="1456" d="M111 0q12 41 20 87t8 95v51v41v31v862v11v20v39l-2 53q0 53 -6 95t-18 90h172q23 0 88 4t92 4q477 0 690 -165t213 -560q0 -178 -50 -308.5t-155.5 -240t-251 -160.5t-372.5 -51l-156 2h-272zM373 205l2 -15q0 -55 33.5 -80.5t119.5 -25.5q39 0 173.5 15.5t269.5 185.5 t135 458q0 53 -27.5 351.5t-535.5 298.5q-59 0 -127 -7l-43 -6v-1095v-80z" />
<glyph unicode="E" horiz-adv-x="1056" d="M113 0q14 61 18 81.5t4 78.5l4 76v18v1020v45q0 49 -10 106l-6 31l-4 19h817l22 -144q-53 20 -114.5 33.5t-132.5 13.5l-72 4h-266v-559h192h53q61 0 105.5 10.5t103.5 34.5v-182q-57 23 -115.5 33t-146.5 10h-190v-623h327q115 0 179.5 8.5t142.5 32.5l41 15l-82 -162 h-870z" />
<glyph unicode="F" horiz-adv-x="950" d="M109 0l8 27l6 26q14 70 14 160v1071v37l-12 104l-4 25l-6 25h819l22 -142l-28 6l-49 11q-143 32 -240 32h-6h-260v-581h196q113 0 205 26l27 7l24 10v-180l-26 8l-23 6l-39 8q-61 12 -102 16.5t-66 4.5h-198v-486q0 -131 24 -221h-286z" />
<glyph unicode="G" horiz-adv-x="1495" d="M84 686q0 135 51 324.5t253 336t478 146.5h51.5t71.5 -8l45 -6l70 -9l90 -12l41 -6h47h14l17 2l20 -209q-57 49 -119.5 78t-138.5 47.5t-98.5 21.5t-54.5 3q-256 0 -418 -158t-162 -453q0 -82 8 -149.5t68.5 -314t437.5 -246.5h37q27 4 49.5 5t49 6t81.5 19l64 23v424 l-2 86l-5 31l-2 22l-4 23l-6 24h273l-7 -22l-4 -21l-6 -61v-31v-39v-362v-37v-35q0 -51 17 -111l-43 5q-14 0 -33 2t-33 2q-18 0 -43 -4.5t-45 -6.5l-31 -4l-127 -24l-71 -11q-66 -6 -123 -6q-342 0 -550 198t-208 517z" />
<glyph unicode="H" horiz-adv-x="1400" d="M109 0q14 47 20 85t6 99l2 60v32v25v866v29v27v65q0 59 -5 97t-19 90h282q-10 -43 -16 -89.5t-6 -97.5v-41v-49v-31v-342h655v342v31v51l-2 39q0 57 -3 87t-17 100h282q-24 -77 -24 -179v-8l-2 -61v-31v-29v-862v-29l2 -32v-60q0 -63 5 -94t23 -90h-293q10 39 18.5 86 t8.5 98l2 92v29v416h-657v-416l2 -29v-47v-45l2 -43q0 -33 7 -66.5t19 -74.5h-292z" />
<glyph unicode="I" horiz-adv-x="509" d="M109 0q14 43 21 85t7 99l2 92v17v870v29v37l-2 55q0 104 -28 191h292q-16 -49 -22 -86t-6 -105v-72l-2 -20v-29v-858v-29l2 -92q0 -61 6 -98t22 -86h-292z" />
<glyph unicode="J" horiz-adv-x="507" d="M-51 -180l28 12q84 45 122 131t38 264v72v45v819l2 29v92q0 70 -4 105.5t-16 85.5h276q-12 -63 -17 -101.5t-5 -89.5v-41v-49v-31v-712l2 -103l2 -22l2 -39q0 -246 -96.5 -358.5t-292.5 -112.5z" />
<glyph unicode="K" horiz-adv-x="1167" d="M111 0q10 35 17 68.5t7 93.5v80l2 30v899v29l-2 49v43q0 55 -5 91.5t-19 91.5h284l-16 -93l-6 -92v-18v-74v-29v-364l18 20l23 23l10 10l18 21l17 18l14 14l41 47l180 211l25 31q88 104 114.5 156.5t26.5 118.5h270l-96 -93l-33 -32l-53 -60l-51 -57l-31 -33l-10 -12 l-16 -19l-289 -329l410 -576q68 -98 131 -157.5t141 -106.5h-256q-78 0 -109.5 16.5t-76.5 79.5l-420 615v-404l-2 -28v-64l2 -29q0 -23 1 -35t6 -46.5t8 -49t13 -55.5h-288z" />
<glyph unicode="L" horiz-adv-x="964" d="M111 0l6 27l6 26q14 66 14 168v1032v39l-2 62q0 43 -3 63.5t-15 57.5h276l-6 -27l-4 -23l-4 -24l-4 -37l-4 -86v-1172h252l71 3q68 0 134.5 15t140.5 44l-70 -168h-788z" />
<glyph unicode="M" horiz-adv-x="1697" d="M88 0q14 43 21.5 85t7.5 99l6 92v25l27 836v71q0 72 -7 115q0 57 -9 90t-28 62h289l449 -1119l418 1119h288l-4 -13l-4 -14q-12 -47 -16 -92t-4 -166v-47l43 -840l2 -29l4 -45l4 -47q12 -96 41 -182h-287q14 72 14 184l-4 58v34l-2 21v8l-59 875l-444 -1180h-93 l-477 1188l-31 -885v-29v-41v-51q0 -94 35 -182h-180z" />
<glyph unicode="N" horiz-adv-x="1429" d="M96 1475h248l825 -1115v807v29v33v59q0 49 -5 93t-17 94h168l-10 -48q-6 -37 -10.5 -70.5t-4.5 -68.5v-92v-29v-1167h-153l-883 1188v-883l2 -29v-24v-68l2 -43q0 -39 5 -67.5t20 -73.5h-168q24 87 24 177v7l2 52v40v29v883v24q0 68 -7 125.5t-15.5 86t-22.5 51.5z" />
<glyph unicode="O" horiz-adv-x="1593" d="M88 739q0 133 37 250t110.5 218.5t191.5 174t199 87t129 16.5t52 2q299 0 498.5 -202t199.5 -521q0 -291 -153.5 -504t-322.5 -246.5t-253 -33.5q-383 0 -535.5 259.5t-152.5 499.5zM354 743q0 -319 127 -493t316 -174q188 0 313 174t125 500l-8 127q-18 147 -64.5 252.5 t-136.5 186.5t-233 81q-100 0 -187.5 -48.5t-137.5 -128t-73.5 -158.5t-31 -155t-8.5 -98.5t-1 -36.5v-29z" />
<glyph unicode="P" horiz-adv-x="1081" d="M115 0q10 43 16 85t6 99l2 62v30v29v860v31v33v57l-2 43q0 41 -2 55.5t-20 90.5h174l192 4l86 4q236 0 368 -98.5t132 -268.5q0 -78 -38 -195.5t-152.5 -182t-174 -74t-75 -11.5t-47.5 -2q-94 0 -170 35h32q152 0 251.5 85t116.5 180.5t17 144.5q0 145 -73.5 217.5 t-227.5 72.5l-67 3h-58l-28 -3v-1079l2 -31v-30v-62q0 -57 5 -96t19 -88h-284z" />
<glyph unicode="Q" horiz-adv-x="1585" d="M88 733q0 133 37 253t110.5 221.5t191.5 174t218 89t158 16.5q299 0 500.5 -208t201.5 -527v-78q-6 -35 -20.5 -144.5t-128 -266t-293.5 -236.5l31 -58q66 -102 143.5 -120.5t110.5 -18.5q82 0 143 49l22 19q-61 -147 -163.5 -166t-132.5 -19q-55 0 -127 27t-120 75 t-93 140l-15 31l-33 -2q-23 -2 -39 -3t-26 -1q-180 0 -327.5 90t-231.5 233t-98.5 228t-16.5 122t-2 80zM356 682q0 -68 14.5 -135.5t41.5 -140.5l24 32q51 57 102.5 84t104.5 27h23q16 -4 49 -8t88 -48t79.5 -84t88.5 -186l26 -59l58 74q113 147 144.5 224t31.5 228v74v29 q0 47 -14.5 167.5t-84 230t-155.5 158t-182 48.5q-74 0 -138.5 -24.5t-182.5 -131t-118 -559.5zM453 297q78 -154 173 -182.5t128.5 -32.5t68.5 -4l-18 45l-4 12l-37 103l-10 28q-57 158 -142 158q-43 0 -92 -39t-67 -88z" />
<glyph unicode="R" horiz-adv-x="1228" d="M109 1475h217l157 10l74 6l57 2h74q47 0 84 -8t102.5 -35t120 -108.5t54.5 -182.5q0 -68 -21.5 -125t-89.5 -137t-213 -131l-66 -18l349 -445q92 -117 172 -186.5t174 -116.5h-170q-133 0 -181.5 18.5t-128.5 104.5l-43 49l-288 367l-54 69q-23 31 -38 45.5t-45 32.5 l-21 12l-12 7v-402v-29v-45v-47q0 -100 26 -182h-286q14 51 19 88t5 96l2 58v32v31v858v31l-2 55v35v7q0 103 -28 184zM373 793l20 -2h19h51q127 0 215 69.5t106.5 150.5t18.5 128q0 123 -89 187.5t-251 64.5l-68 -7l-22 -2v-589z" />
<glyph unicode="S" horiz-adv-x="1075" d="M59 68l15 159l30 -24q92 -72 168 -95.5t115 -29.5t84 -6q121 0 200 61.5t89 130t10 82.5q0 70 -44 126t-146 120l-109 67l-33 19l-137 80q-59 35 -113.5 92t-80 120.5t-25.5 133.5q0 96 48 181t154.5 146.5t286.5 61.5q59 0 90 -2t95 -14l49 -9l35 -6l28 -6l15 -4l22 -2 l13 -2h16l18 -172l-22 16l-27 17q-160 100 -307 100q-160 0 -219.5 -88t-59.5 -152q0 -74 61.5 -146.5t186.5 -143.5l56 -31l104 -57l47 -27q59 -31 147.5 -113t88.5 -237q0 -109 -61.5 -208.5t-158 -150.5t-178.5 -67.5t-127 -16.5q-82 0 -144.5 9.5t-160.5 42.5l-59 20 l-33 12z" />
<glyph unicode="T" horiz-adv-x="1214" d="M-4 1333l24 142h1174l25 -142l-33 8l-31 9l-49 10q-124 22 -202 22h-7h-174v-1144v-56.5t8 -81.5l6 -39l4 -30l7 -31h-281l6 31l4 30l6 39q4 29 6.5 67t2.5 71v1144h-175q-59 0 -88.5 -3t-119.5 -19l-50 -10l-30 -9z" />
<glyph unicode="U" horiz-adv-x="1411" d="M115 1475h274q-10 -55 -14 -92t-4 -99v-27v-65v-29v-747q0 -143 60.5 -214t137 -80t111.5 -9q33 0 127 16t162.5 103t68.5 255v674v31v53v37v15q0 27 -4 77l-18 101h276q-18 -80 -18 -191v-92v-29v-858v-29v-92q0 -57 5 -96t19 -88h-260v170q-152 -164 -395 -195l-92 -4 q-223 0 -317.5 96.5t-94.5 313.5v782v29l-2 92q0 61 -4 99.5t-18 91.5z" />
<glyph unicode="V" horiz-adv-x="1267" d="M-33 1475h324q0 -59 5 -94t26 -99l20 -59l10 -33l13 -29l348 -923l301 921l8 31l10 27l19 65q18 59 18 104q0 39 -16 89h239q-45 -76 -75 -148l-19 -45l-6 -18l-29 -74l-10 -29l-80 -219q-115 -315 -175 -485t-85 -246l-31 -90l-39 -121h-198q-39 117 -78 224.5 t-133 359.5l-225 577l-13 29l-12 33l-25 59l-22 53l-19 37q-12 31 -15 38.5t-36 64.5z" />
<glyph unicode="W" horiz-adv-x="1900" d="M31 1475h297l6 -101l2 -14l18 -78l21 -92l8 -29l133 -549l59 -260l23 -96l223 778q27 96 40 163t13 106q0 27 -5 70.5t-15 72.5l-4 12l-6 17h297q-4 -8 -7.5 -31t-3.5 -90q0 -43 33 -168l37 -125l6 -21l232 -780l18 80l14 59l41 166l45 180l84 336l21 82l4 15l4 14l6 37 q14 74 15 127q0 59 -27 119h207l-35 -99l-6 -22l-19 -70l-24 -92l-8 -29l-119 -458l-107 -406l-71 -299h-213l-146 496l-86 299l-88 299l-170 -590l-71 -252l-70 -252h-229l-25 121l-21 98q-45 215 -163 686l-66 254l-4 17l-2 14l-10 33l-17 57l-18 59l-10 33 q-6 16 -18.5 48t-22.5 55z" />
<glyph unicode="X" horiz-adv-x="1345" d="M-25 1475h365q14 -68 53 -125.5t80 -116.5l225 -320l166 252l19 29l32 55l21 37q37 68 37 131q0 29 -6 58h264l-41 -48q-72 -82 -113 -143l-6 -10l-55 -80l-21 -31l-237 -340l391 -555q74 -104 123 -157.5t119 -110.5h-369l-12 39q-18 51 -51 98t-68 96l-283 402 l-223 -330l-18 -31l-15 -22l-41 -68q-43 -78 -43 -127q0 -23 11 -57h-271q74 68 162 184l37 52l29 40l20 29l289 426l-332 467q-98 139 -137.5 184.5t-100.5 92.5z" />
<glyph unicode="Y" horiz-adv-x="1128" d="M-45 1475h309l389 -711l238 524q33 68 33 144v22v21h225l-19 -27l-14 -23l-18 -26l-23 -37l-53 -98l-252 -504l-6 -15l-19 -36q-29 -68 -28 -115l-2 -41v-31v-311v-14l4 -54q8 -92 22 -143h-297q12 31 23.5 91.5t11.5 103.5v415l-391 674q-14 25 -32.5 52.5t-28.5 41.5 l-11 15l-32 41l-9 10z" />
<glyph unicode="Z" horiz-adv-x="1236" d="M8 0l856 1382h-444q-96 0 -164 -8t-166 -33l-39 -10l29 144h1128l-852 -1369h414q59 0 129 6.5t133.5 16.5t94 16.5t98.5 22.5l-31 -168h-1186z" />
<glyph unicode="[" horiz-adv-x="489" d="M131 -154v1782h305v-125h-106v-1530h106v-127h-305z" />
<glyph unicode="\" horiz-adv-x="608" d="M96 1475h156l260 -1475h-158z" />
<glyph unicode="]" horiz-adv-x="483" d="M53 -27h107v1530h-107v125h299v-1782h-299v127z" />
<glyph unicode="^" horiz-adv-x="1165" d="M96 348l486 862l487 -862h-178l-309 567l-308 -567h-178z" />
<glyph unicode="_" horiz-adv-x="929" d="M96 0h738v-61h-738v61z" />
<glyph unicode="`" horiz-adv-x="419" d="M-27 1376h234l80 -293z" />
<glyph unicode="a" horiz-adv-x="952" d="M82 211q0 102 52 149.5t91 71t66 37.5l14 6l119 60l39 20q94 53 123.5 85t36.5 85l2 20v29l-2 43q0 80 -36 122t-106 42q-14 0 -56 -7t-67.5 -39t-40.5 -114l-14 -33q-32 -50 -87 -50q-9 0 -19 1q-43 4 -68 35q-18 23 -18 51q0 10 2 21q14 72 98 129t162 65.5t97 10.5 t40 2h22q156 0 229 -59.5t73 -164.5v-59v-41v-493v-25l2 -23v-45l4 -53v-18l8 -72h-225l4 137q-37 -53 -106.5 -107.5t-186.5 -54.5q-94 0 -166 56q-86 72 -86 180zM293 260q0 -70 41 -115t104 -45q23 0 58 11l36 18q94 57 95 178v273q-41 -33 -71 -51.5t-105.5 -61.5 t-116.5 -93t-41 -114z" />
<glyph unicode="b" horiz-adv-x="1075" d="M106 1475h224v-592l14 22q43 61 110.5 101.5t141.5 40.5q170 0 283.5 -132.5t113.5 -369.5q0 -70 -20.5 -209t-143 -252t-301.5 -113q-45 0 -106 11l-14 4l-70 16l-39 6q-35 4 -57 4h-13q-27 0 -47 -5t-41 -17l-8 -6l-8 -7v1264l-2 27v18l-2 49q0 57 -2.5 74t-12.5 66z M326 268l2 -8l8 -72q10 -57 60 -95t120 -38q35 0 89 18.5t100.5 101.5t62.5 245v57.5t2 57.5q0 23 -8 115.5t-67.5 175.5t-153.5 83q-96 0 -154.5 -69.5t-58.5 -210.5v-174z" />
<glyph unicode="c" horiz-adv-x="858" d="M84 498v32q0 238 134 378.5t335 140.5h32.5t39.5 -5l43 -6l30 -4l37 -6l8 -2h9h14h14l8 2l5 -151q-61 59 -115.5 68t-71 9h-26.5q-113 0 -179.5 -83t-85.5 -261q0 -31 -1 -54.5t-1 -39.5q0 -14 2 -31.5t11.5 -102.5t82 -171t183.5 -86q61 0 110.5 19.5t74 34t52.5 38.5 l-38 -131q-39 -33 -112 -67.5t-167 -34.5q-158 0 -277.5 113.5t-135 233.5t-15.5 167z" />
<glyph unicode="d" horiz-adv-x="1073" d="M84 530q0 244 130 386.5t325 142.5q72 0 161 -27l43 -16v233v27v67l-2 56v14l-6 62h213v-1239v-25l2 -70q0 -45 3 -69.5t14 -71.5h-226v145l-30 -45q-101 -116 -247 -116h-3q-156 0 -266.5 129t-110.5 417zM305 543q0 -51 2 -91t13.5 -100.5t45 -120t76.5 -84t95 -24.5 q121 0 157.5 72.5t43.5 118.5t7 145v59l-2 133q0 180 -32.5 246t-94.5 74q-49 6 -69 6h-8q-100 -10 -165 -100.5t-65 -266.5z" />
<glyph unicode="e" horiz-adv-x="980" d="M82 463q0 233 98.5 389t209 180.5t161.5 24.5q123 0 217 -69.5t123 -160t29 -114.5q0 -51 -48 -51h-14h-51h-492l-4 -41q-6 -47 -6 -91q0 -27 2 -54t14.5 -109t88 -158t190.5 -76q92 0 201 55l88 58l12 10l17 14l-37 -135l-19 -16q-104 -96 -190 -114.5t-142 -18.5 q-188 0 -318 132t-130 345zM324 731h260q116 0 116 79q0 21 -6 48t-42 72t-113 45q-82 0 -126 -52.5t-65 -105.5l-16 -45l-4 -22z" />
<glyph unicode="f" horiz-adv-x="501" d="M29 942v90h108v131q0 160 95.5 249t267.5 89q102 0 186 -43l-61 -104l-13 8l-22 12q-39 25 -72 27q-86 0 -122 -36t-50 -144l-2 -41v-148h205v-90h-207v-764l4 -69l2 -48l2 -12q0 -16 10 -49h-237l4 25l2 20l2 27l4 34l2 70v766h-108z" />
<glyph unicode="g" horiz-adv-x="989" d="M-12 -186q0 90 81.5 164.5t163.5 111.5l-10 4l-30 12q-23 8 -43.5 20.5t-36 36t-15.5 56.5q0 66 127 121l80 27l41 8l-47 14q-51 14 -136 80t-85 227q0 164 109.5 261.5t322.5 97.5q51 0 106 -6l117 -17h254v-82h-186q88 -92 88 -219q0 -37 -9.5 -99.5t-75 -128 t-218.5 -122.5l-33 -10l-6 -2l-86 -25l-23 -6l-47 -16l-39 -19q-20 -14 -20 -39q0 -20 16 -33q25 -12 43 -14l60 -12l16 -2l203 -41l39 -8l143 -31l63 -17q129 -45 129 -157q0 -59 -59 -141t-173 -144.5t-208 -82t-176 -19.5q-180 0 -310 74.5t-130 177.5zM199 -115 q0 -25 15 -71.5t96 -94t194 -47.5q12 0 29.5 2t65.5 7.5t114.5 44t93.5 85t27 78.5q0 63 -68 80l-45 13l-62 12l-299 61l-36 -14q-125 -66 -125 -156zM289 741l4 -49l8 -41q45 -178 113.5 -185t91.5 -7q172 0 172 225q0 53 -15.5 115.5t-55.5 109.5t-75.5 54.5t-58.5 7.5 q-80 0 -132 -60.5t-52 -169.5z" />
<glyph unicode="h" horiz-adv-x="1073" d="M106 0l13 70l2 16l2 55l2 62l-2 30v1016v25v39l-2 30v52l-2 18q0 25 -10 62h221v-566l24 23q104 94 173 107.5t96.5 15.5t48.5 2q123 0 195.5 -64.5t84.5 -179.5v-125v-455v-24l2 -70l2 -51l2 -18l11 -70h-219v670v8l-2 74l-7 47q-10 59 -58 94t-116 35q-37 0 -67.5 -9.5 t-81.5 -41t-69.5 -73.5t-18.5 -140v-431v-24l2 -68l2 -59v-12l8 -70h-236z" />
<glyph unicode="i" horiz-adv-x="444" d="M92 1298q0 53 40 89t95 36q53 0 92 -38.5t39 -90.5q0 -55 -38.5 -92t-96.5 -37q-57 0 -94 39t-37 94zM100 0l11 70l2 26l2 45l2 45v23v27v563v26l-2 68l-2 63v9q0 23 -11 67h222v-796l-2 -27l2 -68l2 -53l2 -18l12 -70h-240z" />
<glyph unicode="j" horiz-adv-x="458" d="M-8 -442q61 76 95 174t34 229l4 78l2 63l2 68v31v594v26v68l-2 57v15l-10 71h219v-829v-119l-2 -55q-12 -119 -32.5 -187.5t-69 -133t-109.5 -103.5t-131 -47zM109 1296q0 55 38.5 92t98.5 37q27 0 49 -10t50 -37.5t28 -77.5q0 -49 -38 -86.5t-95 -37.5q-53 0 -92 34.5 t-39 85.5z" />
<glyph unicode="k" horiz-adv-x="954" d="M109 0q10 35 14 70l2 71l2 68l-2 24v1014v27v12v55q0 79 -16 134h223v-869l26 27l35 33l19 18l20 21l37 36q49 53 83 101.5t46 81t16 52t4 32.5q0 16 -2 24h293l-22 -16l-17 -15l-18 -16l-45 -41l-51 -49l-21 -21l-49 -45l-49 -49l-53 -53l-52 -53l-18 -19l-18 -18 l301 -416q72 -94 115.5 -139t103.5 -82h-318l-368 528v-292v-27v-21l2 -47q0 -45 3 -71.5t13 -69.5h-239z" />
<glyph unicode="l" horiz-adv-x="456" d="M111 0l12 70v8v63l2 68v24v1016v27v14v53q0 29 -1 54t-13 78h221v-1239v-13v-14l4 -68l2 -57v-14l12 -70h-239z" />
<glyph unicode="m" horiz-adv-x="1646" d="M106 0q10 35 15 70v14l2 57l2 68v24v564v26l-2 68l-2 65l-10 76h221v-94l22 20q88 70 167 84.5t118 14.5q90 0 159.5 -37t108.5 -100l27 22q94 80 159.5 94.5t93 16.5t58.5 2q129 0 207 -63.5t78 -166.5v-204l-2 -215v-170v-17v-10v-68l2 -59l2 -12l12 -70h-221v229v201 v45l-2 143q0 174 -34 242t-126 68q-29 0 -98.5 -12.5t-102 -76t-32.5 -231.5l2 -43v-133v-47l-2 -152v-24v-68q0 -61 2 -77.5t14 -63.5h-237l12 68v12l2 59l2 68l2 26v101v76v194q0 176 -38 250t-134 74q-27 0 -92.5 -11.5t-98 -76t-32.5 -238.5v-22v-179v-168v-26l2 -68 q0 -61 2 -76.5t14 -62.5h-242z" />
<glyph unicode="n" horiz-adv-x="1073" d="M106 0l13 72l2 16v55l2 68l2 25v565v26l-2 68l-2 63v9l-8 65h217v-119l18 19q31 27 60.5 48t71.5 40.5t90 30t92 10.5q121 0 200.5 -69.5t89.5 -178.5v-205v-20v-195l-2 -80v-77v-17l2 -10v-68l2 -53l2 -18l11 -70h-222v223v174v213l-2 168q-6 63 -55 105.5t-123 42.5 q-35 0 -100.5 -16.5t-101 -83t-35.5 -228.5v-217v-53v-92v-27v-14v-54l2 -51v-20l12 -70h-236z" />
<glyph unicode="o" horiz-adv-x="1140" d="M84 453q0 272 130 439t345 167q229 0 364.5 -137.5t135.5 -382.5q0 -45 -14.5 -176.5t-150.5 -259.5t-327 -128q-37 0 -127 13.5t-181 96.5t-133 170t-42 198zM307 565q0 -59 13.5 -157.5t46 -171t89 -123t128.5 -50.5q63 0 117.5 40t82 115t35.5 169q0 147 -5 224 t-31.5 153t-78 141.5t-151.5 65.5q-115 0 -164 -79t-62.5 -144.5t-15.5 -77.5t-2 -39q-2 -16 -2 -36v-30z" />
<glyph unicode="p" horiz-adv-x="1071" d="M111 -414l10 70v18l2 54l2 67v12v15v977v14v10l-2 70l-2 57v13l-8 69h219v-149l28 39q111 125 265 125q174 0 256 -123t94 -202t14 -132t2 -58q0 -231 -106.5 -377.5t-215 -165t-147.5 -18.5q-111 0 -194 49v-198v-27l2 -67l2 -56v-16l10 -70h-231zM330 469l2 -244 q10 -80 57 -128t119 -48q39 0 95 17.5t111.5 125t55.5 289.5v86q-6 41 -12 97.5t-38 117t-81 95.5q-47 30 -101 30h-3q-121 0 -151 -59.5t-40 -88t-10 -69.5l-4 -35v-20v-166z" />
<glyph unicode="q" horiz-adv-x="1069" d="M80 537v45t14.5 121.5t69.5 182.5t129 121t156 40q152 0 262 -125l28 -39v149h222l-11 -69v-11l-2 -59v-70v-24v-977v-27v-67l2 -56l2 -16l9 -70h-230l8 70v14l2 58l2 67v27v198q-80 -49 -196 -49q-37 0 -145.5 18.5t-215 165t-106.5 382.5zM301 471q0 -180 54.5 -282.5 t105.5 -119t76.5 -18.5t27.5 -2q74 0 119 47t55 129q2 33 3 105.5t1 138.5l-2 168v18l-2 35l-14 78q-20 66 -72.5 103.5t-115.5 37.5q-55 0 -110.5 -36.5t-89.5 -114.5t-34 -217z" />
<glyph unicode="r" horiz-adv-x="579" d="M104 0q18 68 19 141l2 68v24v564v26l-2 68l-2 61v11q-4 35 -15 69h226v-153l10 16l14 18q31 43 77 82t87 57q33 14 67 14l15 -1q-14 -68 -22.5 -126t-8.5 -122l-20 14q-57 33 -100 33q-66 0 -93.5 -68.5t-27.5 -156.5v-403v-15v-12l2 -68l2 -53l2 -18l12 -70h-244z" />
<glyph unicode="s" horiz-adv-x="825" d="M47 195q41 -35 90 -62t95.5 -40t82 -20t54.5 -7q14 0 91 14t77 135q0 23 -10.5 65t-84.5 99l-34 24l-43 29l-60 35l-43 27q-201 133 -201 270q0 37 20.5 103.5t122 124t251.5 57.5l47 -5l28 -6l41 -6l25 -6l31 -4l18 -2h14l31 2l25 -154l-45 29q-25 14 -55.5 26.5t-86 28 t-96.5 15.5q-16 0 -66.5 -10.5t-70 -56.5t-19.5 -71q0 -47 40 -93t135 -103l38 -23q266 -150 267 -317q0 -66 -40 -145.5t-131 -126t-243 -46.5q-37 0 -75 3.5t-105 19.5l-41 8l-21 6l-20 8z" />
<glyph unicode="t" horiz-adv-x="536" d="M18 944v88h115v234l211 61l-4 -295h174l-6 -88h-168v-641v-22l2 -29q0 -33 9 -85t89 -52q25 0 54 12l24 14l29 25l-8 -115l-11 -8l-8 -6l-28 -17q-82 -38 -154 -38h-4q-80 0 -132 38.5t-63 100.5l-6 72l2 94v657h-117z" />
<glyph unicode="u" horiz-adv-x="1081" d="M109 1032h221v-647v-68q0 -98 47 -157.5t129 -59.5q47 0 104 23l43 22q55 35 77 72t22 102v74v404l-2 24v27l-2 41v57v15l-7 71h215v-796v-17v-10l2 -23v-45l3 -49l2 -22l10 -70h-221v131q-53 -70 -123 -102.5t-119 -43t-94 -10.5q-117 0 -198 61.5t-91 151.5l-4 84 l2 111v414v24l-2 70l-2 47l-2 23z" />
<glyph unicode="v" horiz-adv-x="940" d="M-8 1032h276q-2 -12 -2 -37q0 -39 23 -106l16 -47l8 -21l11 -26l213 -566l200 566l4 14l4 12l9 27l12 41q6 18 8 37.5t2 40.5q0 37 -10 65h182l-35 -71l-8 -17l-20 -55l-27 -68l-10 -26l-289 -795h-156l-305 797l-8 24l-29 68l-22 55l-8 17z" />
<glyph unicode="w" horiz-adv-x="1484" d="M33 1032h243l13 -71l2 -9l18 -63l19 -68l6 -26l164 -572l170 586l-4 39q-6 63 -12.5 93t-22.5 69l-6 14l-2 8h288l-4 -8l-4 -6q-4 -10 -6 -37t-2 -49q0 -29 18 -96l168 -619l170 580l6 22l7 25l12 47q10 41 10 78q0 35 -10 63h178l-35 -71l-8 -23l-18 -47l-15 -45l-8 -25 l-4 -12l-4 -12l-248 -797h-182l-197 711l-201 -711h-186l-225 797l-8 24l-7 21l-16 47l-16 51l-8 21z" />
<glyph unicode="x" horiz-adv-x="1036" d="M-8 1032h317l228 -350l75 115l19 26l8 15l33 53q30 51 30 86q0 29 -14 55h234q-59 -55 -125 -141l-29 -39l-23 -29l-8 -12l-8 -12l-137 -197l289 -416q84 -119 188 -186h-326l-286 438l-131 -205l-7 -8l-10 -16l-16 -29q-39 -72 -39 -114q0 -35 25 -66h-275 q70 51 139 141l29 41l21 27l18 27l190 280l-264 379q-67 92 -145 137z" />
<glyph unicode="y" horiz-adv-x="931" d="M-133 -346q0 43 31.5 68.5t70.5 25.5q12 0 49 -8l19 -6l29 -10l34 -5q7 -1 14 -1q68 0 130 56q69 60 106 156.5t37 141.5q0 43 -20 92l-308 725q-25 55 -45 86t-51 57h311l-2 -20q0 -31 4.5 -55.5t10.5 -43.5l237 -604l238 568q20 49 20 92q0 37 -10 63h191 q-23 -23 -37.5 -44t-38.5 -77l-441 -993q-80 -182 -186 -271t-227 -89q-18 2 -27 2q-90 8 -114.5 33.5t-24.5 60.5z" />
<glyph unicode="z" horiz-adv-x="903" d="M-12 0l592 948h-160l-49 -2q-113 -10 -174.5 -23.5t-122.5 -39.5l32 149h781l-594 -936h262q94 0 187.5 22.5t154.5 47.5l-45 -166h-864z" />
<glyph unicode="{" horiz-adv-x="647" d="M96 737q55 0 92 41t37 107v676q0 145 166 145h160v-92h-25q-72 0 -95 -23.5t-23 -95.5v-594q0 -63 -41 -110.5t-105 -53.5q63 -6 104.5 -53t41.5 -111v-593q0 -72 23.5 -95.5t94.5 -23.5h25v-92h-160q-166 0 -166 145v676q0 63 -36 105t-93 42z" />
<glyph unicode="|" horiz-adv-x="348" d="M96 0v1475h156v-1475h-156z" />
<glyph unicode="}" horiz-adv-x="647" d="M96 -139h25q72 0 95.5 23.5t23.5 95.5v593q0 63 41 110.5t104 53.5q-63 6 -104 53.5t-41 110.5v594q0 72 -23.5 95.5t-95.5 23.5h-25v92h160q166 0 166 -145v-676q0 -63 36 -105.5t93 -42.5q-55 0 -92 -41t-37 -106v-676q0 -145 -166 -145h-160v92z" />
<glyph unicode="~" horiz-adv-x="962" d="M96 590v37q0 119 54.5 181t144.5 62q59 0 125 -26l158 -64l24 -10q43 -12 68 -12q41 0 53 31.5t20 64.5l2 18h121v-36q0 -119 -54 -181.5t-144 -62.5q-59 0 -125 26l-160 64l-18 6q-53 16 -76 17q-37 0 -49.5 -32t-20.5 -65l-2 -18h-121z" />
<glyph unicode="&#xa1;" horiz-adv-x="542" d="M109 1337l163 166l162 -164l-164 -163zM135 0l72 1067h125l67 -1067h-264z" />
<glyph unicode="&#xa2;" horiz-adv-x="880" d="M82 530q0 211 110.5 351.5t264.5 158.5v150h104v-139q27 0 57.5 -3.5t77.5 -11.5l39 -8l13 -2h16h12l10 2l5 -151q-61 59 -115.5 68t-71 9h-26.5q-113 0 -179.5 -83t-85.5 -261q0 -31 -1 -54.5t-1 -39.5q0 -14 2 -31.5t11.5 -102.5t82 -171t183.5 -86q61 0 110.5 19.5 t74 34t52.5 38.5l-39 -131l-18 -14q-98 -74 -209 -88v-156h-104v160q-170 23 -272.5 168t-102.5 374z" />
<glyph unicode="&#xa3;" horiz-adv-x="1099" d="M57 0l31 23q131 102 184.5 184t53.5 186q0 57 -17 144l-14 55l-12 55l-11 37h-182l33 104h125l-8 23l-13 37l-22 86q-18 80 -19 149q0 193 118 304.5t325 111.5q20 0 39.5 -1t83.5 -9l106 -21l19 -4l10 -2l22 -192l-8 8l-22 20q-63 57 -118.5 80t-113.5 23 q-100 0 -164.5 -64.5t-64.5 -173.5q0 -41 6 -91t24.5 -126t51.5 -158h340l-39 -106h-277l13 -55q25 -96 24 -164q0 -76 -29.5 -135.5t-103.5 -128.5l-31 -27l52 -2l53 -4l65 -2q215 0 293 24.5t184 130.5l21 19l-109 -338h-899z" />
<glyph unicode="&#xa4;" horiz-adv-x="937" d="M96 436l127 125q-59 82 -59 180q0 94 57 177l-123 118q25 37 64 72l127 -127q78 59 180 59q100 0 178 -57l125 127q16 -12 29.5 -24.5t25.5 -28.5l15 -21l-127 -118q57 -78 57 -179q0 -98 -59 -180l127 -127l-15 -16l-16 -15l-39 -34l-123 127q-78 -59 -178 -60 q-100 0 -178 60l-129 -125q-18 14 -34 29t-32 38zM264 737q0 -84 59.5 -143t145.5 -59q84 0 143.5 58t59.5 144q0 84 -59.5 143.5t-143.5 59.5t-144.5 -58.5t-60.5 -144.5z" />
<glyph unicode="&#xa5;" horiz-adv-x="1353" d="M80 1475h309l389 -711l238 524q33 68 33 144v22v21h225l-19 -27l-14 -23l-16 -22l-25 -41l-53 -98l-246 -514h354q-6 -20 -8 -30.5t-2 -31.5q0 -27 4 -40t6 -19h-395q-8 -16 -8 -31l-2 -10h405q-6 -20 -8 -30.5t-2 -31.5q0 -27 4 -40t6 -19h-415v-256v-14l4 -54 q8 -92 22 -143h-297l23 84q12 61 12 111l2 272h-434l6 29q4 25 4 34q0 27 -10 58h436l-12 41h-424q6 20 8 30.5t2 30.5q0 27 -4 40t-6 20h358l-317 534l-61 94l-11 15l-32 41l-9 10z" />
<glyph unicode="&#xa7;" horiz-adv-x="1204" d="M66 567q0 86 51 162t139 121l39 18l-27 23q-94 94 -94 229q0 68 27.5 134.5t104.5 142.5t178.5 86t119 10h25.5q195 0 324.5 -120t129.5 -292l-202 4q0 35 -4 52q-25 166 -124.5 192.5t-129.5 26.5q-35 0 -72 -13l-39 -14q-117 -61 -117 -186q0 -84 44 -128t69 -57l10 -4 l35 -14l365 -133q188 -70 202.5 -175.5t14.5 -133.5q0 -92 -45.5 -168t-126.5 -119l-41 -18l28 -31q86 -96 86 -219q0 -47 -26.5 -136.5t-146.5 -164t-290 -74.5q-205 0 -328.5 111.5t-123.5 271.5q0 27 2 41l201 -6q-2 -12 -2 -35q0 -88 58 -156.5t121.5 -82t90.5 -13.5 q96 0 157.5 61.5t61.5 157.5q0 20 -6 67.5t-48 80t-56.5 39t-49.5 18.5l-370 129q-215 76 -215 315zM285 567q0 -59 46 -111.5t122 -74.5l292 -94q72 0 125.5 47t53.5 125q0 152 -144 200l-315 111q-76 10 -128 -48t-52 -155z" />
<glyph unicode="&#xa8;" horiz-adv-x="643" d="M4 1241q0 49 36 85t87 36q53 0 89 -36t36 -85t-37 -84t-88 -35q-53 0 -88 35t-35 84zM391 1243q0 51 36 85t89 34q49 0 86 -36t37 -87q0 -47 -37 -82t-86 -35q-53 0 -89 34t-36 87z" />
<glyph unicode="&#xa9;" horiz-adv-x="1720" d="M96 739q0 317 166 483.5t308.5 223.5t289.5 57q152 0 289 -55t248.5 -166t170 -252t58.5 -291q0 -154 -55 -290t-167 -247.5t-253 -170t-291 -58.5q-152 0 -290 56.5t-306 224.5t-168 485zM199 739q0 -133 51 -257t145 -219t215 -145t252 -50q127 0 249 50t216 145 t144.5 218t50.5 256q0 131 -49.5 255t-144.5 220.5t-216 146.5t-252 50q-127 0 -247.5 -49t-216 -145.5t-146.5 -218.5t-51 -257zM412 713q0 66 28.5 173t150.5 195t281 88q96 0 189 -32l33 -11l14 -4q41 -10 53 29l2 8l21 2l16 -280h-20l-11 49q-27 92 -99.5 146t-166.5 54 q-29 0 -45 -2t-86 -22.5t-133.5 -123.5t-63.5 -259q0 -178 91.5 -287.5t232.5 -109.5q90 0 162 35.5t129 113.5l20 33l17 -8l-27 -45q-117 -180 -340 -181q-51 0 -156.5 24t-198.5 141.5t-93 273.5z" />
<glyph unicode="&#xaa;" horiz-adv-x="921" d="M96 575v109h723v-109h-723zM104 928q0 49 26 93t73 74.5t137 59.5l39 12l31 9l22 6l43 12l49 12v121q0 63 -18.5 90t-48 32t-37.5 5h-12q-51 0 -85 -25.5t-30 -56.5l2 -6l4 -12l4 -13l6 -12q2 -4 2 -35q0 -27 -25.5 -46t-60.5 -19t-58.5 23.5t-23.5 60.5q0 10 31 98 t309 88q115 0 166 -48t51 -140v-387v-21v-14q6 -59 66 -47q16 4 33 20l8 8l6 11l12 -17q-12 -25 -37 -49l-26 -22q-27 -18 -51.5 -26.5t-51.5 -8.5q-92 0 -122 86l-9 30l-14 -16q-102 -102 -215 -102q-31 0 -78 13t-82 58t-35 101zM274 963q0 -43 32 -81t83 -38q61 0 123 61 l14 17v241l-18 -8l-21 -6l-26 -10l-25 -11l-18 -8l-31 -12q-53 -25 -83 -64.5t-30 -80.5z" />
<glyph unicode="&#xab;" horiz-adv-x="878" d="M80 516l399 545l-196 -545l196 -545zM393 516l400 545l-197 -545l197 -545z" />
<glyph unicode="&#xac;" horiz-adv-x="1187" d="M96 737v156h996v-451h-129v295h-867z" />
<glyph unicode="&#xad;" horiz-adv-x="798" d="M63 489l84 164h588l-82 -164h-590z" />
<glyph unicode="&#xae;" horiz-adv-x="1572" d="M23 739q0 317 165.5 483.5t308 223.5t289.5 57q152 0 289 -55t249 -166t170 -252t58 -291q0 -154 -55 -290t-166.5 -247.5t-253 -170t-291.5 -58.5q-152 0 -290 56.5t-305.5 224.5t-167.5 485zM125 739q0 -133 51 -257t145.5 -219t215 -145t251.5 -50q127 0 249 50 t216.5 145t144.5 218t50 256q0 131 -49 255t-144.5 220.5t-216 146.5t-252.5 50q-127 0 -247.5 -49t-216 -145.5t-146.5 -218.5t-51 -257zM412 305v19h12l20 2l17 2h12l10 4q43 16 43 76v671q0 57 -43 76l-12 2l-8 2l-19 2h-22l-10 2v19h422q61 0 112 -13.5t91 -41 t64.5 -72.5t24.5 -94q0 -78 -55 -134.5t-151 -87.5l-39 -8l202 -332l33 -32l14 -13l13 -8l12 -6l12 -6l23 -8l8 -2h14h9l6 -19h-271l-221 395l-57 2v-294q0 -57 41 -76l10 -4h10l19 -2l20 -2h13v-19h-379zM678 766l33 -4q209 0 233.5 84t24.5 110q0 78 -57.5 127.5 t-155.5 49.5q-41 0 -78 -11v-356z" />
<glyph unicode="&#xaf;" horiz-adv-x="569" d="M47 1135v127h471v-127h-471z" />
<glyph unicode="&#xb0;" horiz-adv-x="745" d="M96 1227q0 117 80 196.5t197 79.5t196.5 -80t79.5 -196q0 -115 -81 -196t-195 -81q-117 0 -197 80t-80 197zM186 1227q0 -78 53.5 -131.5t133.5 -53.5q78 0 132 54.5t54 130.5t-54 131t-132 55t-132.5 -54t-54.5 -132z" />
<glyph unicode="&#xb4;" horiz-adv-x="411" d="M133 1087l82 291h234z" />
<glyph unicode="&#xb6;" horiz-adv-x="1093" d="M23 1075q0 162 121.5 281t293.5 119h633v-56h-612q-125 0 -216 -99t-91 -249q0 -145 92 -241.5t217 -96.5h119v545h110v-1278h-223v27h14h19l12 2l16 2q51 6 52 65v580h-142q-172 0 -293.5 117.5t-121.5 281.5zM827 0v1278h113v-1182q0 -59 49 -65l15 -2l14 -2h18h13v-27 h-222z" />
<glyph unicode="&#xb7;" horiz-adv-x="446" d="M61 512l162 164l162 -164l-162 -164z" />
<glyph unicode="&#xb8;" horiz-adv-x="346" d="M78 -344l22 4l37 4l13 2q29 8 49 23.5t20 46.5q0 29 -20 43l-41 20l-25 8l74 193h65l-18 -47l-8 -25l-8 -22q4 -14 8 -23l43 -26l26 -19q33 -31 33 -71q0 -61 -56 -94t-112 -33q-27 0 -61 6l-23 6z" />
<glyph unicode="&#xba;" horiz-adv-x="917" d="M96 1130q0 150 80 248.5t168 112.5t123 14q156 0 243 -87t97 -155.5t13 -89t3 -47.5q0 -166 -98 -268t-258 -102q-147 0 -242.5 77.5t-120.5 221.5q-8 32 -8 75zM98 575v109h721v-109h-721zM283 1130l4 -59q14 -94 40.5 -150.5t64.5 -83t79 -26.5q86 0 129 84 q18 43 27.5 81t9.5 97v70q-6 33 -11 75t-24.5 94t-53.5 96t-95 44q-59 0 -97.5 -44t-55.5 -95t-17 -121v-62z" />
<glyph unicode="&#xbb;" horiz-adv-x="878" d="M86 -29l197 545l-197 545l399 -545zM399 -29l197 545l-197 545l400 -545z" />
<glyph unicode="&#xbf;" horiz-adv-x="788" d="M72 301q0 31 7 73t29.5 83t79.5 104l113 115l29 31q80 94 98 145t18 184l3 41h126v-78l3 -43l4 -108l-2 -39q-10 -55 -58 -123l-67 -88l-29 -43q-57 -82 -78.5 -123t-27 -66.5t-5.5 -58.5q0 -84 52.5 -136t142.5 -52q14 0 34.5 3t33 5t37 11t53 22.5t59.5 38.5l27 22 v-147l-19 -13l-18 -10l-39 -20q-111 -51 -219 -51q-178 0 -282.5 90t-104.5 231zM350 1333l162 166l160 -166l-162 -164z" />
<glyph unicode="&#xc0;" horiz-adv-x="1333" d="M-33 0q23 35 48.5 81t50.5 105l28 64l12 29l11 28l78 195l90 229l77 205l99 276q14 43 26.5 86t12.5 76q0 25 -11 66l-6 18l-6 17h250l246 -586l67 -160q158 -377 218.5 -501t134.5 -228h-316q-10 76 -53 184l-29 74l-8 18l-6 13l-6 16l-146 342h-462l-127 -340l-4 -14 l-7 -17l-10 -30l-18 -60q-10 -33 -16.5 -64.5t-6.5 -55.5q0 -27 2 -41q6 -16 6 -25h-219zM395 739h398l-211 504zM430 1819h234l79 -293z" />
<glyph unicode="&#xc1;" horiz-adv-x="1333" d="M-33 0q23 35 48.5 81t50.5 105l28 64l12 29l11 28l78 195l90 229l77 205l99 276q14 43 26.5 86t12.5 76q0 25 -11 66l-6 18l-6 17h250l246 -586l67 -160q158 -377 218.5 -501t134.5 -228h-316q-10 76 -53 184l-29 74l-8 18l-6 13l-6 16l-146 342h-462l-127 -340l-4 -14 l-7 -17l-10 -30l-18 -60q-10 -33 -16.5 -64.5t-6.5 -55.5q0 -27 2 -41q6 -16 6 -25h-219zM395 739h398l-211 504zM594 1530l82 291h233z" />
<glyph unicode="&#xc2;" horiz-adv-x="1333" d="M-33 0q23 35 48.5 81t50.5 105l28 64l12 29l11 28l78 195l90 229l77 205l99 276q14 43 26.5 86t12.5 76q0 25 -11 66l-6 18l-6 17h250l246 -586l67 -160q158 -377 218.5 -501t134.5 -228h-316q-10 76 -53 184l-29 74l-8 18l-6 13l-6 16l-146 342h-462l-127 -340l-4 -14 l-7 -17l-10 -30l-18 -60q-10 -33 -16.5 -64.5t-6.5 -55.5q0 -27 2 -41q6 -16 6 -25h-219zM395 739h398l-211 504zM430 1524l154 291h166l151 -287l-233 141z" />
<glyph unicode="&#xc3;" horiz-adv-x="1333" d="M-33 0q23 35 48.5 81t50.5 105l28 64l12 29l11 28l78 195l90 229l77 205l99 276q14 43 26.5 86t12.5 76q0 25 -11 66l-6 18l-6 17h250l246 -586l67 -160q158 -377 218.5 -501t134.5 -228h-316q-10 76 -53 184l-29 74l-8 18l-6 13l-6 16l-146 342h-462l-127 -340l-4 -14 l-7 -17l-10 -30l-18 -60q-10 -33 -16.5 -64.5t-6.5 -55.5q0 -27 2 -41q6 -16 6 -25h-219zM395 739h398l-211 504zM399 1591v17q31 184 152 184q41 0 84 -20l6 -3l74 -40l26 -15q31 -14 64 -14q55 0 113 65l12 17l6 8l-2 -18l-4 -17l-8 -35q-51 -152 -156 -151 q-37 0 -66.5 13t-43 20.5t-62.5 39.5l-23 13q-35 12 -57 12q-43 0 -92 -51z" />
<glyph unicode="&#xc4;" horiz-adv-x="1323" d="M-39 0q23 35 48.5 81t49.5 105l29 64l12 29l11 28l77 195l91 229l77 205l99 276q14 43 26.5 86t12.5 76q0 25 -11 66l-6 18l-6 17h250l246 -586l67 -160q158 -377 218.5 -501t133.5 -228h-315q-10 76 -53 184l-29 74l-8 18l-6 13l-6 16l-146 342h-463l-127 -340l-4 -14 l-6 -17l-10 -30l-18 -60q-10 -33 -16.5 -64.5t-6.5 -55.5q0 -27 2 -41q6 -16 6 -25h-219zM244 1712q0 61 42 103.5t105 42.5q59 0 104.5 -42t45.5 -102q0 -61 -44 -103t-108 -42q-61 0 -103 42t-42 101zM389 739h397l-211 504zM698 1712q0 59 43 102.5t107 43.5 q59 0 104 -43t45 -103q0 -59 -43 -101t-104 -42q-63 0 -107.5 42t-44.5 101z" />
<glyph unicode="&#xc5;" horiz-adv-x="1323" d="M-39 0q23 35 48.5 81t49.5 105l29 64l12 29l11 28l77 195l91 229l77 205l99 276q14 43 26.5 86t12.5 76q0 25 -11 66l-6 18l-6 17h250l246 -586l67 -160q158 -377 218.5 -501t133.5 -228h-315q-10 76 -53 184l-29 74l-8 18l-6 13l-6 16l-146 342h-463l-127 -340l-4 -14 l-6 -17l-10 -30l-18 -60q-10 -33 -16.5 -64.5t-6.5 -55.5q0 -27 2 -41q6 -16 6 -25h-219zM389 739h397l-211 504zM442 1649q0 66 49.5 112.5t118.5 46.5q68 0 116 -48t48 -115q0 -63 -50 -111.5t-116 -48.5q-68 0 -117 49t-49 115zM514 1649q0 -37 27.5 -65t66.5 -28 q41 0 66 29q27 25 26 62q0 37 -26.5 62.5t-65.5 25.5q-37 0 -65.5 -24.5t-28.5 -61.5z" />
<glyph unicode="&#xc6;" horiz-adv-x="1943" d="M-39 0l27 27l26 24l35 37l123 148l768 1054q33 43 51 115l6 29l2 20l2 21h805l23 -142q-70 23 -129.5 35t-134.5 12l-62 2h-258v-559h172q63 0 96 4t119 25l62 14v-182q-49 20 -102.5 32.5t-121.5 12.5h-53h-176v-623h283q121 0 301 33l71 15l43 8l-86 -162h-880 q14 39 25.5 82t11.5 92l2 41v363h-463l-223 -332l-31 -47q-29 -49 -53.5 -102.5t-38.5 -96.5h-242zM623 678h385v559z" />
<glyph unicode="&#xc7;" horiz-adv-x="1271" d="M84 754q0 256 136 444t296 240.5t262 52.5h66q33 -6 47 -8l61 -8l45 -7l52 -8l14 -2l6 -2l35 -4l22 -2h11l24 4l17 -197l-48 33q-29 18 -62.5 34.5t-106 42.5t-166.5 26q-180 0 -297 -131.5t-132.5 -270.5t-17.5 -177t-2 -71q0 -307 130 -475t339 -168q102 0 187 37 t182 133l41 47l-60 -192q-129 -106 -299 -137l-100 -13l-10 -26l-8 -25l-9 -22q4 -16 9 -21l47 -26l26 -19q35 -31 35 -74q0 -61 -57.5 -92.5t-120.5 -31.5q-29 0 -64 6l-24 4l-21 6l25 2l37 6l14 2q31 8 52.5 23.5t21.5 44.5t-23 45l-41 18l-28 10l71 175l-90 12 q-240 51 -382 255t-142 507z" />
<glyph unicode="&#xc8;" horiz-adv-x="1056" d="M113 0q14 61 18 81.5t4 78.5l4 76v18v1020v45q0 49 -10 106l-6 31l-4 19h817l22 -144q-53 20 -114.5 33.5t-132.5 13.5l-72 4h-266v-559h192h53q61 0 105.5 10.5t103.5 34.5v-182q-57 23 -115.5 33t-146.5 10h-190v-623h327q115 0 179.5 8.5t142.5 32.5l41 15l-82 -162 h-870zM293 1819h233l80 -293z" />
<glyph unicode="&#xc9;" horiz-adv-x="1056" d="M113 0q14 61 18 81.5t4 78.5l4 76v18v1020v45q0 49 -10 106l-6 31l-4 19h817l22 -144q-53 20 -114.5 33.5t-132.5 13.5l-72 4h-266v-559h192h53q61 0 105.5 10.5t103.5 34.5v-182q-57 23 -115.5 33t-146.5 10h-190v-623h327q115 0 179.5 8.5t142.5 32.5l41 15l-82 -162 h-870zM457 1530l82 291h233z" />
<glyph unicode="&#xca;" horiz-adv-x="1056" d="M113 0q14 61 18 81.5t4 78.5l4 76v18v1020v45q0 49 -10 106l-6 31l-4 19h817l22 -144q-53 20 -114.5 33.5t-132.5 13.5l-72 4h-266v-559h192h53q61 0 105.5 10.5t103.5 34.5v-182q-57 23 -115.5 33t-146.5 10h-190v-623h327q115 0 179.5 8.5t142.5 32.5l41 15l-82 -162 h-870zM293 1524l153 291h166l152 -287l-234 141z" />
<glyph unicode="&#xcb;" horiz-adv-x="1056" d="M113 0q14 61 18 81.5t4 78.5l4 76v18v1020v45q0 49 -10 106l-6 31l-4 19h817l22 -144q-53 20 -114.5 33.5t-132.5 13.5l-72 4h-266v-559h192h53q61 0 105.5 10.5t103.5 34.5v-182q-57 23 -115.5 33t-146.5 10h-190v-623h327q115 0 179.5 8.5t142.5 32.5l41 15l-82 -162 h-870zM211 1683q0 49 36 85t87 36q53 0 89 -35.5t36 -85.5q0 -49 -37 -83.5t-88 -34.5q-53 0 -88 34.5t-35 83.5zM598 1686q0 51 36 84.5t89 33.5q49 0 86 -35.5t37 -87.5q0 -47 -37 -81.5t-86 -34.5q-53 0 -89 34t-36 87z" />
<glyph unicode="&#xcc;" horiz-adv-x="509" d="M18 1819h234l80 -293zM109 0q14 43 21 85t7 99l2 92v17v870v29v37l-2 55q0 104 -28 191h292q-16 -49 -22 -86t-6 -105v-72l-2 -20v-29v-858v-29l2 -92q0 -61 6 -98t22 -86h-292z" />
<glyph unicode="&#xcd;" horiz-adv-x="509" d="M109 0q14 43 21 85t7 99l2 92v17v870v29v37l-2 55q0 104 -28 191h292q-16 -49 -22 -86t-6 -105v-72l-2 -20v-29v-858v-29l2 -92q0 -61 6 -98t22 -86h-292zM182 1530l82 291h234z" />
<glyph unicode="&#xce;" horiz-adv-x="509" d="M18 1524l154 291h166l151 -287l-233 141zM109 0q14 43 21 85t7 99l2 92v17v870v29v37l-2 55q0 104 -28 191h292q-16 -49 -22 -86t-6 -105v-72l-2 -20v-29v-858v-29l2 -92q0 -61 6 -98t22 -86h-292z" />
<glyph unicode="&#xcf;" horiz-adv-x="509" d="M-63 1683q0 49 35.5 85t86.5 36q53 0 89 -35.5t36 -85.5q0 -49 -36.5 -83.5t-88.5 -34.5q-53 0 -87.5 34.5t-34.5 83.5zM109 0q14 43 21 85t7 99l2 92v17v870v29v37l-2 55q0 104 -28 191h292q-16 -49 -22 -86t-6 -105v-72l-2 -20v-29v-858v-29l2 -92q0 -61 6 -98t22 -86 h-292zM324 1686q0 51 35.5 84.5t89.5 33.5q49 0 85.5 -35.5t36.5 -87.5q0 -47 -36.5 -81.5t-85.5 -34.5q-53 0 -89 34t-36 87z" />
<glyph unicode="&#xd1;" horiz-adv-x="1429" d="M96 1475h248l825 -1115v807v29v33v59q0 49 -5 93t-17 94h168l-10 -48q-6 -37 -10.5 -70.5t-4.5 -68.5v-92v-29v-1167h-153l-883 1188v-883l2 -29v-24v-68l2 -43q0 -39 5 -67.5t20 -73.5h-168q25 90 24 184l2 52v40v29v883v24q0 68 -7 125.5t-15.5 86t-22.5 51.5z M449 1591v17q31 184 151 184q41 0 84 -20l6 -3l74 -40l27 -15q31 -14 63 -14q55 0 113 65l12 17l6 8l-2 -18l-4 -17l-8 -35q-51 -152 -156 -151q-37 0 -66.5 13t-43 20.5t-62.5 39.5l-22 13q-35 12 -58 12q-43 0 -92 -51z" />
<glyph unicode="&#xd2;" horiz-adv-x="1593" d="M88 739q0 133 37 250t110.5 218.5t191.5 174t199 87t129 16.5t52 2q299 0 498.5 -202t199.5 -521q0 -291 -153.5 -504t-322.5 -246.5t-253 -33.5q-383 0 -535.5 259.5t-152.5 499.5zM354 743q0 -319 127 -493t316 -174q188 0 313 174t125 500l-8 127q-18 147 -64.5 252.5 t-136.5 186.5t-233 81q-100 0 -187.5 -48.5t-137.5 -128t-73.5 -158.5t-31 -155t-8.5 -98.5t-1 -36.5v-29zM561 1819h234l79 -293z" />
<glyph unicode="&#xd3;" horiz-adv-x="1593" d="M88 739q0 133 37 250t110.5 218.5t191.5 174t199 87t129 16.5t52 2q299 0 498.5 -202t199.5 -521q0 -291 -153.5 -504t-322.5 -246.5t-253 -33.5q-383 0 -535.5 259.5t-152.5 499.5zM354 743q0 -319 127 -493t316 -174q188 0 313 174t125 500l-8 127q-18 147 -64.5 252.5 t-136.5 186.5t-233 81q-100 0 -187.5 -48.5t-137.5 -128t-73.5 -158.5t-31 -155t-8.5 -98.5t-1 -36.5v-29zM725 1530l82 291h233z" />
<glyph unicode="&#xd4;" horiz-adv-x="1593" d="M88 739q0 133 37 250t110.5 218.5t191.5 174t199 87t129 16.5t52 2q299 0 498.5 -202t199.5 -521q0 -291 -153.5 -504t-322.5 -246.5t-253 -33.5q-383 0 -535.5 259.5t-152.5 499.5zM354 743q0 -319 127 -493t316 -174q188 0 313 174t125 500l-8 127q-18 147 -64.5 252.5 t-136.5 186.5t-233 81q-100 0 -187.5 -48.5t-137.5 -128t-73.5 -158.5t-31 -155t-8.5 -98.5t-1 -36.5v-29zM561 1524l154 291h166l151 -287l-233 141z" />
<glyph unicode="&#xd5;" horiz-adv-x="1593" d="M88 739q0 133 37 250t110.5 218.5t191.5 174t199 87t129 16.5t52 2q299 0 498.5 -202t199.5 -521q0 -291 -153.5 -504t-322.5 -246.5t-253 -33.5q-383 0 -535.5 259.5t-152.5 499.5zM354 743q0 -319 127 -493t316 -174q188 0 313 174t125 500l-8 127q-18 147 -64.5 252.5 t-136.5 186.5t-233 81q-100 0 -187.5 -48.5t-137.5 -128t-73.5 -158.5t-31 -155t-8.5 -98.5t-1 -36.5v-29zM530 1591v17q31 184 152 184q41 0 84 -20l6 -3l74 -40l26 -15q31 -14 64 -14q55 0 113 65l12 17l6 8l-2 -18l-4 -17l-8 -35q-51 -152 -156 -151q-37 0 -66.5 13 t-43 20.5t-62.5 39.5l-23 13q-35 12 -57 12q-43 0 -92 -51z" />
<glyph unicode="&#xd6;" horiz-adv-x="1585" d="M84 739q0 133 37 250t110.5 218.5t191.5 174t198.5 87t129 16.5t52.5 2q299 0 498.5 -202t199.5 -521q0 -291 -153.5 -504t-322.5 -246.5t-253 -33.5q-383 0 -535.5 259.5t-152.5 499.5zM350 743q0 -319 127 -493t316 -174q188 0 313 174t125 500l-8 127 q-18 147 -64.5 252.5t-136.5 186.5t-234 81q-100 0 -187 -48.5t-137 -128t-73.5 -158.5t-31 -155t-8.5 -98.5t-1 -36.5v-29zM410 1712q0 59 43 102.5t106 43.5q59 0 104.5 -43t45.5 -103q0 -63 -45.5 -103t-106.5 -40t-104 41t-43 102zM864 1712q0 59 43 102.5t109 43.5 q59 0 103 -42t44 -104q0 -61 -44 -102t-101 -41q-66 0 -110 42t-44 101z" />
<glyph unicode="&#xd8;" horiz-adv-x="1556" d="M76 702v50.5t20.5 176t145.5 288t240.5 192.5t199.5 67.5t129 8.5q260 0 430 -174l154 180l59 -53l-154 -176q92 -106 140.5 -230.5t48.5 -267.5q0 -293 -154.5 -505t-320.5 -245.5t-250 -33.5q-125 0 -234.5 38.5t-201.5 114.5l-154 -178l-57 49l151 182 q-193 197 -192 516zM342 680q0 -147 74 -322l702 822q-29 59 -89 106t-131 70.5t-128 23.5q-61 0 -116.5 -17t-133.5 -70.5t-128 -203t-50 -409.5zM451 274q49 -84 123.5 -133t166.5 -49q12 -2 39 -2q184 0 310.5 163t126.5 458q0 57 -9.5 157.5t-56.5 227.5z" />
<glyph unicode="&#xd9;" horiz-adv-x="1411" d="M115 1475h274q-10 -55 -14 -92t-4 -99v-27v-65v-29v-747q0 -143 60.5 -214t137 -80t111.5 -9q33 0 127 16t162.5 103t68.5 255v674v31v53v37q2 25 -4 92l-18 101h276q-18 -80 -18 -191v-92v-29v-858v-29v-92q0 -57 5 -96t19 -88h-260v170q-152 -164 -395 -195l-92 -4 q-223 0 -317.5 96.5t-94.5 313.5v782v29l-2 92q0 61 -4 99.5t-18 91.5zM469 1819h233l80 -293z" />
<glyph unicode="&#xda;" horiz-adv-x="1411" d="M115 1475h274q-10 -55 -14 -92t-4 -99v-27v-65v-29v-747q0 -143 60.5 -214t137 -80t111.5 -9q33 0 127 16t162.5 103t68.5 255v674v31v53v37q2 25 -4 92l-18 101h276q-18 -80 -18 -191v-92v-29v-858v-29v-92q0 -57 5 -96t19 -88h-260v170q-152 -164 -395 -195l-92 -4 q-223 0 -317.5 96.5t-94.5 313.5v782v29l-2 92q0 61 -4 99.5t-18 91.5zM633 1530l82 291h233z" />
<glyph unicode="&#xdb;" horiz-adv-x="1411" d="M115 1475h274q-10 -55 -14 -92t-4 -99v-27v-65v-29v-747q0 -143 60.5 -214t137 -80t111.5 -9q33 0 127 16t162.5 103t68.5 255v674v31v53v37q2 25 -4 92l-18 101h276q-18 -80 -18 -191v-92v-29v-858v-29v-92q0 -57 5 -96t19 -88h-260v170q-152 -164 -395 -195l-92 -4 q-223 0 -317.5 96.5t-94.5 313.5v782v29l-2 92q0 61 -4 99.5t-18 91.5zM469 1524l154 291h165l152 -287l-233 141z" />
<glyph unicode="&#xdc;" horiz-adv-x="1378" d="M98 1475h275q-10 -55 -14.5 -92t-4.5 -99v-27v-65v-29v-747q0 -143 60.5 -214t137.5 -80t112 -9q33 0 127 16t162.5 103t68.5 255v674v31v53v37q2 25 -4 92l-19 101h277q-18 -80 -19 -191v-92v-29v-858v-29v-92q0 -57 5.5 -96t19.5 -88h-260v170q-152 -164 -395 -195 l-92 -4q-223 0 -317.5 96.5t-94.5 313.5v782v29l-2 92q0 61 -4.5 99.5t-18.5 91.5zM291 1712q0 59 43 102.5t106 43.5q59 0 104.5 -43t45.5 -103q0 -61 -45 -102t-107 -41q-61 0 -104 41t-43 102zM748 1712q0 59 43 102.5t106 43.5q59 0 104.5 -43t45.5 -103 q0 -59 -45.5 -101t-102.5 -42q-63 0 -107 42t-44 101z" />
<glyph unicode="&#xdf;" horiz-adv-x="1230" d="M94 0l15 66q8 43 8 92v915q0 180 103.5 292t211 125t122.5 14t36 1q57 0 145 -19.5t150.5 -82t62.5 -148.5q0 -80 -59 -170l-27 -36l-4 -7l-43 -55l-10 -12l-37 -49q-49 -68 -49 -109q0 -55 110 -129l33 -22l103 -62q35 -20 68.5 -42.5t80.5 -63.5t47 -154 q0 -78 -43 -150.5t-157.5 -141t-370.5 -68.5l-43 2v186q35 -37 81 -52.5t113 -15.5q41 0 72 11.5t87 55.5t56 112q0 86 -135 178l-47 28q-76 47 -105.5 66.5t-60.5 42.5q-100 88 -100 141q0 45 55 119l58 78l45 59l14 21l20 33q33 55 47.5 92t14.5 63q0 92 -52.5 148.5 t-140.5 56.5q-31 0 -84 -10t-108 -90t-55 -205v-971q0 -59 12 -108l8 -25h-248z" />
<glyph unicode="&#xe0;" horiz-adv-x="952" d="M82 211q0 102 52 149.5t91 71t66 37.5l14 6l119 60l39 20q94 53 123.5 85t36.5 85l2 20v29l-2 43q0 80 -36 122t-106 42q-14 0 -56 -7t-67.5 -39t-40.5 -114l-14 -33q-37 -59 -106 -49q-43 4 -68 35t-16 72q14 72 98 129t162 65.5t97 10.5t40 2h22q156 0 229 -59.5 t73 -164.5v-59v-41v-493v-25l2 -23v-45l4 -53v-18l8 -72h-225l4 137q-37 -53 -106.5 -107.5t-186.5 -54.5q-94 0 -166 56q-86 72 -86 180zM240 1376h233l80 -293zM293 260q0 -70 41 -115t104 -45q23 0 58 11l36 18q94 57 95 178v273q-41 -33 -71 -51.5t-105.5 -61.5 t-116.5 -93t-41 -114z" />
<glyph unicode="&#xe1;" horiz-adv-x="952" d="M82 211q0 102 52 149.5t91 71t66 37.5l14 6l119 60l39 20q94 53 123.5 85t36.5 85l2 20v29l-2 43q0 80 -36 122t-106 42q-14 0 -56 -7t-67.5 -39t-40.5 -114l-14 -33q-37 -59 -106 -49q-43 4 -68 35t-16 72q14 72 98 129t162 65.5t97 10.5t40 2h22q156 0 229 -59.5 t73 -164.5v-59v-41v-493v-25l2 -23v-45l4 -53v-18l8 -72h-225l4 137q-37 -53 -106.5 -107.5t-186.5 -54.5q-94 0 -166 56q-86 72 -86 180zM293 260q0 -70 41 -115t104 -45q23 0 58 11l36 18q94 57 95 178v273q-41 -33 -71 -51.5t-105.5 -61.5t-116.5 -93t-41 -114zM403 1087 l82 291h234z" />
<glyph unicode="&#xe2;" horiz-adv-x="952" d="M82 211q0 102 52 149.5t91 71t66 37.5l14 6l119 60l39 20q94 53 123.5 85t36.5 85l2 20v29l-2 43q0 80 -36 122t-106 42q-14 0 -56 -7t-67.5 -39t-40.5 -114l-14 -33q-37 -59 -106 -49q-43 4 -68 35t-16 72q14 72 98 129t162 65.5t97 10.5t40 2h22q156 0 229 -59.5 t73 -164.5v-59v-41v-493v-25l2 -23v-45l4 -53v-18l8 -72h-225l4 137q-37 -53 -106.5 -107.5t-186.5 -54.5q-94 0 -166 56q-86 72 -86 180zM240 1081l153 291h166l152 -287l-234 142zM293 260q0 -70 41 -115t104 -45q23 0 58 11l36 18q94 57 95 178v273q-41 -33 -71 -51.5 t-105.5 -61.5t-116.5 -93t-41 -114z" />
<glyph unicode="&#xe3;" horiz-adv-x="952" d="M82 211q0 102 52 149.5t91 71t66 37.5l14 6l119 60l39 20q94 53 123.5 85t36.5 85l2 20v29l-2 43q0 80 -36 122t-106 42q-14 0 -56 -7t-67.5 -39t-40.5 -114l-14 -33q-37 -59 -106 -49q-43 4 -68 35t-16 72q14 72 98 129t162 65.5t97 10.5t40 2h22q156 0 229 -59.5 t73 -164.5v-59v-41v-493v-25l2 -23v-45l4 -53v-18l8 -72h-225l4 137q-37 -53 -106.5 -107.5t-186.5 -54.5q-94 0 -166 56q-86 72 -86 180zM209 1149v16q31 184 151 185q41 0 84 -21l7 -2l73 -41l27 -14q31 -14 63 -15q55 0 113 66l12 16l6 9l-2 -19l-4 -16l-8 -35 q-51 -152 -156 -152q-37 0 -66.5 13.5t-42.5 20.5t-63 40l-22 12q-35 12 -57 13q-43 0 -93 -51zM293 260q0 -70 41 -115t104 -45q23 0 58 11l36 18q94 57 95 178v273q-41 -33 -71 -51.5t-105.5 -61.5t-116.5 -93t-41 -114z" />
<glyph unicode="&#xe4;" horiz-adv-x="946" d="M82 211q0 102 52 149.5t91 71t66 37.5l14 6l119 60l39 20q94 53 123.5 85t36.5 85l2 20v29l-2 43q0 80 -36 122t-106 42q-14 0 -56 -7t-67.5 -39t-40.5 -114l-14 -33q-37 -59 -106 -49q-43 4 -68 35t-16 72q14 72 98 129t162 65.5t97 10.5t40 2h22q156 0 229 -59.5 t73 -164.5v-59v-41v-493v-25l2 -23v-45l4 -53v-18l8 -72h-225l4 137q-37 -53 -106.5 -107.5t-186.5 -54.5q-94 0 -166 56q-86 72 -86 180zM188 1229q0 49 35 84t88 35q49 0 87 -35t38 -84t-37 -85t-88 -36q-53 0 -88 35t-35 86zM303 266q0 -66 39 -108.5t98 -42.5 q33 0 60 10l37 16q90 57 90 172v265q-63 -51 -155.5 -102.5t-130.5 -99.5t-38 -110zM573 1229q0 51 36 85t89 34t88 -35t35 -84q0 -51 -35.5 -86t-87.5 -35q-51 0 -88 35t-37 86z" />
<glyph unicode="&#xe5;" horiz-adv-x="946" d="M82 211q0 102 52 149.5t91 71t66 37.5l14 6l119 60l39 20q94 53 123.5 85t36.5 85l2 20v29l-2 43q0 80 -36 122t-106 42q-14 0 -56 -7t-67.5 -39t-40.5 -114l-14 -33q-37 -59 -106 -49q-43 4 -68 35t-16 72q14 72 98 129t162 65.5t97 10.5t40 2h22q156 0 229 -59.5 t73 -164.5v-59v-41v-493v-25l2 -23v-45l4 -53v-18l8 -72h-225l4 137q-37 -53 -106.5 -107.5t-186.5 -54.5q-94 0 -166 56q-86 72 -86 180zM303 266q0 -66 39 -108.5t98 -42.5q33 0 60 10l37 16q90 57 90 172v265q-63 -51 -155.5 -102.5t-130.5 -99.5t-38 -110zM360 1264 q0 61 46.5 105t109.5 44t96 -31.5t45.5 -61.5t12.5 -58q0 -63 -45 -107.5t-111 -44.5q-63 0 -108.5 45.5t-45.5 108.5zM426 1264q0 -35 25.5 -60.5t62.5 -25.5q35 0 60.5 24.5t25.5 59.5q0 33 -24.5 57t-61.5 24t-62.5 -23t-25.5 -56z" />
<glyph unicode="&#xe6;" horiz-adv-x="1513" d="M82 211q0 72 36 125t77 80.5t182 97.5l39 21q133 70 163.5 108.5t30.5 130.5q0 106 -33.5 156.5t-105.5 50.5q-31 0 -75 -9t-62.5 -39t-21.5 -44.5t-8 -48t-14 -50t-28 -32.5l-39 -19q-51 -8 -86 20.5t-35 74.5q0 70 82 129t169 73.5t106.5 14.5h29.5q37 0 58 -2l57 -9 q80 -16 119 -41.5t57 -70.5q74 94 154 108.5t98.5 17.5t40.5 3q115 0 207 -63.5t122 -141.5t33 -98.5t3 -29.5v-17q0 -43 -43 -43l-52 -2h-26h-481q-8 -57 -9 -127v-48q4 -23 11.5 -103.5t87.5 -166.5t200 -86q82 0 142.5 27.5t78 39t64.5 48.5l29 22l-39 -137l-19 -16 l-18 -17l-51 -37q-125 -78 -254 -77q-111 0 -206 54t-161 159l-14 22q-31 -55 -90.5 -114.5t-129 -92t-141.5 -32.5q-63 0 -116.5 27.5t-86 85t-32.5 118.5zM276 279q0 -80 39 -129.5t103 -49.5q23 0 65.5 11.5t83.5 58.5t41 109l2 24v27v243q-18 -16 -40.5 -32.5 t-61.5 -36.5l-66 -37l-16 -10q-78 -45 -111.5 -86t-38.5 -92zM844 727h258l57 4q70 10 70 82q0 23 -11.5 53.5t-50.5 70.5t-106 40q-102 0 -149.5 -81t-63.5 -144z" />
<glyph unicode="&#xe7;" horiz-adv-x="892" d="M88 530q0 238 134 378.5t335 140.5h32.5t39.5 -5l43 -6l30 -4l37 -6l9 -2h8h14h14l9 2l4 -151q-61 59 -115.5 68t-71 9h-26.5q-113 0 -179.5 -83t-85.5 -261q0 -31 -1 -54.5t-1 -39.5q0 -14 2.5 -31.5t11.5 -102.5t81.5 -171t183.5 -86q61 0 110.5 19.5t74 34t53.5 38.5 l-39 -131q-80 -68 -187 -92l-49 -8l-14 -31l-8 -23l-9 -22q4 -14 9 -23l43 -26l26 -19q33 -31 33 -71q0 -61 -53.5 -94t-114.5 -33q-27 0 -61 6l-23 4l-18 6l22 4l37 4l12 2q29 8 50.5 24.5t21.5 45.5q0 27 -23 43l-38 20l-25 9l66 172q-25 0 -54.5 7t-114.5 39.5t-160 168 t-75 331.5z" />
<glyph unicode="&#xe8;" horiz-adv-x="980" d="M82 463q0 233 98.5 389t209 180.5t161.5 24.5q123 0 217 -69.5t123 -160t29 -114.5q0 -51 -48 -51h-14h-51h-492l-4 -41q-6 -47 -6 -91q0 -27 2 -54t14.5 -109t88 -158t190.5 -76q92 0 201 55l88 58l12 10l17 14l-37 -135l-19 -16q-104 -96 -190 -114.5t-142 -18.5 q-188 0 -318 132t-130 345zM254 1376h233l80 -293zM324 731h260q117 0 116 80q0 20 -6 47t-42 72t-113 45q-82 0 -126 -52.5t-65 -105.5l-16 -45l-4 -22z" />
<glyph unicode="&#xe9;" horiz-adv-x="980" d="M82 463q0 233 98.5 389t209 180.5t161.5 24.5q123 0 217 -69.5t123 -160t29 -114.5q0 -51 -48 -51h-14h-51h-492l-4 -41q-6 -47 -6 -91q0 -27 2 -54t14.5 -109t88 -158t190.5 -76q92 0 201 55l88 58l12 10l17 14l-37 -135l-19 -16q-104 -96 -190 -114.5t-142 -18.5 q-188 0 -318 132t-130 345zM324 731h260q117 0 116 80q0 20 -6 47t-42 72t-113 45q-82 0 -126 -52.5t-65 -105.5l-16 -45l-4 -22zM418 1087l82 291h233z" />
<glyph unicode="&#xea;" horiz-adv-x="980" d="M82 463q0 233 98.5 389t209 180.5t161.5 24.5q123 0 217 -69.5t123 -160t29 -114.5q0 -51 -48 -51h-14h-51h-492l-4 -41q-6 -47 -6 -91q0 -27 2 -54t14.5 -109t88 -158t190.5 -76q92 0 201 55l88 58l12 10l17 14l-37 -135l-19 -16q-104 -96 -190 -114.5t-142 -18.5 q-188 0 -318 132t-130 345zM254 1081l154 291h165l152 -287l-233 142zM324 731h260q117 0 116 80q0 20 -6 47t-42 72t-113 45q-82 0 -126 -52.5t-65 -105.5l-16 -45l-4 -22z" />
<glyph unicode="&#xeb;" horiz-adv-x="980" d="M82 463q0 233 98.5 389t209 180.5t161.5 24.5q123 0 217 -69.5t123 -160t29 -114.5q0 -51 -48 -51h-14h-51h-492l-4 -41q-6 -47 -6 -91q0 -27 2 -54t14.5 -109t88 -158t190.5 -76q92 0 201 55l88 58l12 10l17 14l-37 -135l-19 -16q-104 -96 -190 -114.5t-142 -18.5 q-188 0 -318 132t-130 345zM172 1241q0 49 36 85t87 36q53 0 89 -36t36 -85t-37 -84t-88 -35q-53 0 -88 35t-35 84zM324 731h260q117 0 116 80q0 20 -6 47t-42 72t-113 45q-82 0 -126 -52.5t-65 -105.5l-16 -45l-4 -22zM559 1243q0 51 36 85t89 34q49 0 86 -36t37 -87 q0 -47 -37 -82t-86 -35q-53 0 -89 34t-36 87z" />
<glyph unicode="&#xec;" horiz-adv-x="389" d="M-41 1376h234l79 -293zM78 0l10 70l2 22l2 49l2 49v19v27v563v26l-2 68l-2 65l-10 74h221v-796l-2 -27l2 -68l2 -53l2 -18l12 -70h-239z" />
<glyph unicode="&#xed;" horiz-adv-x="389" d="M78 0l10 70l2 22l2 49l2 49v19v27v563v26l-2 68l-2 65l-10 74h221v-796l-2 -27l2 -68l2 -53l2 -18l12 -70h-239zM123 1087l82 291h233z" />
<glyph unicode="&#xee;" horiz-adv-x="389" d="M-41 1081l154 291h166l151 -287l-233 142zM78 0l10 70l2 22l2 49l2 49v19v27v563v26l-2 68l-2 65l-10 74h221v-796l-2 -27l2 -68l2 -53l2 -18l12 -70h-239z" />
<glyph unicode="&#xef;" horiz-adv-x="389" d="M-123 1241q0 49 36 85t87 36q53 0 89 -36t36 -85t-37 -84t-88 -35q-53 0 -88 35t-35 84zM78 0l10 70l2 22l2 49l2 49v19v27v563v26l-2 68l-2 65l-10 74h221v-796l-2 -27l2 -68l2 -53l2 -18l12 -70h-239zM264 1243q0 51 36 85t89 34q49 0 86 -36t37 -87q0 -47 -37 -82 t-86 -35q-53 0 -89 34t-36 87z" />
<glyph unicode="&#xf1;" horiz-adv-x="1073" d="M106 0l13 72l2 16v55l2 68l2 25v565v26l-2 68l-2 63v9l-8 65h217v-119l18 19q31 27 60.5 48t71.5 40.5t90 30t92 10.5q121 0 200.5 -69.5t89.5 -178.5v-205v-20v-195l-2 -80v-77v-17l2 -10v-68l2 -53l2 -18l11 -70h-222v223v174v213l-2 168q-6 63 -55 105.5t-123 42.5 q-35 0 -100.5 -16.5t-101 -83t-35.5 -228.5v-217v-53v-92v-27v-14v-54l2 -51v-20l12 -70h-236zM270 1149v16q31 184 152 185q41 0 84 -21l6 -2l74 -41l26 -14q31 -14 64 -15q55 0 112 66l13 16l6 9l-2 -19l-4 -16l-8 -35q-51 -152 -156 -152q-37 0 -66.5 13.5t-43 20.5 t-62.5 40l-23 12q-35 12 -57 13q-43 0 -92 -51z" />
<glyph unicode="&#xf2;" horiz-adv-x="1140" d="M84 453q0 272 130 439t345 167q229 0 364.5 -137.5t135.5 -382.5q0 -45 -14.5 -176.5t-150.5 -259.5t-327 -128q-37 0 -127 13.5t-181 96.5t-133 170t-42 198zM307 565q0 -59 13.5 -157.5t46 -171t89 -123t128.5 -50.5q63 0 117.5 40t82 115t35.5 169q0 147 -5 224 t-31.5 153t-78 141.5t-151.5 65.5q-115 0 -164 -79t-62.5 -144.5t-15.5 -77.5t-2 -39q-2 -16 -2 -36v-30zM334 1376h233l80 -293z" />
<glyph unicode="&#xf3;" horiz-adv-x="1140" d="M84 453q0 272 130 439t345 167q229 0 364.5 -137.5t135.5 -382.5q0 -45 -14.5 -176.5t-150.5 -259.5t-327 -128q-37 0 -127 13.5t-181 96.5t-133 170t-42 198zM307 565q0 -59 13.5 -157.5t46 -171t89 -123t128.5 -50.5q63 0 117.5 40t82 115t35.5 169q0 147 -5 224 t-31.5 153t-78 141.5t-151.5 65.5q-115 0 -164 -79t-62.5 -144.5t-15.5 -77.5t-2 -39q-2 -16 -2 -36v-30zM498 1087l82 291h233z" />
<glyph unicode="&#xf4;" horiz-adv-x="1140" d="M84 453q0 272 130 439t345 167q229 0 364.5 -137.5t135.5 -382.5q0 -45 -14.5 -176.5t-150.5 -259.5t-327 -128q-37 0 -127 13.5t-181 96.5t-133 170t-42 198zM307 565q0 -59 13.5 -157.5t46 -171t89 -123t128.5 -50.5q63 0 117.5 40t82 115t35.5 169q0 147 -5 224 t-31.5 153t-78 141.5t-151.5 65.5q-115 0 -164 -79t-62.5 -144.5t-15.5 -77.5t-2 -39q-2 -16 -2 -36v-30zM334 1081l153 291h166l152 -287l-234 142z" />
<glyph unicode="&#xf5;" horiz-adv-x="1140" d="M84 453q0 272 130 439t345 167q229 0 364.5 -137.5t135.5 -382.5q0 -45 -14.5 -176.5t-150.5 -259.5t-327 -128q-37 0 -127 13.5t-181 96.5t-133 170t-42 198zM303 1149v16q31 184 152 185q41 0 84 -21l6 -2l73 -41l27 -14q31 -14 64 -15q55 0 112 66l13 16l6 9l-2 -19 l-4 -16l-9 -35q-51 -152 -155 -152q-37 0 -67 13.5t-43 20.5t-62 40l-23 12q-35 12 -57 13q-43 0 -92 -51zM307 565q0 -59 13.5 -157.5t46 -171t89 -123t128.5 -50.5q63 0 117.5 40t82 115t35.5 169q0 147 -5 224t-31.5 153t-78 141.5t-151.5 65.5q-115 0 -164 -79 t-62.5 -144.5t-15.5 -77.5t-2 -39q-2 -16 -2 -36v-30z" />
<glyph unicode="&#xf6;" horiz-adv-x="1148" d="M86 522q0 27 2 41q0 221 140.5 359.5t346.5 138.5q41 0 158 -17.5t223.5 -149.5t106.5 -351q0 -49 -14.5 -180.5t-150.5 -259.5t-327 -128q-37 0 -127 13.5t-181 96.5t-133 170t-42 198q-2 45 -2 69zM256 1229q0 49 35 84t88 35t89 -35t36 -86q0 -47 -38 -83t-87 -36 q-53 0 -88 35t-35 86zM311 565q0 -59 13.5 -157.5t46 -171t89 -123t128.5 -50.5q63 0 117.5 40t82 115t35.5 169q0 147 -5 224t-31.5 153t-78 141.5t-151.5 65.5q-115 0 -164 -79t-62.5 -144.5t-15.5 -77.5t-2 -39q-2 -16 -2 -36v-30zM643 1229q0 51 36 85t89 34 q49 0 86 -35t37 -84q0 -51 -38 -86t-85 -35q-51 0 -88 35t-37 86z" />
<glyph unicode="&#xf8;" horiz-adv-x="1148" d="M88 565q0 184 103.5 312.5t221 156t177.5 27.5q166 -1 293 -105l102 134l45 -37l-100 -133q66 -74 99.5 -165t33.5 -212q0 -49 -13.5 -164t-116 -237t-206.5 -144.5t-158 -22.5q-170 0 -297 105l-102 -125l-49 37l102 131q-72 78 -103.5 186.5t-31.5 255.5zM313 573 q0 -113 33 -237l14 -51l404 528l-29 45q-39 51 -88 77t-102 26q-96 0 -133 -53.5t-51.5 -88.5t-26.5 -79t-16.5 -84t-4.5 -83zM383 219q8 -20 27.5 -46t64.5 -63.5t127 -37.5q121 0 162 90t52 141t11 139q0 98 -8 166t-33 135z" />
<glyph unicode="&#xf9;" horiz-adv-x="1081" d="M109 1032h221v-647v-68q0 -98 47 -157.5t129 -59.5q47 0 104 23l43 22q55 35 77 72t22 102v74v404l-2 24v27l-2 41v57v15l-7 71h215v-796v-17v-10l2 -23v-45l3 -49l2 -22l10 -70h-221v131q-53 -70 -123 -102.5t-119 -43t-94 -10.5q-117 0 -198 61.5t-91 151.5l-4 84 l2 111v414v24l-2 70l-2 47l-2 23zM305 1376h234l79 -293z" />
<glyph unicode="&#xfa;" horiz-adv-x="1081" d="M109 1032h221v-647v-68q0 -98 47 -157.5t129 -59.5q47 0 104 23l43 22q55 35 77 72t22 102v74v404l-2 24v27l-2 41v57v15l-7 71h215v-796v-17v-10l2 -23v-45l3 -49l2 -22l10 -70h-221v131q-53 -70 -123 -102.5t-119 -43t-94 -10.5q-117 0 -198 61.5t-91 151.5l-4 84 l2 111v414v24l-2 70l-2 47l-2 23zM469 1087l82 291h233z" />
<glyph unicode="&#xfb;" horiz-adv-x="1081" d="M109 1032h221v-647v-68q0 -98 47 -157.5t129 -59.5q47 0 104 23l43 22q55 35 77 72t22 102v74v404l-2 24v27l-2 41v57v15l-7 71h215v-796v-17v-10l2 -23v-45l3 -49l2 -22l10 -70h-221v131q-53 -70 -123 -102.5t-119 -43t-94 -10.5q-117 0 -198 61.5t-91 151.5l-4 84 l2 111v414v24l-2 70l-2 47l-2 23zM305 1081l154 291h166l151 -287l-233 142z" />
<glyph unicode="&#xfc;" horiz-adv-x="1058" d="M96 1032h221v-647v-68q0 -98 47.5 -157.5t129.5 -59.5q47 0 104 23l43 22q55 35 76.5 72t21.5 102v74v404l-2 24v27l-2 41v57v15l-6 71h215v-796v-17v-10l2 -23v-45l2 -49l2 -22l11 -70h-222v131q-53 -70 -122.5 -102.5t-118.5 -43t-95 -10.5q-117 0 -197.5 61.5 t-90.5 151.5l-4 84l2 111v414v24l-2 70l-2 47l-3 23zM205 1229q0 49 34.5 84t88.5 35q51 0 88 -34t37 -85t-38 -86t-87 -35q-53 0 -88 35t-35 86zM592 1229q0 51 36 85t89 34q49 0 86 -35t37 -84q0 -51 -38 -86t-85 -35q-51 0 -88 35t-37 86z" />
<glyph unicode="&#xfd;" horiz-adv-x="0" />
<glyph unicode="&#xff;" horiz-adv-x="931" d="M-133 -346q0 43 31.5 68.5t70.5 25.5q12 0 49 -8l19 -6l29 -10l34 -5q76 -6 144.5 54.5t105.5 157t37 141.5q0 43 -20 92l-308 725q-25 55 -45 86t-51 57h311l-2 -20q0 -31 4.5 -55.5t10.5 -43.5l237 -604l238 568q20 49 20 92q0 37 -10 63h191q-23 -23 -37.5 -44 t-38.5 -77l-441 -993q-80 -182 -186 -271t-227 -89q-18 2 -27 2q-90 8 -114.5 33.5t-24.5 60.5zM147 1241q0 49 36 85t87 36q53 0 89 -36t36 -85t-36.5 -84t-88.5 -35q-53 0 -88 35t-35 84zM535 1243q0 51 35.5 85t88.5 34q49 0 86 -36t37 -87q0 -47 -36.5 -82t-86.5 -35 q-53 0 -88.5 34t-35.5 87z" />
<glyph unicode="&#x152;" horiz-adv-x="1951" d="M84 733q0 152 44 278t145.5 245.5t256 175t390.5 55.5l147 -12h754l24 -140l-26 8l-33 7l-64 12q-104 20 -194 20h-266v-559h192q55 0 99 6.5t116 26.5l31 8l18 4v-180l-26 8l-27 6q-33 10 -78 17.5t-86 7.5l-59 2h-180v-623h307q133 0 295 33l53 13l31 6l-74 -158h-784 l-140 -10q-412 0 -639 187.5t-227 555.5zM346 713.5q0 -23.5 13.5 -148.5t76 -245.5t162.5 -183t199 -62.5q88 0 150.5 46t71.5 104.5t9 109.5v835q0 35 -8 86.5t-47 90t-97.5 48t-76.5 9.5q-117 0 -222.5 -67.5t-168 -213t-62.5 -350.5v-58.5z" />
<glyph unicode="&#x153;" horiz-adv-x="1736" d="M88 467q0 236 102.5 390.5t226.5 177t169 22.5q106 0 183 -37t118.5 -73t66.5 -77q84 145 189.5 165t152.5 20q123 0 216.5 -67.5t123 -157t29.5 -121.5q0 -47 -49 -47l-62 -3h-495l-4 -43q0 -63 1 -124.5t15 -142.5t90 -150.5t185 -69.5q100 0 179 44t115 79l11 8l12 12 l-37 -137l-14 -14l-19 -17q-135 -123 -301 -122q-162 0 -293 118l-36 39l-13 17l-12 18q-53 -92 -149.5 -145.5t-219.5 -53.5q-39 0 -139 15.5t-186 107.5t-121 176t-35 193zM309 557l2 -65l6 -52q18 -135 50 -209.5t90.5 -122t128.5 -47.5q63 0 117.5 40t79 102.5t34.5 117 t10 128.5q0 154 -26.5 263t-85 184t-158.5 75t-152.5 -67.5t-74 -147.5t-21.5 -199zM1065 725h254l47 2q88 0 88 78q0 8 -3 22.5t-5 22.5l-10 29q-47 94 -154 94q-63 0 -111.5 -39t-85.5 -131l-10 -35l-6 -20z" />
<glyph unicode="&#x178;" horiz-adv-x="1128" d="M-45 1475h309l389 -711l238 524q33 68 33 144v22v21h225l-19 -27l-14 -23l-18 -26l-23 -37l-53 -98l-252 -504l-6 -15l-19 -36q-29 -68 -28 -115l-2 -41v-31v-311v-14l4 -54q8 -92 22 -143h-297q12 31 23.5 91.5t11.5 103.5v415l-391 674q-14 25 -32.5 52.5t-28.5 41.5 l-11 15l-32 41l-9 10zM246 1683q0 49 35.5 85t87.5 36q53 0 89 -35.5t36 -85.5q0 -49 -37 -83.5t-88 -34.5q-53 0 -88 34.5t-35 83.5zM633 1686q0 51 36 84.5t89 33.5q49 0 86 -35.5t37 -87.5q0 -47 -37 -81.5t-86 -34.5q-53 0 -89 34t-36 87z" />
<glyph unicode="&#x2c6;" horiz-adv-x="569" d="M49 1081l154 291h166l151 -287l-233 142z" />
<glyph unicode="&#x2dc;" horiz-adv-x="636" d="M51 1149v16q31 184 152 185q41 0 84 -21l6 -2l74 -41l26 -14q31 -14 64 -15q55 0 112 66l13 16l6 9l-2 -19l-4 -16l-9 -35q-51 -152 -155 -152q-37 0 -66.5 13.5t-43 20.5t-62.5 40l-23 12q-35 12 -57 13q-43 0 -92 -51z" />
<glyph unicode="&#x2000;" horiz-adv-x="929" />
<glyph unicode="&#x2001;" horiz-adv-x="1858" />
<glyph unicode="&#x2002;" horiz-adv-x="929" />
<glyph unicode="&#x2003;" horiz-adv-x="1858" />
<glyph unicode="&#x2004;" horiz-adv-x="619" />
<glyph unicode="&#x2005;" horiz-adv-x="464" />
<glyph unicode="&#x2006;" horiz-adv-x="309" />
<glyph unicode="&#x2007;" horiz-adv-x="309" />
<glyph unicode="&#x2008;" horiz-adv-x="232" />
<glyph unicode="&#x2009;" horiz-adv-x="371" />
<glyph unicode="&#x200a;" horiz-adv-x="103" />
<glyph unicode="&#x2010;" horiz-adv-x="798" d="M63 489l84 164h588l-82 -164h-590z" />
<glyph unicode="&#x2011;" horiz-adv-x="798" d="M63 489l84 164h588l-82 -164h-590z" />
<glyph unicode="&#x2012;" horiz-adv-x="798" d="M63 489l84 164h588l-82 -164h-590z" />
<glyph unicode="&#x2013;" d="M74 645v184h1034v-184h-1034z" />
<glyph unicode="&#x2014;" horiz-adv-x="1003" d="M66 492v184h872v-184h-872z" />
<glyph unicode="&#x2018;" horiz-adv-x="413" d="M31 1110q18 104 85.5 191.5t200.5 168.5l68 35l-55 -94q-63 -106 -64 -164q0 -33 18.5 -64.5t33 -46t40.5 -26.5l-161 -164z" />
<glyph unicode="&#x2019;" horiz-adv-x="413" d="M29 946l55 96q63 106 63 164q0 33 -23.5 75t-66.5 62l160 162l166 -162q-16 -102 -86 -191t-201 -169z" />
<glyph unicode="&#x201a;" horiz-adv-x="409" d="M25 -262l55 94q63 106 63 164q0 33 -23.5 75t-66.5 62l160 162l166 -162q-18 -102 -86 -191t-201 -169z" />
<glyph unicode="&#x201c;" horiz-adv-x="798" d="M31 1110q18 104 85.5 191.5t200.5 168.5l68 35l-55 -94q-63 -106 -64 -164q0 -33 18.5 -64.5t33 -46t40.5 -26.5l-161 -164zM414 1110q18 102 87.5 191.5t200.5 168.5l68 35l-57 -94q-63 -113 -64 -162q0 -35 23.5 -75.5t68.5 -63.5l-161 -164z" />
<glyph unicode="&#x201d;" horiz-adv-x="798" d="M29 946l55 96q63 106 63 164q0 33 -23.5 75t-66.5 62l160 162l166 -162q-16 -102 -86 -191t-201 -169zM412 946l57 96q63 109 63 162q0 35 -23.5 76t-68.5 63l162 162l166 -162q-18 -102 -88 -191t-201 -169z" />
<glyph unicode="&#x201e;" horiz-adv-x="794" d="M25 -262l55 94q63 106 63 164q0 33 -23.5 75t-66.5 62l160 162l166 -162q-18 -102 -86 -191t-201 -169zM410 -262l55 94q63 113 63 162q0 35 -23.5 76t-68.5 63l162 162l166 -162q-18 -102 -86 -191t-203 -169z" />
<glyph unicode="&#x2022;" horiz-adv-x="745" d="M96 737q0 117 80 197t197 80t196.5 -80t79.5 -197t-80 -196.5t-196 -79.5q-117 0 -197 79.5t-80 196.5z" />
<glyph unicode="&#x2026;" horiz-adv-x="1269" d="M82 109q0 55 37 92t92 37t92 -37t37 -92t-37 -92t-92 -37t-92 37t-37 92zM506 109q0 55 37 92t92 37t92 -37t37 -92t-37 -92t-92 -37t-92 37t-37 92zM930 109q0 55 37 92t92 37t92 -37t37 -92t-37 -92t-92 -37t-92 37t-37 92z" />
<glyph unicode="&#x202f;" horiz-adv-x="371" />
<glyph unicode="&#x2039;" horiz-adv-x="565" d="M80 516l399 545l-196 -545l196 -545z" />
<glyph unicode="&#x203a;" horiz-adv-x="565" d="M86 -29l197 545l-197 545l399 -545z" />
<glyph unicode="&#x205f;" horiz-adv-x="464" />
<glyph unicode="&#x2122;" horiz-adv-x="1812" d="M96 1282l13 193h639l12 -193h-17l-4 31q-16 70 -48 93.5t-113 23.5h-84v-609q0 -49 34 -61l11 -4h8l14 -2l14 -2h11v-15h-318v15h11l16 2l12 2h10l11 4q35 12 34 61v609l-81 -3q-78 0 -112 -23.5t-50 -88.5l-6 -33h-17zM764 737v15h10l17 2l12 2h10l10 4q35 12 35 61v568 q0 51 -35 63l-8 2l-10 2l-12 2h-19h-8v17h225l250 -555l252 555h223v-17h-10h-16l-17 -2l-8 -2l-8 -2q-35 -14 -35 -63v-568q0 -49 35 -61l10 -4h8l15 -2l14 -2h10v-15h-317v15h10l16 2l13 2h10l10 4q35 12 35 61v531l-277 -615h-34l-277 611l2 -527q0 -49 33 -61l10 -4h8 l15 -2l16 -2h10v-15h-233z" />
<glyph unicode="&#x25fc;" horiz-adv-x="1034" d="M0 0v1034h1034v-1034h-1034z" />
</font>
</defs>
</svg>
