<svg xmlns="http://www.w3.org/2000/svg" width="320.716" height="25.781" viewBox="0 0 320.716 25.781"><defs><style>.a{opacity:0.34;}.b{fill:#3f3f3f;}.c{fill:#888;}.d{fill:#a7a7a7;}.e{fill:#545454;}.f{fill:#fff;}.g{fill:#3b3b3b;}.h{fill:#757575;}.i{fill:#5d5d5d;}.j{fill:#646464;}.k{fill:#515151;}.l{fill:#787878;}.m{fill:#3c3c3c;}.n{fill:#303030;}</style></defs><g class="a" transform="translate(74.913 2.343)"><g transform="translate(0 0)"><path class="b" d="M11.325,2.692a10.949,10.949,0,1,0,7.391,19.043h0a10.938,10.938,0,0,0,1.113-1.177H17.621a10.656,10.656,0,0,1-.812-1.132h3.859a10.918,10.918,0,0,0,.639-1.168H16.17a10.683,10.683,0,0,1-.456-1.15h6.049a11,11,0,0,0,.3-5.812H15.386a11.155,11.155,0,0,1,.31-1.15h6.049a11.073,11.073,0,0,0-.474-1.177h-5.11a10.528,10.528,0,0,1,.63-1.15H20.65A10.936,10.936,0,0,0,19.8,6.652H17.648a10.016,10.016,0,0,1,1.068-1.1,10.869,10.869,0,0,0-7.3-2.856Z" transform="translate(-0.381 -1.986)"/><path class="c" d="M65.635,12.263a10.949,10.949,0,1,1-21.853,0h0a10.949,10.949,0,1,1,21.853,0Z" transform="translate(-29.052 -0.608)"/><path class="d" d="M65.635,12.64a10.949,10.949,0,1,1-21.853,0h0a10.949,10.949,0,1,1,21.853,0Z" transform="translate(-29.052 -0.857)"/><path class="e" d="M11.305,3.069A10.949,10.949,0,1,0,18.7,22.1h0a10.809,10.809,0,0,0,1.113-1.177H17.6a10.508,10.508,0,0,1-.812-1.122h3.859a11.05,11.05,0,0,0,.639-1.177H16.15a10.782,10.782,0,0,1-.456-1.15h6.049a10.934,10.934,0,0,0,.31-5.821H15.366a11.212,11.212,0,0,1,.31-1.15h6.049a11.12,11.12,0,0,0-.465-1.177H16.15a10.709,10.709,0,0,1,.63-1.15h3.859a11.066,11.066,0,0,0-.849-1.168H17.629A10.116,10.116,0,0,1,18.7,5.916a10.869,10.869,0,0,0-7.3-2.847Z" transform="translate(-0.362 -2.235)"/><path class="f" d="M40.934,33.586l.146-.994h-.3c-.4,0-.447-.219-.42-.374l.319-1.98h.611l.146-1.095h-.584l.119-.684h-1.15s-.685,3.832-.685,4.3a.912.912,0,0,0,.913.986,3.028,3.028,0,0,0,.912-.155Z" transform="translate(-25.994 -19.02)"/><path class="f" d="M45.522,32.686a1.825,1.825,0,0,0,2.007,2.044,2.938,2.938,0,0,0,1.232-.191l.2-1.122a3.6,3.6,0,0,1-1.232.292c-1.25,0-1.031-.913-1.031-.913h2.363a8.409,8.409,0,0,0,.146-1.131,1.56,1.56,0,0,0-1.661-1.706c-1.168,0-2.035,1.259-2.035,2.692Zm2.044-1.642c.657,0,.538.739.538.8H46.8c0-.073.119-.8.757-.8Z" transform="translate(-30.207 -20.009)"/><path class="f" d="M67.238,32.571l.21-1.268a2.785,2.785,0,0,1-.967.292,1.15,1.15,0,0,1-1.159-1.314c0-1.378.712-2.135,1.505-2.135a2.068,2.068,0,0,1,1.068.338l.192-1.232a4.167,4.167,0,0,0-1.314-.328c-1.341,0-2.646,1.168-2.646,3.358,0,1.451.7,2.418,2.1,2.418a5.339,5.339,0,0,0,1.013-.128Z" transform="translate(-42.517 -18.005)"/><path class="f" d="M21.422,30.127a4.012,4.012,0,0,0-1.405.256l-.164,1a3.654,3.654,0,0,1,1.269-.2c.438,0,.748.046.748.4a.742.742,0,0,1,0,.292h-.5c-1,0-2.062.429-2.062,1.725a1.1,1.1,0,0,0,1.122,1.259,1.514,1.514,0,0,0,1.2-.538v.447h1.022L23.1,31.56a1.378,1.378,0,0,0-1.6-1.405Zm.246,2.61c0,.2-.119,1.113-.821,1.113a.429.429,0,0,1-.456-.438c0-.319.173-.7,1.022-.7a.77.77,0,0,1,.256,0Z" transform="translate(-12.878 -20.123)"/><path class="f" d="M30.943,34.824c.265,0,1.761.064,1.761-1.478s-1.387-1.159-1.387-1.743c0-.292.228-.383.639-.383.164,0,.794.055.794.055l.146-1.031a5.49,5.49,0,0,0-1.077-.091c-.858,0-1.733.347-1.733,1.524,0,1.332,1.46,1.2,1.46,1.761,0,.374-.41.411-.721.411a3.757,3.757,0,0,1-1.031-.183l-.155,1.022a3.646,3.646,0,0,0,1.3.146Z" transform="translate(-19.716 -20.14)"/><path class="f" d="M95.153,27.354l-.246,1.56a1.533,1.533,0,0,0-1.177-.6c-1.068,0-1.952,1.286-1.952,2.737,0,.912.474,1.889,1.442,1.889a1.453,1.453,0,0,0,1.086-.484l-.055.42h1.132l.912-5.547ZM94.642,30.4c0,.611-.3,1.433-.913,1.433-.42,0-.611-.356-.611-.912,0-.913.4-1.506.912-1.506s.639.292.639.967Z" transform="translate(-60.796 -18.272)"/><path class="f" d="M4.833,32.955l.712-4.188.1,4.188h.8l1.5-4.188-.7,4.188H8.474l.912-5.548H7.562L6.4,30.811l-.073-3.4H4.651l-.912,5.548Z" transform="translate(-2.594 -18.325)"/><path class="f" d="M57.532,34.894c.338-1.925.4-3.495,1.214-3.212a4.575,4.575,0,0,1,.429-1.351,1.221,1.221,0,0,0-.228,0c-.52,0-.912.712-.912.712l.1-.657H57.067l-.721,4.562Z" transform="translate(-37.373 -20.255)"/><path class="f" d="M77.072,30.127a4.012,4.012,0,0,0-1.405.256l-.164,1a3.654,3.654,0,0,1,1.269-.2c.429,0,.748.046.748.4a.73.73,0,0,1,0,.292h-.5c-1,0-2.062.429-2.062,1.725a1.1,1.1,0,0,0,1.122,1.259,1.505,1.505,0,0,0,1.2-.538v.447H78.3l.456-3.212a1.378,1.378,0,0,0-1.6-1.405Zm.246,2.61c0,.2-.119,1.113-.821,1.113a.42.42,0,0,1-.456-.438c0-.319.173-.7,1.022-.7a.77.77,0,0,1,.256,0Z" transform="translate(-49.668 -20.123)"/><path class="f" d="M86.367,34.894c.338-1.925.4-3.495,1.214-3.212a4.487,4.487,0,0,1,.429-1.351,1.221,1.221,0,0,0-.228,0c-.52,0-.912.712-.912.712l.1-.657H85.9l-.721,4.562Z" transform="translate(-56.436 -20.255)"/></g></g><g class="a" transform="translate(0 3.703)"><g transform="translate(0 0)"><path class="g" d="M-104.862,230.865l3.185-18.6h5.093l-3.148,18.6Z" transform="translate(127.205 -211.962)"/><path class="g" d="M-60.946,211.949a13.268,13.268,0,0,0-4.571-.778c-5.045,0-8.594,2.528-8.618,6.078,0,2.674,2.528,4.158,4.473,5.057s2.65,1.5,2.638,2.31c0,1.216-1.58,1.811-3.051,1.811a10.774,10.774,0,0,1-4.8-.972l-.657-.292-.717,4.242a16.211,16.211,0,0,0,5.677,1c5.361,0,8.838-2.492,8.886-6.358,0-2.115-1.337-3.72-4.279-5.057-1.787-.887-2.893-1.459-2.893-2.334s.924-1.6,2.917-1.6a9.481,9.481,0,0,1,3.817.717l.462.219Z" transform="translate(106.543 -211.171)"/><path class="g" d="M-16.395,212.223a2.528,2.528,0,0,0-2.638,1.58l-7.561,17.019h5.4l1.046-2.845H-13.7l.6,2.845h4.8l-4.194-18.6Zm-2.322,12.022,2.03-5.2s.425-1.046.7-1.763l.34,1.6,1.216,5.373Z" transform="translate(70.684 -211.919)"/><path class="g" d="M-157.825,225.006l-.45-2.553a14.587,14.587,0,0,0-7.051-7.8l4.51,16.216h5.4l8.1-18.6h-5.4Z" transform="translate(170.868 -211.962)"/><path class="d" d="M-185.275,212.231v.292c6.394,1.544,10.843,5.482,12.594,9.907l-1.848-8.618a2.188,2.188,0,0,0-2.346-1.58Z" transform="translate(185.275 -211.927)"/></g></g><g class="a" transform="translate(127.068 0.03)"><g transform="translate(0 0)"><path class="h" d="M389.426,167.84a11.809,11.809,0,1,0-7.932,3.083A11.849,11.849,0,0,0,389.426,167.84Z" transform="translate(-369.661 -147.221)"/><path class="h" d="M427.983,173.778a11.853,11.853,0,0,0,0-17.575Z" transform="translate(-408.218 -153.159)"/><path class="i" d="M428.858,147.221a11.824,11.824,0,0,0-7.951,3.064,15.313,15.313,0,0,0-1.147,1.257h2.353a15.306,15.306,0,0,1,.9,1.257h-4.236q-.382.628-.7,1.257h5.6a13.475,13.475,0,0,1,.51,1.257h-6.559a11.281,11.281,0,0,0-.353,1.276h7.255a12.625,12.625,0,0,1,.255,2.5,11.935,11.935,0,0,1-.608,3.76h-6.549a12.49,12.49,0,0,0,.49,1.257h5.559a12.9,12.9,0,0,1-.676,1.257h-4.226a12.538,12.538,0,0,0,.98,1.237h2.353a12.264,12.264,0,0,1-1.206,1.237,11.843,11.843,0,1,0,7.951-20.619Z" transform="translate(-401.141 -147.221)"/><path class="f" d="M474.27,189.025a.382.382,0,0,1,.392-.373.363.363,0,0,1,.373.373.383.383,0,0,1-.373.393.413.413,0,0,1-.392-.393Zm.392.3a.284.284,0,0,0,.274-.3.265.265,0,0,0-.274-.275.285.285,0,0,0-.3.275.3.3,0,0,0,.3.3Zm0-.138h-.088v-.324h.225c.02,0,0,0,0,.069s0,.088-.068.088l.068.137h-.1v-.118h0Zm0-.186h.088v-.069h-.088Z" transform="translate(-438.818 -174.611)"/><path class="f" d="M387.645,179.266h-1.48l.882-4.625-2.02,4.625h-1.343l-.235-4.6-.882,4.6H381.2l1.157-5.97h2.314l.118,3.711,1.628-3.711H388.8Z" transform="translate(-377.292 -164.459)"/><path class="f" d="M444.427,179.187a3.766,3.766,0,0,1-1.069.157c-.745,0-1.157-.373-1.157-1.07a3.311,3.311,0,0,1,0-.442l.088-.491.068-.373.735-3.672h1.461l-.206,1.11h.706l-.206,1.188h-.774l-.373,2.042a1.165,1.165,0,0,0,0,.206c0,.255.167.373.51.373a1.685,1.685,0,0,0,.392,0Z" transform="translate(-417.613 -164.459)"/><path class="f" d="M453.966,176.582a.394.394,0,0,0-.166,0h-.284a1.519,1.519,0,0,0-1.275.786l.137-.746h-1.334l-.9,4.909h1.48c.53-2.995.745-3.525,1.461-3.525h.353Z" transform="translate(-422.868 -166.625)"/><path class="f" d="M430.451,177.843c0,.609.343,1.041,1.137,1.345.608.255.7.324.7.56s-.275.442-.853.442a4.747,4.747,0,0,1-1.373-.206l-.167,1.119h.069l.255.069h.392a6.106,6.106,0,0,0,.833,0c1.549,0,2.294-.511,2.294-1.62,0-.677-.3-1.07-1.069-1.365s-.647-.226-.647-.462.255-.393.745-.393a9.625,9.625,0,0,1,1.069.069l.147-1.11a8.857,8.857,0,0,0-1.284-.1c-1.667,0-2.245.746-2.245,1.649Z" transform="translate(-409.48 -166.375)"/><path class="f" d="M406.3,181.176H405.1v-.511a2.007,2.007,0,0,1-1.549.579,1.275,1.275,0,0,1-1.343-1.325c0-1.188.98-1.885,2.6-1.885a5.871,5.871,0,0,1,.6,0,.936.936,0,0,0,0-.3c0-.324-.255-.442-.98-.442a6.186,6.186,0,0,0-1.206.118l-.206.069h-.137l.206-1.09a6.675,6.675,0,0,1,1.814-.2c1.275,0,1.961.491,1.961,1.414a5.208,5.208,0,0,1-.118.982l-.3,1.738v.717ZM405.234,179a1.91,1.91,0,0,0-.324,0c-.833,0-1.255.255-1.255.746a.471.471,0,0,0,.51.51,1.138,1.138,0,0,0,1.069-1.227Z" transform="translate(-391.175 -166.369)"/><path class="f" d="M420.74,181a5.6,5.6,0,0,1-1.51.206c-1.647,0-2.5-.766-2.5-2.209a2.669,2.669,0,0,1,2.579-2.945,1.756,1.756,0,0,1,1.961,1.767,5,5,0,0,1-.157,1.217h-2.941v.167c0,.56.422.854,1.275.854a3.911,3.911,0,0,0,1.529-.3Zm-.784-2.946V177.8a.608.608,0,0,0-.7-.628c-.441,0-.784.324-.931.884Z" transform="translate(-400.769 -166.275)"/><path class="f" d="M464.831,178.759a2.608,2.608,0,0,1-2.872,2.347,2.08,2.08,0,0,1-2.314-2.248,2.737,2.737,0,0,1,2.941-2.946,2.129,2.129,0,0,1,2.343,2.209,2.539,2.539,0,0,1,0,.609Zm-1.529-.628c0-.511-.206-.982-.814-.982s-1.206.884-1.206,1.669.324,1.09.833,1.09a1.443,1.443,0,0,0,1.137-1.188,2.577,2.577,0,0,0,0-.609Z" transform="translate(-429.143 -166.181)"/></g></g><g class="a" transform="translate(174.286)"><g transform="translate(0 0)"><path class="j" d="M532.817,16.546h1.167l.579-.076.569-.1.55-.123.55-.152.531-.18.522-.2.513-.228.493-.247.484-.275.465-.3.455-.313.427-.342.417-.361.4-.38.38-.4.36-.418.342-.437.323-.446.294-.465.275-.484.247-.493.228-.512.2-.522.18-.531.152-.541.123-.56.1-.56.066-.579V3.982l-.066-.569-.1-.56-.114-.674-.152-.541-.18-.531-.2-.522L543.151.12,542.9-.374l-.275-.474-.294-.465-.323-.446-.342-.427-.361-.38-.38-.4-.4-.38-.418-.361-.427-.342-.455-.313-.465-.294-.484-.275-.494-.256-.512-.275-.522-.209-.531-.18L535.683-6l-.56-.123-.569-.1-.569-.076H531.65l-.569.076-.569.1-.55.123-.55.152-.493.18-.569.209-.513.228-.493.256-.484.275-.465.294-.446.313-.437.342-.389.37-.4.38-.38.4-.361.418-.342.427-.323.446-.294.465-.275.474-.256.493-.218.512-.2.522-.18.531-.171.493-.133.56-.1.56-.076.569V6.2l.076.579.1.56.133.56.152.541.18.531.2.522.228.512.256.493.275.484.294.465.323.446.342.437.361.418.38.4.408.418.418.361.437.342.446.313.465.3.484.275.493.247.512.228.522.2.531.18.55.152.55.123.569.1.569.076h.579Z" transform="translate(-506.2 6.304)"/><path class="k" d="M487.943,16.546h1.167l.569-.076.569-.1.55-.123.541-.152.531-.18.522-.2.512-.228.493-.247.484-.275.465-.3.446-.313.427-.342.417-.361.4-.38.38-.4.361-.418.342-.437.323-.446.294-.465.275-.484.256-.493.228-.512.2-.522.18-.531.152-.541.133-.56.1-.56.076-.579V3.982l-.076-.569-.1-.56-.114-.674-.152-.541-.18-.531-.2-.522L498.3.12l-.256-.493-.275-.474-.294-.465-.323-.446-.342-.427-.408-.38-.38-.4-.4-.38L495.2-3.7l-.427-.342-.446-.313-.465-.294-.484-.275-.493-.256-.474-.275-.522-.209-.531-.18L490.808-6l-.55-.123-.569-.1-.569-.076h-2.334l-.569.076-.569.1L485.077-6l-.541.152-.531.18-.522.209-.5.228-.493.256L482-4.7l-.465.294-.446.313-.436.342-.389.37-.4.38-.417.437-.361.418-.342.427-.323.446-.3.465-.275.474-.256.493-.171.474-.209.522-.18.531-.2.493-.123.56-.1.56-.076.569V6.2l.076.579.1.56.123.56.161.541.18.531.209.522.228.512.256.493.275.484.3.465.323.446.342.437.361.418.38.4.418.418.418.361.437.342.446.313.465.3.484.275.493.247.5.228.522.2.531.18.541.152.55.123.569.1.569.076h.579Z" transform="translate(-476.527 6.304)"/><path class="j" d="M528.467,5.149h5.807V4.5h-5.247Z" transform="translate(-510.864 -0.841)"/><path class="j" d="M525.779,9.125H532.5V8.508h-6.31Z" transform="translate(-509.088 -3.488)"/><path class="j" d="M523.791,13.213h7.4v-.645h-7.1Z" transform="translate(-507.773 -6.172)"/><path class="j" d="M522.475,17.217h7.848v-.645h-7.658Z" transform="translate(-506.903 -8.819)"/><path class="j" d="M521.607,21.221h8.132v-.645h-8.018Z" transform="translate(-506.329 -11.466)"/><path class="j" d="M521.159,25.215h8.256V24.58h-8.18Z" transform="translate(-506.033 -14.113)"/><path class="j" d="M521.254,29.219h8.2v-.636h-8.294Z" transform="translate(-506.033 -16.76)"/><path class="j" d="M521.777,33.223h8v-.636h-8.113Z" transform="translate(-506.366 -19.407)"/><path class="j" d="M522.758,37.227h7.591v-.636h-7.791Z" transform="translate(-506.959 -22.054)"/><path class="j" d="M524.263,41.231h7.032V40.6h-7.335Z" transform="translate(-507.884 -24.701)"/><path class="j" d="M526.43,45.236h6.215v-.664H526Z" transform="translate(-509.236 -27.33)"/><path class="j" d="M529.41,49.3h5.115V48.66h-5.693Z" transform="translate(-511.105 -30.032)"/><path class="f" d="M580.659,35.631h0v-.1h.712v-.332h.047v.1h-.095v-.152l-.057-.066-.067-.057h-.427Z" transform="translate(-545.369 -21.018)"/><path class="f" d="M581.639,36.52v-.152h.38v.095h-.237v.076Z" transform="translate(-546.016 -21.906)"/><path class="f" d="M580.631,36.9v-.085h.095v.076Z" transform="translate(-545.35 -22.202)"/><path class="f" d="M581.639,36.9v-.085h.095v.076h.3v.076h-.4Z" transform="translate(-546.016 -22.202)"/><path class="f" d="M583.6,36.92v-.076h.095v.085Z" transform="translate(-547.312 -22.221)"/><path class="f" d="M580.631,37.068h0v.313h.816v-.313h-.095v.256l-.057.066-.066.057.123.047H581v-.142h-.095Z" transform="translate(-545.35 -22.369)"/><path class="f" d="M581.639,37.068v.247h.095v-.19h.095l.114.19h.076l-.114-.19h-.266Z" transform="translate(-546.016 -22.369)"/><path class="f" d="M581.283,36.667H581L580.9,36.6h0l-.076-.085-.057-.1v-.474l.057-.095h0l.085-.076h0l.1-.057h.294l.133-.18h.057l.1.047.085.066.076.085.057.095V36.3l-.057.1-.076.085-.085.066h-.275Zm0-1.1h-.247l-.076.057h0l-.057.085h0v.408l.047.085.066.076.076.057h.3l.237.142.067-.076v-.55l-.047-.085-.066-.076-.076-.057h-.18Z" transform="translate(-545.443 -21.351)"/><path class="f" d="M582.123,36.816h-.19l-.114-.2h0v.2h-.18v-.56h.38v.209h-.057Zm-.1-.085h0l-.1-.18.133-.047h0v-.066h-.285v.4h0v-.19h.161Z" transform="translate(-546.016 -21.832)"/><path class="f" d="M581.987,36.689h-.18v-.237h.266v.1h-.057Zm-.095-.085h-.057v.076Z" transform="translate(-546.128 -21.962)"/><path class="f" d="M581.543,36.729h-.19l-.123-.085-.066-.066h0v-.484h0l.066-.066.076-.057h.5l.076.057.057.066v.56l-.057.076-.076.057h-.171Zm0-.949h-.237l-.057.057h0V36.3l.085.085h.351l.019.256h.066l.057-.047.047-.066v-.474L581.818,36l-.057-.047h-.142Z" transform="translate(-545.702 -21.518)"/><path class="f" d="M569.174,20.056H567.01l-.085.047-.076.057-.066.066-.047.066v.579l.066.085.057.066.066.057.076.047h1.272l.095.047.095.057.095.057.085.066.076.076.076.085.076.095.066.1.057.114.047.123v1.575l-.047.123-.057.114-.057.114-.066.1-.076.095-.076.085-.076.085-.085.076-.085.066-.095.066-.095.066-.1.057-.1.047-.1.047h-4.08l.294-1.414h2.733V22.59l-.047-.066-.066-.066-.076-.057-.085-.047-.095-.047h-.437l.095.218h-.123l-.123-.047-.123-.057-.123-.057-.152-.1-.114-.066-.114-.076-.1-.085-.1-.095-.095-.1-.085-.114-.057-.142-.066-.133-.047-.152V19.534l.047-.095.057-.085.057-.085.066-.076.076-.076.076-.076.085-.066.323-.047.095-.057.1-.057.066-.085H569.5Z" transform="translate(-534.244 -10.244)"/><path class="f" d="M566.376,25.29h-1.044l-.788-.1-.465-.1-.361-.114h0l.3-1.461.417.123.484.1.588.076h1.234l.095-.076.076-.085.047-.095v-.626l-.057-.057-.066-.057-.076-.047-.085-.047-.3-.19-.731-.294-.123-.057-.095-.066-.114-.066-.114-.085-.114-.085-.1-.095-.095-.114-.085-.114-.085-.161-.066-.142-.047-.161V19.843l.066-.228v-.1l.085-.2.047-.095.123-.18.066-.085.152-.152.085-.066.085-.066.095-.066.266-.057.114-.047h.522l.3-.047h1.12l1.025.047.731.114h0l-.332,1.471h-.294L568.369,20h-1.48l-.076.057-.057.057v.56l.057.076.057.057.133.1.161.085h.085l.285.1.408.133.209.085h.1l.1.057.19.123.095.076.085.076.076.085.076.095.066.1.057.114.048.133v1.594L569,23.9l-.057.114-.066.114-.067.1-.076.095-.076.095-.085.085-.085.085-.095.076-.19.133-.209.1-.1.047h-.1l-.218.076-.247.152-.218.047h-.541Zm-.484-.1h1.243l.19-.095.209-.066h.209l.2-.095.095-.057.19-.123.085-.066.085-.076.076-.085.076-.085.066-.095.066-.1.057-.1.057-.114.047-.123V22.234l-.057-.1-.057-.095-.066-.095-.076-.085-.076-.076-.085-.066-.152-.2-.095-.047-.2-.076-.3-.114-.5-.171-.18-.085h-.085l-.142-.114-.066-.066-.066-.085-.047-.095v-.5l.057-.066.066-.066.085-.057.095-.047h1.433l.721.095.313-1.357-.522-.085h-2.505l-.266.066h-.237l-.209.095-.095.057-.095.057-.085.057-.085.066-.142.142-.066.076-.114.171v.085l-.085.19v.1l-.057.218v1.215l.047.152.066.133.076.123.085.114.095.1.1.095.1.076.114.076.114.066.123.066.247.114.816.332.095.057.085.057.076.057.066.066.057.076v.626l-.057.1v.047h0l-.1.085h-1.518l-.55-.095-.465-.114h-.133l-.275,1.338.455.133.427.076h.38Z" transform="translate(-534.17 -10.059)"/><path class="f" d="M492.927,15.7h0l-.323-.152h-.294l-.047-.19h-2.439l-.066.2-.085.066-.085.066-.085.076-.085.085-.085.095-.085.095-.076.114-.076.114-.076.123-.076.133-.066.142-.066.152-.066.161-.057.18-.057.19-.047.2-.047.218v1.272l.057.2.076.18.095.171.114.161.133.152.152.133.171.114.19.1.218.085.237.057h1.993l.066-.047.066-.057.057-.057-.294,1.708H488.97l-.161.057h-.152l-.142-.047-.142-.057-.142-.066-.142-.076-.142-.085-.085-.152-.133-.1-.133-.1-.123-.114-.161-.142-.114-.133-.1-.142-.1-.152-.076-.123-.085-.161-.076-.171-.066-.18-.057-.19-.047-.19V17.731l.047-.266.057-.256.057-.247.066-.237.066-.228.038-.19L487,16.1l.085-.2.095-.19.095-.19.1-.18.1-.171.114-.161.123-.152.142-.18.133-.133.152-.133.142-.114.152-.114.152-.1.161-.095.171-.085.18-.076.18-.076.19-.057.2-.057h3.483Z" transform="translate(-483.172 -6.875)"/><path class="f" d="M490.1,21.931h-1.272L488.7,21.8h-.152l-.152-.047-.142-.057-.152-.066-.142-.076-.142-.085-.133-.085-.133-.1-.133-.1-.123-.114-.123-.123-.114-.133-.114-.142-.1-.152-.038-.18-.085-.161-.085-.171-.114-.19-.057-.19-.047-.2V17.528l.047-.266.114-.512.133-.474.095-.218.085-.209.085-.2.095-.2.095-.19.1-.18.1-.171.123-.161.123-.152.133-.152.133-.133.114-.1.152-.123.152-.114.161-.1.171-.095.171-.085.18-.076.18-.076.19-.057.2-.057h1.85l.38.047.437.085.949.275h0l-.323,1.841-.351-.275-.3-.142-.418-.095-.332-.057h-.769l-.332.057h-.18l-.171.057H489.9l-.171.085-.085.095-.171.123-.085.076-.085.085-.085.085-.076.095-.076.1-.142.237-.066.133-.066.142-.095.323-.114.37-.095.408v1.272l.057.19.076.18.095.171.1.152.133.142.152.133.171.114.19.095.209.085.266.066h1.215l.237-.057.161-.057h.076l.142-.076.076-.085.123-.1.152-.152-.313,1.85-.266.142-.171.095-.228.066h-.655Zm.892-8.607h-1.433l-.2.057-.19.057-.18.066-.18.076-.114.247-.161.095-.152.1-.152.1-.18.076-.142.123-.161.171-.123.142-.114.152-.114.161-.085.2-.1.18-.095.18-.095.19-.085.2-.085.2-.047.2-.133.465-.114.5-.047.266v1.869l.047.19.057.19.066.18.076.171.047.142.095.152.095.142.1.133.114.133.114.114.123.114.123.1.133.095.133.085.142.085.142.066.142.066.142.057.142.047h.569l.531.123h1.243l.237-.057.237-.076.18-.095.209-.152.266-1.566-.123.047-.142.095-.152.076-.161.066h-.085l-.247.057h-1.291l-.237-.057-.218-.085-.2-.1-.171-.047-.152-.142-.142-.171-.114-.161-.095-.18-.076-.19-.057-.2V17.566l.095-.418.114-.37.133-.332.066-.152.076-.133.152-.247.076-.114.085-.095.085-.095.085-.085.085-.076.18-.133.057-.047.218-.114.18-.066h1.471l.4.076.294-.009.361.142.209.1.294-1.689-1.129-.285-.55-.076h-.2Z" transform="translate(-483.061 -6.672)"/><path class="f" d="M507.231,25.37l1.11-6.642h-2.1l-1.1,6.642Z" transform="translate(-495.445 -10.244)"/><path class="f" d="M507.176,25.446H505l1.11-6.718H508.3ZM505.1,25.37h2.012l1.091-6.6h-2.012Z" transform="translate(-495.352 -10.245)"/><path class="f" d="M515.2,25.241h2.135l.778-4.052v-.114l.057-.1.057-.095.066-.085.066-.076.076-.066.076-.066.076-.057.076-.047h1.129l.56-1.9h-1.2l-.038.019h-.569l-.057.047-.057.047-.057.047-.047.057-.047.057-.114.5v.066l.076-.892h-1.86Z" transform="translate(-502.09 -10.115)"/><path class="f" d="M517.266,25.206h-2.211l1.186-6.775h1.9l-.066.74.161-.19.161-.152.123-.095.123-.085.133-.076.285-.123.3-.085h.958l-.56,2.021H519.7l-.37-.085h-.2l-.218.057-.152.057h-.152l-.152.1-.076.057-.066.066-.066.076-.057.085-.057.095-.047.1v.1Zm-2.116-.076h2.05l.769-4.014.048-.123.057-.1.057-.095.066-.085.066-.085.076-.076.076-.066.161-.1h.085l.161-.076.2-.1h.474l.256.066.541-1.85h-.835l-.294.085-.275.114-.247.152-.114.085-.161.142-.19.228-.133.18.029-.911h-1.755Z" transform="translate(-501.998 -10.004)"/><path class="f" d="M549.623,25.418h-2.05l.152-.949-.047.057-.047.057v.1l-.047.047v.047h-.939l-.237.588H544.7l-.19-.161-.085-.047-.085-.057-.076-.066-.076-.066-.076-.076-.076-.076-.067-.085-.066-.095-.057-.095-.01-.123-.047-.1-.047-.1V23.6l-.18-.123V22.59l.636-3.862h2.059l-.541,3.426v.911l.057.085.057.076.066.066.066.057h1.034l.123-.047.123-.066.114-.076.114-.085.1-.095.095-.114.085-.123.076-.142.066-.152.047-.171V22.1l.636-3.369h2.059Z" transform="translate(-520.842 -10.244)"/><path class="f" d="M549.661,25.363h-2.135l.142-.9-.19.209-.247.228-.171.114-.123.066-.142.066-.237.076-.275.057h-1.67l-.18-.1-.085-.066-.085-.066-.076-.066-.152-.161-.066-.085-.067-.095-.1-.3-.095-.218-.076-.237V23.75l-.066-.237V22.5l.626-3.91h2.135l-.569,3.634v.721l.047.085.057.076.066.057.066.057h.977l.114-.047.114-.057.114-.066.1-.085.1-.095.095-.1.085-.123.076-.133.057-.152.048-.161v-.18l.664-3.378h2.135Zm-5.428-6.728-.617,3.8v1.338l.066.237v.114l.095.209.114.19.123.171.142.152.076.066.076.066.085.057.171.095h1.281l.427-.047.266-.057.228-.076.2-.095.114-.066.209-.161.237-.237.275-.313-.18,1.205h1.974l1-6.642h-1.974l-.512,3.34v.18l-.047.171-.066.161-.076.142-.085.123-.1.114-.1.095-.114.085-.114.076-.123.066-.123.047H546.13l-.085-.047-.076-.057-.066-.066-.066-.085-.057-.085-.047-.1v-.845l.474-3.312Z" transform="translate(-520.842 -10.152)"/><path class="f" d="M528.747,25.241h2.088l.8-4.052.047-.114.047-.1.057-.095.067-.085.066-.076.076-.066.076-.066.076-.057.085-.047h1.12l.56-1.9h-1.053l-.038.019h-.74l-.057.047-.057.047-.095.437v.057l-.047.057-.047.057-.047.057v.066l.076-.892h-1.831Z" transform="translate(-511.05 -10.115)"/><path class="f" d="M530.828,25.317h-2.221l1.186-6.775h1.9l-.066.8.152-.237.114-.1.171-.142.19-.123.133-.066.152-.066h.19l.237-.066h.968l-.636,1.964h-.057l-.37-.085h-.19l-.218.057-.152.057h-.152l-.076.047-.076.057-.076.057-.066.066-.066.076-.057.085-.057.095-.047.095-.047.114Zm-2.126-.076h2.012l.788-4.014.047-.123.057-.1.066-.095.066-.085.067-.085.076-.076.076-.066.076-.057.085-.057h.076l.161-.076.152-.057h.474l.256.066.541-1.85h-.835l-.294.085-.142.057-.133.066-.247.152-.218.18-.133.161-.142.18-.085.114.085-.949h-1.755Z" transform="translate(-510.957 -10.115)"/><rect class="f" width="1.86" height="0.095" transform="translate(14.291 8.37)"/><rect class="f" width="1.841" height="0.095" transform="translate(18.884 8.37)"/></g></g><g class="a" transform="translate(232.301 0.067)"><g transform="translate(0 0)"><path class="l" d="M247.657-224.78h-4.771a.935.935,0,0,0-.7.567l-1.964,12.349a.369.369,0,0,0,.1.318.369.369,0,0,0,.318.1h2.531a.369.369,0,0,0,.318-.1.369.369,0,0,0,.1-.318l.567-3.506a.646.646,0,0,1,.7-.567H246.4q4.837,0,5.47-4.626a3.677,3.677,0,0,0-.567-3.084,5.667,5.667,0,0,0-3.651-1.12m.567,4.639c-.277,1.687-1.542,1.687-2.807,1.687h-.844l.567-3.229c0-.145.145-.277.422-.277h.277c.844,0,1.687,0,2.109.567.277.145.277.567.277,1.318" transform="translate(-179.318 230.671)"/><path class="m" d="M146.235-224.8h-4.771a.935.935,0,0,0-.7.567L138.8-211.886a.369.369,0,0,0,.1.318.369.369,0,0,0,.318.1h2.24a.936.936,0,0,0,.7-.567l.567-3.374a.646.646,0,0,1,.7-.567h1.542q4.837,0,5.47-4.626a3.677,3.677,0,0,0-.567-3.084,5.389,5.389,0,0,0-3.651-1.12m.567,4.652c-.25,1.661-1.568,1.661-2.807,1.661h-.7l.619-3.229c0-.145.145-.277.422-.277h.277c.844,0,1.687,0,2.109.567a1.5,1.5,0,0,1,.145,1.318" transform="translate(-112.268 230.693)"/><path class="m" d="M182.079-212.106H179.8c-.145,0-.422.145-.422.277l-.145.7-.145-.277a3.3,3.3,0,0,0-2.636-.988,5.39,5.39,0,0,0-5.193,4.626,4.177,4.177,0,0,0,.844,3.506,3.532,3.532,0,0,0,2.952,1.12,4.483,4.483,0,0,0,3.229-1.318l-.145.7a.368.368,0,0,0,.1.318.368.368,0,0,0,.318.1h2.109a.936.936,0,0,0,.7-.567l1.318-7.908c-.145-.145-.422-.422-.567-.422m-3.229,4.494a2.715,2.715,0,0,1-2.636,2.24,2.239,2.239,0,0,1-1.542-.567,2.991,2.991,0,0,1-.422-1.687,2.505,2.505,0,0,1,1.562-1.913,2.5,2.5,0,0,1,2.445.359,2.451,2.451,0,0,1,.567,1.687" transform="translate(-133.668 222.491)"/><path class="l" d="M283.164-212.106H280.91c-.145,0-.422.145-.422.277l-.145.7-.145-.277a3.3,3.3,0,0,0-2.636-.988,5.39,5.39,0,0,0-5.193,4.626,4.176,4.176,0,0,0,.844,3.506,3.533,3.533,0,0,0,2.952,1.12,4.483,4.483,0,0,0,3.229-1.318l-.145.7a.368.368,0,0,0,.1.318.368.368,0,0,0,.318.1h2.109a.936.936,0,0,0,.7-.567l1.318-7.908c-.145-.145-.277-.422-.567-.422M280-207.744a2.715,2.715,0,0,1-2.636,2.24,2.239,2.239,0,0,1-1.542-.567,2.988,2.988,0,0,1-.422-1.687,2.5,2.5,0,0,1,1.554-1.893,2.5,2.5,0,0,1,2.426.339,1.607,1.607,0,0,1,.567,1.687" transform="translate(-200.512 222.491)"/><path class="m" d="M218.334-211.519h-2.4a.725.725,0,0,0-.567.277l-3.084,4.771-1.4-4.494a.646.646,0,0,0-.7-.4h-2.24c-.277,0-.422.277-.422.567l2.531,7.433-2.4,3.348c-.145.277,0,.7.277.7h2.241a.738.738,0,0,0,.567-.277l7.723-11.084c.422-.422.145-.844-.145-.844" transform="translate(-157.706 221.904)"/><path class="l" d="M308.415-224.187l-1.964,12.626a.369.369,0,0,0,.1.318.369.369,0,0,0,.318.1h1.964a.935.935,0,0,0,.7-.567l1.977-12.336a.369.369,0,0,0-.1-.318.369.369,0,0,0-.318-.1h-2.24c-.145-.145-.277,0-.422.277" transform="translate(-223.102 230.5)"/><path class="m" d="M76.654-240.476c-.975-1.12-2.807-1.687-5.324-1.687H64.3a1.2,1.2,0,0,0-.989.844l-2.794,18.385a.645.645,0,0,0,.567.7h4.349l1.12-6.88v.277a1.2,1.2,0,0,1,.989-.844h2.109c4.073,0,7.157-1.687,8.132-6.313v-.422h0a4.9,4.9,0,0,0-1.12-4.072" transform="translate(-60.519 242.163)"/><path class="l" d="M86.421-225.208v.422c-1,4.771-4.085,6.326-8.158,6.326h-2.1a1.2,1.2,0,0,0-.989.844l-1.4,8.554a.514.514,0,0,0,.147.419.514.514,0,0,0,.419.147h3.638a.79.79,0,0,0,.843-.7v-.145l.7-4.349v-.277a.791.791,0,0,1,.843-.7h.567c3.506,0,6.313-1.4,7.012-5.614a5.166,5.166,0,0,0-.7-4.2,1.436,1.436,0,0,0-.83-.725" transform="translate(-69.285 230.954)"/><path class="n" d="M88.434-227.47c-.145,0-.277-.145-.422-.145a.513.513,0,0,1-.422-.145,7.4,7.4,0,0,0-1.819-.145H80.3a.513.513,0,0,0-.422.145.777.777,0,0,0-.422.7l-1.12,7.367v.277a1.2,1.2,0,0,1,.989-.844h2.109c4.073,0,7.157-1.687,8.132-6.313a.515.515,0,0,1,.145-.422,1.416,1.416,0,0,0-.7-.277c-.277,0-.435-.2-.58-.2" transform="translate(-72.299 232.742)"/></g></g></svg>