<svg xmlns="http://www.w3.org/2000/svg" width="30.875" height="21.169" viewBox="0 0 30.875 21.169">
  <g id="Group_4381" data-name="Group 4381" transform="translate(93.121 -141)">
    <g id="Group_4028" data-name="Group 4028" transform="translate(-93.121 141)">
      <path id="Path_4948" data-name="Path 4948" d="M-68.541,149.616h-.809A9.811,9.811,0,0,0-79.09,141a9.755,9.755,0,0,0-9.776,8.967,6.244,6.244,0,0,0-4.255,5.908,6.288,6.288,0,0,0,6.295,6.295h18.286a6.288,6.288,0,0,0,6.295-6.295A6.258,6.258,0,0,0-68.541,149.616Zm-10.549,7.666-4.642-4.643.985-.985,2.918,2.919v-7h1.407v7l2.918-2.919.985.985Z" transform="translate(93.121 -141)"/>
    </g>
  </g>
</svg>
