<svg xmlns="http://www.w3.org/2000/svg" width="20.076" height="13.765" viewBox="0 0 20.076 13.765">
  <g id="Group_4164" data-name="Group 4164" transform="translate(93.121 -141)">
    <g id="Group_4028" data-name="Group 4028" transform="translate(-93.121 141)">
      <path id="Path_4948" data-name="Path 4948" d="M-77.138,146.6h-.526A6.38,6.38,0,0,0-84,141a6.343,6.343,0,0,0-6.357,5.831,4.06,4.06,0,0,0-2.767,3.842,4.089,4.089,0,0,0,4.093,4.093h11.89a4.089,4.089,0,0,0,4.093-4.093A4.069,4.069,0,0,0-77.138,146.6ZM-84,151.587l-3.018-3.019.64-.64,1.9,1.9v-4.55h.915v4.55l1.9-1.9.64.64Z" transform="translate(93.121 -141)"/>
    </g>
  </g>
</svg>
