<svg id="Group_4040" data-name="Group 4040" xmlns="http://www.w3.org/2000/svg" width="15.161" height="14.078" viewBox="0 0 15.161 14.078">
  <g id="Path_4947" data-name="Path 4947" transform="translate(93.94 81.23)" fill="#fff">
    <path d="M -82.38955688476563 -68.12069702148438 L -86.11717224121094 -70.18889617919922 L -86.35974884033203 -70.323486328125 L -86.60233306884766 -70.18889617919922 L -90.32993316650391 -68.12070465087891 L -89.47109985351563 -72.20289611816406 L -89.41146087646484 -72.48635101318359 L -89.62770843505859 -72.67909240722656 L -92.76802062988281 -75.47804260253906 L -88.53067779541016 -75.94149017333984 L -88.25035095214844 -75.97215270996094 L -88.13156127929688 -76.22792053222656 L -86.35974884033203 -80.04296112060547 L -84.58794403076172 -76.22792053222656 L -84.46915435791016 -75.97215270996094 L -84.18881988525391 -75.94149017333984 L -79.95146179199219 -75.47804260253906 L -83.09177398681641 -72.67909240722656 L -83.30801391601563 -72.48635101318359 L -83.24838256835938 -72.20289611816406 L -82.38955688476563 -68.12069702148438 Z" stroke="none"/>
    <path d="M -86.35974884033203 -78.85592651367188 L -87.67807769775391 -76.01731109619141 L -87.9156494140625 -75.50578308105469 L -88.476318359375 -75.44446563720703 L -91.59604644775391 -75.10324859619141 L -89.29502105712891 -73.05235290527344 L -88.86254119873047 -72.66688537597656 L -88.9818115234375 -72.09995269775391 L -89.61526489257813 -69.08903503417969 L -86.84490966796875 -70.62611389160156 L -86.35974884033203 -70.89529418945313 L -85.87458801269531 -70.62611389160156 L -83.10422515869141 -69.08902740478516 L -83.7376708984375 -72.09996032714844 L -83.85694122314453 -72.66688537597656 L -83.42446136474609 -73.05235290527344 L -81.12343597412109 -75.10324859619141 L -84.24317932128906 -75.44446563720703 L -84.80384826660156 -75.50578308105469 L -85.04141998291016 -76.01731109619141 L -86.35974884033203 -78.85592651367188 M -86.35974884033203 -81.23000335693359 L -84.13446044921875 -76.43852996826172 L -78.77947998046875 -75.85284423828125 L -82.75909423828125 -72.30583190917969 L -81.67490386962891 -67.15238189697266 L -86.35974884033203 -69.75168609619141 L -91.04460144042969 -67.15238189697266 L -89.96038818359375 -72.30583190917969 L -93.94000244140625 -75.85284423828125 L -88.58504486083984 -76.43852996826172 L -86.35974884033203 -81.23000335693359 Z" stroke="none" fill="#707070"/>
  </g>
</svg>
