<svg id="Group_4366" data-name="Group 4366" xmlns="http://www.w3.org/2000/svg" xmlns:xlink="http://www.w3.org/1999/xlink" width="17.925" height="19.727" viewBox="0 0 17.925 19.727">
  <defs>
    <clipPath id="clip-path">
      <rect id="Rectangle_3929" data-name="Rectangle 3929" width="17.925" height="19.727"/>
    </clipPath>
  </defs>
  <g id="Group_4189" data-name="Group 4189" clip-path="url(#clip-path)">
    <path id="Path_5115" data-name="Path 5115" d="M17.071,105.088H15.315a3.069,3.069,0,0,0-2.933-2.24,3.147,3.147,0,0,0-2.957,2.24H.854a.855.855,0,0,0,0,1.709h8.57a3.041,3.041,0,0,0,5.867,0h1.756a.853.853,0,0,0,.855-.855.819.819,0,0,0-.831-.854Zm-4.689,2.24A1.39,1.39,0,0,1,11,105.943a1.386,1.386,0,0,1,2.772,0,1.39,1.39,0,0,1-1.386,1.386" transform="translate(0 -96.079)"/>
    <path id="Path_5116" data-name="Path 5116" d="M.863,3.949H2.687a3.041,3.041,0,0,0,5.867,0h8.523a.853.853,0,0,0,.854-.854.838.838,0,0,0-.854-.854H8.555a3.041,3.041,0,0,0-5.867,0H.864a.853.853,0,0,0-.855.854.837.837,0,0,0,.854.854Zm4.759-2.24A1.39,1.39,0,0,1,7.008,3.095,1.362,1.362,0,0,1,5.622,4.481,1.39,1.39,0,0,1,4.236,3.095,1.421,1.421,0,0,1,5.622,1.709" transform="translate(-0.008)"/>
    <path id="Path_5117" data-name="Path 5117" d="M17.089,207.934H8.565a3.041,3.041,0,0,0-5.867,0H.873a.853.853,0,0,0-.854.854.838.838,0,0,0,.854.855H2.7a3.041,3.041,0,0,0,5.867,0h8.523a.853.853,0,0,0,.854-.855.837.837,0,0,0-.854-.854m-11.458,2.24a1.39,1.39,0,0,1-1.386-1.386,1.386,1.386,0,0,1,2.772,0,1.39,1.39,0,0,1-1.386,1.386" transform="translate(-0.018 -192.157)"/>
  </g>
</svg>
