<?xml version="1.0" encoding="utf-8"?>
<!-- Generator: Adobe Illustrator 24.1.1, SVG Export Plug-In . SVG Version: 6.00 Build 0)  -->
<svg version="1.1" id="Layer_1" xmlns="http://www.w3.org/2000/svg" xmlns:xlink="http://www.w3.org/1999/xlink" x="0px" y="0px"
	 viewBox="0 0 290 96" style="enable-background:new 0 0 290 96;" xml:space="preserve">
<style type="text/css">
	.st0{enable-background:new    ;}
</style>
<g class="st0">
	<path d="M20,32.2c-1,0.1-2,0.2-3,0.3c-1,0.1-2,0.1-3.1,0c-1-0.1-2-0.2-2.9-0.4c-0.9-0.2-1.7-0.6-2.4-1.2c-0.9-0.7-1.2-1.6-0.8-2.7
		c0.4-1.1,1.2-2.3,2.4-3.5c0.9-0.9,2-1.8,3.2-2.8c1.2-1,2.5-1.9,3.9-2.8c1.4-0.9,2.8-1.8,4.3-2.6c1.5-0.8,3-1.6,4.5-2.2
		c1.5-0.7,2.9-1.2,4.4-1.6c1.4-0.4,2.7-0.7,3.9-0.8c0.6,0,1.3,0,2.1,0.1c0.8,0.1,1.5,0.3,2.1,0.6c0.6,0.3,1.1,0.7,1.5,1.2
		c0.3,0.5,0.3,1.2,0,2c-0.2,0.3-0.3,0.6-0.5,0.9s-0.3,0.6-0.6,0.9c-0.9,1.2-1.8,2.4-2.8,3.5c-1,1.1-2.1,2.1-3.3,3
		c-0.2,0.1-0.3,0.3-0.6,0.4c-0.2,0.1-0.4,0.3-0.6,0.3c-0.1,0.1-0.2,0.1-0.3,0c-0.1,0-0.2,0-0.3,0c0.1-0.1,0.1-0.2,0.1-0.3
		c0-0.1,0.1-0.2,0.1-0.3c0.5-0.6,1-1.1,1.5-1.7c0.5-0.5,1-1.1,1.4-1.7c0.6-0.7,1.1-1.3,1.7-2c0.5-0.7,1.1-1.3,1.7-2
		c0.2-0.3,0.5-0.8,0.6-1.3c0.1-0.3,0.1-0.5,0-0.7c-0.1-0.2-0.3-0.4-0.6-0.5c-0.2-0.1-0.5-0.2-0.8-0.3c-0.3-0.1-0.5-0.1-0.6-0.1
		c-0.9-0.1-2,0-3.4,0.4c-1.4,0.3-3,0.8-4.7,1.5c-1.7,0.7-3.4,1.4-5.3,2.3c-1.8,0.9-3.5,1.9-5.1,3c-1.6,1.1-3,2.2-4.2,3.4
		c-1.2,1.2-2.1,2.4-2.7,3.6c-0.3,0.7-0.3,1.2,0.1,1.5c0.4,0.3,0.9,0.6,1.7,0.7c0.7,0.1,1.6,0.2,2.6,0.2c1,0,2-0.1,3-0.2
		c1-0.1,1.8-0.2,2.6-0.3c0.8-0.1,1.3-0.2,1.7-0.3c0.8-0.1,1.6-0.3,2.3-0.5c0.8-0.2,1.5-0.4,2.3-0.7c0.9-0.3,1.7-0.6,2.5-0.8
		c0.8-0.3,1.7-0.5,2.5-0.8c0.1-0.1,0.3-0.1,0.4-0.1c0.1,0,0.2-0.1,0.4-0.1c0.1,0,0.1,0,0.1,0c0,0,0.1,0.1,0.1,0.1
		c0,0.1-0.1,0.2-0.2,0.2c-0.6,0.4-1.2,0.7-1.7,1.1c-0.5,0.3-1.1,0.7-1.7,1c-0.7,0.4-1.4,0.8-2,1.2c-0.7,0.4-1.3,0.8-2,1.2
		c-2.2,1.2-4.3,2.6-6.3,4.1s-3.9,3.1-5.8,4.9c-2.1,1.9-3.9,4-5.5,6.2c-1.6,2.2-2.9,4.6-4,7.2c-0.4,0.8-0.7,1.7-0.9,2.5
		c-0.3,0.8-0.4,1.7-0.3,2.6c0,2.1,1,3.1,3.2,3.2c0.6,0,1.1-0.1,1.6-0.2c1.3-0.2,2.5-0.6,3.6-1.1s2.2-1.1,3.4-1.8c1.5-1,3-2,4.3-3
		s2.7-2.1,4.1-3.2c2.4-1.9,4.7-3.9,7-6c2.2-2.1,4.4-4.3,6.5-6.6c0.3-0.2,0.5-0.5,0.8-0.8c0.3-0.3,0.5-0.5,0.8-0.8
		c0.1-0.1,0.1-0.1,0.1-0.1c0,0,0.1-0.1,0.2-0.1c0.1-0.1,0.2,0,0.2,0.1c0,0,0,0.1-0.1,0.3c-0.1,0.1-0.2,0.1-0.3,0.2
		c-1.4,2-2.9,4-4.5,5.8c-1.6,1.8-3.2,3.6-4.9,5.3c-1.8,1.8-3.7,3.6-5.7,5.2c-1.9,1.7-4,3.2-6.2,4.7c-1.4,0.9-2.7,1.7-4.1,2.4
		c-1.4,0.7-2.9,1.2-4.4,1.6c-0.7,0.2-1.3,0.3-2,0.3c-0.7,0-1.3,0-2-0.2c-1.2-0.2-2.1-0.7-2.8-1.6c-0.7-0.8-1.1-1.9-1.2-3.2
		c-0.1-0.9,0-1.7,0.2-2.6s0.4-1.7,0.7-2.5c0.7-1.9,1.6-3.7,2.6-5.4c1-1.7,2.1-3.4,3.3-5c3.5-4.4,7.7-8.2,12.4-11.3
		C19.7,32.3,19.8,32.2,20,32.2z"/>
	<path d="M56.3,37.6c0.4-0.2,0.7-0.3,0.8-0.1c0.1,0.2,0.1,0.3-0.1,0.5c-0.8,0.7-1.7,1.3-2.5,2s-1.7,1.3-2.6,1.8
		C50.9,42.5,50,43,49,43.3c-1,0.3-1.8,0.4-2.4,0.3c-0.7-0.1-1.2-0.4-1.4-0.7c-0.3-0.3-0.4-0.9-0.4-1.6v-2.4c0-0.2-0.1-0.4-0.2-0.5
		c-0.1-0.1-0.3,0-0.6,0.1c-0.3,0.1-0.7,0.2-1,0.4s-0.7,0.4-1.2,0.7c-0.4,0.3-1,0.7-1.5,1.2c-0.6,0.5-1.3,1.2-2.2,2l-1,1l-0.5,0.2
		c-0.5,0.1-0.9,0.1-1.3-0.2c-0.2-0.3-0.3-0.6-0.3-1c0-0.2,0-0.5,0.1-0.8l1.5-3.8c0.2-0.5,0.4-0.9,0.7-1.3c0.2-0.4,0.5-0.8,0.7-1.2
		c0.1-0.2,0.2-0.4,0.4-0.6c0.2-0.2,0.3-0.4,0.5-0.6s0.4-0.3,0.6-0.4c0.2-0.1,0.4,0,0.6,0.1c0.1,0.2,0.2,0.4,0.2,0.6
		c0,0.3,0,0.5-0.1,0.6c-0.2,0.4-0.4,0.8-0.6,1.2c-0.2,0.4-0.4,0.8-0.6,1.2c0,0.1-0.1,0.2-0.2,0.3c-0.1,0.2-0.2,0.3-0.3,0.5
		c-0.1,0.2-0.2,0.3-0.3,0.5c-0.1,0.2-0.2,0.3-0.2,0.3c0.3-0.3,0.8-0.7,1.4-1.2c0.6-0.4,1.2-0.8,1.8-1.2c0.6-0.4,1.3-0.7,1.9-0.9
		c0.6-0.2,1.2-0.4,1.7-0.4s0.9,0.2,1.3,0.5c0.3,0.3,0.5,0.9,0.5,1.6c0.1,0.5,0.1,0.9,0.1,1.3c0,0.4,0,0.8,0,1.3v0.3
		c0.1,0.5,0.4,0.7,0.9,0.6c0.5-0.1,1-0.2,1.6-0.4c1.2-0.5,2.4-1.1,3.6-1.7C54.1,38.9,55.2,38.3,56.3,37.6z"/>
	<path d="M54.4,44.6c0.4-0.2,0.8-0.3,1.1-0.5c0.4-0.2,0.8-0.4,1.1-0.6c1.1-0.5,2.2-1.1,3.3-1.6c1.1-0.5,2.2-1.1,3.3-1.7
		c0.1-0.1,0.2-0.1,0.3-0.2c0.1-0.1,0.2-0.1,0.3-0.2c0.5-0.3,1.1-0.6,1.6-0.9c0.5-0.3,1.1-0.6,1.6-1h0.2c0,0.1,0,0.2-0.1,0.3
		c-0.1,0.1-0.1,0.2-0.2,0.3c-0.1,0.1-0.2,0.2-0.3,0.3c-1.4,1.3-2.8,2.4-4.4,3.5c-1.5,1-3.1,2-4.7,2.9c-0.4,0.2-0.8,0.4-1.2,0.6
		c-0.4,0.2-0.8,0.4-1.2,0.6c-0.1,0.1-0.3,0.1-0.4,0.1c-0.1,0-0.2,0-0.4,0.1c-0.7,0.1-1.3-0.1-1.8-0.5s-0.6-1.1-0.5-1.9
		c0.1-0.7,0.3-1.4,0.5-2.2s0.5-1.4,0.9-2s0.8-1.2,1.3-1.7c0.5-0.5,1-0.9,1.6-1.2c0.6-0.3,1.1-0.4,1.6-0.3c0.5,0.1,1,0.2,1.5,0.5
		c0.3,0.2,0.5,0.4,0.6,0.8c0.1,0.3,0.1,0.7,0,1c-0.1,0.1-0.2,0.3-0.3,0.4c0,0-0.1,0-0.1,0c-0.1,0-0.1,0-0.2-0.1
		c-0.3-0.4-0.6-0.6-0.9-0.6c-0.3,0-0.7,0-1,0c-0.5,0.1-0.9,0.4-1.3,0.9c-0.4,0.5-0.7,1.1-1,1.8c-0.3,0.7-0.5,1.3-0.7,1.9
		C54.5,43.8,54.4,44.3,54.4,44.6z"/>
	<path d="M76.4,37.4c-1.3,0.9-2.5,1.8-3.6,2.9c-1.1,1-2.1,2.2-3,3.3c-0.9,1.2-1.8,2.4-2.6,3.7c-0.8,1.3-1.6,2.6-2.4,3.9
		c-0.3,0.5-0.6,1.1-0.9,1.6c-0.3,0.5-0.6,1.1-0.9,1.6c-0.2,0.3-0.3,0.6-0.5,0.8c-0.2,0.2-0.3,0.5-0.5,0.7c0,0.1,0,0.1,0,0.2
		s0,0.1-0.1,0.2c-0.1,0.2-0.1,0.3-0.1,0.5c0,0.1,0,0.3-0.1,0.4c-0.1,0.3-0.3,0.6-0.5,0.8s-0.5,0.3-0.8,0.2c-0.3-0.1-0.6-0.2-0.8-0.5
		c-0.2-0.3-0.3-0.6-0.2-0.9c0-0.2,0.1-0.5,0.1-0.7c0-0.3,0.1-0.5,0.2-0.8c0.3-1.2,0.7-2.4,1-3.6c0.3-1.2,0.6-2.4,1-3.6
		c0.3-0.9,0.6-1.7,0.9-2.5c0.3-0.8,0.6-1.6,0.9-2.5c1.3-3.2,2.6-6.4,3.9-9.7c1.3-3.2,2.7-6.4,4.2-9.7c0.7-1.4,1.4-2.9,2-4.4
		c0.7-1.5,1.3-2.9,2.1-4.4c0.6-1.2,1.2-2.4,1.9-3.6c0.7-1.2,1.3-2.3,2-3.5c0.4-0.8,0.8-1.5,1.3-2.3c0.5-0.7,1-1.4,1.6-2
		c0.1-0.2,0.2-0.3,0.4-0.4C83,3.1,83.2,3,83.3,2.8c0.4-0.3,0.8-0.4,1.2-0.2c0.3,0.3,0.5,0.6,0.5,1c0,0.2,0,0.3,0,0.4
		c0,0.1,0,0.2-0.1,0.4c-0.2,0.9-0.5,1.7-0.8,2.5c-0.3,0.8-0.7,1.6-1,2.4c-0.4,1-0.8,1.9-1.2,2.9c-0.4,0.9-0.8,1.9-1.3,2.8
		c-1.1,2.4-2.3,4.8-3.6,7.1c-1.3,2.3-2.6,4.7-3.9,7c-0.6,1-1.2,2.1-1.9,3.1c-0.6,1-1.3,2-1.9,3.1c-0.3,0.5-0.6,1.1-0.8,1.7
		c-0.7,1.9-1.4,3.7-2.1,5.6c-0.7,1.8-1.4,3.7-2.1,5.5c-0.1,0.2-0.1,0.4-0.1,0.5c0,0.1-0.1,0.3-0.1,0.5c0-0.1,0.1-0.1,0.1-0.2
		s0.1-0.1,0.1-0.1c0.7-1.3,1.6-2.7,2.4-4c0.9-1.3,1.8-2.6,2.8-3.7c1-1.2,2.1-2.2,3.2-3.2s2.4-1.8,3.7-2.4c0.3-0.2,0.6-0.2,0.9-0.2
		s0.5,0.1,0.8,0.3c0.2,0.2,0.4,0.4,0.5,0.6c0.1,0.3,0.1,0.5,0,0.9c0,0.4-0.1,0.8-0.2,1.1c-0.1,0.4-0.2,0.7-0.3,1.1
		c-0.2,0.7-0.4,1.5-0.7,2.2c-0.2,0.7-0.5,1.4-0.7,2.2c-0.1,0.5-0.1,0.8,0,0.9c0.2,0.1,0.4,0.1,0.7,0c0.9-0.2,1.8-0.6,2.7-1
		c0.9-0.5,1.8-0.9,2.6-1.5c0.9-0.5,1.7-1.1,2.4-1.7c0.8-0.6,1.5-1.1,2.1-1.7c0.1-0.1,0.3-0.2,0.4-0.3c0.1-0.1,0.2-0.2,0.4-0.2
		c0.2-0.1,0.3-0.2,0.3-0.1c0.1,0,0.1,0.1,0,0.3c-0.1,0.1-0.1,0.3-0.3,0.5c-0.1,0.2-0.3,0.4-0.4,0.6c-0.5,0.5-1,1.1-1.7,1.8
		c-0.7,0.7-1.4,1.3-2.2,2c-0.8,0.7-1.8,1.3-2.8,1.9c-1,0.6-2.1,1.1-3.3,1.5c-0.9,0.3-1.7,0.3-2.3-0.2c-0.6-0.4-0.9-1.2-0.9-2.2
		c0-0.5,0.1-1,0.2-1.5c0.1-0.5,0.3-1,0.5-1.5c0.2-0.6,0.4-1.2,0.6-1.8c0.2-0.6,0.4-1.2,0.6-1.7C76.5,37.7,76.5,37.6,76.4,37.4
		L76.4,37.4z M83.3,5.6c-0.1,0-0.1,0-0.1,0c-0.1,0.1-0.1,0.1-0.2,0.2c-0.3,0.5-0.6,1-0.9,1.4c-0.3,0.5-0.6,0.9-0.9,1.5
		c-0.6,1.1-1.2,2.3-1.8,3.4s-1.2,2.3-1.7,3.4c-1,2.3-2,4.5-2.9,6.8c-0.9,2.3-1.9,4.5-2.9,6.8c0,0.1,0,0.2-0.1,0.2
		c0.3-0.3,0.5-0.6,0.7-0.9c0.7-1.3,1.3-2.6,2-3.8c0.7-1.3,1.3-2.5,2-3.7c1.3-2.2,2.4-4.4,3.4-6.6c1-2.2,1.9-4.5,2.9-6.8
		c0.1-0.3,0.2-0.6,0.3-0.9S83.2,5.9,83.3,5.6z"/>
	<path d="M90.5,42.4c-0.3,0.2-0.7,0.4-1,0.6c-0.3,0.2-0.6,0.4-1,0.5c-0.6,0.4-1.3,0.6-2,0.6c-0.7,0-1.2-0.2-1.6-0.7
		c-0.4-0.5-0.5-1.1-0.3-1.7c0.1-0.4,0.3-0.8,0.5-1.1c0.2-0.3,0.5-0.6,0.7-0.9c0.3-0.3,0.7-0.6,1-0.9c0.3-0.3,0.7-0.6,1-0.9
		c0.6-0.5,1.2-0.9,1.9-1.2c0.7-0.3,1.4-0.5,2.1-0.7c0.3-0.1,0.7-0.2,1.1-0.2c0.4,0,0.7,0.1,1.1,0.3c0.1,0.1,0.1,0.1,0.2,0.1
		c0.1,0,0.1,0.1,0.2,0.1c0.2,0.2,0.5,0.3,0.8,0.2c0.1,0,0.2,0,0.4,0c0,0.1,0,0.1,0,0.2c0,0.1,0,0.1,0,0.2c-0.2,0.3-0.4,0.7-0.6,1.1
		c-0.2,0.4-0.4,0.7-0.6,1.1c-0.5,0.9-1,1.8-1.4,2.7c-0.4,0.9-0.7,1.8-0.9,2.9c-0.1,0.2-0.1,0.3-0.1,0.5c0,0.2,0,0.4,0,0.5
		c0,0.4,0.2,0.6,0.6,0.6c0.8,0.1,1.5,0,2.2-0.4c0.5-0.2,1-0.4,1.5-0.7c0.5-0.2,0.9-0.4,1.4-0.7c1.3-0.6,2.5-1.3,3.8-1.9
		c1.2-0.7,2.4-1.4,3.6-2.3c0.9-0.6,1.7-1.3,2.6-2c0.1-0.1,0.1-0.1,0.2-0.1c0.1,0,0.1,0,0.2-0.1c0,0.1,0,0.2,0,0.2
		c0,0.1,0,0.1-0.1,0.2c-0.9,1.3-1.9,2.5-3.1,3.5c-1.2,1-2.4,1.9-3.7,2.8c-0.9,0.6-1.8,1.2-2.7,1.7c-0.9,0.5-1.8,0.9-2.8,1.3
		c-0.6,0.2-1.2,0.4-1.8,0.5c-0.6,0.1-1.2,0.1-1.8-0.1c-0.5-0.1-1-0.4-1.3-0.8c-0.4-0.4-0.6-0.9-0.7-1.4c-0.1-0.5-0.1-1,0-1.5
		c0.1-0.5,0.2-1,0.4-1.5c0.1-0.1,0.1-0.2,0.1-0.3C90.4,42.6,90.5,42.5,90.5,42.4z M86.8,41.9C86.8,41.9,86.8,42,86.8,41.9
		c0,0.1,0.1,0.1,0.1,0.1c0.1-0.1,0.2-0.1,0.3-0.1c0.1,0,0.2-0.1,0.3-0.1c0.8-0.5,1.6-1.1,2.4-1.6c0.8-0.5,1.6-1,2.4-1.6
		c0.2-0.1,0.4-0.3,0.5-0.5c0.1-0.2,0.3-0.4,0.4-0.6l-0.1-0.1c-1.3,0.4-2.5,0.9-3.5,1.7C88.6,39.9,87.6,40.8,86.8,41.9z"/>
	<path d="M126.7,37.6c0.4-0.2,0.7-0.3,0.8-0.1c0.1,0.2,0.1,0.3-0.1,0.5c-0.8,0.7-1.7,1.3-2.5,2s-1.7,1.3-2.6,1.8
		c-0.9,0.7-1.9,1.2-2.9,1.5c-1,0.3-1.8,0.4-2.4,0.3c-0.7-0.1-1.2-0.4-1.4-0.7c-0.3-0.3-0.4-0.9-0.4-1.6v-2.4c0-0.2-0.1-0.4-0.2-0.5
		c-0.1-0.1-0.3,0-0.6,0.1c-0.3,0.1-0.7,0.2-1,0.4s-0.7,0.4-1.2,0.7c-0.4,0.3-1,0.7-1.5,1.2c-0.6,0.5-1.3,1.2-2.2,2l-1,1l-0.5,0.2
		c-0.5,0.1-0.9,0.1-1.3-0.2c-0.2-0.3-0.3-0.6-0.3-1c0-0.2,0-0.5,0.1-0.8l1.5-3.8c0.2-0.5,0.4-0.9,0.7-1.3c0.2-0.4,0.5-0.8,0.7-1.2
		c0.1-0.2,0.2-0.4,0.4-0.6c0.2-0.2,0.3-0.4,0.5-0.6s0.4-0.3,0.6-0.4c0.2-0.1,0.4,0,0.6,0.1c0.1,0.2,0.2,0.4,0.2,0.6
		c0,0.3,0,0.5-0.1,0.6c-0.2,0.4-0.4,0.8-0.6,1.2c-0.2,0.4-0.4,0.8-0.6,1.2c0,0.1-0.1,0.2-0.2,0.3c-0.1,0.2-0.2,0.3-0.3,0.5
		c-0.1,0.2-0.2,0.3-0.3,0.5c-0.1,0.2-0.2,0.3-0.2,0.3c0.3-0.3,0.8-0.7,1.4-1.2c0.6-0.4,1.2-0.8,1.8-1.2c0.6-0.4,1.3-0.7,1.9-0.9
		c0.6-0.2,1.2-0.4,1.7-0.4s0.9,0.2,1.3,0.5c0.3,0.3,0.5,0.9,0.5,1.6c0.1,0.5,0.1,0.9,0.1,1.3c0,0.4,0,0.8,0,1.3v0.3
		c0.1,0.5,0.4,0.7,0.9,0.6c0.5-0.1,1-0.2,1.6-0.4c1.2-0.5,2.4-1.1,3.6-1.7C124.5,38.9,125.6,38.3,126.7,37.6z"/>
	<path d="M126.9,20.6c-0.5,0.1-1,0.2-1.5,0.3c-0.6,0.1-1.1,0.2-1.5,0.4l-3,0.8c-0.5,0.1-0.9,0.1-1-0.1c-0.1-0.3,0.1-0.6,0.6-0.8
		c1.1-0.5,2.2-0.9,3.4-1.3c0.6-0.2,1.3-0.4,2.1-0.6s1.5-0.4,2.3-0.5c0.8-0.1,1.5-0.3,2.3-0.4c0.7-0.1,1.4-0.2,2-0.3
		c0.3-0.1,0.6-0.3,0.8-0.6c0.6-1.3,1.2-2.5,1.8-3.8c0.6-1.2,1.2-2.5,1.9-3.8l0.5-0.8c0.1-0.1,0.3-0.2,0.4-0.2c0.2,0,0.4,0,0.5,0.1
		c0.2,0.1,0.3,0.2,0.4,0.3c0.1,0.1,0.1,0.3,0,0.4c-0.2,0.5-0.4,1-0.6,1.5c-0.2,0.5-0.5,1-0.7,1.6c-0.5,1-0.9,1.9-1.2,2.6
		c-0.4,0.7-0.7,1.5-1,2.2l0.6-0.1c2.4-0.2,4.7-0.4,7-0.6s4.5-0.2,7-0.2c0.2,0,0.4,0,0.6,0c0.2,0,0.4,0,0.6,0.1c0.1,0,0.1,0,0.1,0.1
		c0,0.1,0.1,0.1,0.1,0.2c-0.1,0-0.1,0.1-0.1,0.1s-0.1,0.1-0.1,0.1l-2.4,0.3l-6.3,0.7c-1.3,0.1-2.6,0.3-3.7,0.5
		c-1.1,0.2-2.4,0.4-3.7,0.6c-0.1,0-0.2,0-0.2,0.1c-0.1,0.1-0.1,0.2-0.2,0.3c-1.1,2.9-2.2,5.7-3.2,8.4c-1,2.7-1.9,5.5-2.7,8.2
		c-0.8,2.7-1.5,5.4-2.2,8c-0.6,2.7-1.1,5.4-1.4,8.1c-0.1,0.9-0.3,2-0.4,3.2c-0.1,1.2-0.3,2.6-0.5,4.1c0,0.2,0,0.3,0,0.4
		c0,0.1-0.1,0.2-0.1,0.4c-0.1,0.1-0.1,0.1-0.1,0.1c0,0-0.1,0.1-0.1,0.2c-0.1-0.1-0.1-0.1-0.1-0.2s0-0.1,0-0.1
		c-0.1-0.5-0.2-1.1-0.3-1.6c-0.1-0.5-0.2-1.1-0.2-1.7c-0.1-2-0.1-4,0.1-5.8c0.2-1.9,0.4-3.8,0.8-5.8c0.3-2.3,0.8-4.5,1.4-6.7
		c0.6-2.2,1.3-4.4,2-6.5c0.7-2.1,1.5-4.2,2.3-6.3c0.8-2,1.7-4,2.5-5.9c0-0.1,0.1-0.1,0.1-0.2c0-0.1,0.1-0.2,0.2-0.3
		c-0.9,0.1-1.9,0.3-2.8,0.5c-0.4,0.1-0.8,0.1-1.3,0.2C127.7,20.4,127.3,20.5,126.9,20.6z"/>
	<path d="M133.4,45.2c0.5-0.4,1-0.7,1.5-1.1c0.5-0.4,1-0.8,1.5-1.2c0.7-0.6,1.5-1.2,2.2-1.7c0.7-0.6,1.5-1.2,2.2-1.7
		c0.1-0.1,0.3-0.2,0.7-0.4c0.3-0.2,0.7-0.4,1.1-0.6c0.4-0.2,0.7-0.4,1-0.5s0.5-0.1,0.6,0c0.1,0.1,0.2,0.2,0.1,0.3
		c-0.1,0.1-0.1,0.1-0.2,0.2c-0.9,0.9-1.9,1.7-2.8,2.6c-0.9,0.9-1.8,1.7-2.8,2.5c-0.6,0.6-1.2,1.1-1.9,1.5c-0.6,0.5-1.3,1-2,1.5
		c-0.4,0.3-0.8,0.5-1.2,0.6c-0.5,0.2-1,0.2-1.4-0.1c-0.4-0.3-0.6-0.6-0.6-1.2c0-0.3,0-0.6,0-0.9c0-0.3,0.1-0.6,0.2-0.9
		c0.3-1.1,0.7-2.2,1.2-3.2c0.5-1,1-2,1.5-3c0.1-0.1,0.1-0.3,0.3-0.4c0.1-0.2,0.3-0.3,0.5-0.4c0.1-0.1,0.2-0.1,0.3-0.2
		c0.1,0,0.2,0,0.3,0c0.3,0.1,0.4,0.3,0.4,0.6c0,0.2-0.1,0.4-0.1,0.7c-0.1,0.2-0.1,0.5-0.2,0.7c-0.3,0.8-0.6,1.6-1,2.4
		c-0.3,0.8-0.7,1.6-1,2.4c-0.1,0.2-0.2,0.4-0.3,0.7c-0.1,0.2-0.2,0.5-0.3,0.7C133.3,45.2,133.3,45.2,133.4,45.2z M137,34.7
		c-0.5-0.2-0.9-0.5-1.1-1c-0.2-0.5-0.2-0.9,0-1.5c0.2-0.5,0.5-0.7,1-0.7c0.4,0,0.7,0.3,0.8,0.8c0.1,0.1,0.1,0.3,0.1,0.6
		c0,0.3,0,0.5-0.1,0.8c-0.1,0.3-0.1,0.5-0.3,0.7C137.3,34.6,137.2,34.7,137,34.7z"/>
	<path d="M161.8,37.6c0.4-0.2,0.7-0.3,0.8-0.1c0.1,0.2,0.1,0.3-0.1,0.5c-0.8,0.7-1.7,1.3-2.5,2s-1.7,1.3-2.6,1.8
		c-0.9,0.7-1.9,1.2-2.9,1.5c-1,0.3-1.8,0.4-2.4,0.3c-0.7-0.1-1.2-0.4-1.4-0.7s-0.4-0.9-0.4-1.6v-2.4c0-0.2-0.1-0.4-0.2-0.5
		c-0.1-0.1-0.3,0-0.6,0.1c-0.3,0.1-0.7,0.2-1,0.4c-0.3,0.2-0.7,0.4-1.2,0.7c-0.4,0.3-1,0.7-1.5,1.2c-0.6,0.5-1.3,1.2-2.2,2l-1,1
		l-0.5,0.2c-0.5,0.1-0.9,0.1-1.3-0.2c-0.2-0.3-0.3-0.6-0.3-1c0-0.2,0-0.5,0.1-0.8l1.5-3.8c0.2-0.5,0.4-0.9,0.7-1.3
		c0.2-0.4,0.5-0.8,0.7-1.2c0.1-0.2,0.2-0.4,0.4-0.6c0.2-0.2,0.3-0.4,0.5-0.6s0.4-0.3,0.6-0.4c0.2-0.1,0.4,0,0.6,0.1
		c0.1,0.2,0.2,0.4,0.2,0.6c0,0.3,0,0.5-0.1,0.6c-0.2,0.4-0.4,0.8-0.6,1.2c-0.2,0.4-0.4,0.8-0.6,1.2c0,0.1-0.1,0.2-0.2,0.3
		c-0.1,0.2-0.2,0.3-0.3,0.5c-0.1,0.2-0.2,0.3-0.3,0.5c-0.1,0.2-0.2,0.3-0.2,0.3c0.3-0.3,0.8-0.7,1.4-1.2c0.6-0.4,1.2-0.8,1.8-1.2
		s1.3-0.7,1.9-0.9c0.6-0.2,1.2-0.4,1.7-0.4c0.5,0,0.9,0.2,1.3,0.5c0.3,0.3,0.5,0.9,0.5,1.6c0.1,0.5,0.1,0.9,0.1,1.3
		c0,0.4,0,0.8,0,1.3v0.3c0.1,0.5,0.4,0.7,0.9,0.6c0.5-0.1,1-0.2,1.6-0.4c1.2-0.5,2.4-1.1,3.6-1.7C159.5,38.9,160.6,38.3,161.8,37.6z
		"/>
	<path d="M170.5,37c-0.2,0.2-0.3,0.3-0.4,0.3c-1.2,1.3-2.5,2.4-3.8,3.6c-1.3,1.1-2.7,2.2-4.1,3.1c-0.3,0.2-0.6,0.4-0.9,0.6
		c-0.3,0.2-0.6,0.3-1,0.4c-0.6,0.2-1.2,0.1-1.6-0.3c-0.4-0.4-0.6-0.9-0.5-1.5c0.1-0.8,0.3-1.6,0.6-2.4c0.3-0.8,0.7-1.6,1.2-2.4
		c0.5-0.8,1-1.5,1.6-2.1c0.6-0.6,1.3-1.1,2-1.5c0.2-0.1,0.5-0.2,0.7-0.3s0.6-0.1,0.8-0.1c0.2,0,0.4,0,0.7,0.2
		c0.3,0.1,0.5,0.3,0.8,0.5c0.3,0.2,0.5,0.4,0.7,0.6c0.2,0.2,0.4,0.4,0.6,0.5c0.3-0.3,0.6-0.6,1-0.9c0.3-0.3,0.7-0.6,1-0.9
		c0.1-0.1,0.3-0.3,0.4-0.4s0.3-0.2,0.4-0.4c0.4-0.4,0.8-0.4,1.2-0.1c0.4,0.2,0.5,0.6,0.3,1.2c0,0.1,0,0.1,0,0.1c0,0,0,0.1,0,0.1
		c0.1,1.1,0,2.2-0.2,3.3s-0.4,2.1-0.6,3.2c0,0,0,0.1,0,0.1c0.4-0.2,0.7-0.3,1.1-0.5c0.3-0.1,0.7-0.3,1-0.5c0.6-0.3,1.3-0.6,2.1-0.9
		c0.8-0.3,1.6-0.6,2.5-0.9c0.8-0.3,1.7-0.6,2.5-0.9c0.8-0.3,1.5-0.5,2.2-0.7c0.2-0.1,0.4-0.1,0.6-0.2c0.2-0.1,0.4-0.1,0.6-0.2
		c0.1,0,0.1,0,0.2,0s0.1,0,0.2,0c-0.1,0.1-0.1,0.1-0.1,0.2s0,0.1-0.1,0.2c-0.9,0.6-1.9,1.1-3,1.7c-1.1,0.5-2.2,1.1-3.3,1.6
		c-1.1,0.5-2.2,1-3.3,1.5c-1.1,0.5-2.2,1-3.1,1.6c-0.3,0.2-0.5,0.4-0.5,0.6c-0.4,1.7-0.8,3.3-1.4,4.8c-0.5,1.6-1.2,3.1-1.9,4.6
		c-0.5,1-1,2.1-1.5,3.1c-0.5,1-1,2.1-1.6,3.1c-0.7,1.4-1.4,2.7-2.2,4c-0.8,1.3-1.7,2.5-2.6,3.7c-0.9,1.2-1.8,2.3-2.8,3.4
		c-1,1-2.1,2-3.4,2.8c-0.6,0.4-1.3,0.7-2,0.9s-1.4,0.2-2.2,0c-0.6-0.1-1.1-0.4-1.5-0.7s-0.7-0.8-1-1.3c-0.5-1-0.8-2.1-0.7-3.2
		s0.2-2.2,0.5-3.3c0.4-1.3,0.9-2.5,1.5-3.7c0.6-1.2,1.3-2.3,2-3.4c1.1-1.8,2.4-3.4,3.9-4.8c1.4-1.4,2.9-2.8,4.5-4.1
		c1.5-1.3,3.1-2.4,4.6-3.6c1.6-1.1,3.2-2.1,4.9-3.1c0.2-0.1,0.4-0.3,0.7-0.4c0.2-0.1,0.4-0.2,0.7-0.4c0.1-0.1,0.2-0.2,0.3-0.3
		c0.2-0.9,0.4-1.8,0.6-2.6S170.4,38,170.5,37z M168.9,45.2L168.9,45.2c-0.2,0-0.4,0.1-0.5,0.2c-1.3,1-2.6,1.9-3.9,2.9
		c-1.3,1-2.6,1.9-3.9,3c-1.7,1.4-3.3,2.8-4.8,4.3c-1.5,1.5-2.9,3.2-4.1,5.1c-0.7,1.1-1.3,2.2-1.9,3.3c-0.5,1.1-1,2.3-1.3,3.5
		c-0.2,0.7-0.3,1.4-0.3,2.1s0.2,1.4,0.5,2c0.3,0.7,0.8,1,1.5,1c0.4,0,0.7-0.1,1.1-0.2c0.3-0.1,0.6-0.3,0.9-0.5
		c1.2-0.8,2.2-1.6,3.2-2.6c0.9-1,1.8-2,2.7-3.1c1.3-1.7,2.4-3.4,3.5-5.1c1-1.8,2-3.6,3-5.4c0.5-1,1-2.1,1.5-3.1
		c0.5-1.1,0.9-2.1,1.4-3.2c0.3-0.6,0.5-1.3,0.7-1.9C168.5,46.6,168.7,45.9,168.9,45.2z M166.8,37.3c-0.4-0.4-0.8-0.6-1.2-0.6
		c-0.4,0-0.9,0.2-1.3,0.5c-0.4,0.3-0.8,0.7-1.2,1.2c-0.4,0.5-0.8,1-1.1,1.5c-0.3,0.5-0.6,1-0.9,1.5c-0.2,0.5-0.4,0.8-0.5,1.1
		c0.5-0.3,1-0.7,1.5-1.1c0.5-0.4,1.1-0.9,1.6-1.3c0.5-0.5,1.1-0.9,1.6-1.4S166.3,37.7,166.8,37.3z"/>
	<path d="M203,32.3c-0.6,0.2-1.3,0.4-2,0.6c-0.7,0.2-1.3,0.4-2,0.6c-0.5,0.2-1,0.3-1.5,0.5c-0.5,0.2-1,0.4-1.5,0.6
		c-0.1,0.1-0.3,0.1-0.5,0.2c-0.3,0.1-0.6,0-0.8-0.3c-0.2-0.3-0.2-0.6,0-0.9c0.2-0.2,0.3-0.3,0.5-0.4c0.1-0.1,0.3-0.2,0.5-0.3
		c0.7-0.4,1.5-0.8,2.2-1c0.7-0.3,1.5-0.5,2.3-0.8c0.7-0.2,1.3-0.4,2-0.6c0.6-0.2,1.3-0.3,1.9-0.5c0.2-0.1,0.3-0.1,0.4-0.3
		c0.7-1.4,1.4-2.7,2-3.9s1.3-2.5,2-3.7c0.7-1.2,1.4-2.4,2.1-3.6c0.7-1.2,1.5-2.5,2.3-3.8c0-0.1,0-0.1,0-0.1s0-0.1,0.1-0.1
		c-0.6,0.1-1.2,0.2-1.7,0.4c-2.6,0.7-5.2,1.5-7.8,2.3c-2.6,0.8-5.1,1.8-7.6,2.9c-0.8,0.4-1.6,0.8-2.5,1.2c-0.8,0.4-1.6,0.8-2.5,1.2
		c-0.2,0.1-0.5,0.2-0.6,0.2c-0.4,0.1-0.6,0-0.4-0.4c0.1-0.1,0.1-0.3,0.2-0.4c0.1-0.1,0.2-0.2,0.3-0.3c0.5-0.5,1.1-1,1.7-1.3
		c0.6-0.4,1.2-0.8,1.9-1.1c2.1-1.1,4.2-2,6.4-2.8c2.2-0.8,4.4-1.6,6.7-2.3c2.5-0.8,5.1-1.5,7.6-2.1s5.1-1.2,7.7-1.6
		c1.7-0.2,3.3-0.5,4.9-0.7s3.3-0.4,4.9-0.5c1.1-0.1,2.2-0.1,3.4-0.1c1.1,0,2.3,0.1,3.4,0.4c0.3,0.1,0.6,0.2,1,0.3
		c0.3,0.1,0.6,0.3,0.9,0.4c0.6,0.3,1,0.7,1.2,1.2c0.2,0.5,0.4,1.1,0.5,1.7c0.1,0.7,0.1,1.4,0,2c-0.1,0.7-0.3,1.3-0.5,2l-0.2,0.2
		c0-0.1-0.1-0.1-0.1-0.2c0-0.1-0.1-0.1-0.1-0.2c-0.1-0.7-0.2-1.5-0.3-2.2c-0.1-0.7-0.4-1.4-0.8-2.1c-0.3-0.5-0.7-0.9-1.2-1
		c-0.5-0.1-0.9-0.2-1.4-0.3c-0.5-0.1-0.9-0.2-1.4-0.2c-1-0.1-2-0.1-3,0s-2,0.1-3,0.1c-2.5,0.2-4.9,0.5-7.3,1
		c-2.4,0.4-4.8,0.9-7.3,1.5c-0.5,0.1-0.8,0.2-1.1,0.4s-0.5,0.5-0.7,0.8c-0.7,1.3-1.4,2.5-2,3.7c-0.6,1.2-1.2,2.3-1.9,3.4
		s-1.2,2.3-1.8,3.4c-0.6,1.2-1.2,2.4-1.8,3.7c0,0.1,0,0.1-0.1,0.1c0,0,0,0.1-0.1,0.2c0.1,0,0.2,0,0.3,0c0.1,0,0.1,0,0.2,0
		c2.1-0.4,4.2-0.7,6.2-0.9c2.1-0.2,4.2-0.4,6.3-0.4c1.3,0,2.5,0,3.8,0c1.3,0.1,2.5,0.1,3.8,0.3c0.2,0,0.4,0.1,0.5,0.2
		s0.3,0.1,0.5,0.2c0.1,0,0.1,0.1,0.1,0.1c0,0.1,0.1,0.1,0.1,0.2c-0.1,0-0.1,0.1-0.1,0.1c0,0-0.1,0.1-0.1,0.1
		c-0.9,0.1-1.7,0.2-2.5,0.3c-0.8,0.1-1.6,0.2-2.5,0.3c-2.1,0.2-4.3,0.4-6.4,0.6c-2.1,0.2-4.2,0.4-6.3,0.6c-0.8,0.1-1.5,0.2-2.3,0.3
		c-0.8,0.1-1.5,0.3-2.3,0.4c-0.3,0-0.5,0.2-0.6,0.4c-0.7,1.5-1.4,3-2.1,4.6c-0.7,1.6-1.4,3.2-2.1,4.9s-1.3,3.3-1.9,4.9
		c-0.6,1.6-1.1,3.2-1.6,4.8c-0.5,1.4-0.8,2.7-1.1,4.1c-0.3,1.4-0.6,2.8-1,4.3c-0.1,0.4-0.2,0.7-0.3,1.1s-0.2,0.7-0.3,1.1
		c0,0.1-0.1,0.2-0.2,0.2s-0.2-0.1-0.2-0.2v-0.4c0.1-0.9,0.1-1.7,0.2-2.5c0-0.8,0.1-1.7,0.3-2.5c0.3-1.9,0.6-3.8,1.1-5.6
		c0.4-1.8,0.9-3.6,1.5-5.4c0.2-0.7,0.5-1.6,0.8-2.4c0.3-0.9,0.7-1.7,1-2.6c0.4-0.9,0.7-1.8,1.1-2.6c0.4-0.9,0.7-1.6,1-2.4
		c0.2-0.5,0.4-1,0.6-1.5c0.2-0.5,0.4-1,0.7-1.5C203,32.4,203,32.3,203,32.3z"/>
	<path d="M220.1,39.8c-0.3,0-0.7-0.1-1-0.2c-0.4-0.1-0.7-0.2-1-0.4c-0.3-0.2-0.5-0.4-0.7-0.7s-0.2-0.6-0.1-1.1
		c0.3-0.8,0.7-1.4,1.3-1.7c0.6-0.3,1.1-0.4,1.7-0.2c0.5,0.1,1,0.4,1.4,0.9c0.4,0.5,0.5,1.1,0.5,1.8c0.3,0,0.7,0,1.2,0
		c0.5,0,1.1,0,1.7,0c0.6,0,1.2-0.1,1.8-0.1c0.6-0.1,1.2-0.2,1.7-0.4c0.6-0.2,0.8-0.2,0.7-0.1c-0.1,0.1-0.3,0.4-0.6,0.6
		c-0.5,0.4-1,0.7-1.6,0.9c-0.5,0.2-1.1,0.3-1.7,0.4c-0.6,0.1-1.1,0.1-1.7,0.1c-0.6,0-1.2,0-1.7,0.1c-0.2,0.7-0.4,1.2-0.8,1.7
		c-0.4,0.4-0.8,0.9-1.3,1.4c-1,1.1-2.1,1.9-3.4,2.6c-0.3,0.1-0.7,0.3-1,0.4c-0.4,0.1-0.7,0.2-1.1,0.2c-0.6,0-1.1-0.1-1.5-0.4
		s-0.6-0.7-0.7-1.2c-0.1-0.5-0.2-1-0.1-1.5c0-0.5,0.1-1,0.3-1.4c0.8-2.5,2.1-4.7,3.9-6.7c0.1-0.1,0.3-0.3,0.4-0.4
		c0.1-0.1,0.3-0.2,0.4-0.3c0.2-0.1,0.3-0.1,0.5,0c0.2,0.1,0.3,0.1,0.5,0.3c0.1,0.1,0.2,0.3,0.3,0.4c0.1,0.1,0,0.3-0.1,0.5
		c-0.4,0.5-0.7,1-1.1,1.4c-0.4,0.5-0.7,0.9-1,1.5c-0.2,0.4-0.5,0.8-0.8,1.3c-0.3,0.4-0.5,0.9-0.7,1.4c-0.2,0.5-0.3,0.9-0.4,1.4
		c-0.1,0.4-0.1,0.9,0.1,1.3c0.1,0.4,0.4,0.7,0.7,0.7c0.3,0.1,0.7,0,1.1-0.2c0.4-0.2,0.8-0.5,1.3-0.8c0.5-0.4,0.9-0.8,1.3-1.2
		s0.7-0.8,1-1.2C219.8,40.4,220,40.1,220.1,39.8z M220.5,38.3c0.2-0.4,0.2-0.7,0.1-1c-0.1-0.3-0.3-0.5-0.5-0.6
		c-0.3-0.1-0.5-0.1-0.9,0c-0.3,0.1-0.6,0.4-0.9,0.9c-0.1,0.2,0,0.3,0.3,0.5S219.5,38.3,220.5,38.3z"/>
	<path d="M229.2,39c-0.2,0.1-0.4,0.1-0.6,0.2c-0.2,0.1-0.3,0.1-0.5,0.1c-0.6,0.1-1.1,0.1-1.6-0.2c-0.4-0.3-0.7-0.7-0.9-1.5
		c-0.1-0.2,0-0.4,0-0.7s0.2-0.5,0.3-0.8c0.1-0.3,0.2-0.6,0.3-0.8c0.1-0.3,0.2-0.5,0.3-0.6c0.1-0.2,0.3-0.4,0.4-0.5
		c0.2-0.1,0.4-0.1,0.6-0.1c0.2,0,0.3,0.1,0.5,0.3c0.1,0.1,0.2,0.3,0.1,0.6c0,0-0.1,0.2-0.3,0.6c-0.2,0.4-0.4,0.7-0.5,1.1
		c-0.1,0.4-0.2,0.7-0.1,0.9c0.1,0.2,0.4,0.2,0.9-0.1c0.5-0.2,0.9-0.5,1.4-0.8c0.5-0.3,0.9-0.5,1.3-0.8c0.2-0.2,0.4-0.5,0.5-0.9
		c0.2-0.3,0.4-0.6,0.7-0.8s0.6-0.2,1-0.2c0.5,0.1,0.8,0.4,1,0.8c0.1,0.4,0,0.8-0.4,1.1c0,0,0,0.1,0,0.1c0,0,0,0.1-0.1,0.1
		c-0.5,0.4-1.1,1.2-1.7,2.2c-0.6,1.1-1.2,2.2-1.7,3.4c-0.5,1.2-1,2.4-1.3,3.6s-0.6,2.1-0.6,2.8v0.5c0.1,0.6,0.4,0.8,0.9,0.7
		s1-0.4,1.7-0.8c0.7-0.5,1.4-1.1,2.2-1.9c0.8-0.8,1.6-1.6,2.4-2.5s1.6-1.7,2.4-2.5c0.8-0.8,1.5-1.5,2.2-2.1c0.5-0.4,1-0.8,1.5-1.2
		c0.5-0.4,1-0.7,1.5-1.1c0.1-0.1,0.2-0.1,0.3-0.1c0.1,0.2,0.1,0.3,0,0.3c-0.1,0.3-0.2,0.6-0.4,0.8c-0.4,0.5-0.8,1-1.2,1.4
		c-0.4,0.5-0.8,1-1.2,1.4c-1.3,1.5-2.7,2.9-4,4.4c-1.3,1.5-2.7,2.9-4.1,4.4c-0.6,0.6-1.3,1-2,1.4c-0.7,0.4-1.3,0.6-2,0.6
		s-1.2-0.2-1.6-0.5s-0.8-1-0.9-2c-0.1-1.9,0.2-3.6,0.8-5.3c0.6-1.6,1.3-3.2,2.2-4.7c0-0.1,0.1-0.2,0.1-0.2
		C229.1,39.2,229.1,39.1,229.2,39z"/>
	<path d="M259.8,36.5c0.8-0.3,1.6-0.5,2.4-0.6c0.4-0.1,0.7,0,0.9,0.3c0.3,0.2,0.4,0.6,0.5,1c0,0.1,0,0.4-0.1,0.8
		c-0.1,0.4-0.1,0.9-0.2,1.4c-0.1,0.5-0.1,1-0.2,1.4c-0.1,0.4-0.1,0.7-0.1,0.8c0,0.2,0,0.4,0,0.6c0,0.2,0,0.3,0.1,0.4
		c0.1,0.1,0.2,0.1,0.3,0.2c0.2,0,0.4,0,0.8-0.1c0.6-0.2,1.2-0.4,1.9-0.7s1.4-0.6,2.1-1c0.7-0.4,1.4-0.7,2-1.1c0.7-0.3,1.3-0.7,1.8-1
		c0.1-0.1,0.4-0.2,0.7-0.4c0.3-0.2,0.6-0.2,0.8-0.1c0.1,0.1,0.1,0.3-0.2,0.6s-0.6,0.7-1,1c-1.2,0.9-2.3,1.7-3.4,2.4
		c-1.1,0.8-2.3,1.4-3.6,1.9c-0.6,0.2-1.1,0.4-1.6,0.4c-0.5,0.1-1,0-1.4-0.2c-0.4-0.2-0.7-0.5-0.9-1c-0.2-0.5-0.2-1.1-0.1-1.8
		l0.5-3.8c-0.2,0.1-0.4,0.1-0.6,0.2s-0.4,0.1-0.6,0.2c-1.2,0.6-2.3,1.1-3.5,1.7c-1.1,0.6-2.3,1.2-3.5,1.7c-0.3,0.2-0.6,0.3-1,0.4
		c-0.4,0-0.7-0.1-0.9-0.3c-0.2-0.3-0.3-0.6-0.2-0.9c-0.1-0.2-0.1-0.3,0-0.5c0.1-0.4,0.2-0.8,0.4-1.2c0.1-0.4,0.3-0.8,0.4-1.2
		c0-0.1,0-0.1,0-0.1c0,0,0,0,0-0.1c-0.1-0.3-0.3-0.5-0.7-0.5s-0.8,0.1-1.3,0.3c-0.5,0.2-0.9,0.4-1.4,0.7c-0.4,0.2-0.7,0.4-0.8,0.5
		c-1.1,0.9-2.2,1.9-3.4,2.8c-1.1,0.9-2.3,1.8-3.5,2.8c-0.2,0.2-0.4,0.3-0.6,0.4c-0.2,0.1-0.5,0.2-0.8,0.2c-0.3-0.1-0.5-0.2-0.7-0.3
		c-0.2-0.2-0.3-0.4-0.2-0.7c0,0,0,0,0-0.1c0,0,0,0,0-0.1c0-0.1,0-0.2,0-0.3c0.1-0.2,0.1-0.5,0.2-0.7c0.1-0.2,0.1-0.5,0.3-0.7
		c0.4-0.7,0.8-1.4,1.2-2c0.4-0.7,0.8-1.3,1.2-1.9c0.3-0.4,0.5-0.8,0.8-1.2s0.5-0.8,0.8-1.3c0.1-0.2,0.3-0.4,0.5-0.7
		c0.2-0.3,0.4-0.5,0.6-0.6c0.2-0.2,0.4-0.2,0.5-0.1c0.2,0.1,0.3,0.2,0.4,0.5c0.1,0.2,0.2,0.4,0.2,0.7c0,0.3,0,0.5-0.1,0.6
		c-0.2,0.5-0.4,1-0.7,1.5c-0.3,0.5-0.6,0.9-0.9,1.4c-0.3,0.5-0.6,0.9-0.9,1.4c-0.1,0.1-0.1,0.1-0.1,0.1c0.3-0.2,0.6-0.4,0.8-0.6
		c0.3-0.2,0.5-0.4,0.8-0.6c0.3-0.3,0.8-0.6,1.2-1c0.5-0.4,1-0.8,1.6-1.2c0.6-0.4,1.1-0.7,1.7-1c0.6-0.3,1.2-0.5,1.7-0.6
		s1.1-0.1,1.6,0c0.5,0.1,1,0.5,1.4,1c0.2,0.3,0.3,0.7,0.3,1.2c0,0.5-0.2,1.2-0.4,2c0.1-0.1,0.2-0.1,0.3-0.2s0.2-0.1,0.3-0.2
		L259.8,36.5z"/>
	<path d="M277.3,43.6c0.3,0.4,0.6,0.7,0.9,1.1c0.3,0.3,0.6,0.7,0.9,1c0.6,0.8,1.1,1.6,1.4,2.5c0.3,0.9,0.4,1.8,0.4,2.8
		c-0.1,0.9-0.3,1.7-0.6,2.4s-0.7,1.5-1.2,2.3c-0.8,1.2-1.7,2.2-2.6,3.2c-1,1-2.1,1.9-3.2,2.7c-1.1,0.9-2.3,1.6-3.4,2.3
		c-1.2,0.7-2.4,1.2-3.7,1.8c-0.5,0.2-1.1,0.4-1.6,0.5c-0.5,0.1-1.1,0.2-1.6,0.3c-1.1,0.1-1.9-0.2-2.5-0.8c-0.6-0.6-1-1.4-1-2.4
		c0-0.8,0.1-1.5,0.3-2.2c0.2-0.7,0.4-1.4,0.7-2.1c0.7-1.5,1.5-2.9,2.5-4.3c0.9-1.3,2-2.6,3.1-3.8c1-1,2-2,3-2.9
		c1.1-0.9,2.1-1.8,3.3-2.7c0.3-0.3,0.7-0.6,1-0.8s0.7-0.5,1.1-0.8c-0.2-0.2-0.3-0.3-0.5-0.5c-0.1-0.1-0.3-0.3-0.4-0.5
		c-0.2-0.3-0.4-0.6-0.6-0.9s-0.4-0.6-0.6-0.9c-0.3-0.6-0.4-1.2-0.3-1.8c0.1-0.6,0.3-1.1,0.7-1.6c1.7-2.5,4-4,7-4.6
		c0.6-0.1,1.1,0,1.6,0.4c0.3,0.2,0.4,0.4,0.4,0.7c-0.1,0.4-0.3,0.6-0.7,0.6c-1.3,0.2-2.4,0.6-3.4,1.2c-1,0.6-1.9,1.4-2.7,2.3
		c-0.5,0.5-0.7,1-0.7,1.4s0.2,0.9,0.6,1.5c0.2,0.2,0.3,0.5,0.5,0.7c0.2,0.2,0.4,0.4,0.6,0.6c0.2,0.2,0.4,0.2,0.6,0
		c1.5-0.9,3-1.7,4.3-2.3c1.4-0.6,2.6-1.1,3.7-1.5c1.1-0.4,2.1-0.7,3-0.8c0.9-0.2,1.5-0.3,2-0.3c0.3,0,0.4,0.1,0.4,0.2
		c0,0.1-0.1,0.2-0.3,0.3c-0.9,0.2-1.9,0.5-3,0.9s-2.2,0.8-3.2,1.3c-1.1,0.5-2.1,1.1-3.2,1.7c-1,0.6-2,1.2-2.8,1.8
		C277.4,43.6,277.4,43.6,277.3,43.6z M275.7,44.5c-0.1,0.1-0.2,0.1-0.3,0.2c-1.4,1.1-2.7,2.2-4,3.3c-1.3,1.1-2.5,2.4-3.7,3.6
		c-1,1-2,2.2-2.8,3.4c-0.9,1.2-1.6,2.5-2.2,3.8c-0.3,0.6-0.6,1.3-0.8,1.9c-0.2,0.7-0.3,1.4-0.3,2.1c0,0.9,0.5,1.3,1.4,1.2
		c0.7-0.1,1.4-0.3,2.1-0.6c1.9-0.7,3.8-1.6,5.5-2.7c1.7-1.1,3.3-2.4,4.8-3.8c0.7-0.7,1.3-1.5,1.9-2.3c0.6-0.8,1-1.7,1.4-2.6
		c0.3-0.7,0.4-1.4,0.4-2.1s-0.2-1.4-0.5-2.1c-0.4-0.7-0.8-1.3-1.3-1.8S276.2,45,275.7,44.5z"/>
</g>
<g class="st0">
	<path d="M74.8,93v-7.1h2.3c0.8,0,1.4,0.2,1.7,0.5s0.6,0.8,0.6,1.4c0,0.3-0.1,0.6-0.3,0.9c-0.2,0.3-0.4,0.5-0.8,0.6
		c0.4,0.1,0.7,0.3,0.9,0.6c0.2,0.3,0.3,0.7,0.3,1.1c0,0.6-0.2,1.1-0.6,1.5S78,93,77.3,93H74.8z M75.8,88.9h1.4c0.4,0,0.7-0.1,1-0.3
		c0.2-0.2,0.4-0.5,0.4-0.8c0-0.4-0.1-0.7-0.3-0.9s-0.6-0.3-1-0.3h-1.4V88.9z M75.8,89.7v2.6h1.5c0.4,0,0.8-0.1,1-0.3
		c0.3-0.2,0.4-0.5,0.4-0.9c0-0.9-0.5-1.3-1.4-1.3H75.8z"/>
	<path d="M89.1,89.7H86v2.5h3.6V93h-4.5v-7.1h4.5v0.8H86v2.3h3.1V89.7z"/>
	<path d="M98.7,91.1h-3L95,93h-1l2.7-7.1h0.8l2.7,7.1h-1L98.7,91.1z M96,90.4h2.4L97.2,87L96,90.4z"/>
	<path d="M110.2,85.9v4.8c0,0.7-0.2,1.2-0.6,1.6s-1,0.7-1.7,0.7l-0.2,0c-0.8,0-1.4-0.2-1.9-0.6s-0.7-1-0.7-1.7v-4.8h0.9v4.8
		c0,0.5,0.1,0.9,0.4,1.2c0.3,0.3,0.7,0.4,1.2,0.4c0.5,0,0.9-0.1,1.2-0.4s0.4-0.7,0.4-1.2v-4.8H110.2z"/>
	<path d="M120.6,86.7h-2.3V93h-0.9v-6.3h-2.3v-0.8h5.5V86.7z"/>
	<path d="M127.9,89.5l1.9-3.6h1.1l-2.5,4.5V93h-0.9v-2.7l-2.5-4.5h1.1L127.9,89.5z"/>
	<path d="M142.2,93v-7.1h2.3c0.8,0,1.4,0.2,1.7,0.5c0.4,0.3,0.6,0.8,0.6,1.4c0,0.3-0.1,0.6-0.3,0.9c-0.2,0.3-0.4,0.5-0.8,0.6
		c0.4,0.1,0.7,0.3,0.9,0.6c0.2,0.3,0.3,0.7,0.3,1.1c0,0.6-0.2,1.1-0.6,1.5c-0.4,0.4-1,0.5-1.8,0.5H142.2z M143.1,88.9h1.4
		c0.4,0,0.7-0.1,1-0.3c0.2-0.2,0.4-0.5,0.4-0.8c0-0.4-0.1-0.7-0.3-0.9s-0.6-0.3-1-0.3h-1.4V88.9z M143.1,89.7v2.6h1.5
		c0.4,0,0.8-0.1,1-0.3c0.3-0.2,0.4-0.5,0.4-0.9c0-0.9-0.5-1.3-1.4-1.3H143.1z"/>
	<path d="M155,90.1h-1.7V93h-0.9v-7.1h2.4c0.8,0,1.4,0.2,1.8,0.5c0.4,0.4,0.6,0.9,0.6,1.6c0,0.4-0.1,0.8-0.4,1.2
		c-0.2,0.3-0.6,0.6-1,0.7l1.7,3V93h-1L155,90.1z M153.3,89.4h1.4c0.5,0,0.8-0.1,1.1-0.4c0.3-0.2,0.4-0.6,0.4-1c0-0.4-0.1-0.8-0.4-1
		c-0.3-0.2-0.6-0.4-1.1-0.4h-1.4V89.4z"/>
	<path d="M166.5,91.1h-3l-0.7,1.9h-1l2.7-7.1h0.8l2.7,7.1h-1L166.5,91.1z M163.8,90.4h2.4L165,87L163.8,90.4z"/>
	<path d="M178.6,93h-0.9l-3.6-5.5V93h-0.9v-7.1h0.9l3.6,5.5v-5.5h0.9V93z"/>
	<path d="M184.2,93v-7.1h2c0.6,0,1.2,0.1,1.6,0.4s0.8,0.7,1.1,1.2c0.3,0.5,0.4,1.1,0.4,1.7v0.5c0,0.7-0.1,1.3-0.4,1.8
		c-0.3,0.5-0.6,0.9-1.1,1.2c-0.5,0.3-1,0.4-1.7,0.4H184.2z M185.2,86.7v5.6h1c0.7,0,1.3-0.2,1.7-0.7c0.4-0.4,0.6-1.1,0.6-1.9v-0.4
		c0-0.8-0.2-1.4-0.6-1.9c-0.4-0.4-0.9-0.7-1.6-0.7H185.2z"/>
	<path d="M195.8,93h-0.9v-7.1h0.9V93z"/>
	<path d="M207,93H206l-3.6-5.5V93h-0.9v-7.1h0.9l3.6,5.5v-5.5h0.9V93z"/>
	<path d="M217.9,92.1c-0.2,0.3-0.6,0.6-1,0.8c-0.4,0.2-0.9,0.3-1.5,0.3c-0.6,0-1.1-0.1-1.5-0.4c-0.4-0.3-0.8-0.7-1-1.2
		c-0.2-0.5-0.4-1.1-0.4-1.7v-0.6c0-1.1,0.3-1.9,0.7-2.5c0.5-0.6,1.2-0.9,2.1-0.9c0.7,0,1.3,0.2,1.8,0.6c0.5,0.4,0.7,0.9,0.8,1.6
		h-0.9c-0.2-0.9-0.7-1.4-1.7-1.4c-0.6,0-1.1,0.2-1.4,0.7c-0.3,0.4-0.5,1.1-0.5,1.9v0.6c0,0.8,0.2,1.4,0.5,1.9s0.9,0.7,1.5,0.7
		c0.4,0,0.7,0,0.9-0.1s0.5-0.2,0.7-0.4v-1.6h-1.6v-0.8h2.6V92.1z"/>
</g>
</svg>
