<?xml version="1.0" encoding="utf-8"?>
<!-- Generator: Adobe Illustrator 24.1.1, SVG Export Plug-In . SVG Version: 6.00 Build 0)  -->
<svg version="1.1" id="Layer_1" xmlns="http://www.w3.org/2000/svg" xmlns:xlink="http://www.w3.org/1999/xlink" x="0px" y="0px"
	 viewBox="0 0 266 266" style="enable-background:new 0 0 266 266;" xml:space="preserve">
<style type="text/css">
	.st0{fill:#FFFFFF;}
	.st1{fill:#757574;}
	.st2{fill:#929497;}
	.st3{fill:none;stroke:#FFDCDC;stroke-width:3;stroke-miterlimit:10;}
	.st4{enable-background:new    ;}
	.st5{fill:#7E7E7E;}
</style>
<g>
	<g transform="matrix(1, 0, 0, 1, 1109, 2277)">
		<circle class="st0" cx="-976" cy="-2147" r="88"/>
	</g>
	<g transform="translate(28.39 16.499)">
		<path class="st1" d="M68,77.1l1,1l-4,4.2L59,76.5l3.9-4.1l1,1l-2.8,2.9l1.5,1.4l2.4-2.5l1,0.9l-2.4,2.5l1.6,1.5L68,77.1z"/>
		<path class="st1" d="M69.7,70.7l3.1,4.4L71.5,76l-4.9-6.9l1-0.7l6.7,2l-3.2-4.5l1.3-0.9l4.9,6.9l-1.1,0.8L69.7,70.7z"/>
		<path class="st1" d="M78.4,66.3c-0.2-0.5-0.3-1-0.4-1.5c0-0.5,0-1.1,0.2-1.6c0.2-0.5,0.4-1,0.8-1.4c0.4-0.5,0.9-0.8,1.4-1
			c0.6-0.3,1.3-0.4,2-0.3c0.6,0.1,1.2,0.3,1.7,0.7l-0.8,1.3c-0.2-0.2-0.4-0.3-0.6-0.4c-0.2-0.1-0.4-0.1-0.6-0.1c-0.2,0-0.4,0-0.6,0
			c-0.2,0-0.4,0.1-0.5,0.2c-0.3,0.1-0.6,0.4-0.9,0.7c-0.2,0.3-0.3,0.6-0.4,0.9c-0.1,0.3-0.1,0.7,0,1c0,0.3,0.1,0.7,0.3,1
			c0.1,0.3,0.4,0.6,0.6,0.9c0.2,0.3,0.5,0.5,0.8,0.6c0.3,0.1,0.6,0.2,1,0.3c0.3,0,0.7,0,1-0.2c0.2-0.1,0.3-0.2,0.5-0.3
			c0.2-0.1,0.3-0.3,0.4-0.4c0.1-0.2,0.2-0.4,0.3-0.6c0.1-0.2,0.1-0.5,0.1-0.7l1.5,0.2c0,0.3,0,0.7-0.2,1c-0.1,0.3-0.3,0.6-0.5,0.9
			c-0.2,0.3-0.5,0.5-0.7,0.8c-0.3,0.2-0.6,0.4-0.9,0.5c-0.5,0.2-1.1,0.3-1.6,0.3c-0.5,0-1.1-0.2-1.6-0.4c-0.5-0.2-0.9-0.5-1.3-0.9
			C78.9,67.3,78.6,66.8,78.4,66.3z"/>
		<path class="st1" d="M94.7,56.5l1.9,8.2L95,65.1l-0.8-3.5l-3.7,0.8l0.8,3.5l-1.6,0.4L87.9,58l1.6-0.4l0.8,3.3l3.7-0.8l-0.8-3.3
			L94.7,56.5z"/>
		<path class="st1" d="M102.3,55.8l1.4,0l3.4,8.4l-1.7,0.1l-0.8-2.1l-2.9,0.1l-0.7,2.1l-1.7,0.1L102.3,55.8z M104.4,60.9l-1.2-3.3
			L102,61L104.4,60.9z"/>
		<path class="st1" d="M112.5,59.2l-0.9,5.3l-1.6-0.3l1.4-8.3l1.2,0.2l3.4,6.2l0.9-5.5l1.6,0.3l-1.4,8.3l-1.3-0.2L112.5,59.2z"/>
		<path class="st1" d="M128.9,62l-2.5-0.9l-2.4,6.6l-1.5-0.6l2.4-6.6l-2.5-0.9l0.5-1.4l6.5,2.4L128.9,62z"/>
		<path class="st1" d="M129.3,70.1l4-7.4l1.4,0.8l-4,7.4L129.3,70.1z"/>
		<path class="st1" d="M138.5,69.3l-3.3,4.3l-1.3-1l5.1-6.7l1,0.8l0.1,7l3.3-4.4l1.3,1l-5.1,6.7l-1-0.8L138.5,69.3z"/>
		<path class="st1" d="M146.8,83.3c-0.9,0-1.7-0.4-2.3-1.1c-0.4-0.4-0.6-0.9-0.8-1.4c-0.1-0.5-0.2-1-0.1-1.5
			c0.1-0.5,0.2-1.1,0.5-1.5c0.3-0.5,0.6-1,1.1-1.4c0.8-0.7,1.9-1.1,3-1.1c0.5,0,1.1,0.1,1.5,0.4c0.5,0.2,1,0.6,1.3,1
			c0.5,0.5,0.8,1.2,0.9,1.8c0.1,0.6,0.1,1.3-0.2,1.8l-1.5-0.3c0.2-0.4,0.2-0.9,0.1-1.3c-0.1-0.4-0.3-0.8-0.6-1.1
			c-0.2-0.3-0.5-0.5-0.8-0.6c-0.3-0.1-0.6-0.2-1-0.2c-0.3,0-0.7,0.1-1,0.2c-0.3,0.1-0.7,0.3-0.9,0.6c-0.3,0.2-0.5,0.5-0.7,0.9
			c-0.2,0.3-0.3,0.6-0.3,1c0,0.3,0,0.7,0.1,1c0.1,0.3,0.3,0.6,0.5,0.9c0.6,0.6,1.4,0.9,2.3,0.9l0.4-0.4l-1.1-1.3l0.9-0.8l2,2.3
			l-3.3,2.9l-0.9-1L146.8,83.3z"/>
	</g>
	<g transform="translate(25.767 105.501)">
		<path class="st2" d="M61.1,59.9l-0.6,0.4L59,57.9l3.4-2.2l1.5,2.3l-0.6,0.4l-1.1-1.6l-0.8,0.5l0.9,1.4L61.8,59l-0.9-1.4L60,58.2
			L61.1,59.9z"/>
		<path class="st2" d="M64.9,61.8l-2,1.7l-0.5-0.6l3.1-2.6l0.4,0.5L65.2,64l2.1-1.7l0.5,0.6l-3.1,2.6L64.2,65L64.9,61.8z"/>
		<path class="st2" d="M68.2,66.3c0.2-0.2,0.4-0.3,0.6-0.4c0.2-0.1,0.5-0.2,0.7-0.2c0.3,0,0.5,0,0.8,0.1c0.3,0.1,0.5,0.2,0.7,0.4
			c0.2,0.2,0.4,0.5,0.5,0.8c0.1,0.3,0.1,0.6,0,0.9l-0.7-0.1c0-0.1,0.1-0.2,0.1-0.3c0-0.1,0-0.2,0-0.3c0-0.1-0.1-0.2-0.1-0.3
			c-0.1-0.1-0.1-0.1-0.2-0.2c-0.1-0.1-0.3-0.2-0.5-0.3c-0.2,0-0.3-0.1-0.5,0c-0.2,0-0.3,0.1-0.5,0.2c-0.1,0.1-0.3,0.2-0.4,0.3
			c-0.1,0.1-0.2,0.3-0.3,0.4c-0.1,0.2-0.1,0.3-0.1,0.5c0,0.2,0,0.3,0.1,0.5c0.1,0.2,0.1,0.3,0.3,0.4c0.1,0.1,0.1,0.1,0.2,0.2
			c0.1,0.1,0.2,0.1,0.3,0.1c0.1,0,0.2,0,0.3,0c0.1,0,0.2,0,0.3-0.1l0.2,0.7c-0.2,0.1-0.3,0.1-0.5,0.1c-0.2,0-0.3,0-0.5-0.1
			c-0.2,0-0.3-0.1-0.5-0.2c-0.1-0.1-0.3-0.2-0.4-0.3c-0.2-0.2-0.3-0.4-0.4-0.7c-0.1-0.2-0.1-0.5-0.1-0.8c0-0.3,0.1-0.5,0.2-0.8
			C67.8,66.7,68,66.5,68.2,66.3z"/>
		<path class="st2" d="M76.8,71.1l-2.5,3.2l-0.6-0.5l1.1-1.4l-1.4-1.1l-1.1,1.4l-0.6-0.5l2.5-3.2l0.6,0.5l-1,1.3l1.4,1.1l1-1.3
			L76.8,71.1z"/>
		<path class="st2" d="M80.3,73.3l0.6,0.4L80.1,78l-0.7-0.4l0.2-1.1l-1.2-0.7l-0.8,0.7L76.9,76L80.3,73.3z M79.8,75.9l0.3-1.7
			l-1.3,1.1L79.8,75.9z"/>
		<path class="st2" d="M84.5,77.3l-1.1,2.4l-0.7-0.3l1.7-3.7l0.6,0.2l0.8,3.3l1.1-2.4l0.7,0.3l-1.7,3.7l-0.6-0.3L84.5,77.3z"/>
		<path class="st2" d="M93,79.6l-1.2-0.4l-1,3.2L90,82.2l1-3.2l-1.2-0.4l0.2-0.7l3.2,1L93,79.6z"/>
		<path class="st2" d="M94.9,83.5l0.9-4l0.8,0.2l-0.9,4L94.9,83.5z"/>
		<path class="st2" d="M100,81.8l-0.3,2.6l-0.8-0.1l0.5-4l0.6,0.1l1.7,2.9l0.3-2.7l0.8,0.1l-0.5,4l-0.6-0.1L100,81.8z"/>
		<path class="st2" d="M108.5,84.5c-0.3,0.3-0.7,0.5-1.1,0.5c-0.3,0-0.5-0.1-0.7-0.2c-0.2-0.1-0.4-0.3-0.6-0.5
			c-0.2-0.2-0.3-0.4-0.4-0.7c-0.1-0.3-0.1-0.5-0.1-0.8c0-0.3,0.1-0.5,0.2-0.8c0.1-0.2,0.2-0.5,0.4-0.6c0.2-0.2,0.4-0.3,0.6-0.4
			c0.2-0.1,0.5-0.2,0.8-0.2c0.3,0,0.7,0.1,1,0.3c0.3,0.2,0.5,0.4,0.6,0.7l-0.6,0.4c-0.1-0.2-0.2-0.4-0.4-0.5
			c-0.2-0.1-0.4-0.2-0.6-0.2c-0.2,0-0.3,0-0.5,0.1c-0.1,0.1-0.3,0.2-0.4,0.3c-0.1,0.1-0.2,0.3-0.2,0.4c-0.1,0.2-0.1,0.3-0.1,0.5
			c0,0.2,0,0.4,0.1,0.5c0.1,0.2,0.1,0.3,0.2,0.4c0.1,0.1,0.2,0.2,0.4,0.3c0.1,0.1,0.3,0.1,0.5,0.1c0.4,0,0.8-0.2,1.1-0.5v-0.3
			l-0.8,0l0-0.6l1.4,0l0,2.1l-0.6,0L108.5,84.5z"/>
		<path class="st2" d="M112.4,84.8l-0.4-4.1l2.7-0.3l0.1,0.7l-1.9,0.2l0.1,1l1.6-0.2l0.1,0.6L113,83l0.2,1.7L112.4,84.8z"/>
		<path class="st2" d="M119.7,83.7c-0.3,0.1-0.5,0.1-0.8,0c-0.3-0.1-0.5-0.2-0.7-0.3c-0.4-0.3-0.7-0.8-0.8-1.3
			c-0.1-0.3-0.1-0.5,0-0.8c0-0.3,0.1-0.5,0.3-0.7c0.1-0.2,0.3-0.4,0.5-0.6c0.2-0.2,0.5-0.3,0.7-0.3c0.3-0.1,0.5-0.1,0.8,0
			c0.3,0.1,0.5,0.2,0.7,0.3c0.2,0.2,0.4,0.3,0.5,0.6c0.4,0.7,0.5,1.5,0.1,2.2c-0.1,0.2-0.3,0.4-0.5,0.6
			C120.2,83.5,119.9,83.7,119.7,83.7z M118.1,81.9c0,0.2,0.1,0.3,0.2,0.5c0.1,0.1,0.2,0.3,0.3,0.4c0.1,0.1,0.3,0.2,0.4,0.2
			c0.3,0.1,0.7,0,1-0.2c0.1-0.1,0.2-0.2,0.3-0.4c0.1-0.2,0.1-0.3,0.1-0.5c0-0.2,0-0.3,0-0.5c0-0.2-0.1-0.3-0.2-0.5
			c-0.1-0.1-0.2-0.3-0.3-0.4c-0.1-0.1-0.3-0.2-0.4-0.2c-0.3-0.1-0.7,0-1,0.2c-0.1,0.1-0.2,0.2-0.3,0.4c-0.1,0.1-0.1,0.3-0.1,0.5
			C118.1,81.6,118.1,81.8,118.1,81.9z"/>
		<path class="st2" d="M124.6,82.4l-1.3-3.9L125,78c0.2-0.1,0.3-0.1,0.5-0.1c0.2,0,0.3,0.1,0.5,0.2c0.1,0.1,0.3,0.2,0.4,0.3
			c0.1,0.1,0.2,0.3,0.3,0.4c0.1,0.2,0.1,0.5,0,0.7c0,0.2-0.2,0.5-0.3,0.6l1.4,1.2l-0.8,0.3l-1.2-1l-0.7,0.2l0.4,1.3L124.6,82.4z
			 M124.7,80.2l0.9-0.3c0.1,0,0.1-0.1,0.2-0.1c0-0.1,0.1-0.1,0.1-0.2c0-0.1,0-0.2,0-0.2c0-0.1,0-0.2,0-0.3c0-0.1-0.1-0.2-0.1-0.2
			c-0.1-0.1-0.1-0.1-0.2-0.2c-0.1,0-0.1-0.1-0.2-0.1c-0.1,0-0.1,0-0.2,0l-0.9,0.3L124.7,80.2z"/>
		<path class="st2" d="M133.5,78.8l-1.2-2.4l-0.1,2.3l-0.4,0.2l-1.8-1.4l1.2,2.4l-0.7,0.3l-1.8-3.7l0.8-0.4l2.1,1.6l0.1-2.6l0.7-0.4
			l1.8,3.7L133.5,78.8z"/>
		<path class="st2" d="M137.5,72.9c-0.1,0-0.1,0-0.2,0c-0.1,0-0.2,0-0.3,0c-0.1,0-0.2,0-0.3,0.1c-0.1,0-0.2,0.1-0.3,0.2
			c-0.1,0.1-0.3,0.2-0.3,0.4c0,0.1,0,0.3,0,0.4c0,0.1,0.1,0.1,0.2,0.1c0.1,0,0.1,0,0.2,0c0.1,0,0.2,0,0.3-0.1c0.1,0,0.2-0.1,0.4-0.1
			c0.2-0.1,0.4-0.1,0.5-0.1c0.2,0,0.3,0,0.5,0c0.1,0,0.3,0.1,0.4,0.1c0.1,0.1,0.2,0.2,0.3,0.4c0.1,0.2,0.2,0.3,0.2,0.5
			c0,0.2,0,0.3-0.1,0.5c-0.1,0.2-0.2,0.3-0.3,0.4c-0.1,0.1-0.3,0.3-0.4,0.4c-0.3,0.2-0.5,0.3-0.8,0.4c-0.3,0.1-0.6,0.1-0.9,0.1
			l-0.1-0.8c0.1,0,0.2,0,0.2,0c0.1,0,0.2,0,0.4,0c0.1,0,0.3-0.1,0.4-0.1c0.1,0,0.3-0.1,0.4-0.2c0.4-0.2,0.5-0.5,0.3-0.7
			c0-0.1-0.1-0.1-0.2-0.1c-0.1,0-0.2,0-0.3,0c-0.1,0-0.2,0-0.3,0.1l-0.4,0.1c-0.2,0.1-0.3,0.1-0.5,0.1c-0.1,0-0.3,0-0.4,0
			c-0.1,0-0.2-0.1-0.3-0.1c-0.1-0.1-0.2-0.2-0.3-0.3c-0.1-0.2-0.2-0.3-0.2-0.5c0-0.2,0-0.3,0-0.5c0.1-0.2,0.1-0.3,0.3-0.5
			c0.1-0.1,0.3-0.3,0.4-0.4c0.2-0.1,0.5-0.2,0.7-0.3c0.2-0.1,0.5-0.1,0.7-0.1L137.5,72.9z"/>
		<path class="st2" d="M142,73.5l-0.5-0.7l0.5-0.4l0.5,0.7L142,73.5z"/>
		<path class="st2" d="M143.3,69.8c-0.2-0.2-0.3-0.4-0.4-0.6c-0.1-0.2-0.1-0.5-0.2-0.7c0-0.3,0-0.5,0.1-0.8c0.1-0.3,0.3-0.5,0.5-0.7
			c0.2-0.2,0.5-0.4,0.9-0.5c0.3-0.1,0.6,0,0.9,0.1l-0.2,0.7c-0.1,0-0.2-0.1-0.3-0.1c-0.1,0-0.2,0-0.3,0c-0.1,0-0.2,0.1-0.3,0.1
			c-0.1,0-0.2,0.1-0.2,0.2c-0.1,0.1-0.2,0.3-0.3,0.4c-0.1,0.2-0.1,0.3-0.1,0.5c0,0.2,0.1,0.3,0.1,0.5c0.1,0.3,0.4,0.6,0.7,0.7
			c0.1,0.1,0.3,0.1,0.5,0.2c0.2,0,0.3,0,0.5,0c0.2,0,0.3-0.1,0.4-0.2c0.1-0.1,0.1-0.1,0.2-0.2c0.1-0.1,0.1-0.2,0.1-0.3
			c0-0.1,0.1-0.2,0.1-0.3c0-0.1,0-0.2-0.1-0.3l0.7-0.2c0.1,0.2,0.1,0.3,0.1,0.5c0,0.2,0,0.3-0.1,0.5c-0.1,0.3-0.3,0.6-0.6,0.8
			c-0.2,0.2-0.4,0.3-0.7,0.4c-0.3,0.1-0.5,0.1-0.8,0.1c-0.3,0-0.5-0.1-0.7-0.2C143.7,70.1,143.5,70,143.3,69.8z"/>
		<path class="st2" d="M150.7,65.4c-0.2,0.2-0.4,0.4-0.7,0.5c-0.2,0.1-0.5,0.2-0.8,0.2c-0.5,0-1-0.2-1.4-0.5
			c-0.2-0.2-0.4-0.4-0.5-0.6c-0.1-0.2-0.2-0.5-0.2-0.7c0-0.3,0-0.5,0.1-0.8c0.1-0.3,0.2-0.5,0.4-0.7c0.2-0.2,0.4-0.4,0.7-0.5
			c0.2-0.1,0.5-0.1,0.8-0.1c0.3,0,0.5,0,0.8,0.1c0.2,0.1,0.5,0.2,0.7,0.4c0.2,0.2,0.4,0.4,0.5,0.6c0.1,0.2,0.2,0.5,0.2,0.7
			c0,0.3,0,0.5-0.1,0.8C151,65,150.8,65.2,150.7,65.4z M148.3,64.9c0.1,0.1,0.3,0.2,0.4,0.3c0.2,0.1,0.3,0.1,0.5,0.1
			c0.2,0,0.3,0,0.5-0.1c0.3-0.1,0.6-0.4,0.7-0.8c0-0.2,0-0.3,0-0.5c0-0.2-0.1-0.3-0.2-0.5c-0.1-0.1-0.2-0.3-0.3-0.4
			c-0.1-0.1-0.3-0.2-0.4-0.3c-0.2-0.1-0.3-0.1-0.5-0.1c-0.2,0-0.3,0-0.5,0.1c-0.2,0.1-0.3,0.2-0.4,0.3c-0.1,0.1-0.2,0.3-0.2,0.5
			c0,0.2,0,0.3,0,0.5c0,0.2,0.1,0.3,0.2,0.5C148.1,64.7,148.2,64.8,148.3,64.9L148.3,64.9z"/>
		<path class="st2" d="M155.7,58.7l-2.2-1.5l1.1,2l-0.2,0.4l-2.2-0.3l2.2,1.5l-0.4,0.6l-3.4-2.3l0.5-0.7l2.6,0.3l-1.3-2.3l0.5-0.7
			l3.4,2.3L155.7,58.7z"/>
	</g>
	<circle class="st3" cx="133.4" cy="130.1" r="74.4"/>
	<g class="st4">
		<path class="st5" d="M119.8,133.6c-1.3,0.3-2.3,0.2-3.1-0.2c-0.8-0.4-1.4-1.1-1.8-1.9c-0.4-0.8-0.5-1.8-0.5-2.9
			c0-1.1,0.2-2.1,0.6-3.1c0.4-1.4,1-2.7,1.6-4c0.6-1.3,1.4-2.5,2.4-3.5c0.4-0.5,0.8-1,1.3-1.5c0.5-0.5,0.9-0.9,1.4-1.3
			c0.5-0.5,1.1-0.8,1.7-0.8s1.2,0.2,1.8,0.8c0.1,0.2,0.3,0.3,0.5,0.4c0.2,0.1,0.3,0.2,0.4,0.4c0.4,0.5,0.6,1.1,0.6,1.7
			c0,0.6-0.2,1.3-0.5,1.9c-0.6,1.2-1.4,2.2-2.3,3.1s-1.9,1.7-2.9,2.5c-0.5,0.4-1,0.7-1.5,1c-0.5,0.3-1,0.7-1.5,1
			c-0.1,0.1-0.2,0.2-0.2,0.3c0,0.4-0.1,0.8-0.1,1.2c0,0.4,0,0.8,0.1,1.2c0.1,0.7,0.5,1,1.2,0.8c0.5-0.2,1.1-0.4,1.6-0.5
			c0.5-0.2,1-0.4,1.5-0.7c1-0.6,2-1.3,3-2c1-0.7,2-1.4,2.9-2.1c1.7-1.3,3.5-2.6,5.2-4c1.7-1.3,3.5-2.7,5.3-4
			c0.2-0.2,0.4-0.3,0.6-0.5s0.5-0.2,0.8-0.4c0.1,0,0.2,0,0.3,0c0.1,0,0.2,0,0.3,0c0,0.3,0,0.5-0.1,0.6c-0.1,0.1-0.2,0.4-0.4,0.6
			c-1.5,1.7-3.2,3.4-4.8,5.1c-0.9,0.9-1.8,1.9-2.8,2.8c-1,0.9-2,1.8-3,2.6c-0.9,0.7-1.9,1.3-2.8,2c-0.9,0.6-1.9,1.3-2.8,1.9
			c-0.6,0.4-1.2,0.7-1.8,0.9C121.1,133.2,120.5,133.4,119.8,133.6z M124.2,116.7c-1.1,1.2-2.1,2.3-3.1,3.6c-0.9,1.2-1.7,2.6-2.3,4.2
			c0.1-0.1,0.1-0.1,0.2-0.2c0.1-0.1,0.1-0.1,0.2-0.2c0.5-0.5,1-1,1.5-1.5c0.5-0.5,1-1.1,1.5-1.6c0.4-0.4,0.8-0.9,1.1-1.3
			c0.4-0.4,0.7-0.9,1.1-1.4C124.8,117.6,124.7,117.1,124.2,116.7z"/>
		<path class="st5" d="M158.9,118.6c-3.6,0.4-7.1,1.1-10.4,2.1c-3.3,1-6.7,2.2-9.9,3.7c0.2,0.1,0.3,0.2,0.5,0.3
			c0.1,0.1,0.3,0.2,0.4,0.4c0.8,0.6,1.4,1.4,1.8,2.2c0.4,0.9,0.6,1.8,0.6,2.8c0.1,1.6,0,3.2-0.3,4.7c-0.3,1.5-0.6,3-1.1,4.5
			c-0.7,2.4-1.6,4.7-2.6,6.9s-2.2,4.5-3.6,6.6c-0.3,0.5-0.6,1.1-1,1.5s-0.8,1-1.2,1.5c-0.3,0.4-0.7,0.7-1.2,1
			c-0.8,0.5-1.6,0.6-2.4,0.4c-0.8-0.3-1.3-0.8-1.5-1.6c-0.1-0.6-0.2-1.1-0.3-1.6c-0.1-0.5,0-1.1,0-1.7c0.1-2.3,0.5-4.6,1.1-6.8
			c0.6-2.2,1.3-4.4,2-6.7c1-3.2,2.2-6.3,3.4-9.4c1.2-3.1,2.7-6.1,4.3-9.2c1.2-2.2,2.4-4.3,3.7-6.4c1.3-2.1,2.6-4.2,4.2-6.2
			c0.1-0.2,0.3-0.3,0.4-0.5c0.1-0.1,0.3-0.3,0.4-0.4c0.3-0.4,0.6-0.4,1-0.2c0.4,0.2,0.5,0.5,0.4,1c-0.1,0.3-0.2,0.5-0.3,0.8
			c-0.1,0.3-0.2,0.5-0.4,0.7c-1.3,2.1-2.5,4.2-3.7,6.2c-1.2,2.1-2.3,4.1-3.4,6.2c0,0.1-0.1,0.3-0.1,0.3c0,0.1-0.1,0.2-0.1,0.3
			c1.5-0.8,3-1.5,4.6-2.1c1.6-0.6,3.2-1.1,4.8-1.4c1.7-0.4,3.1-0.6,4.2-0.7c1.2-0.1,2.1-0.1,2.9-0.1s1.4,0.2,1.8,0.3
			S158.7,118.4,158.9,118.6z M129.6,153.6c0,0,0.1,0.1,0.2,0.1c0.1-0.1,0.1-0.1,0.1-0.2c0.5-0.5,0.9-1,1.2-1.6
			c1.8-2.9,3.4-5.9,4.6-9c1.2-3.1,2.1-6.3,2.6-9.6c0.4-2.2,0.2-4.4-0.5-6.4c-0.1-0.2-0.2-0.4-0.3-0.6c-0.1,0.2-0.2,0.3-0.3,0.5
			c-1.6,3.7-3,7.4-4.2,11.2c-1.2,3.8-2.2,7.6-3,11.5c-0.1,0.7-0.2,1.4-0.2,2.1S129.7,152.9,129.6,153.6z"/>
	</g>
	<g transform="translate(62.354 116.453)">
		<path class="st2" d="M60.7,58.7l0,0.2L59,58.7l0.3-2.5l1.6,0.2l0,0.2l-1.4-0.2l-0.1,0.9l1.2,0.1l0,0.2l-1.2-0.1l-0.1,0.9
			L60.7,58.7z"/>
		<path class="st2" d="M63.7,57.2c-0.1-0.1-0.2-0.2-0.3-0.2c-0.1-0.1-0.3-0.1-0.4-0.1c-0.2,0-0.3,0-0.5,0.1
			c-0.1,0.1-0.2,0.2-0.2,0.3c0,0.1,0,0.1,0,0.2c0,0.1,0.1,0.1,0.1,0.1c0.1,0,0.1,0.1,0.2,0.1c0.1,0,0.2,0.1,0.3,0.1
			c0.1,0,0.2,0.1,0.3,0.1c0.1,0,0.2,0.1,0.3,0.2c0.1,0.1,0.1,0.1,0.2,0.2c0,0.1,0,0.2,0,0.3c0,0.1,0,0.2-0.1,0.3
			c0,0.1-0.1,0.2-0.2,0.2c-0.1,0.1-0.2,0.1-0.3,0.1c-0.1,0-0.2,0-0.4,0c-0.4,0-0.7-0.2-1-0.4l0.1-0.2c0,0.1,0.1,0.1,0.1,0.1
			c0.1,0,0.1,0.1,0.2,0.1c0.1,0,0.2,0.1,0.2,0.1c0.1,0,0.2,0,0.3,0c0.2,0,0.3,0,0.5-0.1c0.1-0.1,0.2-0.2,0.2-0.3c0-0.1,0-0.1,0-0.2
			c0-0.1-0.1-0.1-0.1-0.2c-0.1,0-0.1-0.1-0.2-0.1c-0.1,0-0.2-0.1-0.3-0.1s-0.2-0.1-0.3-0.1c-0.1,0-0.2-0.1-0.2-0.1
			c-0.1-0.1-0.1-0.1-0.1-0.2c0-0.1,0-0.2,0-0.3c0-0.1,0-0.2,0.1-0.3c0-0.1,0.1-0.2,0.2-0.2c0.1-0.1,0.2-0.1,0.3-0.1
			c0.4-0.1,0.8,0,1.1,0.3L63.7,57.2z"/>
		<path class="st2" d="M67.1,57.1l-0.9,0l-0.1,2.3l-0.2,0L66,57l-0.9,0l0-0.2l2,0.1L67.1,57.1z"/>
		<path class="st2" d="M68.5,59.4l0-2.5l0.8,0c0.2,0,0.4,0,0.5,0.1c0.1,0.1,0.3,0.2,0.4,0.3c0.1,0.1,0.2,0.3,0.2,0.4
			c0,0.2,0.1,0.3,0.1,0.5c0,0.2,0,0.3-0.1,0.5c-0.1,0.1-0.1,0.3-0.2,0.4c-0.1,0.1-0.2,0.2-0.4,0.2c-0.2,0.1-0.3,0.1-0.5,0.1
			L68.5,59.4z M70.3,58.2c0-0.1,0-0.3-0.1-0.4c0-0.1-0.1-0.2-0.2-0.3c-0.1-0.1-0.2-0.2-0.3-0.2c-0.1-0.1-0.3-0.1-0.4-0.1l-0.6,0
			l0,2.1l0.6,0c0.1,0,0.3,0,0.4-0.1c0.1,0,0.2-0.1,0.3-0.2c0.1-0.1,0.1-0.2,0.2-0.3C70.3,58.4,70.3,58.3,70.3,58.2L70.3,58.2z"/>
		<path class="st2" d="M73.9,59.3c0-0.1,0-0.2,0-0.2c0-0.1,0-0.2,0.1-0.2c0-0.1,0.1-0.2,0.2-0.2c0.1-0.1,0.2-0.2,0.3-0.2
			c0.1,0,0.1-0.1,0.2-0.1c0.1,0,0.1-0.1,0.2-0.1c0.1,0,0.1-0.1,0.1-0.2c0-0.1,0.1-0.1,0-0.2c0,0,0-0.1,0-0.1c0,0-0.1-0.1-0.1-0.1
			c0,0-0.1-0.1-0.1-0.1c-0.1,0-0.1,0-0.2,0c-0.1,0-0.1,0-0.2,0c-0.1,0-0.1,0.1-0.2,0.1c0,0-0.1,0.1-0.1,0.1c0,0,0,0.1-0.1,0.1
			l-0.2-0.2c0,0,0,0,0.1-0.1c0,0,0.1-0.1,0.1-0.1c0.1,0,0.1-0.1,0.2-0.1c0.1,0,0.2-0.1,0.3-0.1c0.1,0,0.2,0,0.3,0
			c0.1,0,0.2,0.1,0.2,0.1c0.1,0,0.1,0.1,0.1,0.2c0,0.1,0.1,0.1,0.1,0.2c0,0.1,0,0.2,0,0.3c0,0.1-0.1,0.1-0.1,0.2
			c-0.1,0.1-0.1,0.1-0.2,0.1c-0.1,0-0.1,0.1-0.2,0.1c-0.1,0-0.1,0.1-0.2,0.1c-0.1,0-0.1,0.1-0.2,0.1c0,0.1-0.1,0.1-0.1,0.2
			c0,0.1,0,0.1,0,0.2l1.2-0.1l0,0.2L73.9,59.3z"/>
		<path class="st2" d="M78.4,57.9c0,0.1,0,0.3,0,0.4c0,0.1-0.1,0.2-0.1,0.4c-0.1,0.1-0.2,0.2-0.3,0.2C77.9,59,77.8,59,77.7,59
			c-0.1,0-0.2,0-0.4,0c-0.1,0-0.2-0.1-0.3-0.2c-0.1-0.1-0.2-0.2-0.2-0.3c-0.1-0.1-0.1-0.3-0.1-0.4c0-0.1,0-0.3,0-0.4
			c0-0.1,0.1-0.2,0.1-0.4c0.1-0.1,0.1-0.2,0.3-0.3c0.2-0.1,0.5-0.2,0.7-0.1c0.1,0,0.2,0.1,0.3,0.2c0.1,0.1,0.2,0.2,0.2,0.3
			C78.4,57.6,78.4,57.7,78.4,57.9z M78.2,57.9c0-0.1,0-0.2-0.1-0.3c0-0.1-0.1-0.2-0.2-0.3c-0.1-0.1-0.1-0.1-0.2-0.2
			c-0.2-0.1-0.4,0-0.5,0.1c-0.1,0-0.1,0.1-0.2,0.2c0,0.1-0.1,0.2-0.1,0.3c0,0.2,0,0.5,0.1,0.7c0,0.1,0.1,0.2,0.2,0.3
			c0.1,0.1,0.1,0.1,0.2,0.1c0.1,0,0.2,0,0.3,0c0.1,0,0.2,0,0.2-0.1c0.1,0,0.1-0.1,0.2-0.2c0-0.1,0.1-0.2,0.1-0.3
			C78.2,58.1,78.2,58,78.2,57.9L78.2,57.9z"/>
		<path class="st2" d="M81.2,58.3l0,0.2L80,58.7l0-0.2l0.5-0.1l-0.2-1.5c0,0,0,0.1-0.1,0.1c-0.1,0.1-0.2,0.1-0.3,0.2
			c0,0-0.1,0-0.1,0.1l0-0.2c0.1,0,0.1,0,0.2-0.1c0.1,0,0.1-0.1,0.2-0.1c0,0,0.1-0.1,0.1-0.1c0,0,0,0,0.1-0.1l0.2,0l0.3,1.8
			L81.2,58.3z"/>
		<path class="st2" d="M84.1,57.4c0,0.1,0,0.2,0,0.3c0,0.1-0.1,0.2-0.1,0.3c-0.1,0.1-0.2,0.1-0.2,0.2c-0.1,0.1-0.2,0.1-0.3,0.1
			c-0.1,0-0.2,0-0.3,0c-0.1,0-0.2-0.1-0.3-0.1c-0.1-0.1-0.2-0.1-0.2-0.2c-0.1-0.1-0.1-0.2-0.1-0.3c0-0.1,0-0.2,0-0.2
			c0-0.1,0-0.1,0.1-0.2c0-0.1,0.1-0.1,0.1-0.2c0,0,0.1-0.1,0.2-0.1c-0.1,0-0.1,0-0.2-0.1c-0.1,0-0.1-0.1-0.1-0.1
			c0,0-0.1-0.1-0.1-0.1c0-0.1-0.1-0.1-0.1-0.2c0-0.1,0-0.2,0-0.3c0-0.1,0.1-0.2,0.1-0.2c0.1-0.1,0.1-0.1,0.2-0.2
			c0.1,0,0.2-0.1,0.3-0.1c0.1,0,0.2,0,0.3,0c0.1,0,0.2,0,0.3,0.1c0.1,0,0.2,0.1,0.2,0.2c0.1,0.1,0.1,0.2,0.1,0.3c0,0.1,0,0.1,0,0.2
			c0,0.1,0,0.1-0.1,0.2c0,0.1-0.1,0.1-0.1,0.1c0,0-0.1,0.1-0.1,0.1c0.1,0,0.3,0.1,0.4,0.2c0.1,0,0.1,0.1,0.1,0.2
			C84,57.2,84,57.3,84.1,57.4z M82.5,56.5c0,0.1,0,0.1,0.1,0.2c0,0,0.1,0.1,0.1,0.1c0.1,0,0.1,0,0.2,0.1c0.1,0,0.1,0,0.2,0
			c0.1,0,0.1,0,0.2-0.1c0.1,0,0.1-0.1,0.2-0.1c0,0,0.1-0.1,0.1-0.2c0-0.1,0-0.1,0-0.2c0-0.1,0-0.1-0.1-0.2c0,0-0.1-0.1-0.1-0.1
			c-0.1,0-0.1,0-0.2-0.1c-0.1,0-0.1,0-0.2,0c-0.1,0-0.1,0-0.2,0.1c-0.1,0-0.1,0.1-0.2,0.1c0,0-0.1,0.1-0.1,0.2
			C82.5,56.3,82.5,56.4,82.5,56.5L82.5,56.5z M83.8,57.4c0-0.1,0-0.2-0.1-0.2c0-0.1-0.1-0.1-0.2-0.1c-0.1,0-0.1-0.1-0.2-0.1
			c-0.1,0-0.1,0-0.2,0C83,57,83,57,82.9,57c-0.1,0-0.1,0.1-0.2,0.1c0,0.1-0.1,0.1-0.1,0.2c0,0.1,0,0.2,0,0.2c0,0.1,0,0.1,0.1,0.2
			c0,0.1,0.1,0.1,0.2,0.1c0.1,0,0.1,0.1,0.2,0.1c0.1,0,0.1,0,0.2,0c0.1,0,0.1,0,0.2-0.1c0.1,0,0.1-0.1,0.2-0.1
			c0-0.1,0.1-0.1,0.1-0.2C83.8,57.5,83.8,57.5,83.8,57.4L83.8,57.4z"/>
	</g>
</g>
</svg>
