<svg xmlns="http://www.w3.org/2000/svg" width="17.651" height="17.651" viewBox="0 0 17.651 17.651">
  <path id="Path_4953" data-name="Path 4953" d="M-84.815-91.64l-1.148.782-1.366-.282-.763,1.167-1.366.257-.257,1.366-1.167.763.282,1.366-.783,1.148.783,1.148-.282,1.366,1.167.763.257,1.366,1.366.257L-87.329-79l1.366-.282,1.148.782,1.148-.782L-82.3-79l.763-1.167,1.366-.257.257-1.366,1.167-.763-.282-1.366.782-1.148-.782-1.148.282-1.366-1.167-.763-.257-1.366-1.366-.257L-82.3-91.14l-1.366.282Zm0,3.079,1.078,2.161,2.412.346-1.745,1.687.41,2.373-2.155-1.122-2.155,1.122.41-2.373L-88.3-86.054l2.412-.346Zm-5.375,6.946-3.451,5.368,3.079-.616.821,2.873,2.809-4.682-.314.064a.422.422,0,0,1-.43-.173l-.667-1.02-1.193-.231a.421.421,0,0,1-.327-.327l-.231-1.193Zm10.75,0-.1.064-.231,1.193a.421.421,0,0,1-.327.327l-1.193.231-.667,1.02a.422.422,0,0,1-.43.173l-.314-.064,2.809,4.682.821-2.873,3.079.616Z" transform="translate(93.64 91.64)" fill="#1a1a1a"/>
</svg>
