<svg xmlns="http://www.w3.org/2000/svg" width="27.592" height="30.254" viewBox="0 0 27.592 30.254">
  <g id="Group_4407" data-name="Group 4407" transform="translate(-869.596 -1226.072)">
    <g id="Group_3714" data-name="Group 3714" transform="translate(870.106 1226.755)">
      <path id="Path_4823" data-name="Path 4823" d="M621.7,1251.842l-5.975,3.621a4.054,4.054,0,0,1-3.082.129,2.114,2.114,0,0,1-1.391-1.964v-18.174" transform="translate(-611.248 -1228.507)" fill="none" stroke="#0f151c" stroke-linecap="round" stroke-linejoin="round" stroke-width="1"/>
      <path id="Path_4824" data-name="Path 4824" d="M622.486,1224.327l-10.865,6.289s-.486.379-.348.809c.082.257.388.533,1.158.755a5.736,5.736,0,0,0,4.437-.378c.636-.432,10.515-6.271,10.515-6.271v3.682" transform="translate(-611.248 -1224.327)" fill="none" stroke="#0f151c" stroke-linecap="round" stroke-linejoin="round" stroke-width="1"/>
      <path id="Path_4825" data-name="Path 4825" d="M628.7,1224.9s-.579,1.762,4.623,1.206" transform="translate(-617.797 -1224.543)" fill="none" stroke="#0f151c" stroke-linecap="round" stroke-linejoin="round" stroke-width="1"/>
    </g>
    <g id="Group_3715" data-name="Group 3715" transform="translate(880.554 1228.427)">
      <path id="Path_4826" data-name="Path 4826" d="M639.219,1227.006l-10.864,6.289s-.485.38-.348.808c.082.258.388.534,1.157.756a5.735,5.735,0,0,0,4.437-.378c.636-.432,10.515-6.271,10.515-6.271v18.782l-11.661,6.969a4.053,4.053,0,0,1-3.081.129,2.113,2.113,0,0,1-1.392-1.964v-18.173" transform="translate(-627.982 -1227.006)" fill="none" stroke="#0f151c" stroke-linecap="round" stroke-linejoin="round" stroke-width="1"/>
      <path id="Path_4827" data-name="Path 4827" d="M645.434,1227.579s-.579,1.763,4.623,1.206" transform="translate(-634.531 -1227.221)" fill="none" stroke="#0f151c" stroke-linecap="round" stroke-linejoin="round" stroke-width="1"/>
    </g>
    <line id="Line_1793" data-name="Line 1793" y2="14.177" transform="translate(885.633 1238.482)" fill="none" stroke="#0f151c" stroke-linecap="round" stroke-linejoin="round" stroke-width="1"/>
    <line id="Line_1794" data-name="Line 1794" y2="13.838" transform="translate(875.33 1237.447)" fill="none" stroke="#0f151c" stroke-linecap="round" stroke-linejoin="round" stroke-width="1"/>
  </g>
</svg>
