<svg xmlns="http://www.w3.org/2000/svg" width="30.039" height="30.031" viewBox="0 0 30.039 30.031">
  <g id="Group_4406" data-name="Group 4406" transform="translate(-793.255 -1226.014)">
    <path id="Path_4820" data-name="Path 4820" d="M514.075,832.143h15.811a7.645,7.645,0,0,0-6.924-7.431V822.47a7.129,7.129,0,0,0,6.4-6.925c0-.224,2.032-12.433,2.032-12.433H512.57s2.031,12.209,2.031,12.433a7.129,7.129,0,0,0,6.4,6.925v2.242A7.643,7.643,0,0,0,514.075,832.143Z" transform="translate(286.294 423.402)" fill="none" stroke="#0f151c" stroke-miterlimit="10" stroke-width="1"/>
    <g id="Group_3712" data-name="Group 3712" transform="translate(793.759 1228.224)">
      <path id="Path_4821" data-name="Path 4821" d="M511.564,816.875a2.261,2.261,0,0,1-.4.214c-1.857.769-4.5-1.083-5.915-4.138s-1.047-6.156.809-6.926c1.16-.482,2.63.061,3.914,1.282" transform="translate(-504.393 -805.85)" fill="none" stroke="#0f151c" stroke-miterlimit="10" stroke-width="1"/>
      <path id="Path_4822" data-name="Path 4822" d="M539.406,816.875a2.237,2.237,0,0,0,.4.214c1.857.769,4.5-1.083,5.915-4.138s1.047-6.156-.809-6.926c-1.161-.482-2.63.061-3.914,1.282" transform="translate(-517.547 -805.85)" fill="none" stroke="#0f151c" stroke-miterlimit="10" stroke-width="1"/>
    </g>
  </g>
</svg>
