<svg xmlns="http://www.w3.org/2000/svg" width="30.005" height="30.031" viewBox="0 0 30.005 30.031">
  <g id="Group_4404" data-name="Group 4404" transform="translate(-638.187 -1224.908)">
    <path id="Path_4792" data-name="Path 4792" d="M748.971,85.265V80.1l-11.543,4.718v15.5l11.543-4.194V93.817" transform="translate(-84.239 1154.121)" fill="none" stroke="#0f151c" stroke-linecap="round" stroke-linejoin="round" stroke-width="1"/>
    <path id="Path_4793" data-name="Path 4793" d="M739.446,71.16a5.067,5.067,0,1,1-5.065-5.174A5.12,5.12,0,0,1,739.446,71.16Z" transform="translate(-81.191 1159.422)" fill="none" stroke="#0f151c" stroke-linecap="round" stroke-linejoin="round" stroke-width="1"/>
    <path id="Path_4794" data-name="Path 4794" d="M718.94,85.265V80.1l11.542,4.718v15.5L718.94,96.124V93.817" transform="translate(-77.293 1154.121)" fill="none" stroke="#0f151c" stroke-linecap="round" stroke-linejoin="round" stroke-width="1"/>
    <g id="Group_3702" data-name="Group 3702" transform="translate(638.674 1238.869)">
      <path id="Path_4795" data-name="Path 4795" d="M754.754,87.547c.555.1,1.207.889,1.517,1.364a6.519,6.519,0,0,1,.942,2.116,6.381,6.381,0,0,1-.9,4.483,2.162,2.162,0,0,1-3.288.611,3.836,3.836,0,0,1-1.184-1.744c-.115-.431-.076-1.588.594-1.483a1.01,1.01,0,0,1-.349-.952c.079-.539.381-.5.863-.524-.183-.506-.333-1.031.112-1.47a1.094,1.094,0,0,1,1.26-.079,1.958,1.958,0,0,1,.4-2.248" transform="translate(-728.307 -87.547)" fill="none" stroke="#0f151c" stroke-linecap="round" stroke-linejoin="round" stroke-width="1"/>
      <path id="Path_4796" data-name="Path 4796" d="M716.762,87.547c-.556.1-1.208.889-1.515,1.364a6.538,6.538,0,0,0-.944,2.116,6.388,6.388,0,0,0,.9,4.483,2.162,2.162,0,0,0,3.289.611,3.862,3.862,0,0,0,1.185-1.744c.114-.431.074-1.588-.595-1.483a1.015,1.015,0,0,0,.351-.952c-.08-.539-.383-.5-.865-.524.184-.506.333-1.031-.112-1.47a1.093,1.093,0,0,0-1.26-.079,1.954,1.954,0,0,0-.4-2.248" transform="translate(-714.179 -87.547)" fill="none" stroke="#0f151c" stroke-linecap="round" stroke-linejoin="round" stroke-width="1"/>
    </g>
    <path id="Path_4797" data-name="Path 4797" d="M718.94,102.363" transform="translate(-77.293 1145.756)" fill="none" stroke="#0f151c" stroke-linecap="round" stroke-linejoin="round" stroke-width="1"/>
    <path id="Path_4798" data-name="Path 4798" d="M718.94,88.762" transform="translate(-77.293 1150.866)" fill="none" stroke="#0f151c" stroke-linecap="round" stroke-linejoin="round" stroke-width="1"/>
  </g>
</svg>
