<svg xmlns="http://www.w3.org/2000/svg" width="27.812" height="30.443" viewBox="0 0 27.812 30.443">
  <g id="Group_4409" data-name="Group 4409" transform="translate(-407.582 -1305.775)">
    <path id="Path_4805" data-name="Path 4805" d="M518.6,390.839a8.79,8.79,0,0,0-12.431,0l12.431,12.43A8.789,8.789,0,0,0,518.6,390.839Z" transform="translate(-98.087 922.196)" fill="none" stroke="#0f151c" stroke-linejoin="round" stroke-width="1"/>
    <path id="Path_4806" data-name="Path 4806" d="M521.8,386.658l3.911-3.911a2.923,2.923,0,0,1,4.12,0l.341.342a2.921,2.921,0,0,1,0,4.12l-3.91,3.911" transform="translate(-103.959 924.588)" fill="none" stroke="#0f151c" stroke-linejoin="round" stroke-width="1"/>
    <path id="Path_4807" data-name="Path 4807" d="M515.6,403.321a3.83,3.83,0,1,1-4.916-4.917" transform="translate(-98.84 918.387)" fill="none" stroke="#0f151c" stroke-linejoin="round" stroke-width="1"/>
    <path id="Path_4808" data-name="Path 4808" d="M530.621,393.462l10.538,11.467-13.223,10.344" transform="translate(-106.265 920.244)" fill="none" stroke="#0f151c" stroke-linecap="round" stroke-linejoin="round" stroke-width="1"/>
    <line id="Line_1790" data-name="Line 1790" x2="24.241" transform="translate(408.082 1335.517)" fill="none" stroke="#0f151c" stroke-linecap="round" stroke-linejoin="round" stroke-width="1"/>
  </g>
</svg>
