<svg xmlns="http://www.w3.org/2000/svg" width="17.893" height="11.593" viewBox="0 0 17.893 11.593">
  <g id="Group_4524" data-name="Group 4524" transform="translate(-743.12 -3389.189)">
    <g id="Group_4015" data-name="Group 4015" transform="translate(743.12 3389.189)">
      <path id="Path_4944" data-name="Path 4944" d="M7.071,89.514a1.944,1.944,0,0,0,1.7-2.127,3,3,0,0,0-3.15-3.156H0V95.763H5.276s3.879-.094,3.879-3.49C9.155,92.273,9.309,89.514,7.071,89.514ZM5.619,86.537s.723-.037.723,1.121-.4,1.186-.923,1.186H2.307V86.537Zm-.149,6.92H2.307V90.574H5.619s1.172.021,1.172,1.564C6.792,93.425,5.957,93.457,5.471,93.457Z" transform="translate(0 -84.231)" fill="#fff"/>
    </g>
    <g id="Group_4016" data-name="Group 4016" transform="translate(752.71 3392.25)">
      <path id="Path_4945" data-name="Path 4945" d="M260.719,166.086c-4.279,0-4.276,4.261-4.276,4.261a3.957,3.957,0,0,0,4.276,4.27s3.808-.061,3.808-2.944h-1.957s0,1.132-1.853,1.171a1.54,1.54,0,0,1-1.757-1.748h5.767S265.224,166.086,260.719,166.086Zm1.736,3.282H258.8a1.96,1.96,0,0,1,1.963-1.654A1.612,1.612,0,0,1,262.456,169.368Z" transform="translate(-256.439 -166.086)" fill="#fff"/>
    </g>
  </g>
</svg>
