<svg id="dribbble" xmlns="http://www.w3.org/2000/svg" width="16.202" height="16.202" viewBox="0 0 16.202 16.202">
  <path id="Path_4946" data-name="Path 4946" d="M8.1,0a8.1,8.1,0,1,0,8.1,8.1A8.1,8.1,0,0,0,8.1,0Zm5.316,3.921a6.734,6.734,0,0,1,1.446,3.99A14.373,14.373,0,0,0,10.123,7.8q-.257-.591-.53-1.147A9.776,9.776,0,0,0,13.416,3.922Zm-.932-.968a8.551,8.551,0,0,1-3.506,2.5A34.7,34.7,0,0,0,6.506,1.527a6.74,6.74,0,0,1,5.978,1.427Zm-7.292-.96a33.191,33.191,0,0,1,2.5,3.886,23.929,23.929,0,0,1-6.178.669A6.792,6.792,0,0,1,5.192,1.993ZM1.335,8.1l.006-.219h.036a24.9,24.9,0,0,0,6.951-.79q.24.488.471,1A10.55,10.55,0,0,0,3.008,12.55,6.734,6.734,0,0,1,1.335,8.1Zm2.66,5.373A9.3,9.3,0,0,1,9.319,9.337a23.115,23.115,0,0,1,1.36,5.019,6.743,6.743,0,0,1-6.684-.882Zm7.929.208a24.661,24.661,0,0,0-1.277-4.608,13.412,13.412,0,0,1,4.122.176A6.781,6.781,0,0,1,11.923,13.682Z" transform="translate(0 -0.001)" fill="#fff"/>
</svg>
