<svg id="Vector_Smart_Object" data-name="Vector Smart Object" xmlns="http://www.w3.org/2000/svg" width="15.964" height="15.964" viewBox="0 0 15.964 15.964">
  <g id="Vector_Smart_Object-2" data-name="Vector Smart Object">
    <g id="Group_8" data-name="Group 8">
      <path id="Path_91" data-name="Path 91" d="M301.557,56.3H295.1a4.761,4.761,0,0,0-4.756,4.756v6.453a4.761,4.761,0,0,0,4.756,4.756h6.452a4.761,4.761,0,0,0,4.756-4.756V61.059A4.761,4.761,0,0,0,301.557,56.3Zm3.15,11.208a3.15,3.15,0,0,1-3.15,3.15H295.1a3.15,3.15,0,0,1-3.15-3.15V61.059a3.15,3.15,0,0,1,3.15-3.15h6.452a3.15,3.15,0,0,1,3.15,3.15v6.453Z" transform="translate(-290.349 -56.303)"/>
      <path id="Path_92" data-name="Path 92" d="M299.063,60.889a4.129,4.129,0,1,0,4.129,4.129A4.133,4.133,0,0,0,299.063,60.889Zm0,6.652a2.523,2.523,0,1,1,2.523-2.523A2.523,2.523,0,0,1,299.063,67.541Z" transform="translate(-291.082 -57.036)"/>
      <ellipse id="Ellipse_1" data-name="Ellipse 1" cx="0.989" cy="0.989" rx="0.989" ry="0.989" transform="translate(11.129 2.895)"/>
    </g>
  </g>
  <path id="Color_Overlay" data-name="Color Overlay" d="M4.756,15.964A4.761,4.761,0,0,1,0,11.208V4.756A4.761,4.761,0,0,1,4.756,0h6.453a4.761,4.761,0,0,1,4.756,4.756v6.453a4.761,4.761,0,0,1-4.756,4.756ZM1.606,4.756v6.453a3.149,3.149,0,0,0,3.149,3.15h6.453a3.15,3.15,0,0,0,3.149-3.15V4.756a3.15,3.15,0,0,0-3.149-3.15H4.756A3.149,3.149,0,0,0,1.606,4.756ZM3.853,7.982a4.129,4.129,0,1,1,4.129,4.129A4.134,4.134,0,0,1,3.853,7.982Zm1.606,0A2.523,2.523,0,1,0,7.982,5.459,2.523,2.523,0,0,0,5.459,7.982Zm5.671-4.1a.989.989,0,1,1,.989.99A.989.989,0,0,1,11.13,3.884Z" transform="translate(0 0)"/>
</svg>
