<svg xmlns="http://www.w3.org/2000/svg" width="13.232" height="16.835" viewBox="0 0 13.232 16.835">
  <g id="XMLID_798_" transform="translate(0)">
    <path id="XMLID_799_" d="M44.7,1.725A6.456,6.456,0,0,0,40.181,0a7.1,7.1,0,0,0-5.235,2.019,5.965,5.965,0,0,0-1.765,4.134c0,1.874.784,3.312,2.1,3.847a.694.694,0,0,0,.264.054.587.587,0,0,0,.572-.472c.044-.167.147-.578.192-.757a.71.71,0,0,0-.19-.768,2.447,2.447,0,0,1-.556-1.672,4.208,4.208,0,0,1,4.363-4.236c2.249,0,3.645,1.278,3.645,3.335a6.93,6.93,0,0,1-.788,3.385,2.329,2.329,0,0,1-1.926,1.348,1.277,1.277,0,0,1-1.016-.464,1.168,1.168,0,0,1-.2-1.015c.1-.424.237-.867.369-1.295a8.012,8.012,0,0,0,.469-2.108,1.531,1.531,0,0,0-1.541-1.684c-1.171,0-2.089,1.189-2.089,2.708a4.027,4.027,0,0,0,.288,1.516c-.148.625-1.024,4.341-1.191,5.042-.1.409-.675,3.64.283,3.9,1.077.289,2.04-2.857,2.138-3.213.079-.289.357-1.383.528-2.055a3.257,3.257,0,0,0,2.172.84,4.845,4.845,0,0,0,3.89-1.946,7.813,7.813,0,0,0,1.462-4.777A5.509,5.509,0,0,0,44.7,1.725Z" transform="translate(-33.181)"/>
  </g>
</svg>
