<svg id="XMLID_822_" xmlns="http://www.w3.org/2000/svg" width="20.168" height="14.193" viewBox="0 0 20.168 14.193">
  <path id="XMLID_823_" d="M19.382,47.135c-.728-.865-2.072-1.218-4.639-1.218H5.425c-2.626,0-3.992.376-4.718,1.3C0,48.112,0,49.436,0,51.268v3.492c0,3.549.839,5.351,5.425,5.351h9.318c2.226,0,3.459-.311,4.257-1.075.818-.783,1.168-2.062,1.168-4.276V51.268C20.168,49.336,20.113,48,19.382,47.135ZM12.948,53.5,8.717,55.707a.651.651,0,0,1-.952-.577V50.722a.651.651,0,0,1,.95-.577l4.231,2.2a.651.651,0,0,1,0,1.154Z" transform="translate(0 -45.917)" fill="#fff"/>
</svg>
