<svg id="Group_114" data-name="Group 114" xmlns="http://www.w3.org/2000/svg" width="24.687" height="24.687" viewBox="0 0 24.687 24.687">
  <path id="Path_1058" data-name="Path 1058" d="M51.64,777.4H46.364a.864.864,0,1,0,0-1.729H44.209a.864.864,0,0,0,0,1.729H38.933a3.193,3.193,0,0,0-2.916,2.715H54.559A3.189,3.189,0,0,0,51.64,777.4Zm0,0" transform="translate(-32.878 -768.508)" fill="#f99fa9"/>
  <path id="Path_1059" data-name="Path 1059" d="M55.759,779.5v-.245H34.034v1.233h3.095v7.651a2.962,2.962,0,0,0,2.96,2.962H52.8a2.965,2.965,0,0,0,2.963-2.962v-7.405h2.962V779.5Zm0,0" transform="translate(-34.034 -766.416)" fill="#f99fa9"/>
  <path id="Path_1060" data-name="Path 1060" d="M39.181,774.11a3.387,3.387,0,0,0,.275.326l.239.239c.149.157.29.306.4.443a1.687,1.687,0,0,1,.136.187.362.362,0,0,1,.07.157.341.341,0,0,1-.093.244,1.273,1.273,0,0,1-.269.256.88.88,0,0,0,.424.051.756.756,0,0,0,.454-.228.887.887,0,0,0,.223-.545,1.443,1.443,0,0,0-.059-.513,2.717,2.717,0,0,0-.38-.784c-.079-.112-.171-.226-.239-.313s-.131-.163-.185-.241a2.323,2.323,0,0,1-.456-.954,2.391,2.391,0,0,1,.217-1.29,1.587,1.587,0,0,0-1.176,1.2,1.928,1.928,0,0,0,.019.955,2.509,2.509,0,0,0,.4.812Zm0,0" transform="translate(-31.306 -771.145)" fill="#f99fa9"/>
  <path id="Path_1061" data-name="Path 1061" d="M41.205,774.11a3.9,3.9,0,0,0,.274.326l.236.239c.154.157.293.306.407.443.055.067.1.133.138.187a.288.288,0,0,1-.024.4,1.345,1.345,0,0,1-.274.256.893.893,0,0,0,.426.051.756.756,0,0,0,.454-.228.871.871,0,0,0,.225-.545,1.48,1.48,0,0,0-.059-.513,2.642,2.642,0,0,0-.383-.784c-.074-.112-.171-.226-.237-.313s-.128-.163-.184-.241a2.243,2.243,0,0,1-.454-.954,2.341,2.341,0,0,1,.212-1.29,1.606,1.606,0,0,0-1.178,1.2,1.922,1.922,0,0,0,.024.958,2.46,2.46,0,0,0,.4.809Zm0,0" transform="translate(-30.127 -771.145)" fill="#f99fa9"/>
  <path id="Path_1062" data-name="Path 1062" d="M43.045,774.11a3.616,3.616,0,0,0,.274.326l.239.239c.15.157.291.306.4.443a1.535,1.535,0,0,1,.138.187.408.408,0,0,1,.071.157.366.366,0,0,1-.095.244,1.323,1.323,0,0,1-.271.256.88.88,0,0,0,.424.051.756.756,0,0,0,.454-.228.887.887,0,0,0,.223-.545,1.443,1.443,0,0,0-.059-.513,2.563,2.563,0,0,0-.38-.784c-.078-.112-.171-.226-.239-.313s-.13-.163-.185-.241a2.3,2.3,0,0,1-.454-.954,2.388,2.388,0,0,1,.215-1.29,1.583,1.583,0,0,0-1.176,1.2,1.91,1.91,0,0,0,.021.955,2.538,2.538,0,0,0,.4.812Zm0,0" transform="translate(-29.053 -771.145)" fill="#f99fa9"/>
</svg>
