<svg id="Group_3544" data-name="Group 3544" xmlns="http://www.w3.org/2000/svg" width="25.944" height="21.634" viewBox="0 0 25.944 21.634">
  <path id="Path_1034" data-name="Path 1034" d="M416.639,747.56l-6.787,0a1.54,1.54,0,0,0,0,2.993h6.785a1.538,1.538,0,0,0,0-2.991Z" transform="translate(-403.386 -728.918)" fill="#666a6e"/>
  <path id="Path_1035" data-name="Path 1035" d="M412.946,755.655a1.712,1.712,0,0,0,1.214-.5l5.367-5.363-.213-.5-5.51,5.51a1.213,1.213,0,0,1-1.72,0l-5.078-5.078h0l-.182-.182a1.1,1.1,0,0,1-.156-.189,1.219,1.219,0,0,1,.156-1.533l8.942-8.944a1.221,1.221,0,0,1,1.722,0l.094.094h0l.088.09,5.078,5.076a1.117,1.117,0,0,1,.156.191,1.21,1.21,0,0,1,.2.674,1.243,1.243,0,0,1-.314.816l.139.33.072.172.1-.1a1.719,1.719,0,0,0,.221-2.165,1.511,1.511,0,0,0-.221-.269l-5.26-5.262a1.723,1.723,0,0,0-2.433,0l-8.944,8.944a1.73,1.73,0,0,0-.221,2.163,1.618,1.618,0,0,0,.221.271l5.262,5.26A1.708,1.708,0,0,0,412.946,755.655Z" transform="translate(-405.966 -738.011)" fill="#666a6e"/>
  <path id="Path_1036" data-name="Path 1036" d="M414.312,746.239l.843-.841-2.593-2.591a.591.591,0,0,0-.81-.031v0l-3.5,3.5h0a.6.6,0,0,0,.031.812l2.593,2.593.843-.845-2.07-2.071.166-.164,2.07,2.072,2.259-2.261-2.07-2.07.164-.166Z" transform="translate(-403.923 -733.612)" fill="#666a6e"/>
  <path id="Path_1037" data-name="Path 1037" d="M414.953,741.426c.068-.023.135-.047.213-.066l.057-.014.008,0,.014,0c.037-.008.076-.014.113-.02a.522.522,0,0,0-.806-.656l-3.378,3.378a.523.523,0,1,0,.738.74l1.4-1.4a2.125,2.125,0,0,1,.6-1.365c.016-.018.035-.033.051-.049l0,0a.153.153,0,0,1,.039-.031,1.393,1.393,0,0,1,.168-.133l.008,0,0,0a.337.337,0,0,1,.062-.041,1.649,1.649,0,0,1,.2-.105l.022-.014.021-.008.428-.183v0A.271.271,0,0,1,414.953,741.426Z" transform="translate(-401.151 -735.63)" fill="#666a6e"/>
  <path id="Path_1038" data-name="Path 1038" d="M410.3,744.821a1.561,1.561,0,1,0-2.208,0A1.56,1.56,0,0,0,410.3,744.821Z" transform="translate(-404.374 -734.063)" fill="#666a6e"/>
  <path id="Path_1039" data-name="Path 1039" d="M412.536,744.176l.7-.7-.051-.119-.105-.254-.154-.355a2.588,2.588,0,0,1-.115-.324l-1.009,1.009a.522.522,0,1,0,.738.738Z" transform="translate(-400.558 -733.804)" fill="#666a6e"/>
  <path id="Path_1040" data-name="Path 1040" d="M412.237,739.966l-2.31,2.31a.52.52,0,0,0,0,.738.514.514,0,0,0,.736,0l2.314-2.31a.527.527,0,0,0,0-.738A.519.519,0,0,0,412.237,739.966Z" transform="translate(-402.34 -736.297)" fill="#666a6e"/>
  <path id="Path_1041" data-name="Path 1041" d="M410.549,744.16a.519.519,0,0,0,.738,0l3.38-3.38a.523.523,0,0,0-.74-.738l-3.378,3.378A.525.525,0,0,0,410.549,744.16Z" transform="translate(-401.746 -736.224)" fill="#666a6e"/>
  <path id="Path_1042" data-name="Path 1042" d="M419.66,746.8l-1.474-3.5-.152-.355-.107-.252-.152-.361a1.58,1.58,0,0,0-1.466-1.037l-.027,0a1.049,1.049,0,0,0-.135.018l-.049.011a.9.9,0,0,0-.148.049l-.006,0-.428.184-.006,0a.856.856,0,0,0-.139.072.463.463,0,0,1-.041.025c-.035.027-.072.057-.105.086l-.021.018a1.583,1.583,0,0,0-.266,1.775l.156.361.107.254.631,1.5.525,1.24-3.382,3.382-.016.014-2.722,2.72h4.393l.021,0a1.3,1.3,0,0,0,.961-.391l3.876-4.131.006-.012A1.628,1.628,0,0,0,419.66,746.8Z" transform="translate(-401.898 -734.885)" fill="#666a6e"/>
  <path id="Path_1043" data-name="Path 1043" d="M422.761,745.91h-6.785l.925,2.187c.021.053.041.109.061.162h.234a.415.415,0,1,1,0,.83h-.1a2.08,2.08,0,0,1-.412,1.244h.51a.414.414,0,1,1,0,.828h-1.271l-2.2,2.353h9.04a1.762,1.762,0,0,0,1.763-1.765v-4.077A1.761,1.761,0,0,0,422.761,745.91Zm-1.966,5.461a1.66,1.66,0,1,1,1.656-1.662A1.66,1.66,0,0,1,420.795,751.371Zm-.959-10.625a1.051,1.051,0,0,1,1.105.978v.037l.582,3.78h1.216l-.592-3.852a2.195,2.195,0,0,0-2.312-2.005h-5.764l1.066,1.062Zm-.656,15.6a1.7,1.7,0,0,0,3.407,0v-1.982H419.18Z" transform="translate(-398.58 -736.419)" fill="#666a6e"/>
</svg>
