<svg xmlns="http://www.w3.org/2000/svg" width="365.961" height="24.96" viewBox="0 0 365.961 24.96">
  <g id="Group_3520" data-name="Group 3520" transform="translate(-3814.459 -730.721)">
    <path id="Path_844" data-name="Path 844" d="M181,30.53,166.542,43.975h.161L181.177,30.53Z" transform="translate(3888.25 711.706)" fill="#fff"/>
    <path id="Path_845" data-name="Path 845" d="M187.708,23.684h-.181L175.14,35.2h.172Z" transform="translate(3894.115 707.036)" fill="#fff"/>
    <path id="Path_846" data-name="Path 846" d="M180.087,23.684H179.9L167.517,35.2h.174Z" transform="translate(3888.915 707.036)" fill="#fff"/>
    <path id="Path_847" data-name="Path 847" d="M173.382,30.53,158.918,43.975h.164L173.556,30.53Z" transform="translate(3883.05 711.706)" fill="#fff"/>
    <path id="Path_848" data-name="Path 848" d="M127.971,30.53,113.507,43.975h.163L128.144,30.53Z" transform="translate(3852.077 711.706)" fill="#fff"/>
    <path id="Path_849" data-name="Path 849" d="M134.676,23.684h-.182L122.106,35.2h.173Z" transform="translate(3857.942 707.036)" fill="#fff"/>
    <path id="Path_850" data-name="Path 850" d="M122.955,43.975h.181L137.6,30.53h-.182Z" transform="translate(3858.521 711.706)" fill="#fff"/>
    <path id="Path_851" data-name="Path 851" d="M143.941,23.684,131.553,35.2h.182l12.387-11.515Z" transform="translate(3864.385 707.036)" fill="#fff"/>
    <path id="Path_852" data-name="Path 852" d="M128.8,23.684,116.417,35.2h.172l12.4-11.515Z" transform="translate(3854.061 707.036)" fill="#fff"/>
    <path id="Path_853" data-name="Path 853" d="M107.817,43.975h.163L122.454,30.53h-.172Z" transform="translate(3848.196 711.706)" fill="#fff"/>
    <path id="Path_854" data-name="Path 854" d="M151.563,23.684,139.176,35.2h.171l12.4-11.515Z" transform="translate(3869.585 707.036)" fill="#fff"/>
    <path id="Path_855" data-name="Path 855" d="M130.577,43.975h.162L145.212,30.53h-.171Z" transform="translate(3863.719 711.706)" fill="#fff"/>
    <path id="Path_856" data-name="Path 856" d="M119.537,23.684h-.18L106.969,35.2h.172Z" transform="translate(3847.617 707.036)" fill="#fff"/>
    <path id="Path_857" data-name="Path 857" d="M112.834,30.53,98.371,43.975h.162L113.006,30.53Z" transform="translate(3841.752 711.706)" fill="#fff"/>
    <path id="Path_858" data-name="Path 858" d="M44.663,30.53,30.19,43.975h.178L44.842,30.53Z" transform="translate(3795.248 711.706)" fill="#fff"/>
    <path id="Path_859" data-name="Path 859" d="M51.37,23.684h-.18L38.794,35.2h.179Z" transform="translate(3801.117 707.036)" fill="#fff"/>
    <path id="Path_860" data-name="Path 860" d="M60.637,23.684,48.241,35.2h.181l12.4-11.515Z" transform="translate(3807.56 707.036)" fill="#fff"/>
    <path id="Path_861" data-name="Path 861" d="M39.637,43.975h.181L54.291,30.53H54.11Z" transform="translate(3801.691 711.706)" fill="#fff"/>
    <path id="Path_862" data-name="Path 862" d="M98.529,23.684,86.142,35.2h.172l12.4-11.515Z" transform="translate(3833.412 707.036)" fill="#fff"/>
    <path id="Path_863" data-name="Path 863" d="M77.543,43.975h.163L92.18,30.53h-.172Z" transform="translate(3827.546 711.706)" fill="#fff"/>
    <path id="Path_864" data-name="Path 864" d="M83.4,23.684,71,35.2h.173l12.4-11.515Z" transform="translate(3823.084 707.036)" fill="#fff"/>
    <path id="Path_865" data-name="Path 865" d="M62.4,43.975h.163L77.043,30.53h-.173Z" transform="translate(3817.215 711.706)" fill="#fff"/>
    <path id="Path_866" data-name="Path 866" d="M82.56,30.53,68.1,43.975h.164L82.733,30.53Z" transform="translate(3821.103 711.706)" fill="#fff"/>
    <path id="Path_867" data-name="Path 867" d="M89.264,23.684h-.182L76.695,35.2h.173Z" transform="translate(3826.968 707.036)" fill="#fff"/>
    <path id="Path_868" data-name="Path 868" d="M244.494,23.684l-26.852,24.96h.162l26.87-24.96Z" transform="translate(3923.104 707.036)" fill="#fff"/>
    <path id="Path_869" data-name="Path 869" d="M202.845,23.684h-.181L190.277,35.2h.173Z" transform="translate(3904.439 707.036)" fill="#fff"/>
    <path id="Path_870" data-name="Path 870" d="M196.142,30.53,181.678,43.975h.163L196.314,30.53Z" transform="translate(3898.574 711.706)" fill="#fff"/>
    <path id="Path_871" data-name="Path 871" d="M183.6,43.975h.018L198.082,30.53h-.008Z" transform="translate(3899.885 711.706)" fill="#fff"/>
    <path id="Path_872" data-name="Path 872" d="M192.205,35.2h.008L204.6,23.684Z" transform="translate(3905.754 707.036)" fill="#fff"/>
    <path id="Path_873" data-name="Path 873" d="M214.227,23.684h-.182L201.656,35.2h.174Z" transform="translate(3912.201 707.036)" fill="#fff"/>
    <path id="Path_874" data-name="Path 874" d="M207.521,30.53,193.057,43.975h.164L207.7,30.53Z" transform="translate(3906.335 711.706)" fill="#fff"/>
    <path id="Path_875" data-name="Path 875" d="M235.047,23.684l-26.852,24.96h.163l26.87-24.96Z" transform="translate(3916.661 707.036)" fill="#fff"/>
    <path id="Path_876" data-name="Path 876" d="M215.869,23.684,203.482,35.2h.172l12.4-11.515Z" transform="translate(3913.446 707.036)" fill="#fff"/>
    <path id="Path_877" data-name="Path 877" d="M194.883,43.975h.162L209.519,30.53h-.172Z" transform="translate(3907.581 711.706)" fill="#fff"/>
    <path id="Path_878" data-name="Path 878" d="M229.357,23.684,202.5,48.645h.164l26.869-24.96Z" transform="translate(3912.779 707.036)" fill="#fff"/>
    <path id="Path_879" data-name="Path 879" d="M175.988,43.975h.162L190.625,30.53h-.172Z" transform="translate(3894.693 711.706)" fill="#fff"/>
    <path id="Path_880" data-name="Path 880" d="M196.975,23.684,184.587,35.2h.172l12.4-11.515Z" transform="translate(3900.558 707.036)" fill="#fff"/>
    <path id="Path_881" data-name="Path 881" d="M160.851,43.975h.163L175.488,30.53h-.172Z" transform="translate(3884.368 711.706)" fill="#fff"/>
    <path id="Path_882" data-name="Path 882" d="M181.838,23.684,169.45,35.2h.172l12.4-11.515Z" transform="translate(3890.234 707.036)" fill="#fff"/>
    <path id="Path_883" data-name="Path 883" d="M207.629,30.53,193.155,43.975h2.907L210.526,30.53Z" transform="translate(3906.402 711.706)" fill="#d1d0cd"/>
    <path id="Path_884" data-name="Path 884" d="M204.657,35.2l12.387-11.515h-2.888L201.76,35.2Z" transform="translate(3912.271 707.036)" fill="#d1d0cd"/>
    <path id="Path_885" data-name="Path 885" d="M185.532,43.975h3.088L203.084,30.53h-3.078Z" transform="translate(3901.203 711.706)" fill="#d1d0cd"/>
    <path id="Path_886" data-name="Path 886" d="M206.533,23.684,194.137,35.2h3.078L209.6,23.684Z" transform="translate(3907.072 707.036)" fill="#d1d0cd"/>
    <path id="Path_887" data-name="Path 887" d="M189.29,43.975h3.088L206.841,30.53h-3.078Z" transform="translate(3903.766 711.706)" fill="#d1d0cd"/>
    <path id="Path_888" data-name="Path 888" d="M210.291,23.684,197.895,35.2h3.078l12.387-11.515Z" transform="translate(3909.635 707.036)" fill="#d1d0cd"/>
    <path id="Path_889" data-name="Path 889" d="M196.248,30.53,181.775,43.975h3.07L199.319,30.53Z" transform="translate(3898.64 711.706)" fill="#d1d0cd"/>
    <path id="Path_890" data-name="Path 890" d="M193.45,35.2l12.4-11.515h-3.072L190.379,35.2Z" transform="translate(3904.509 707.036)" fill="#d1d0cd"/>
    <path id="Path_891" data-name="Path 891" d="M242.674,23.684l-26.867,24.96h3.087l26.852-24.96Z" transform="translate(3921.853 707.036)" fill="#d1d0cd"/>
    <path id="Path_892" data-name="Path 892" d="M235.162,23.684l-26.87,24.96h3.07l26.869-24.96Z" transform="translate(3916.727 707.036)" fill="#d1d0cd"/>
    <path id="Path_893" data-name="Path 893" d="M238.918,23.684l-26.869,24.96h3.068l26.87-24.96Z" transform="translate(3919.29 707.036)" fill="#d1d0cd"/>
    <path id="Path_894" data-name="Path 894" d="M231.3,23.684l-26.87,24.96h3.252l26.867-24.96Z" transform="translate(3914.09 707.036)" fill="#d1d0cd"/>
    <path id="Path_895" data-name="Path 895" d="M223.781,23.684,211.386,35.2h0L196.913,48.645h3.068l26.87-24.96Z" transform="translate(3908.965 707.036)" fill="#d1d0cd"/>
    <path id="Path_896" data-name="Path 896" d="M227.538,23.684l-26.869,24.96h3.087l26.852-24.96Z" transform="translate(3911.528 707.036)" fill="#d1d0cd"/>
    <path id="Path_897" data-name="Path 897" d="M246.433,23.684l-26.869,24.96h3.251l26.871-24.96Z" transform="translate(3924.415 707.036)" fill="#d1d0cd"/>
    <path id="Path_898" data-name="Path 898" d="M250.183,23.684l-26.851,24.96h3.233l26.869-24.96Z" transform="translate(3926.986 707.036)" fill="#d1d0cd"/>
    <path id="Path_899" data-name="Path 899" d="M29.346,35.2h.009L41.742,23.684Z" transform="translate(3794.673 707.036)" fill="#fff"/>
    <path id="Path_900" data-name="Path 900" d="M23.663,39.41v.015l9.568-8.895h-.009Z" transform="translate(3790.796 711.706)" fill="#fff"/>
    <path id="Path_901" data-name="Path 901" d="M81.465,23.684,69.068,35.2h.009Z" transform="translate(3821.766 707.036)" fill="#fff"/>
    <path id="Path_902" data-name="Path 902" d="M74.937,30.53,60.464,43.975h.018L74.946,30.53Z" transform="translate(3815.897 711.706)" fill="#fff"/>
    <path id="Path_903" data-name="Path 903" d="M54.774,43.975h.018L69.256,30.53h-.008Z" transform="translate(3812.016 711.706)" fill="#fff"/>
    <path id="Path_904" data-name="Path 904" d="M63.378,35.2h.008L75.775,23.684Z" transform="translate(3817.885 707.036)" fill="#fff"/>
    <path id="Path_905" data-name="Path 905" d="M153.5,23.684,141.1,35.2h.008Z" transform="translate(3870.899 707.036)" fill="#fff"/>
    <path id="Path_906" data-name="Path 906" d="M146.973,30.53,132.5,43.975h.018L146.981,30.53Z" transform="translate(3865.03 711.706)" fill="#fff"/>
    <path id="Path_907" data-name="Path 907" d="M52.284,30.53,37.8,43.975h.018L52.292,30.53Z" transform="translate(3800.439 711.706)" fill="#fff"/>
    <path id="Path_908" data-name="Path 908" d="M58.815,23.684,46.411,35.2h.008Z" transform="translate(3806.312 707.036)" fill="#fff"/>
    <path id="Path_909" data-name="Path 909" d="M59.621,35.2h.007L72.016,23.684Z" transform="translate(3815.322 707.036)" fill="#fff"/>
    <path id="Path_910" data-name="Path 910" d="M51.017,43.975h.017L65.5,30.53H65.49Z" transform="translate(3809.453 711.706)" fill="#fff"/>
    <path id="Path_911" data-name="Path 911" d="M59.8,30.53,45.326,43.975h.018L59.808,30.53Z" transform="translate(3805.572 711.706)" fill="#fff"/>
    <path id="Path_912" data-name="Path 912" d="M66.326,23.684,53.931,35.2h.008Z" transform="translate(3811.441 707.036)" fill="#fff"/>
    <path id="Path_913" data-name="Path 913" d="M35.879,43.975H35.9L50.361,30.53h-.008Z" transform="translate(3799.129 711.706)" fill="#fff"/>
    <path id="Path_914" data-name="Path 914" d="M44.484,35.2h.008L56.879,23.684Z" transform="translate(3804.998 707.036)" fill="#fff"/>
    <path id="Path_915" data-name="Path 915" d="M100.466,23.684,88.07,35.2h.008Z" transform="translate(3834.726 707.036)" fill="#fff"/>
    <path id="Path_916" data-name="Path 916" d="M93.939,30.53,79.465,43.975h.018L93.947,30.53Z" transform="translate(3828.857 711.706)" fill="#fff"/>
    <path id="Path_917" data-name="Path 917" d="M70.018,43.975h.017L84.5,30.53h-.008Z" transform="translate(3822.414 711.706)" fill="#fff"/>
    <path id="Path_918" data-name="Path 918" d="M78.623,35.2h.008L91.019,23.684Z" transform="translate(3828.282 707.036)" fill="#fff"/>
    <path id="Path_919" data-name="Path 919" d="M23.663,35.191V35.2L36.049,23.684Z" transform="translate(3790.796 707.036)" fill="#fff"/>
    <path id="Path_920" data-name="Path 920" d="M23.663,23.684V26.3l2.815-2.615Z" transform="translate(3790.796 707.036)" fill="#d1d0cd"/>
    <path id="Path_921" data-name="Path 921" d="M99.777,23.684H96.709L84.313,35.2H87.39Z" transform="translate(3832.164 707.036)" fill="#d1d0cd"/>
    <path id="Path_922" data-name="Path 922" d="M90.181,30.53,75.708,43.975h3.086L93.259,30.53Z" transform="translate(3826.295 711.706)" fill="#d1d0cd"/>
    <path id="Path_923" data-name="Path 923" d="M79.867,35.2l12.4-11.515h-3.07L76.8,35.2Z" transform="translate(3827.038 707.036)" fill="#d1d0cd"/>
    <path id="Path_924" data-name="Path 924" d="M82.667,30.53,68.193,43.975h3.069L85.736,30.53Z" transform="translate(3821.169 711.706)" fill="#d1d0cd"/>
    <path id="Path_925" data-name="Path 925" d="M92.951,23.684,80.555,35.2h3.077L96.02,23.684Z" transform="translate(3829.601 707.036)" fill="#d1d0cd"/>
    <path id="Path_926" data-name="Path 926" d="M71.951,43.975h3.087L89.5,30.53H86.424Z" transform="translate(3823.732 711.706)" fill="#d1d0cd"/>
    <path id="Path_927" data-name="Path 927" d="M85.328,23.684,72.933,35.2h3.25l12.4-11.515Z" transform="translate(3824.402 707.036)" fill="#d1d0cd"/>
    <path id="Path_928" data-name="Path 928" d="M64.329,43.975h3.25L82.052,30.53H78.8Z" transform="translate(3818.533 711.706)" fill="#d1d0cd"/>
    <path id="Path_929" data-name="Path 929" d="M77.706,23.684,65.31,35.2h3.252l12.4-11.515Z" transform="translate(3819.203 707.036)" fill="#d1d0cd"/>
    <path id="Path_930" data-name="Path 930" d="M56.706,43.975h3.252L74.431,30.53H71.179Z" transform="translate(3813.333 711.706)" fill="#d1d0cd"/>
    <path id="Path_931" data-name="Path 931" d="M74.939,30.53,60.475,43.975h3.232L78.18,30.53Z" transform="translate(3815.904 711.706)" fill="#d1d0cd"/>
    <path id="Path_932" data-name="Path 932" d="M72.315,35.2l12.4-11.515h-3.25L69.074,35.2Z" transform="translate(3821.77 707.036)" fill="#d1d0cd"/>
    <path id="Path_933" data-name="Path 933" d="M98.467,43.975h3.07L116.01,30.53h-3.07Z" transform="translate(3841.818 711.706)" fill="#d1d0cd"/>
    <path id="Path_934" data-name="Path 934" d="M119.468,23.684,107.071,35.2h3.07l12.4-11.515Z" transform="translate(3847.687 707.036)" fill="#d1d0cd"/>
    <path id="Path_935" data-name="Path 935" d="M115.6,23.684,103.206,35.2h3.252l12.4-11.515Z" transform="translate(3845.051 707.036)" fill="#d1d0cd"/>
    <path id="Path_936" data-name="Path 936" d="M94.6,43.975h3.252L112.327,30.53h-3.252Z" transform="translate(3839.182 711.706)" fill="#d1d0cd"/>
    <path id="Path_937" data-name="Path 937" d="M90.845,43.975H94.1L108.569,30.53h-3.251Z" transform="translate(3836.619 711.706)" fill="#d1d0cd"/>
    <path id="Path_938" data-name="Path 938" d="M111.845,23.684,99.449,35.2H102.7l12.4-11.515Z" transform="translate(3842.488 707.036)" fill="#d1d0cd"/>
    <path id="Path_939" data-name="Path 939" d="M108.088,23.684,95.692,35.2H98.77l12.387-11.515Z" transform="translate(3839.926 707.036)" fill="#d1d0cd"/>
    <path id="Path_940" data-name="Path 940" d="M87.088,43.975h3.086L104.639,30.53h-3.078Z" transform="translate(3834.057 711.706)" fill="#d1d0cd"/>
    <path id="Path_941" data-name="Path 941" d="M79.476,43.975h3.233L97.182,30.53H93.94Z" transform="translate(3828.865 711.706)" fill="#d1d0cd"/>
    <path id="Path_942" data-name="Path 942" d="M100.463,23.684,88.075,35.2h3.243l12.4-11.515Z" transform="translate(3834.73 707.036)" fill="#d1d0cd"/>
    <path id="Path_943" data-name="Path 943" d="M83.331,43.975H86.4L100.873,30.53H97.8Z" transform="translate(3831.494 711.706)" fill="#d1d0cd"/>
    <path id="Path_944" data-name="Path 944" d="M104.331,23.684,91.935,35.2H95l12.4-11.515Z" transform="translate(3837.363 707.036)" fill="#d1d0cd"/>
    <path id="Path_945" data-name="Path 945" d="M67.423,30.53,52.949,43.975h3.069L70.492,30.53Z" transform="translate(3810.771 711.706)" fill="#d1d0cd"/>
    <path id="Path_946" data-name="Path 946" d="M77.019,23.684h-3.07L61.554,35.2h3.069Z" transform="translate(3816.64 707.036)" fill="#d1d0cd"/>
    <path id="Path_947" data-name="Path 947" d="M62.569,23.684,50.173,35.2h3.251l12.4-11.515Z" transform="translate(3808.878 707.036)" fill="#d1d0cd"/>
    <path id="Path_948" data-name="Path 948" d="M41.569,43.975H44.82L59.293,30.53H56.042Z" transform="translate(3803.009 711.706)" fill="#d1d0cd"/>
    <path id="Path_949" data-name="Path 949" d="M45.337,43.975H48.57L63.043,30.53H59.8Z" transform="translate(3805.579 711.706)" fill="#d1d0cd"/>
    <path id="Path_950" data-name="Path 950" d="M66.323,23.684,53.936,35.2h3.243l12.4-11.515Z" transform="translate(3811.444 707.036)" fill="#d1d0cd"/>
    <path id="Path_951" data-name="Path 951" d="M73.262,23.684h-3.07L57.8,35.2h3.071Z" transform="translate(3814.077 707.036)" fill="#d1d0cd"/>
    <path id="Path_952" data-name="Path 952" d="M63.664,30.53,49.191,43.975h3.071L66.735,30.53Z" transform="translate(3808.208 711.706)" fill="#d1d0cd"/>
    <path id="Path_953" data-name="Path 953" d="M51.3,23.684,38.9,35.2h3.07l12.4-11.515Z" transform="translate(3801.189 707.036)" fill="#d1d0cd"/>
    <path id="Path_954" data-name="Path 954" d="M30.3,43.975h3.07L47.84,30.53H44.77Z" transform="translate(3795.321 711.706)" fill="#d1d0cd"/>
    <path id="Path_955" data-name="Path 955" d="M43.675,23.684,31.279,35.2h3.078L46.744,23.684Z" transform="translate(3795.991 707.036)" fill="#d1d0cd"/>
    <path id="Path_956" data-name="Path 956" d="M23.663,42.43v1.546h1.426L39.552,30.53H36.473Z" transform="translate(3790.796 711.706)" fill="#d1d0cd"/>
    <path id="Path_957" data-name="Path 957" d="M26.433,43.975h3.248L44.155,30.53H40.906Z" transform="translate(3792.686 711.706)" fill="#d1d0cd"/>
    <path id="Path_958" data-name="Path 958" d="M47.432,23.684,35.037,35.2h3.249l12.4-11.515Z" transform="translate(3798.554 707.036)" fill="#d1d0cd"/>
    <path id="Path_959" data-name="Path 959" d="M30.153,30.53l-6.49,6.029V39.41l9.559-8.88Z" transform="translate(3790.796 711.706)" fill="#d1d0cd"/>
    <path id="Path_960" data-name="Path 960" d="M42.987,23.684H39.918L27.521,35.2h3.069Z" transform="translate(3793.428 707.036)" fill="#d1d0cd"/>
    <path id="Path_961" data-name="Path 961" d="M29.728,23.684l-6.065,5.634v3.019l9.314-8.654Z" transform="translate(3790.796 707.036)" fill="#d1d0cd"/>
    <path id="Path_962" data-name="Path 962" d="M23.663,33.54,26.9,30.53H23.663Z" transform="translate(3790.796 711.706)" fill="#d1d0cd"/>
    <path id="Path_963" data-name="Path 963" d="M36.049,23.684,23.663,35.2H26.9L39.3,23.684Z" transform="translate(3790.796 707.036)" fill="#d1d0cd"/>
    <path id="Path_964" data-name="Path 964" d="M48.527,30.53,34.055,43.975h3.069L51.6,30.53Z" transform="translate(3797.884 711.706)" fill="#d1d0cd"/>
    <path id="Path_965" data-name="Path 965" d="M58.124,23.684h-3.07L42.659,35.2h3.07Z" transform="translate(3803.752 707.036)" fill="#d1d0cd"/>
    <path id="Path_966" data-name="Path 966" d="M52.285,30.53,37.812,43.975h3.07L55.355,30.53Z" transform="translate(3800.447 711.706)" fill="#d1d0cd"/>
    <path id="Path_967" data-name="Path 967" d="M49.486,35.2l12.4-11.515H58.811L46.416,35.2Z" transform="translate(3806.315 707.036)" fill="#d1d0cd"/>
    <path id="Path_968" data-name="Path 968" d="M187.638,23.684,175.242,35.2h3.07l12.395-11.515Z" transform="translate(3894.185 707.036)" fill="#d1d0cd"/>
    <path id="Path_969" data-name="Path 969" d="M166.637,43.975h3.072L184.181,30.53h-3.07Z" transform="translate(3888.315 711.706)" fill="#d1d0cd"/>
    <path id="Path_970" data-name="Path 970" d="M162.773,43.975h3.251L180.5,30.53h-3.251Z" transform="translate(3885.679 711.706)" fill="#d1d0cd"/>
    <path id="Path_971" data-name="Path 971" d="M183.773,23.684,171.377,35.2h3.251l12.4-11.515Z" transform="translate(3891.548 707.036)" fill="#d1d0cd"/>
    <path id="Path_972" data-name="Path 972" d="M155.161,43.975h3.252L172.877,30.53h-3.252Z" transform="translate(3880.487 711.706)" fill="#d1d0cd"/>
    <path id="Path_973" data-name="Path 973" d="M176.148,23.684,163.76,35.2h3.252L179.4,23.684Z" transform="translate(3886.353 707.036)" fill="#d1d0cd"/>
    <path id="Path_974" data-name="Path 974" d="M151.4,43.975h3.231L169.109,30.53h-3.241Z" transform="translate(3877.926 711.706)" fill="#d1d0cd"/>
    <path id="Path_975" data-name="Path 975" d="M172.391,23.684,160,35.2h3.241l12.4-11.515Z" transform="translate(3883.79 707.036)" fill="#d1d0cd"/>
    <path id="Path_976" data-name="Path 976" d="M170.7,35.2l12.388-11.515h-3.07L167.621,35.2Z" transform="translate(3888.986 707.036)" fill="#d1d0cd"/>
    <path id="Path_977" data-name="Path 977" d="M173.49,30.53,159.016,43.975H162.1L176.567,30.53Z" transform="translate(3883.117 711.706)" fill="#d1d0cd"/>
    <path id="Path_978" data-name="Path 978" d="M177.911,43.975h3.249L195.634,30.53h-3.25Z" transform="translate(3896.005 711.706)" fill="#d1d0cd"/>
    <path id="Path_979" data-name="Path 979" d="M198.911,23.684,186.515,35.2h3.25l12.4-11.515Z" transform="translate(3901.873 707.036)" fill="#d1d0cd"/>
    <path id="Path_980" data-name="Path 980" d="M198.222,23.684h-3.068L182.758,35.2h3.077Z" transform="translate(3899.311 707.036)" fill="#d1d0cd"/>
    <path id="Path_981" data-name="Path 981" d="M188.627,30.53,174.153,43.975h3.087L191.7,30.53Z" transform="translate(3893.441 711.706)" fill="#d1d0cd"/>
    <path id="Path_982" data-name="Path 982" d="M191.4,23.684,179,35.2h3.069l12.4-11.515Z" transform="translate(3896.748 707.036)" fill="#d1d0cd"/>
    <path id="Path_983" data-name="Path 983" d="M170.4,43.975h3.07L187.939,30.53h-3.069Z" transform="translate(3890.878 711.706)" fill="#d1d0cd"/>
    <path id="Path_984" data-name="Path 984" d="M143.878,43.975h3.251L161.6,30.53h-3.251Z" transform="translate(3872.792 711.706)" fill="#d1d0cd"/>
    <path id="Path_985" data-name="Path 985" d="M164.878,23.684,152.483,35.2h3.251l12.4-11.515Z" transform="translate(3878.661 707.036)" fill="#d1d0cd"/>
    <path id="Path_986" data-name="Path 986" d="M147.636,43.975h3.251L165.36,30.53h-3.25Z" transform="translate(3875.355 711.706)" fill="#d1d0cd"/>
    <path id="Path_987" data-name="Path 987" d="M168.636,23.684,156.241,35.2h3.25l12.395-11.515Z" transform="translate(3881.224 707.036)" fill="#d1d0cd"/>
    <path id="Path_988" data-name="Path 988" d="M132.509,43.975h3.232L150.215,30.53h-3.241Z" transform="translate(3865.038 711.706)" fill="#d1d0cd"/>
    <path id="Path_989" data-name="Path 989" d="M153.5,23.684,141.108,35.2h3.241l12.4-11.515Z" transform="translate(3870.903 707.036)" fill="#d1d0cd"/>
    <path id="Path_990" data-name="Path 990" d="M140.122,43.975h3.087L157.673,30.53H154.6Z" transform="translate(3870.229 711.706)" fill="#d1d0cd"/>
    <path id="Path_991" data-name="Path 991" d="M161.123,23.684,148.727,35.2H151.8l12.388-11.515Z" transform="translate(3876.099 707.036)" fill="#d1d0cd"/>
    <path id="Path_992" data-name="Path 992" d="M136.364,43.975h3.069L153.906,30.53h-3.068Z" transform="translate(3867.667 711.706)" fill="#d1d0cd"/>
    <path id="Path_993" data-name="Path 993" d="M157.365,23.684,144.969,35.2h3.068l12.4-11.515Z" transform="translate(3873.536 707.036)" fill="#d1d0cd"/>
    <path id="Path_994" data-name="Path 994" d="M145.189,23.684h-3.07L129.724,35.2H132.8Z" transform="translate(3863.137 707.036)" fill="#d1d0cd"/>
    <path id="Path_995" data-name="Path 995" d="M135.593,30.53,121.119,43.975h3.087L138.67,30.53Z" transform="translate(3857.269 711.706)" fill="#d1d0cd"/>
    <path id="Path_996" data-name="Path 996" d="M138.361,23.684,125.966,35.2h3.07l12.4-11.515Z" transform="translate(3860.574 707.036)" fill="#d1d0cd"/>
    <path id="Path_997" data-name="Path 997" d="M117.361,43.975h3.07L134.9,30.53h-3.07Z" transform="translate(3854.705 711.706)" fill="#d1d0cd"/>
    <path id="Path_998" data-name="Path 998" d="M109.739,43.975h3.251L127.463,30.53h-3.251Z" transform="translate(3849.506 711.706)" fill="#d1d0cd"/>
    <path id="Path_999" data-name="Path 999" d="M130.74,23.684,118.344,35.2h3.251l12.4-11.515Z" transform="translate(3855.375 707.036)" fill="#d1d0cd"/>
    <path id="Path_1000" data-name="Path 1000" d="M120.455,30.53,105.982,43.975h3.087L123.534,30.53Z" transform="translate(3846.944 711.706)" fill="#d1d0cd"/>
    <path id="Path_1001" data-name="Path 1001" d="M130.052,23.684h-3.07L114.586,35.2h3.078Z" transform="translate(3852.813 707.036)" fill="#d1d0cd"/>
    <path id="Path_1002" data-name="Path 1002" d="M134.605,23.684,122.209,35.2h3.07l12.4-11.515Z" transform="translate(3858.012 707.036)" fill="#d1d0cd"/>
    <path id="Path_1003" data-name="Path 1003" d="M113.6,43.975h3.07L131.148,30.53h-3.07Z" transform="translate(3852.143 711.706)" fill="#d1d0cd"/>
    <path id="Path_1004" data-name="Path 1004" d="M143.215,30.53,128.742,43.975h3.087L146.293,30.53Z" transform="translate(3862.468 711.706)" fill="#d1d0cd"/>
    <path id="Path_1005" data-name="Path 1005" d="M152.812,23.684h-3.069L137.346,35.2h3.078Z" transform="translate(3868.337 707.036)" fill="#d1d0cd"/>
    <path id="Path_1006" data-name="Path 1006" d="M145.985,23.684,133.588,35.2h3.078l12.388-11.515Z" transform="translate(3865.773 707.036)" fill="#d1d0cd"/>
    <path id="Path_1007" data-name="Path 1007" d="M124.984,43.975h3.088L142.536,30.53h-3.078Z" transform="translate(3859.905 711.706)" fill="#d1d0cd"/>
    <path id="Path_1008" data-name="Path 1008" d="M123.225,23.684,110.829,35.2h3.07l12.4-11.515Z" transform="translate(3850.25 707.036)" fill="#d1d0cd"/>
    <path id="Path_1009" data-name="Path 1009" d="M102.225,43.975h3.07L119.768,30.53H116.7Z" transform="translate(3844.381 711.706)" fill="#d1d0cd"/>
  </g>
</svg>
