<svg id="Group_3545" data-name="Group 3545" xmlns="http://www.w3.org/2000/svg" width="14.33" height="21.665" viewBox="0 0 14.33 21.665">
  <path id="Path_1045" data-name="Path 1045" d="M415.6,806.554a7.175,7.175,0,0,0-7.166,7.166c0,1.593,1.013,4.187,3.1,7.933,1.48,2.648,2.934,4.858,3,4.952l1.065,1.615,1.066-1.615c.059-.094,1.516-2.3,2.994-4.952,2.091-3.746,3.1-6.34,3.1-7.933a7.172,7.172,0,0,0-7.164-7.166Zm0,10.831a3.714,3.714,0,1,1,3.714-3.712,3.714,3.714,0,0,1-3.714,3.712Zm0,0" transform="translate(-408.43 -806.554)" fill="#666a6e"/>
</svg>
