<svg id="Group_115" data-name="Group 115" xmlns="http://www.w3.org/2000/svg" width="21.922" height="16.635" viewBox="0 0 21.922 16.635">
  <path id="Path_1063" data-name="Path 1063" d="M166.756,778.35a2.4,2.4,0,1,0,2.4,2.4,2.4,2.4,0,0,0-2.4-2.4Zm0,0" transform="translate(-155.795 -771.398)" fill="#f99fa9"/>
  <path id="Path_1064" data-name="Path 1064" d="M178.773,775.8h-.682v-.251a1.818,1.818,0,0,0-1.819-1.819h-4.819a1.819,1.819,0,0,0-1.821,1.819v.251h-9.14a1.82,1.82,0,0,0-1.821,1.819V788.55a1.819,1.819,0,0,0,1.821,1.819h18.282a1.819,1.819,0,0,0,1.819-1.819V777.624a1.82,1.82,0,0,0-1.819-1.819Zm-16.723,4.881a1.471,1.471,0,1,1,1.47-1.473,1.473,1.473,0,0,1-1.47,1.473Zm7.581,7.748a5.346,5.346,0,1,1,5.346-5.348,5.352,5.352,0,0,1-5.346,5.348Zm0,0" transform="translate(-158.671 -773.734)" fill="#f99fa9"/>
</svg>
