<svg xmlns="http://www.w3.org/2000/svg" width="13.347" height="14.299" viewBox="0 0 13.347 14.299">
  <path id="Path_746" data-name="Path 746" d="M411.9,269.828l-4.728-7.7a2.311,2.311,0,0,0-.987-4.119v-2.005h-.95v2.005a2.312,2.312,0,0,0-.991,4.119l-1.983,3.231a6.669,6.669,0,0,1-2.718-3.635h-.989a7.62,7.62,0,0,0,3.213,4.442l-2.251,3.658.811.478,2.251-3.665a7.285,7.285,0,0,0,6.358.153l2.16,3.512Zm-6.19-10.962a1.431,1.431,0,1,1-1.428,1.431,1.429,1.429,0,0,1,1.428-1.431m.246,7.63a6.662,6.662,0,0,1-2.878-.666l2.012-3.273a2.422,2.422,0,0,0,.621.126,2.38,2.38,0,0,0,.619-.126l2.1,3.416a6.58,6.58,0,0,1-2.476.523" transform="translate(-398.55 -256.006)" fill="#f99fa9" fill-rule="evenodd"/>
</svg>
