<svg xmlns="http://www.w3.org/2000/svg" width="20.696" height="18.752" viewBox="0 0 20.696 18.752">
  <path id="Path_4723" data-name="Path 4723" d="M414.451,779.381c.022-.273-.024-.563-.005-.786.133-1.428,3.573.656,5.643-.173.239-.1.34.025.362.269s.05.548.062.69c.037.333.22.336.3.17.126-.273.272-.441.412-.441.289,0,.452.723.362,1.616s-.4,1.615-.693,1.615a.133.133,0,0,0-.14.123,3.761,3.761,0,0,1-.981,1.881c-1.67,1.707-2.928,1.7-4.589,0a3.814,3.814,0,0,1-.981-1.881.128.128,0,0,0-.136-.123c-.294,0-.6-.723-.693-1.615s.072-1.616.362-1.616c.14,0,.286.168.409.441.084.167.267.163.3-.17Zm3.008-5.1c2.814,0,4.483,1.467,4.483,4.178,0,.1,0,.2-.008.3a3.316,3.316,0,0,1,.328,2.035c-.062.629-.293,1.751-.913,2.123a4.28,4.28,0,0,1-1.087,1.924c-1.941,2.047-3.608,2.054-5.554.005a4.3,4.3,0,0,1-1.09-1.929c-.617-.372-.851-1.494-.917-2.123a3.331,3.331,0,0,1,.333-2.035q-.01-.149-.01-.3c0-2.743,1.633-4.178,4.436-4.178Zm-5.152,13.652a20.846,20.846,0,0,1-3.2-6.659c-.53-1.886,1.87-2.607,2.015-2.13l.846,2.537a4.471,4.471,0,0,1-.663.73,8.5,8.5,0,0,0,1.487,3.093,4.483,4.483,0,0,1,.984-.057l1.452,2.246c.283.415-1.775,1.822-2.923.24Zm-5.172,2.863a8.074,8.074,0,0,1,1.07-1.8,5.385,5.385,0,0,1,2.87-1.96c.256.407.525.809.811,1.2a2.2,2.2,0,0,0,2.58.818,2.535,2.535,0,0,0,.949-.553.941.941,0,0,0,.328-.949c-.076-.167.042-.264.214-.178.081.042.163.076.251.111a3.768,3.768,0,0,0,4.55-1.679c1.749,1.347,3.973.616,6,3.191a8.06,8.06,0,0,1,1.07,1.795,25.052,25.052,0,0,1-20.7,0Z" transform="translate(-407.134 -774.284)" fill="#666a6e" fill-rule="evenodd"/>
</svg>
