<svg id="Group_112" data-name="Group 112" xmlns="http://www.w3.org/2000/svg" width="25.818" height="21.212" viewBox="0 0 25.818 21.212">
  <g id="Group_109" data-name="Group 109" transform="translate(0 0)">
    <path id="Path_1046" data-name="Path 1046" d="M224.675,780.033c.066-.086.153-.2.264-.36.261-.387,0-1.3-.05-1.475a.074.074,0,0,0-.076-.074h-.974a.076.076,0,0,0-.076.074c-.054.175-.311,1.088-.049,1.475a.123.123,0,0,1,.013.025c.135.03.271.05.415.071A.912.912,0,0,1,224.675,780.033Z" transform="translate(-217.672 -771.106)" fill="#f99fa9"/>
    <path id="Path_1047" data-name="Path 1047" d="M223.741,780.47c-.052.017-.1.066-.084.087h1.26c.012-.022-.034-.071-.084-.087a.53.53,0,0,1-.383-.284.322.322,0,0,1-.035-.081.894.894,0,0,1-.3.1A.53.53,0,0,1,223.741,780.47Z" transform="translate(-217.633 -769.754)" fill="#f99fa9"/>
    <path id="Path_1048" data-name="Path 1048" d="M222.866,777.951a2.026,2.026,0,1,0-1.514-2.432A2.03,2.03,0,0,0,222.866,777.951Z" transform="translate(-219.24 -773.952)" fill="#f99fa9"/>
    <path id="Path_1049" data-name="Path 1049" d="M221.458,784.523a12.263,12.263,0,0,1,.511,3.49,11.351,11.351,0,0,1-.7,3.948,1.126,1.126,0,0,0,2.111.782,13.605,13.605,0,0,0,.838-4.73,14.135,14.135,0,0,0-.817-4.767,7.921,7.921,0,0,1,0-1.84,5.66,5.66,0,0,1-.972-1.149,6.366,6.366,0,0,1-.875-2.05l0-.01a.9.9,0,0,1,.708-1.062.774.774,0,0,1,.175-.02.9.9,0,0,1,.881.723l0,.01c0,.01.007.022.01.039.01.04.027.1.052.183a4.76,4.76,0,0,0,.256.658c.047.1.1.2.163.315q.043-.217.081-.414c.259-.893-.081-1.966-.848-2.16a2.067,2.067,0,0,0-2.34,1.544,10,10,0,0,0-.51,5A1.7,1.7,0,0,0,221.458,784.523Z" transform="translate(-220.075 -772.265)" fill="#f99fa9"/>
    <path id="Path_1050" data-name="Path 1050" d="M222.541,777.769c-.024-.082-.04-.146-.052-.19l-.01-.044,0-.01h0a.719.719,0,1,0-1.411.279,6.178,6.178,0,0,0,.851,2,5.364,5.364,0,0,0,1.41,1.484,5.035,5.035,0,0,0,2.36.9.747.747,0,0,0,.086,0,.72.72,0,0,0,.089-1.435,3.621,3.621,0,0,1-1.7-.641,4.244,4.244,0,0,1-1.347-1.658A5.734,5.734,0,0,1,222.541,777.769Z" transform="translate(-219.41 -771.912)" fill="#f99fa9"/>
  </g>
  <g id="Group_110" data-name="Group 110" transform="translate(18.026 0)">
    <path id="Path_1051" data-name="Path 1051" d="M231.261,781.13a.714.714,0,0,0-.458.762.724.724,0,0,0,.562.611l-.008.013a.561.561,0,0,1-.385.286c-.05.015-.094.066-.082.087h1.258c.012-.022-.034-.072-.084-.087a.571.571,0,0,1-.385-.286l0-.01a5.15,5.15,0,0,0,2.426-.974,5.056,5.056,0,0,0,1.028-1.066,12.916,12.916,0,0,1,.177,1.717,5.456,5.456,0,0,0,.471-2.131,3.464,3.464,0,0,0-.331-1.579.907.907,0,0,1,.315-1.23.938.938,0,0,1,.463-.128.917.917,0,0,1,.775.439,5.135,5.135,0,0,1,.58,2.5,7.9,7.9,0,0,1-1.517,4.463.9.9,0,0,1-.743.392.879.879,0,0,1-.506-.156h0a14.562,14.562,0,0,0-.375,3.263,13.524,13.524,0,0,0,.841,4.73,1.123,1.123,0,0,0,1.055.733,1.141,1.141,0,0,0,.39-.069,1.123,1.123,0,0,0,.663-1.447,11.347,11.347,0,0,1-.7-3.948,12.169,12.169,0,0,1,.412-3.125c.035-.129.069-.251.1-.365a1.692,1.692,0,0,0,1.275-1.506,9.942,9.942,0,0,0-.511-5,2.064,2.064,0,0,0-2.34-1.544,1.492,1.492,0,0,0-.932,1.514,4.71,4.71,0,0,1-.51,1.3,3.691,3.691,0,0,1-1,1.134,3.542,3.542,0,0,1-1.31.584,4.174,4.174,0,0,0,.256-.352c.261-.382,0-1.292-.052-1.474a.071.071,0,0,0-.072-.071h-.974a.072.072,0,0,0-.074.071c-.056.182-.313,1.092-.052,1.474C231.076,780.9,231.186,781.032,231.261,781.13Z" transform="translate(-230.792 -772.265)" fill="#f99fa9"/>
    <path id="Path_1052" data-name="Path 1052" d="M234.275,777.951a2.026,2.026,0,1,0-2.432-1.514A2.024,2.024,0,0,0,234.275,777.951Z" transform="translate(-230.112 -773.952)" fill="#f99fa9"/>
    <path id="Path_1053" data-name="Path 1053" d="M233.775,784.373a.72.72,0,0,0,.6-.313,7.736,7.736,0,0,0,1.485-4.362,4.972,4.972,0,0,0-.555-2.407.722.722,0,0,0-1.241.737h0v0a3.61,3.61,0,0,1,.355,1.669,6.294,6.294,0,0,1-1.238,3.549.721.721,0,0,0,.193,1A.7.7,0,0,0,233.775,784.373Zm.288-6.338Z" transform="translate(-229.25 -771.912)" fill="#f99fa9"/>
  </g>
  <g id="Group_111" data-name="Group 111" transform="translate(8.182 0.029)">
    <path id="Path_1054" data-name="Path 1054" d="M228.561,778.024A2.028,2.028,0,1,0,226.534,776,2.028,2.028,0,0,0,228.561,778.024Z" transform="translate(-223.851 -773.969)" fill="#f99fa9"/>
    <path id="Path_1055" data-name="Path 1055" d="M224.986,780.105h0v.005h0A2.736,2.736,0,0,0,226,781.664a6.422,6.422,0,0,0,2.309,1.093.7.7,0,0,0,.2.025.721.721,0,0,0,.2-1.415,5,5,0,0,1-1.793-.826,1.257,1.257,0,0,1-.5-.725v0a1.027,1.027,0,0,1,0-.405,1.921,1.921,0,0,1,.39-.779v1.561a1.47,1.47,0,0,0,.225.214,3.862,3.862,0,0,0,1.112.592c-.252-.387,0-1.294.055-1.467a.074.074,0,0,1,.076-.072h.974a.071.071,0,0,1,.074.072c.056.173.315,1.088.052,1.474-.118.173-.209.289-.276.377a.829.829,0,0,1,.2.242.885.885,0,0,1,.082.685.9.9,0,0,1-.461.557l0,0a.534.534,0,0,0,.384.286c.05.015.1.066.084.089h-1.26c-.01-.023.032-.074.082-.089a.531.531,0,0,0,.318-.19H228.5a.846.846,0,0,1-.244-.034,8.324,8.324,0,0,1-1.463-.55v9.879a1.114,1.114,0,1,0,2.227,0v-8.129h.5l1.376,8.311a1.113,1.113,0,1,0,2.2-.363l-1.431-8.643h0v-4.4c.034.069.067.145.1.229a13.934,13.934,0,0,1,.742,5.221.721.721,0,1,0,1.442,0c0-3.542-.574-5.462-1.25-6.565a3.238,3.238,0,0,0-1.021-1.082,1.956,1.956,0,0,0-.436-.2.715.715,0,0,0-.274-.059h-3.479a.681.681,0,0,0-.168.024,1.9,1.9,0,0,0-.713.281,3.755,3.755,0,0,0-1.107,1.07,3.056,3.056,0,0,0-.557,1.511c0,.054-.007.108-.007.167A2.336,2.336,0,0,0,224.986,780.105Z" transform="translate(-224.939 -772.191)" fill="#f99fa9"/>
  </g>
</svg>
