<svg xmlns="http://www.w3.org/2000/svg" width="12.802" height="12" viewBox="0 0 12.802 12">
  <path id="Path_843" data-name="Path 843" d="M29.615,253.572h-2.4v-1.2a.4.4,0,0,0-.4-.4h-4a.4.4,0,0,0-.4.4v1.2h-2.4a1.6,1.6,0,0,0-1.6,1.6v7.2a1.6,1.6,0,0,0,1.6,1.6h9.6a1.6,1.6,0,0,0,1.6-1.6v-7.2a1.6,1.6,0,0,0-1.6-1.6m-6.4-.4a.4.4,0,0,1,.4-.4h2.4a.4.4,0,0,1,.4.4v.4h-3.2Zm-2.4,10h-.8a.8.8,0,0,1-.8-.8v-7.2a.8.8,0,0,1,.8-.8h.8Zm.8-8.8h6.4v8.8h-6.4Zm8.8,8a.8.8,0,0,1-.8.8h-.8v-8.8h.8a.8.8,0,0,1,.8.8Z" transform="translate(-18.414 -251.972)" fill="#f99fa9" fill-rule="evenodd"/>
</svg>
