<svg xmlns="http://www.w3.org/2000/svg" width="23.148" height="29.685" viewBox="0 0 23.148 29.685">
  <path id="Path_1057" data-name="Path 1057" d="M104.277,772.482l-.093-.267c-.151-.325.18-.325.18-.325-.059-.594.392-.474.392-.474.121-.357.484-.03.484-.03.451-.267.3.681.3.681-.029.713.212.565.212.565.037-.511.355-.311.355-.311.363,0,.158.725.158.725.331-.029,0,.713,0,.713.422.118-.362.653-.362.653-.331.385-.061,2.076-.061,2.076a7.175,7.175,0,0,1,.121,2.464,8.9,8.9,0,0,1,.632.89c-.029-.267.151-.326.151-.326-.029-.15.242-.3.242-.3-.212-.207-.032-.3-.032-.3a2.869,2.869,0,0,1,.663-.03c-.029-.326.032-.355.032-.355a.924.924,0,0,1,.572-.387c-.21-.294.452-.533.452-.533.183-.3.723.118.723.118.3-.326.424.062.424.062.212-.269.483.207.483.207.331-.207.421.3.421.3.392.03,0,.414,0,.414.424-.029.274.565.274.565.511-.121.511.414.511.414.331.061-.3.653-.3.653.15.269-.21.774-.21.774.059.148-.695.385-.695.385,0,.357-.454.237-.454.237-.029.266-.572.148-.572.148-.572.059-.333.8-.333.8l.182.236c.363,1.04-.782,3.176-.782,3.176a1.835,1.835,0,0,0,.421,2.076,2.936,2.936,0,0,1,.784,2.4,8.645,8.645,0,0,0,2.172,3.354,3.973,3.973,0,0,1,.6.5c.422.207,3.139,2.138,3.139,2.138.6.444.39.5.39.5l.513.416a8.244,8.244,0,0,0,2.232,1.84c.542.712-.363.95-.363.95a3.878,3.878,0,0,0-.934.473c-.3.267-.484.119-.484.119-.21.089-.271-.059-.271-.059-.269.207-.36,0-.36,0-.182.178-.3.032-.3.032-.091.147-.333.057-.333.057-.481-.266.333-.5.333-.5a1.747,1.747,0,0,0,1.026-.772c-.061-.681-1.963-1.719-1.963-1.719-2.018,1.543-2.049,1.273-2.049,1.273-1.447-.594-4.283-3.62-4.283-3.62-1.479-1.867-3.288-3.738-3.288-3.738-.119.138-3.218,2.572-3.218,2.572a13.916,13.916,0,0,1-1.386,1.838l-.18-.1c-.121.14-.624,1.028-.624,1.028-.384.516-.061,1.563-.061,1.563.161.14,0,.476,0,.476-.442.612-1.548.118-1.548.118a3.566,3.566,0,0,0-1.369.061c-1.105.278-1.265-.158-1.265-.158-.242-.318.422-.219.422-.219-.061-.2.281-.118.281-.118a1.893,1.893,0,0,0,.7-.1,6.312,6.312,0,0,1,1.066-.671c.723-.654.844-2.791.844-2.791-.6-.2-.434-.261-.966-.592A21.528,21.528,0,0,1,99,792.3c.6-1.07,5.549-3.621,5.549-3.621a3.811,3.811,0,0,0,.121-3.146,2.057,2.057,0,0,1,.725-2.254,6.375,6.375,0,0,0,.723-.772,23.454,23.454,0,0,1-1.176-3.085l-.214-.861a.708.708,0,0,1-.18-.535,23.819,23.819,0,0,0-.03-3.855,5.429,5.429,0,0,1-.21-1.423A1.107,1.107,0,0,0,104.277,772.482Z" transform="translate(-95.626 -771.249)" fill="#f99fa9"/>
</svg>
